<svg id="圖層_1" data-name="圖層 1" xmlns="http://www.w3.org/2000/svg" viewBox="0 0 900 148"><defs><style>.cls-1{fill:#b2b2b2;}</style></defs><path class="cls-1" d="M199.16,137.72H555.94s-49.49-36.23-77.08-18.12c0,0,8.43-38.74-22.85-50.12s-53.62,17.06-53.62,17.06-7-58.76-59.17-59.71-37.44,67.29-37.44,67.29-10.22-22.74-32.36-19.91-9.81,41.71-9.81,41.71S239.91,85.6,199.16,137.72Z" transform="translate(0 -26.82)"/><path class="cls-1" d="M900,54.32v107.3H675.94s48.76-35.72,75.94-17.85c0,0-8.32-38.17,22.5-49.39s52.83,16.83,52.83,16.83,6.95-57.91,58.29-58.83A44.47,44.47,0,0,1,900,54.32Z" transform="translate(0 -26.82)"/><path class="cls-1" d="M176.18,174.83H0V131.2a24.61,24.61,0,0,1,4.31-2c20.93-7.6,35.88,11.43,35.88,11.43s4.7-39.33,39.59-40c34.11-.63,25.47,43,25.08,45,.48-1,7.34-15.08,21.62-13.24,14.81,1.9,6.56,27.89,6.56,27.89S148.91,139.94,176.18,174.83Z" transform="translate(0 -26.82)"/></svg>