<svg id="圖層_1" data-name="圖層 1" xmlns="http://www.w3.org/2000/svg" viewBox="0 0 900 224.18"><defs><style>.cls-1{fill:#b2b2b2;}.cls-2{fill:#fff;}</style></defs><path class="cls-1" d="M199.16,138.81H555.94s-49.49-36.24-77.08-18.12c0,0,8.43-38.75-22.85-50.12s-53.62,17.06-53.62,17.06-7-58.77-59.17-59.71-37.44,67.29-37.44,67.29S295.56,72.46,273.42,75.3s-9.81,41.7-9.81,41.7S239.91,86.68,199.16,138.81Z" transform="translate(0 -27.91)"/><path class="cls-1" d="M900,55.41V162.7H675.94S724.7,127,751.88,144.86c0,0-8.32-38.18,22.5-49.4s52.83,16.83,52.83,16.83,6.95-57.9,58.29-58.83A44.21,44.21,0,0,1,900,55.41Z" transform="translate(0 -27.91)"/><path class="cls-1" d="M176.18,175.91H0V132.28a25.3,25.3,0,0,1,4.31-2c20.93-7.6,35.88,11.42,35.88,11.42s4.7-39.32,39.59-40c34.11-.62,25.47,43,25.08,45,.48-1,7.34-15.09,21.62-13.25,14.81,1.91,6.56,27.9,6.56,27.9S148.91,141,176.18,175.91Z" transform="translate(0 -27.91)"/><path class="cls-2" d="M819,235.92c.71-1.68,6.1-5.42,6.1-5.42s1.08,6.46.37,8.15a3.52,3.52,0,0,1-6.47-2.73Z" transform="translate(0 -27.91)"/><path class="cls-2" d="M862.18,190.49c.71-1.68,6.09-5.42,6.09-5.42s1.09,6.46.38,8.15a3.52,3.52,0,0,1-6.47-2.73Z" transform="translate(0 -27.91)"/><path class="cls-2" d="M795.1,211c.71-1.69,6.1-5.43,6.1-5.43s1.08,6.47.37,8.15A3.52,3.52,0,0,1,795.1,211Z" transform="translate(0 -27.91)"/><path class="cls-2" d="M774.83,180.42c.71-1.68,6.09-5.42,6.09-5.42s1.09,6.46.38,8.15a3.52,3.52,0,0,1-6.47-2.73Z" transform="translate(0 -27.91)"/><path class="cls-2" d="M446.77,154.27c.71-1.69,6.09-5.43,6.09-5.43s1.09,6.47.38,8.15a3.52,3.52,0,0,1-6.47-2.72Z" transform="translate(0 -27.91)"/><path class="cls-2" d="M759.82,226.52c.71-1.68,6.1-5.42,6.1-5.42s1.08,6.46.37,8.15a3.52,3.52,0,0,1-6.47-2.73Z" transform="translate(0 -27.91)"/><path class="cls-2" d="M849.42,213.93c.71-1.68,6.09-5.42,6.09-5.42s1.08,6.47.37,8.15a3.51,3.51,0,0,1-6.46-2.73Z" transform="translate(0 -27.91)"/><path class="cls-2" d="M305.37,170.16c.5-1.19,4.29-3.83,4.29-3.83s.77,4.56.27,5.75a2.48,2.48,0,0,1-4.56-1.92Z" transform="translate(0 -27.91)"/><path class="cls-2" d="M303.18,152.9c.5-1.19,4.3-3.82,4.3-3.82s.76,4.55.26,5.74a2.48,2.48,0,0,1-4.56-1.92Z" transform="translate(0 -27.91)"/><path class="cls-2" d="M324.44,156.69c.93-2.21,8-7.09,8-7.09s1.42,8.44.49,10.65a4.59,4.59,0,0,1-8.45-3.56Z" transform="translate(0 -27.91)"/><path class="cls-2" d="M303.75,223.86c.5-1.19,4.29-3.83,4.29-3.83s.76,4.56.26,5.75a2.47,2.47,0,0,1-4.55-1.92Z" transform="translate(0 -27.91)"/><path class="cls-2" d="M326.39,199.68c.5-1.19,4.29-3.82,4.29-3.82s.76,4.55.26,5.74a2.47,2.47,0,0,1-4.55-1.92Z" transform="translate(0 -27.91)"/><path class="cls-2" d="M281.64,206c.87-2,7.39-6.58,7.39-6.58s1.31,7.84.45,9.88a4.26,4.26,0,0,1-7.84-3.3Z" transform="translate(0 -27.91)"/><path class="cls-2" d="M533.14,226.42c.86-2,7.39-6.57,7.39-6.57s1.31,7.83.45,9.88a4.26,4.26,0,0,1-7.84-3.31Z" transform="translate(0 -27.91)"/><path class="cls-2" d="M483.07,184.29c.86-2,7.38-6.57,7.38-6.57s1.32,7.83.46,9.87a4.26,4.26,0,0,1-7.84-3.3Z" transform="translate(0 -27.91)"/><path class="cls-2" d="M489.14,208.16c.86-2,7.39-6.57,7.39-6.57s1.31,7.83.45,9.87a4.26,4.26,0,0,1-7.84-3.3Z" transform="translate(0 -27.91)"/><path class="cls-2" d="M692.38,227.25c.82-1.93,7-6.21,7-6.21s1.25,7.4.43,9.34a4,4,0,0,1-7.41-3.13Z" transform="translate(0 -27.91)"/><path class="cls-2" d="M720,183.14c.82-1.93,7-6.21,7-6.21s1.24,7.4.42,9.33a4,4,0,0,1-7.41-3.12Z" transform="translate(0 -27.91)"/><path class="cls-2" d="M725.24,207.94c.81-1.93,7-6.21,7-6.21s1.24,7.4.43,9.33a4,4,0,0,1-7.41-3.12Z" transform="translate(0 -27.91)"/><path class="cls-2" d="M402.7,205.06c.7-1.67,6.2-5.32,6.2-5.32s1.24,6.49.54,8.16a3.68,3.68,0,0,1-6.74-2.84Z" transform="translate(0 -27.91)"/><path class="cls-2" d="M402,153.16c.71-1.67,6.21-5.31,6.21-5.31s1.23,6.48.53,8.15a3.68,3.68,0,0,1-6.74-2.84Z" transform="translate(0 -27.91)"/><path class="cls-2" d="M495.22,157.05c.7-1.68,6.2-5.32,6.2-5.32s1.24,6.48.53,8.16a3.67,3.67,0,0,1-6.73-2.84Z" transform="translate(0 -27.91)"/><path class="cls-2" d="M363.4,247.32c.71-1.67,6.21-5.31,6.21-5.31s1.24,6.48.53,8.15a3.68,3.68,0,0,1-6.74-2.84Z" transform="translate(0 -27.91)"/><path class="cls-2" d="M362.75,195.43c.7-1.68,6.2-5.32,6.2-5.32s1.24,6.48.54,8.15a3.68,3.68,0,0,1-6.74-2.83Z" transform="translate(0 -27.91)"/><path class="cls-2" d="M455.92,199.31c.71-1.67,6.21-5.31,6.21-5.31s1.23,6.48.53,8.15a3.68,3.68,0,0,1-6.74-2.84Z" transform="translate(0 -27.91)"/><path class="cls-2" d="M236.52,195.54c.73-1.73,6.26-5.57,6.26-5.57s1.12,6.64.39,8.37a3.61,3.61,0,0,1-6.65-2.8Z" transform="translate(0 -27.91)"/><path class="cls-2" d="M228.43,152.14c.73-1.73,6.27-5.58,6.27-5.58s1.11,6.65.38,8.38a3.61,3.61,0,0,1-6.65-2.8Z" transform="translate(0 -27.91)"/><path class="cls-2" d="M242.37,168.75c.73-1.74,6.27-5.58,6.27-5.58s1.11,6.65.38,8.38a3.61,3.61,0,0,1-6.65-2.8Z" transform="translate(0 -27.91)"/><path class="cls-2" d="M27.67,231.89c.73-1.73,6.26-5.57,6.26-5.57s1.11,6.64.38,8.38a3.61,3.61,0,0,1-6.64-2.81Z" transform="translate(0 -27.91)"/><path class="cls-2" d="M19.58,188.49c.73-1.73,6.26-5.57,6.26-5.57s1.12,6.64.39,8.37a3.61,3.61,0,0,1-6.65-2.8Z" transform="translate(0 -27.91)"/><path class="cls-2" d="M33.52,205.1c.73-1.73,6.26-5.58,6.26-5.58s1.12,6.65.39,8.38a3.61,3.61,0,0,1-6.65-2.8Z" transform="translate(0 -27.91)"/><path class="cls-2" d="M78.89,232.58c.7-1.65,6-5.31,6-5.31s1.06,6.32.37,8a3.44,3.44,0,0,1-6.33-2.66Z" transform="translate(0 -27.91)"/><path class="cls-2" d="M60.09,193.49c.82-2,7.08-6.3,7.08-6.3s1.26,7.51.44,9.47a4.09,4.09,0,0,1-7.52-3.17Z" transform="translate(0 -27.91)"/><path class="cls-2" d="M91.3,188.47c.69-1.64,6-5.3,6-5.3s1.06,6.32.37,8a3.44,3.44,0,0,1-6.32-2.67Z" transform="translate(0 -27.91)"/></svg>