<svg id="圖層_1" data-name="圖層 1" xmlns="http://www.w3.org/2000/svg" xmlns:xlink="http://www.w3.org/1999/xlink" viewBox="0 0 900 154.88"><defs><style>.cls-1{fill:url(#未命名漸層_2);}.cls-2{fill:#fff;}</style><radialGradient id="未命名漸層_2" cx="1121.16" cy="339.26" fx="1167.8559427978914" fy="332.2813416348194" r="47.21" gradientTransform="matrix(-0.67, 0.74, 0.74, 0.67, 866.6, -1001.15)" gradientUnits="userSpaceOnUse"><stop offset="0" stop-color="#f1ce93"/><stop offset="1" stop-color="#e99a52"/></radialGradient></defs><circle class="cls-1" cx="370.08" cy="59.78" r="47.21" transform="translate(66.12 266.63) rotate(-45)"/><path class="cls-2" d="M199.16,120.72H446.57s-34.32-25.12-53.45-12.56c0,0,5.84-26.87-15.85-34.76s-37.19,11.83-37.19,11.83-4.87-40.75-41-41.4-26,46.66-26,46.66S266,74.72,250.66,76.68s-6.81,28.92-6.81,28.92S227.42,84.58,199.16,120.72Z" transform="translate(0 -12.56)"/><path class="cls-2" d="M900,83.16v48.55H798.61s22.07-16.17,34.37-8.08c0,0-3.77-17.27,10.18-22.35s23.9,7.62,23.9,7.62,3.15-26.21,26.38-26.62A19.7,19.7,0,0,1,900,83.16Z" transform="translate(0 -12.56)"/><path class="cls-2" d="M106.89,167.44H0V141a14.85,14.85,0,0,1,2.61-1.24c12.7-4.61,21.77,6.94,21.77,6.94s2.85-23.86,24-24.25C69.1,122,63.86,148.5,63.62,149.7c.29-.61,4.45-9.16,13.12-8,9,1.15,4,16.93,4,16.93S90.34,146.27,106.89,167.44Z" transform="translate(0 -12.56)"/></svg>