<svg xmlns="http://www.w3.org/2000/svg" xmlns:xlink="http://www.w3.org/1999/xlink" viewBox="0 0 370 220"><defs><style>.cls-1{fill:#40190c;}.cls-2{fill:#d8aa3a;}.cls-3{opacity:0.5;fill:url(#linear-gradient);}.cls-4{fill:#50222e;}.cls-5{fill:#3c1a24;}.cls-6{fill:#cda54a;}.cls-7{fill:#b1873e;}.cls-8{fill:#fff;stroke:#221f20;stroke-miterlimit:10;}</style><linearGradient id="linear-gradient" x1="191.06" y1="16.51" x2="191.06" y2="152.87" gradientUnits="userSpaceOnUse"><stop offset="0" stop-color="#fff"/><stop offset="1" stop-color="#fff" stop-opacity="0"/></linearGradient></defs><g id="圖層_2" data-name="圖層 2"><rect class="cls-1" x="106.27" y="124.2" width="7.64" height="27.27"/><rect class="cls-1" x="246.16" y="124.2" width="7.64" height="27.27"/><rect class="cls-1" x="81.88" y="6.28" width="196.31" height="122.33"/><rect class="cls-2" x="86.8" y="10.83" width="186.46" height="113.21"/><polygon class="cls-3" points="87.21 10.81 -48.3 175.52 -48.3 282.37 430.41 282.37 430.41 162.06 273.67 10.81 87.21 10.81"/><path class="cls-4" d="M102.08,148.37,53.46,192.84a2,2,0,0,0,2.66,2.91l48.62-44.48a2,2,0,1,0-2.66-2.9"/><path class="cls-5" d="M102.08,148.37,53.46,192.84a2,2,0,0,0,2.66,2.91l48.62-44.48a2,2,0,1,0-2.66-2.9Z"/><path class="cls-5" d="M53.46,151.27l48.62,44.48a2,2,0,1,0,2.66-2.91L56.12,148.37a2,2,0,1,0-2.66,2.9Z"/><path class="cls-6" d="M124.87,174.67H78.15a21.58,21.58,0,0,1-20.31-14.26l-11.16-30.9-9-24.93H84.41l17,47.14,3.13,8.69a21.64,21.64,0,0,0,20.31,14.26Z"/><path class="cls-7" d="M89,151.74c-6.8-3.26-6.92,8.27,2.44,10.71S95.48,154.86,89,151.74Z"/><path class="cls-7" d="M124.87,174.67H78.15a21.58,21.58,0,0,1-20.31-14.26l-11.16-30.9a19.19,19.19,0,0,0,2.7,2.05c3,1.89,6.43,2.93,9.6,4.51s6.23,3.92,7.37,7.27.83,7.78,4.06,8.89c1.85.64,4.5-.08,5.36,1.68a4.51,4.51,0,0,1,.31,1.42A13.18,13.18,0,0,0,79.31,162c6.21,7.35,16.84,9.56,26.38,8.3a50.64,50.64,0,0,0,5.06-.94A21.55,21.55,0,0,0,124.87,174.67Z"/><path class="cls-4" d="M148.32,148.37,99.7,192.84a2,2,0,1,0,2.66,2.91L151,151.27a2,2,0,1,0-2.66-2.9"/><path class="cls-4" d="M148.32,148.37,99.7,192.84a2,2,0,1,0,2.66,2.91L151,151.27a2,2,0,1,0-2.66-2.9Z"/><path class="cls-4" d="M99.7,151.27l48.62,44.48a2,2,0,0,0,2.66-2.91l-48.62-44.47a2,2,0,1,0-2.66,2.9Z"/><path class="cls-8" d="M269.44,152.56l44.36,40.58a1.79,1.79,0,1,1-2.42,2.65L267,155.22a1.8,1.8,0,0,1-.11-2.54,1.78,1.78,0,0,1,2.53-.12"/><path class="cls-5" d="M269.44,152.56l44.36,40.58a1.79,1.79,0,1,1-2.42,2.65L267,155.22a1.8,1.8,0,0,1-.11-2.54A1.78,1.78,0,0,1,269.44,152.56Z"/><path class="cls-5" d="M313.8,155.22l-44.36,40.57a1.79,1.79,0,0,1-2.42-2.65l44.36-40.58a1.8,1.8,0,1,1,2.42,2.66Z"/><path class="cls-6" d="M328.2,112.62l-9.1,25.19-9.29,25.74a19.71,19.71,0,0,1-18.53,13H248.65a19.7,19.7,0,0,0,18.53-13l2.86-7.92,15.53-43Z"/><path class="cls-7" d="M319.1,137.81l-9.29,25.74a19.71,19.71,0,0,1-18.53,13H248.65a19.69,19.69,0,0,0,13.85-5.69,20.53,20.53,0,0,0,5.77,2.06c4.6.65,9.25-2.17,11.62-6.17,1.37-2.31,2.64-5.39,5.33-5.55,2.24-.14,4,2,6.23,2.35a5.37,5.37,0,0,0,5.27-3.05,12.32,12.32,0,0,0,1-6.34c-.07-1.53-.21-3.17.58-4.48,1-1.62,3-2.18,4.79-2.73A42.27,42.27,0,0,0,319.1,137.81Z"/><path class="cls-8" d="M227.26,152.56l44.36,40.58a1.8,1.8,0,0,1-2.43,2.65l-44.36-40.57a1.8,1.8,0,0,1,2.43-2.66"/><path class="cls-4" d="M227.26,152.56l44.36,40.58a1.8,1.8,0,0,1-2.43,2.65l-44.36-40.57a1.8,1.8,0,0,1,2.43-2.66Z"/><path class="cls-4" d="M271.62,155.22l-44.36,40.57a1.8,1.8,0,0,1-2.43-2.65l44.36-40.58a1.8,1.8,0,0,1,2.43,2.66Z"/></g></svg>