<?xml version="1.0" encoding="utf-8"?>
<!-- Generator: Adobe Illustrator 25.2.1, SVG Export Plug-In . SVG Version: 6.00 Build 0)  -->
<svg version="1.1" id="圖層_1" xmlns="http://www.w3.org/2000/svg" xmlns:xlink="http://www.w3.org/1999/xlink" x="0px" y="0px"
	 viewBox="0 0 139.6 161.4" style="enable-background:new 0 0 139.6 161.4;" xml:space="preserve">
<style type="text/css">
	.st0{fill:#2D2D2D;}
	.st1{fill:#315461;}
	.st2{fill:#D1D3D4;}
	.st3{fill:#3D6D79;}
	.st4{fill:#98D4DF;}
	.st5{fill:#88C9D0;}
	.st6{fill:#734C29;}
	.st7{fill:#A57A4F;}
	.st8{fill:#895D3C;}
	.st9{fill:#F1AB43;}
	.st10{fill:#ED9026;}
</style>
<g>
	<g id="圖層_1_1_">
		<rect x="12" class="st0" width="5.6" height="149.49"/>
		<rect x="122" class="st0" width="5.6" height="149.49"/>
		<rect y="10" class="st0" width="139.6" height="2.47"/>
		<path class="st1" d="M97.6,42.1c0,0-0.3,17.3-11.8,26.1c-3.9,3-9.2,5.1-16.2,5.1c-27.6,0-28-31.2-28-31.2L97.6,42.1z"/>
		<path class="st2" d="M85.8,68.2c-3.9,3-9.2,5.1-16.2,5.1c-27.6,0-28-31.2-28-31.2h6.8l1.2,4.4C49.6,46.5,54.5,75.5,85.8,68.2z"/>
		<path class="st3" d="M97.6,42.1c0,1-1.4,2-3.8,2.9c-4.8,1.8-13.9,2.9-24.2,2.9S50.2,46.8,45.4,45c-2.4-0.9-3.8-1.9-3.8-2.9
			c0-3.3,12.6-5.9,28-5.9S97.6,38.8,97.6,42.1z"/>
		<path class="st4" d="M93.8,45c-1.86,0.63-3.77,1.13-5.7,1.5c-6.12,1-12.3,1.46-18.5,1.4c-6.2,0.06-12.38-0.4-18.5-1.4
			c-1.93-0.37-3.84-0.87-5.7-1.5c4.8-1.8,13.8-2.9,24.2-2.9S89,43.2,93.8,45z"/>
		<path class="st5" d="M88.1,46.5c-6.12,1-12.3,1.46-18.5,1.4c-6.2,0.06-12.38-0.4-18.5-1.4c6.11-1.03,12.3-1.54,18.5-1.5
			C75.8,44.96,81.99,45.47,88.1,46.5z"/>
		<path class="st2" d="M59.1,12.5c-4,7.1-5,18.4-5.1,24.6h0.5c0.3,0,1-0.2,0.1,0h0.8c0.1-6.7,1.4-18,5.3-24.5L59.1,12.5z"/>
		<path class="st2" d="M72.2,7.1c-3.5-1.4-6.6-1.2-9.2,0.7c-0.84,0.65-1.61,1.39-2.3,2.2h2c0.32-0.38,0.69-0.72,1.1-1
			c2.3-1.6,4.8-1.8,7.9-0.6c15.1,6.1,12.5,46.6,12.5,47h1.4C85.7,53.8,88.3,13.6,72.2,7.1z"/>
		<path class="st0" d="M87.1,55.4c0.05,1.27-0.93,2.34-2.2,2.4c-1.27,0.05-2.34-0.93-2.4-2.2c-0.05-1.27,0.93-2.34,2.2-2.4
			c0.07,0,0.13,0,0.2,0C86.12,53.2,87.1,54.18,87.1,55.4z"/>
		<polygon class="st6" points="68.1,135.2 37.2,136.2 38.1,146 68.6,140.3 		"/>
		<path class="st7" d="M40,140.9c0.3,2.7-0.6,5-1.9,5.1s-2.5-2-2.7-4.7s0.6-5,1.9-5.1S39.8,138.2,40,140.9z"/>
		<polygon class="st6" points="73.3,135.2 104.2,136.2 103.3,146 72.8,140.3 		"/>
		<path class="st7" d="M101.4,140.9c-0.2,2.7,0.7,5,2,5.1s2.5-2,2.7-4.7s-0.6-5-1.9-5.1S101.7,138.2,101.4,140.9z"/>
		<polygon class="st8" points="73.9,136.1 42.8,147 45.6,158.5 75.2,141.1 		"/>
		<path class="st7" d="M46.8,152.2c0.7,3.2,0,6.1-1.6,6.4s-3.3-2-3.9-5.3s0-6,1.6-6.4S46.2,149,46.8,152.2z"/>
		<polygon class="st8" points="67.5,136.1 98.6,147 95.8,158.5 66.2,141.1 		"/>
		<path class="st7" d="M94.6,152.2c-0.6,3.2,0.1,6.1,1.6,6.4s3.3-2,4-5.3s-0.1-6-1.6-6.4S95.3,149,94.6,152.2z"/>
		<path class="st9" d="M78.4,138.9h-14c0,0-24.9-6.5-6.3-41.5c0.39,1.87,1.33,3.57,2.7,4.9c1.45,1.51,2.67,3.23,3.6,5.1
			c0,0,1.4-2.8-0.9-11.7s6.1-21,6.1-21c0.91,7.57,3.96,14.71,8.8,20.6C86.6,105.5,100.4,122.5,78.4,138.9z"/>
		<path class="st10" d="M75.1,138.9h-9.2c0,0-12.7-7.7-6.2-24.8c0,0,1.5,10,8.9,8.8s4.4-15.2,2.5-18.7s-1.3-9.3-1.3-9.3
			c0.99,3.97,2.87,7.66,5.5,10.8C79.5,110.6,89,129.2,75.1,138.9z"/>
	</g>
</g>
</svg>
