<?xml version="1.0" encoding="utf-8"?>
<!-- Generator: Adobe Illustrator 25.2.1, SVG Export Plug-In . SVG Version: 6.00 Build 0)  -->
<svg version="1.1" id="圖層_1" xmlns="http://www.w3.org/2000/svg" xmlns:xlink="http://www.w3.org/1999/xlink" x="0px" y="0px"
	 viewBox="0 0 45.69 115.81" style="enable-background:new 0 0 45.69 115.81;" xml:space="preserve">
<style type="text/css">
	.st0{fill:#7A909A;}
	.st1{fill:#5A7680;}
	.st2{fill:#003743;}
	.st3{fill:#003A47;}
	.st4{fill:#F2D885;}
	.st5{fill:#DFBC61;}
	.st6{fill:#002933;}
	.st7{fill:#164E5E;}
	.st8{fill:#26586C;}
	.st9{fill:#002D36;}
	.st10{fill:#FAEABF;}
	.st11{opacity:0.4;fill:#002D36;enable-background:new    ;}
</style>
<path class="st0" d="M37.67,45.67c-0.25,0-0.45-0.2-0.45-0.45l0,0l0,0V16.99C37.01,9.21,30.54,3.07,22.76,3.28
	C15.27,3.48,9.25,9.5,9.05,16.99v28.25c0.04,0.25-0.12,0.48-0.37,0.52c0,0-0.01,0-0.01,0c-0.24,0.03-0.47-0.14-0.51-0.38V16.99
	c0-8.28,6.72-15,15-15c8.28,0,14.99,6.71,15,15v28.25c-0.01,0.25-0.21,0.45-0.46,0.44c0,0,0,0,0,0L37.67,45.67z"/>
<path class="st1" d="M23.13,2.5C15.11,2.52,8.61,9.02,8.6,17.04v28.15c0,0.18,0.11,0.33,0.27,0.4c0.12-0.08,0.18-0.21,0.18-0.35
	V16.99C9.26,9.21,15.73,3.07,23.51,3.28C31,3.48,37.02,9.5,37.22,16.99v28.25c0,0.14,0.07,0.27,0.18,0.35
	c0.17-0.06,0.28-0.22,0.27-0.4V17.04C37.66,9.01,31.16,2.51,23.13,2.5z"/>
<rect x="21.35" y="33.83" class="st2" width="2.77" height="2.18"/>
<polygon class="st3" points="34.28,109.56 11.46,109.56 14.11,104.64 31.63,104.64 "/>
<path class="st3" d="M39.81,97.06h-8.85v-2.84h7c4.21-10.61,5.12-22.23,2.63-33.37c-1.04-4.86-2.7-9.56-4.94-14l-12.74,0.06v-2.83
	l14.3-0.06l0.41,0.7c2.63,4.84,4.54,10.03,5.67,15.42c1.2,5.37,1.67,10.88,1.4,16.37c-0.34,6.77-1.85,13.43-4.48,19.68L39.81,97.06z
	"/>
<path class="st3" d="M14.8,97.06H5.95l-0.37-0.87c-2.63-6.25-4.15-12.91-4.51-19.68c-0.26-5.49,0.21-11,1.4-16.37
	c1.12-5.38,3.02-10.58,5.63-15.42l0.41-0.7l14.39,0.06v2.84l-12.69-0.06c-2.26,4.43-3.94,9.14-5,14C2.72,72,3.63,83.62,7.84,94.23h7
	L14.8,97.06z"/>
<path class="st4" d="M33.67,60.17H11.12c-4.72,16.68,0,32.18,0,32.18h22.55C33.67,92.35,38.39,76.85,33.67,60.17z"/>
<path class="st5" d="M22.43,60.17H11.12c-0.2,0.73-0.39,1.45-0.56,2.17c5.86,1.47,21.41,7.55,17.78,30h5.33c0,0,4.72-15.5,0-32.18
	L22.43,60.17z"/>
<rect x="16.97" y="35.95" class="st6" width="10.93" height="1.64"/>
<path class="st3" d="M30.48,42.17c0.04,1.8-1.39,3.29-3.19,3.33c0,0,0,0,0,0h-9.87c-1.81-0.03-3.24-1.52-3.21-3.33c0,0,0,0,0,0
	v-1.78c-0.02-1.81,1.42-3.3,3.23-3.33h9.85c1.81,0.03,3.24,1.52,3.21,3.33c0,0,0,0,0,0l0,0L30.48,42.17z"/>
<polygon class="st7" points="30.95,42.49 13.72,42.49 12.69,48.4 31.99,48.4 "/>
<polygon class="st7" points="31.55,53.77 22.4,53.77 13.25,53.77 9.83,60.17 22.4,60.17 34.97,60.17 "/>
<path class="st8" d="M9.47,59.28h25.86c0.19,0,0.35,0.16,0.35,0.35v1.11c0,0.19-0.16,0.35-0.35,0.35H9.47
	c-0.19,0-0.35-0.16-0.35-0.35v-1.11C9.12,59.44,9.28,59.28,9.47,59.28z"/>
<rect x="13.13" y="48.46" class="st3" width="18.41" height="5.31"/>
<rect x="13.13" y="48.46" class="st9" width="18.41" height="1.77"/>
<path class="st8" d="M12.42,47.99h19.84c0.19,0,0.35,0.16,0.35,0.35v0.13c0,0.19-0.16,0.35-0.35,0.35H12.42
	c-0.19,0-0.35-0.16-0.35-0.35v-0.13C12.07,48.15,12.23,47.99,12.42,47.99z"/>
<polygon class="st7" points="29.07,36.27 15.61,36.27 17.32,35.38 27.36,35.38 "/>
<path class="st8" d="M29.21,36.39c0,0.07-0.06,0.13-0.13,0.13l0,0H15.54c-0.07,0.01-0.13-0.05-0.14-0.12c0,0,0,0,0,0l0,0
	c0-0.08,0.06-0.14,0.14-0.14h13.51c0.07,0,0.13,0.06,0.13,0.13l0,0l0,0L29.21,36.39z"/>
<path class="st10" d="M22.13,92.39c-10.78-5-12.45-17.95-12.51-25c-1.15,8.35-0.64,16.85,1.5,25H22.13z"/>
<polygon class="st7" points="14.02,98.86 23.17,98.86 32.31,98.86 35.74,92.44 23.17,92.44 10.6,92.44 "/>
<polygon class="st11" points="34.65,94.48 35.74,92.44 10.6,92.44 11.69,94.48 "/>
<path class="st8" d="M10.24,91.54H36.1c0.19,0,0.35,0.16,0.35,0.35V93c0,0.19-0.16,0.35-0.35,0.35H10.24
	c-0.19,0-0.35-0.16-0.35-0.35v-1.11C9.89,91.7,10.05,91.54,10.24,91.54z"/>
<rect x="14.02" y="98.86" class="st3" width="17.97" height="5.78"/>
<rect x="14.02" y="98.86" class="st9" width="17.97" height="1.77"/>
<path class="st7" d="M13.48,103.46h18.77c0.19,0,0.35,0.16,0.35,0.35v1.9c0,0.19-0.16,0.35-0.35,0.35H13.48
	c-0.19,0-0.35-0.16-0.35-0.35v-1.9C13.13,103.62,13.29,103.46,13.48,103.46z"/>
<rect x="11.46" y="109.57" class="st7" width="22.82" height="4.07"/>
<path class="st7" d="M26.14,30.86c0.01,1.88-1.52,3.41-3.4,3.42c-1.88,0.01-3.41-1.52-3.42-3.4c-0.01-1.88,1.52-3.41,3.4-3.42l0,0
	C24.6,27.45,26.13,28.98,26.14,30.86C26.14,30.86,26.14,30.86,26.14,30.86z"/>
</svg>
