<svg id="圖層_1" data-name="圖層 1" xmlns="http://www.w3.org/2000/svg" viewBox="0 0 214.94 128.94"><defs><style>.cls-1{fill:#dea8ae;}.cls-2,.cls-3{fill:#e9a417;}.cls-3,.cls-4{fill-rule:evenodd;}.cls-4,.cls-5{fill:#f8d074;}</style></defs><path class="cls-1" d="M46.88,73.39H33V28.54L24.84,45.28h5.82V59H11.71V45.78L28.23,12.29H46.88v33h4.68V59H46.88Z" transform="translate(-11.71 -11.08)"/><path class="cls-1" d="M56.24,42.82a35.41,35.41,0,0,1,3.62-15.93,29,29,0,0,1,9.85-11.55,23.63,23.63,0,0,1,27.07,0,29.83,29.83,0,0,1,9.85,11.59,35.33,35.33,0,0,1,3.62,15.89,35.48,35.48,0,0,1-3.62,15.94A29.05,29.05,0,0,1,96.78,70.3a23.29,23.29,0,0,1-13.55,4.3,23.6,23.6,0,0,1-13.52-4.25,29.47,29.47,0,0,1-9.85-11.59A35.48,35.48,0,0,1,56.24,42.82Zm13.82,0a17.09,17.09,0,0,0,1.79,7.79,15,15,0,0,0,4.79,5.64,11.44,11.44,0,0,0,13.21,0,14.37,14.37,0,0,0,4.83-5.64,18.21,18.21,0,0,0,0-15.58,14.37,14.37,0,0,0-4.83-5.64,11.62,11.62,0,0,0-13.21,0A14.52,14.52,0,0,0,71.85,35,17.12,17.12,0,0,0,70.06,42.82Z" transform="translate(-11.71 -11.08)"/><path class="cls-1" d="M114.44,42.82a35.54,35.54,0,0,1,3.61-15.93,29,29,0,0,1,9.86-11.55,23.62,23.62,0,0,1,27.06,0,29.77,29.77,0,0,1,9.86,11.59,35.47,35.47,0,0,1,3.62,15.89,35.62,35.62,0,0,1-3.62,15.94A29,29,0,0,1,155,70.3a23.25,23.25,0,0,1-13.55,4.3,23.57,23.57,0,0,1-13.51-4.25,29.49,29.49,0,0,1-9.86-11.59A35.61,35.61,0,0,1,114.44,42.82Zm13.81,0A17.22,17.22,0,0,0,130,50.61a15,15,0,0,0,4.8,5.64,11.44,11.44,0,0,0,13.21,0,14.46,14.46,0,0,0,4.83-5.64,18.21,18.21,0,0,0,0-15.58,14.46,14.46,0,0,0-4.83-5.64,11.62,11.62,0,0,0-13.21,0A14.54,14.54,0,0,0,130,35,17.25,17.25,0,0,0,128.25,42.82Z" transform="translate(-11.71 -11.08)"/><path class="cls-1" d="M172.64,42.82a35.54,35.54,0,0,1,3.61-15.93,29,29,0,0,1,9.86-11.55,23.62,23.62,0,0,1,27.06,0A29.77,29.77,0,0,1,223,26.93a35.47,35.47,0,0,1,3.62,15.89A35.62,35.62,0,0,1,223,58.76a29,29,0,0,1-9.86,11.54,23.25,23.25,0,0,1-13.55,4.3,23.57,23.57,0,0,1-13.51-4.25,29.49,29.49,0,0,1-9.86-11.59A35.61,35.61,0,0,1,172.64,42.82Zm13.81,0a17.22,17.22,0,0,0,1.79,7.79,14.89,14.89,0,0,0,4.8,5.64,11.44,11.44,0,0,0,13.21,0,14.46,14.46,0,0,0,4.83-5.64,18.21,18.21,0,0,0,0-15.58,14.46,14.46,0,0,0-4.83-5.64,11.62,11.62,0,0,0-13.21,0,14.45,14.45,0,0,0-4.8,5.64A17.25,17.25,0,0,0,186.45,42.82Z" transform="translate(-11.71 -11.08)"/><ellipse class="cls-2" cx="154.03" cy="109.16" rx="21.17" ry="10.01"/><rect class="cls-2" x="132.86" y="105.04" width="42.33" height="4.12"/><path class="cls-3" d="M165.73,126.14c11.66,0,21.17-4.5,21.17-10s-9.51-10-21.17-10-21.16,4.5-21.16,10S154.08,126.14,165.73,126.14Z" transform="translate(-11.71 -11.08)"/><path class="cls-4" d="M165.73,124.2c10.14,0,18.4-3.63,18.4-8.07s-8.26-8.07-18.4-8.07-18.4,3.62-18.4,8.07S155.6,124.2,165.73,124.2Z" transform="translate(-11.71 -11.08)"/><path class="cls-2" d="M167.79,111.39A7.77,7.77,0,0,1,170,112a2.72,2.72,0,0,1,1.54,1.45l-3.26.21a1.34,1.34,0,0,0-.45-.56v-1.66Zm0,3.78a10.21,10.21,0,0,1,3.11.87,1.83,1.83,0,0,1,1.12,1.61c0,.74-.47,1.35-1.4,1.86a8.49,8.49,0,0,1-2.83.82v-1.45a3.48,3.48,0,0,0,.48-.21c.4-.23.61-.49.61-.8a.86.86,0,0,0-.51-.7,2.67,2.67,0,0,0-.58-.24ZM164.84,119v-2.55l-.83-.12v-1.85a5.27,5.27,0,0,0,.83.24v-2.11a4,4,0,0,0-.83.22v-1.48c.26,0,.54,0,.83-.06v-.61h1.86v.61c.38,0,.75,0,1.09.1v1.66a3.18,3.18,0,0,0-1.09-.42V115c.38,0,.75.1,1.09.16v1.76a7.56,7.56,0,0,0-1.09-.21v2.37a5.41,5.41,0,0,0,1.09-.21v1.45c-.35,0-.71.08-1.09.1v1.14h-1.86v-1.11c-.29,0-.57,0-.83-.07v-1.67A3.52,3.52,0,0,0,164.84,119Zm-.83-2.67a9.2,9.2,0,0,1-2.88-.91,2,2,0,0,1-1.17-1.67c0-.67.44-1.23,1.33-1.68a7.8,7.8,0,0,1,2.72-.72v1.48a2,2,0,0,0-.39.2.81.81,0,0,0-.44.64.74.74,0,0,0,.4.6,1.91,1.91,0,0,0,.43.21v1.85Zm0,4.06a8.87,8.87,0,0,1-2.79-.71,3.14,3.14,0,0,1-1.78-1.86l3.36-.17a1.84,1.84,0,0,0,.78.84,2.22,2.22,0,0,0,.43.23Z" transform="translate(-11.71 -11.08)"/><path class="cls-3" d="M180,124.93c11.65,0,21.16-4.5,21.16-10s-9.51-10-21.16-10-21.17,4.5-21.17,10S168.35,124.93,180,124.93Z" transform="translate(-11.71 -11.08)"/><rect class="cls-2" x="147.13" y="99.71" width="42.33" height="4.12"/><ellipse class="cls-2" cx="168.3" cy="99.71" rx="21.17" ry="10.01"/><ellipse class="cls-5" cx="168.3" cy="99.71" rx="18.4" ry="8.07"/><path class="cls-2" d="M182.06,106.06a7.44,7.44,0,0,1,2.17.56,2.72,2.72,0,0,1,1.54,1.45l-3.25.2a1.4,1.4,0,0,0-.46-.55v-1.66Zm0,3.78a9.82,9.82,0,0,1,3.12.87,1.85,1.85,0,0,1,1.12,1.61c0,.74-.47,1.35-1.41,1.86a8.21,8.21,0,0,1-2.83.81v-1.44a2.67,2.67,0,0,0,.48-.21c.41-.23.61-.49.61-.8a.84.84,0,0,0-.51-.7,2.67,2.67,0,0,0-.58-.24Zm-2.95,3.83v-2.55l-.83-.13v-1.84a5.27,5.27,0,0,0,.83.24v-2.11a4,4,0,0,0-.83.22V106l.83-.07v-.6H181v.6c.38,0,.75.06,1.09.11v1.66a3.18,3.18,0,0,0-1.09-.42v2.38c.39,0,.75.1,1.09.16v1.76a9,9,0,0,0-1.09-.22v2.38a5.41,5.41,0,0,0,1.09-.21V115c-.35.05-.71.09-1.09.11v1.14h-1.86v-1.11c-.29,0-.57,0-.83-.07v-1.67A3.68,3.68,0,0,0,179.11,113.67Zm-.83-2.68a8.82,8.82,0,0,1-2.87-.9,2,2,0,0,1-1.18-1.68c0-.66.44-1.22,1.33-1.67a7.59,7.59,0,0,1,2.72-.72v1.48a1.94,1.94,0,0,0-.38.2.8.8,0,0,0-.45.64.73.73,0,0,0,.41.6,1.64,1.64,0,0,0,.42.21V111Zm0,4.07a8.87,8.87,0,0,1-2.79-.71,3.1,3.1,0,0,1-1.77-1.86l3.35-.17a1.84,1.84,0,0,0,.78.84,2.93,2.93,0,0,0,.43.23Z" transform="translate(-11.71 -11.08)"/><path class="cls-3" d="M162.89,116.3c11.66,0,21.17-4.5,21.17-10s-9.51-10-21.17-10-21.16,4.5-21.16,10S151.24,116.3,162.89,116.3Z" transform="translate(-11.71 -11.08)"/><rect class="cls-2" x="130.02" y="91.08" width="42.34" height="4.12"/><ellipse class="cls-2" cx="151.19" cy="91.08" rx="21.17" ry="10.01"/><ellipse class="cls-5" cx="151.19" cy="91.08" rx="18.4" ry="8.07"/><path class="cls-2" d="M165,97.42a8.13,8.13,0,0,1,2.17.56,2.74,2.74,0,0,1,1.54,1.46l-3.26.2a1.37,1.37,0,0,0-.45-.55V97.42Zm0,3.79a9.66,9.66,0,0,1,3.11.87,1.82,1.82,0,0,1,1.12,1.61,2.2,2.2,0,0,1-1.4,1.86,8.28,8.28,0,0,1-2.83.81v-1.44a3.48,3.48,0,0,0,.48-.21c.4-.23.61-.5.61-.8a.85.85,0,0,0-.51-.7A2.67,2.67,0,0,0,165,103ZM162,105v-2.55l-.83-.13v-1.84a5,5,0,0,0,.83.24V98.65a4,4,0,0,0-.83.22V97.39l.83-.07v-.6h1.86v.6l1.09.1v1.67a3,3,0,0,0-1.09-.42v2.38c.38,0,.75.1,1.09.16V103a7.44,7.44,0,0,0-1.09-.22v2.38a5.41,5.41,0,0,0,1.09-.21v1.44c-.35,0-.71.09-1.09.11v1.14H162V106.5c-.29,0-.57,0-.83-.07v-1.67A4,4,0,0,0,162,105Zm-.83-2.68a8.89,8.89,0,0,1-2.88-.9,2,2,0,0,1-1.17-1.68c0-.66.44-1.22,1.33-1.67a7.59,7.59,0,0,1,2.72-.72v1.48a2.83,2.83,0,0,0-.39.19.84.84,0,0,0-.44.65.74.74,0,0,0,.4.6,1.91,1.91,0,0,0,.43.21v1.84Zm0,4.07a8.8,8.8,0,0,1-2.79-.71,3.14,3.14,0,0,1-1.78-1.86l3.36-.17a1.84,1.84,0,0,0,.78.84,2.93,2.93,0,0,0,.43.23Z" transform="translate(-11.71 -11.08)"/><ellipse class="cls-2" cx="166.34" cy="87.93" rx="21.17" ry="10.01"/><rect class="cls-2" x="145.17" y="83.82" width="42.33" height="4.12"/><ellipse class="cls-2" cx="166.34" cy="83.82" rx="21.17" ry="10.01"/><path class="cls-4" d="M178,103c10.14,0,18.4-3.63,18.4-8.07s-8.26-8.07-18.4-8.07-18.4,3.63-18.4,8.07S167.91,103,178,103Z" transform="translate(-11.71 -11.08)"/><path class="cls-2" d="M180.09,90.16a7.68,7.68,0,0,1,2.17.56,2.65,2.65,0,0,1,1.54,1.46l-3.25.2a1.21,1.21,0,0,0-.46-.55V90.16Zm0,3.78a10.2,10.2,0,0,1,3.12.87,1.85,1.85,0,0,1,1.12,1.62,2.18,2.18,0,0,1-1.4,1.85,8.49,8.49,0,0,1-2.84.82V97.65a3.14,3.14,0,0,0,.49-.21c.4-.23.6-.49.6-.8a.84.84,0,0,0-.51-.7,2.12,2.12,0,0,0-.58-.23Zm-3,3.84V95.23l-.83-.13V93.26a4.66,4.66,0,0,0,.83.23v-2.1a4.18,4.18,0,0,0-.83.21V90.12c.27,0,.55-.05.83-.06v-.6H179v.6c.38,0,.74,0,1.08.1v1.67A2.86,2.86,0,0,0,179,91.4v2.38l1.08.16v1.77a7,7,0,0,0-1.08-.22v2.37a5.17,5.17,0,0,0,1.08-.21V99.1l-1.08.11v1.14h-1.87V99.24l-.83-.07V97.5A4.5,4.5,0,0,0,177.14,97.78Zm-.83-2.68a8.64,8.64,0,0,1-2.87-.91,2,2,0,0,1-1.17-1.67c0-.67.44-1.23,1.33-1.68a8,8,0,0,1,2.71-.72V91.6a3.39,3.39,0,0,0-.38.2.8.8,0,0,0-.45.65.75.75,0,0,0,.41.59,2.73,2.73,0,0,0,.42.22V95.1Zm0,4.07a9,9,0,0,1-2.78-.72,3.13,3.13,0,0,1-1.78-1.85l3.36-.17a1.9,1.9,0,0,0,.77.83,3.62,3.62,0,0,0,.43.24Z" transform="translate(-11.71 -11.08)"/><ellipse class="cls-2" cx="159.84" cy="80.66" rx="21.17" ry="10.01"/><rect class="cls-2" x="138.67" y="76.55" width="42.33" height="4.12"/><path class="cls-3" d="M171.54,97.64c11.66,0,21.17-4.49,21.17-10s-9.51-10-21.17-10-21.16,4.49-21.16,10S159.89,97.64,171.54,97.64Z" transform="translate(-11.71 -11.08)"/><path class="cls-4" d="M171.54,95.7c10.14,0,18.4-3.63,18.4-8.07s-8.26-8.07-18.4-8.07-18.4,3.63-18.4,8.07S161.41,95.7,171.54,95.7Z" transform="translate(-11.71 -11.08)"/><path class="cls-2" d="M173.6,82.89a7.77,7.77,0,0,1,2.17.56,2.71,2.71,0,0,1,1.54,1.46l-3.26.2a1.25,1.25,0,0,0-.45-.55V82.89Zm0,3.78a10.21,10.21,0,0,1,3.11.87,1.84,1.84,0,0,1,1.12,1.61,2.18,2.18,0,0,1-1.4,1.86,8.49,8.49,0,0,1-2.83.82V90.38a3.48,3.48,0,0,0,.48-.21c.4-.23.61-.49.61-.8a.86.86,0,0,0-.51-.7,2.26,2.26,0,0,0-.58-.23Zm-2.95,3.83V88l-.83-.13V86a4.22,4.22,0,0,0,.83.23v-2.1a4,4,0,0,0-.83.21V82.85c.26,0,.54,0,.83-.06v-.6h1.86v.6c.38,0,.75,0,1.09.1v1.67a3,3,0,0,0-1.09-.43v2.38c.38,0,.75.1,1.09.16v1.77a7.44,7.44,0,0,0-1.09-.22v2.37a5.41,5.41,0,0,0,1.09-.21v1.45l-1.09.11v1.13h-1.86V92l-.83-.07V90.23A4,4,0,0,0,170.65,90.5Zm-.83-2.67a8.63,8.63,0,0,1-2.88-.91,2,2,0,0,1-1.17-1.67c0-.67.44-1.23,1.33-1.68a8,8,0,0,1,2.72-.72v1.48a2.84,2.84,0,0,0-.39.2.81.81,0,0,0-.44.64.74.74,0,0,0,.4.6,2.45,2.45,0,0,0,.43.22v1.84Zm0,4.07a9.14,9.14,0,0,1-2.79-.72,3.14,3.14,0,0,1-1.78-1.86l3.36-.17a1.84,1.84,0,0,0,.78.84,3,3,0,0,0,.43.24Z" transform="translate(-11.71 -11.08)"/><path class="cls-3" d="M177,96c11.65,0,21.16-4.5,21.16-10S188.61,76,177,76s-21.17,4.5-21.17,10S165.3,96,177,96Z" transform="translate(-11.71 -11.08)"/><rect class="cls-2" x="144.08" y="70.81" width="42.33" height="4.12"/><path class="cls-3" d="M177,91.91c11.65,0,21.16-4.5,21.16-10s-9.51-10-21.16-10-21.17,4.5-21.17,10S165.3,91.91,177,91.91Z" transform="translate(-11.71 -11.08)"/><path class="cls-4" d="M177,90c10.13,0,18.4-3.63,18.4-8.07s-8.27-8.07-18.4-8.07-18.4,3.62-18.4,8.07S166.82,90,177,90Z" transform="translate(-11.71 -11.08)"/><path class="cls-2" d="M179,77.16a7.77,7.77,0,0,1,2.17.56,2.71,2.71,0,0,1,1.54,1.46l-3.26.2a1.19,1.19,0,0,0-.45-.55V77.16Zm0,3.78a10.38,10.38,0,0,1,3.12.87,1.86,1.86,0,0,1,1.12,1.61,2.17,2.17,0,0,1-1.41,1.86,8.49,8.49,0,0,1-2.83.82V84.65a3.48,3.48,0,0,0,.48-.21c.4-.23.61-.49.61-.8a.84.84,0,0,0-.51-.7,2.67,2.67,0,0,0-.58-.24Zm-2.95,3.83V82.23l-.83-.13V80.26a5.35,5.35,0,0,0,.83.23V78.38a4,4,0,0,0-.83.22V77.12c.26,0,.54-.05.83-.06v-.61h1.86v.61c.38,0,.75,0,1.09.1v1.67a3,3,0,0,0-1.09-.43v2.38c.39,0,.75.1,1.09.16V82.7a7.56,7.56,0,0,0-1.09-.21v2.37a5.41,5.41,0,0,0,1.09-.21V86.1l-1.09.11v1.13h-1.86V86.23c-.29,0-.57,0-.83-.06V84.5A4.25,4.25,0,0,0,176.06,84.77Zm-.83-2.67a9,9,0,0,1-2.87-.91,2,2,0,0,1-1.18-1.67c0-.67.44-1.23,1.33-1.68a8,8,0,0,1,2.72-.72V78.6a1.94,1.94,0,0,0-.38.2.8.8,0,0,0-.45.64.73.73,0,0,0,.41.6,2,2,0,0,0,.42.22V82.1Zm0,4.07a9.14,9.14,0,0,1-2.79-.72,3.1,3.1,0,0,1-1.77-1.86l3.35-.17a1.84,1.84,0,0,0,.78.84,3,3,0,0,0,.43.24Z" transform="translate(-11.71 -11.08)"/><ellipse class="cls-2" cx="157.98" cy="68.92" rx="21.17" ry="10.01"/><rect class="cls-2" x="136.81" y="64.8" width="42.33" height="4.12"/><path class="cls-3" d="M169.68,85.9c11.66,0,21.17-4.5,21.17-10s-9.51-10-21.17-10-21.16,4.5-21.16,10S158,85.9,169.68,85.9Z" transform="translate(-11.71 -11.08)"/><path class="cls-4" d="M169.68,84c10.14,0,18.4-3.63,18.4-8.07s-8.26-8.07-18.4-8.07-18.4,3.62-18.4,8.07S159.55,84,169.68,84Z" transform="translate(-11.71 -11.08)"/><path class="cls-2" d="M171.74,71.15a7.77,7.77,0,0,1,2.17.56,2.71,2.71,0,0,1,1.54,1.46l-3.26.2a1.26,1.26,0,0,0-.45-.56V71.15Zm0,3.78a10.21,10.21,0,0,1,3.11.87A1.83,1.83,0,0,1,176,77.41a2.18,2.18,0,0,1-1.4,1.86,8.49,8.49,0,0,1-2.83.82V78.64a3.48,3.48,0,0,0,.48-.21c.4-.23.61-.49.61-.8a.86.86,0,0,0-.51-.7,2.67,2.67,0,0,0-.58-.24Zm-3,3.83V76.21c-.29,0-.57-.08-.83-.12V74.24a4.38,4.38,0,0,0,.83.24V72.37a4,4,0,0,0-.83.22V71.11c.26,0,.54,0,.83-.06v-.61h1.86v.61c.38,0,.75,0,1.09.1v1.66a3.18,3.18,0,0,0-1.09-.42v2.38c.38,0,.75.1,1.09.16v1.76a7.56,7.56,0,0,0-1.09-.21v2.37a5.41,5.41,0,0,0,1.09-.21v1.45c-.35,0-.71.08-1.09.1v1.14h-1.86V80.22c-.29,0-.57,0-.83-.07V78.48A3.52,3.52,0,0,0,168.79,78.76ZM168,76.09a9,9,0,0,1-2.87-.91,2,2,0,0,1-1.18-1.67c0-.67.44-1.23,1.33-1.68a7.8,7.8,0,0,1,2.72-.72v1.48a2.38,2.38,0,0,0-.39.2.81.81,0,0,0-.44.64.73.73,0,0,0,.41.6,1.64,1.64,0,0,0,.42.21v1.85Zm0,4.06a8.87,8.87,0,0,1-2.79-.71,3.14,3.14,0,0,1-1.78-1.86l3.36-.17a1.84,1.84,0,0,0,.78.84,2.22,2.22,0,0,0,.43.23Z" transform="translate(-11.71 -11.08)"/><ellipse class="cls-2" cx="152.71" cy="63.37" rx="21.17" ry="10.01"/><rect class="cls-2" x="131.54" y="59.25" width="42.33" height="4.12"/><path class="cls-3" d="M164.41,80.35c11.66,0,21.17-4.5,21.17-10s-9.51-10-21.17-10-21.17,4.5-21.17,10S152.75,80.35,164.41,80.35Z" transform="translate(-11.71 -11.08)"/><path class="cls-4" d="M164.41,78.41c10.14,0,18.4-3.63,18.4-8.07s-8.26-8.07-18.4-8.07S146,65.89,146,70.34,154.28,78.41,164.41,78.41Z" transform="translate(-11.71 -11.08)"/><path class="cls-2" d="M166.46,65.59a8,8,0,0,1,2.17.56,2.68,2.68,0,0,1,1.54,1.46l-3.25.2a1.32,1.32,0,0,0-.46-.55V65.59Zm0,3.78a10.2,10.2,0,0,1,3.12.87,1.85,1.85,0,0,1,1.12,1.62,2.2,2.2,0,0,1-1.4,1.86,8.5,8.5,0,0,1-2.84.81V73.08a2,2,0,0,0,.49-.21,1,1,0,0,0,.6-.79.83.83,0,0,0-.51-.7,2.47,2.47,0,0,0-.58-.24Zm-3,3.84V70.66l-.83-.13V68.69a5.61,5.61,0,0,0,.83.24V66.82a4.34,4.34,0,0,0-.83.22V65.56l.83-.07v-.6h1.87v.6l1.08.1v1.67a2.71,2.71,0,0,0-1.08-.42v2.38l1.08.15v1.77a7,7,0,0,0-1.08-.22V73.3a4.57,4.57,0,0,0,1.08-.22v1.45c-.34,0-.7.09-1.08.11v1.14h-1.87V74.67l-.83-.07V72.93A4.5,4.5,0,0,0,163.51,73.21Zm-.83-2.68a8.9,8.9,0,0,1-2.87-.9A2,2,0,0,1,158.64,68c0-.66.44-1.22,1.33-1.67a7.53,7.53,0,0,1,2.71-.72V67a3.36,3.36,0,0,0-.38.19.83.83,0,0,0-.45.65.77.77,0,0,0,.41.6,2.06,2.06,0,0,0,.42.21v1.84Zm0,4.07a8.73,8.73,0,0,1-2.78-.71A3.14,3.14,0,0,1,158.12,72l3.36-.17a2,2,0,0,0,.77.84,3.55,3.55,0,0,0,.43.23Z" transform="translate(-11.71 -11.08)"/><ellipse class="cls-2" cx="162.28" cy="56.14" rx="21.17" ry="10.01"/><rect class="cls-2" x="141.11" y="52.02" width="42.33" height="4.12"/><path class="cls-3" d="M174,73.12c11.66,0,21.16-4.5,21.16-10s-9.5-10-21.16-10-21.17,4.5-21.17,10S162.33,73.12,174,73.12Z" transform="translate(-11.71 -11.08)"/><path class="cls-4" d="M174,71.17c10.13,0,18.4-3.62,18.4-8.07S184.12,55,174,55s-18.4,3.63-18.4,8.07S163.85,71.17,174,71.17Z" transform="translate(-11.71 -11.08)"/><path class="cls-2" d="M176,58.36a8,8,0,0,1,2.17.56,2.71,2.71,0,0,1,1.54,1.46l-3.25.2A1.26,1.26,0,0,0,176,60V58.36Zm0,3.78a10.38,10.38,0,0,1,3.12.87,1.86,1.86,0,0,1,1.12,1.62,2.17,2.17,0,0,1-1.41,1.85,8.2,8.2,0,0,1-2.83.82V65.85a2.67,2.67,0,0,0,.48-.21c.41-.22.61-.49.61-.79a.83.83,0,0,0-.51-.7,2.47,2.47,0,0,0-.58-.24ZM173.09,66V63.43l-.83-.13V61.46a5.27,5.27,0,0,0,.83.24V59.59a3.57,3.57,0,0,0-.83.22V58.33l.83-.07v-.6H175v.6c.39,0,.75.06,1.09.1V60a2.82,2.82,0,0,0-1.09-.42V62l1.09.15v1.77a7.44,7.44,0,0,0-1.09-.22v2.37a4.22,4.22,0,0,0,1.09-.21V67.3c-.34,0-.71.08-1.09.11v1.14h-1.86V67.44l-.83-.07V65.7A4.26,4.26,0,0,0,173.09,66Zm-.83-2.68a8.9,8.9,0,0,1-2.87-.9,2,2,0,0,1-1.18-1.68c0-.66.44-1.22,1.33-1.67a7.59,7.59,0,0,1,2.72-.72v1.48a2.69,2.69,0,0,0-.38.19.81.81,0,0,0-.45.65.78.78,0,0,0,.41.6,2,2,0,0,0,.42.21V63.3Zm0,4.07a8.6,8.6,0,0,1-2.79-.72,3.08,3.08,0,0,1-1.77-1.85l3.36-.17a1.85,1.85,0,0,0,.77.84c.14.08.28.16.43.23Z" transform="translate(-11.71 -11.08)"/><path class="cls-3" d="M201.41,140a21.17,21.17,0,1,0-21.17-21.17A21.2,21.2,0,0,0,201.41,140Z" transform="translate(-11.71 -11.08)"/><path class="cls-4" d="M201.41,135.92a17.06,17.06,0,1,0-17.06-17.06A17.1,17.1,0,0,0,201.41,135.92Z" transform="translate(-11.71 -11.08)"/><path class="cls-2" d="M203.46,108.84a5,5,0,0,1,2.17,1.18,5.42,5.42,0,0,1,1.54,3.08l-3.25.43a3.15,3.15,0,0,0-.46-1.17v-3.52Zm0,8a6.93,6.93,0,0,1,3.12,1.84,5.13,5.13,0,0,1,1.12,3.41,5.64,5.64,0,0,1-4.24,5.65v-3.06a2.58,2.58,0,0,0,1.09-2.13,2.27,2.27,0,0,0-.51-1.48,2.21,2.21,0,0,0-.58-.5Zm-3,8.11v-5.39c-.29-.08-.57-.17-.83-.27v-3.89a3.5,3.5,0,0,0,.83.49v-4.45a2.58,2.58,0,0,0-.83.46v-3.13a7.18,7.18,0,0,1,.83-.14v-1.27h1.86v1.27a7,7,0,0,1,1.09.22v3.52a2.52,2.52,0,0,0-1.09-.89v5c.39.1.75.21,1.09.33v3.73a4.41,4.41,0,0,0-1.09-.46v5a2.8,2.8,0,0,0,1.09-.45v3.06a7.24,7.24,0,0,1-1.09.23v2.41h-1.86V128a7.18,7.18,0,0,1-.83-.14v-3.53A3.25,3.25,0,0,0,200.51,124.94Zm-.83-5.66a6.55,6.55,0,0,1-2.87-1.91,5.52,5.52,0,0,1-1.18-3.55,5.05,5.05,0,0,1,1.33-3.54,5.15,5.15,0,0,1,2.72-1.52v3.13a2.46,2.46,0,0,0-.38.41,2.29,2.29,0,0,0-.45,1.37,2.15,2.15,0,0,0,.41,1.26,2.27,2.27,0,0,0,.42.46v3.89Zm0,8.6a5.7,5.7,0,0,1-2.79-1.52,6.85,6.85,0,0,1-1.77-3.92l3.36-.36a4.17,4.17,0,0,0,.77,1.78,5.19,5.19,0,0,0,.43.49Z" transform="translate(-11.71 -11.08)"/></svg>