<svg id="圖層_1" data-name="圖層 1" xmlns="http://www.w3.org/2000/svg" viewBox="0 0 214.4 136.46"><defs><style>.cls-1{fill:#dea8ae;}.cls-2{fill:#72a75d;}.cls-2,.cls-3,.cls-4{fill-rule:evenodd;}.cls-3{fill:#8cbe79;}.cls-4{fill:#f8d074;}.cls-5{fill:#fff;}.cls-6{fill:none;stroke:#f8d074;stroke-linecap:round;stroke-linejoin:round;stroke-width:4.8px;}</style></defs><path class="cls-1" d="M20.37,35.27a29.64,29.64,0,0,1-1.46-3.16,12.61,12.61,0,0,1-.85-2.94,19.62,19.62,0,0,1-.23-3.11,20.89,20.89,0,0,1,2.08-9.31A16.17,16.17,0,0,1,25.56,10a13.91,13.91,0,0,1,7.91-2.42,14.31,14.31,0,0,1,6.15,1.35,15.14,15.14,0,0,1,5,4A20,20,0,0,1,48,18.79a22.47,22.47,0,0,1,1.15,7.27,17.94,17.94,0,0,1-.54,4.56,19.82,19.82,0,0,1-2,4.65A37.76,37.76,0,0,1,50,40.39a22.36,22.36,0,0,1,1.88,5.17,27.86,27.86,0,0,1,.58,5.77A25.78,25.78,0,0,1,51,60a23,23,0,0,1-4.07,7.12,18.07,18.07,0,0,1-6.07,4.75,16.15,16.15,0,0,1-7.38,1.72,15.78,15.78,0,0,1-7.34-1.72A19,19,0,0,1,20,67.06,22.61,22.61,0,0,1,16,59.89a25.33,25.33,0,0,1-1.42-8.56A25,25,0,0,1,15.87,43,27.74,27.74,0,0,1,20.37,35.27Zm6.92,16a8.59,8.59,0,0,0,1.8,5.49,5.36,5.36,0,0,0,4.38,2.28,5.42,5.42,0,0,0,4.42-2.23,8.12,8.12,0,0,0,1.77-5.35,7.92,7.92,0,0,0-1.81-5.22,5.47,5.47,0,0,0-4.34-2.18,5.41,5.41,0,0,0-3.07,1,7.49,7.49,0,0,0-2.31,2.61A7.83,7.83,0,0,0,27.29,51.28Zm2-26.11a5.22,5.22,0,0,0,1.26,3.49,3.71,3.71,0,0,0,3,1.49,3.91,3.91,0,0,0,3-1.49,5.44,5.44,0,0,0,1.23-3.58,5.68,5.68,0,0,0-1.23-3.73,3.84,3.84,0,0,0-3-1.44,3.75,3.75,0,0,0-3,1.49A6,6,0,0,0,29.25,25.17Z" transform="translate(-14.53 -7.58)"/><path class="cls-1" d="M56.91,40.58A38,38,0,0,1,60.56,24a30.09,30.09,0,0,1,10-12,23.32,23.32,0,0,1,27.32,0,30.75,30.75,0,0,1,10,12.05,37.73,37.73,0,0,1,3.65,16.53,37.84,37.84,0,0,1-3.65,16.57,29.9,29.9,0,0,1-10,12,23,23,0,0,1-13.68,4.47A23.26,23.26,0,0,1,70.51,69.2a30.34,30.34,0,0,1-10-12.05A38,38,0,0,1,56.91,40.58Zm14,0a18.41,18.41,0,0,0,1.8,8.1,15.5,15.5,0,0,0,4.85,5.86,11.24,11.24,0,0,0,13.33,0,15,15,0,0,0,4.88-5.86,18.48,18.48,0,0,0,1.77-8.1,18.42,18.42,0,0,0-1.77-8.1,15,15,0,0,0-4.88-5.87,11.45,11.45,0,0,0-13.33,0,15.09,15.09,0,0,0-4.85,5.87A18.35,18.35,0,0,0,70.86,40.58Z" transform="translate(-14.53 -7.58)"/><path class="cls-1" d="M115.66,40.58A38,38,0,0,1,119.31,24a30.09,30.09,0,0,1,9.95-12,23.32,23.32,0,0,1,27.32,0,30.75,30.75,0,0,1,9.95,12.05,37.73,37.73,0,0,1,3.65,16.53,37.84,37.84,0,0,1-3.65,16.57,29.9,29.9,0,0,1-9.95,12,23,23,0,0,1-13.68,4.47,23.26,23.26,0,0,1-13.64-4.42,30.34,30.34,0,0,1-9.95-12.05A38,38,0,0,1,115.66,40.58Zm14,0a18.41,18.41,0,0,0,1.8,8.1,15.5,15.5,0,0,0,4.85,5.86,11.24,11.24,0,0,0,13.33,0,15,15,0,0,0,4.88-5.86,18.48,18.48,0,0,0,1.77-8.1,18.42,18.42,0,0,0-1.77-8.1,15,15,0,0,0-4.88-5.87,11.45,11.45,0,0,0-13.33,0,15.09,15.09,0,0,0-4.85,5.87A18.35,18.35,0,0,0,129.61,40.58Z" transform="translate(-14.53 -7.58)"/><path class="cls-1" d="M174.41,40.58A38,38,0,0,1,178.06,24,30.09,30.09,0,0,1,188,12a23.32,23.32,0,0,1,27.32,0,30.75,30.75,0,0,1,9.95,12.05,37.73,37.73,0,0,1,3.65,16.53,37.84,37.84,0,0,1-3.65,16.57,29.9,29.9,0,0,1-9.95,12,23,23,0,0,1-13.68,4.47A23.26,23.26,0,0,1,188,69.2a30.34,30.34,0,0,1-9.95-12.05A38,38,0,0,1,174.41,40.58Zm14,0a18.41,18.41,0,0,0,1.8,8.1A15.5,15.5,0,0,0,195,54.54a11.24,11.24,0,0,0,13.33,0,15,15,0,0,0,4.88-5.86,18.48,18.48,0,0,0,1.77-8.1,18.42,18.42,0,0,0-1.77-8.1,15,15,0,0,0-4.88-5.87,11.45,11.45,0,0,0-13.33,0,15.09,15.09,0,0,0-4.85,5.87A18.35,18.35,0,0,0,188.36,40.58Z" transform="translate(-14.53 -7.58)"/><path class="cls-2" d="M157.3,78.62c-.18-1.83-1.74-7.18-6-14.81s-.82-12.29,5.61-12,5.59-5,10.83-5,4.4,5.28,10.83,5,9.81,4.37,5.6,12-5.77,13-5.94,14.81C176.75,94.85,158.82,94.85,157.3,78.62Z" transform="translate(-14.53 -7.58)"/><path class="cls-2" d="M167.61,75.92A34.19,34.19,0,0,1,201.93,110c0,18.81,1.55,34.06-34.32,34.06S133.3,128.79,133.3,110A34.19,34.19,0,0,1,167.61,75.92Z" transform="translate(-14.53 -7.58)"/><path class="cls-3" d="M167.61,75.92a34.33,34.33,0,0,1,24.31,10,33.74,33.74,0,0,1,3.32,14.64c0,18.81,1.56,34.06-34.31,34.06-13.08,0-21.18-2-26.2-5.52-1.65-5.45-1.43-12-1.43-19.14A34.19,34.19,0,0,1,167.61,75.92Z" transform="translate(-14.53 -7.58)"/><path class="cls-4" d="M153.6,70.45h28a2,2,0,0,1,2,2h0a2,2,0,0,1-2,1.95h-28a2,2,0,0,1-1.95-1.95h0A2,2,0,0,1,153.6,70.45Z" transform="translate(-14.53 -7.58)"/><path class="cls-4" d="M153.6,74.35h28a2,2,0,0,1,2,2h0a2,2,0,0,1-2,2h-28a2,2,0,0,1-1.95-2h0A2,2,0,0,1,153.6,74.35Z" transform="translate(-14.53 -7.58)"/><path class="cls-5" d="M171.31,91.92a9,9,0,0,1,3.91,2.13A9.74,9.74,0,0,1,178,99.61l-5.86.76a5.67,5.67,0,0,0-.83-2.1V91.92Zm0,14.4a12.46,12.46,0,0,1,5.62,3.31,9.22,9.22,0,0,1,2,6.16A10.12,10.12,0,0,1,171.31,126v-5.52a4.38,4.38,0,0,0,.87-.8,4.52,4.52,0,0,0,1.1-3,4.09,4.09,0,0,0-.92-2.67,3.89,3.89,0,0,0-1.05-.9ZM166,120.94v-9.72q-.8-.23-1.5-.48v-7a6.34,6.34,0,0,0,1.5.9v-8a4.23,4.23,0,0,0-1.5.84V91.77q.72-.15,1.5-.24V89.24h3.35v2.29a13.87,13.87,0,0,1,2,.39v6.35a4.44,4.44,0,0,0-2-1.61v9.06c.7.19,1.35.39,2,.6v6.73a7.6,7.6,0,0,0-2-.83v9a4.85,4.85,0,0,0,2-.81V126a14.43,14.43,0,0,1-2,.42v4.34H166V126.5a13.78,13.78,0,0,1-1.5-.26v-6.37A5.6,5.6,0,0,0,166,120.94Zm-1.5-10.2a11.71,11.71,0,0,1-5.18-3.45,9.94,9.94,0,0,1-2.12-6.39,9,9,0,0,1,2.4-6.38,9.34,9.34,0,0,1,4.9-2.75v5.66a4.22,4.22,0,0,0-1.5,3.2,3.92,3.92,0,0,0,.74,2.28,4.44,4.44,0,0,0,.76.81v7Zm0,15.5a10.44,10.44,0,0,1-5-2.73,12.23,12.23,0,0,1-3.19-7.07l6.05-.65a7.75,7.75,0,0,0,1.39,3.2,7.51,7.51,0,0,0,.78.88Z" transform="translate(-14.53 -7.58)"/><path class="cls-6" d="M178.42,76.71c5.22,6.17,7.79,13.71,5.56,25.53" transform="translate(-14.53 -7.58)"/><path class="cls-6" d="M178.42,76.71c7.21,3.65,12.52,9.59,15.08,21.34" transform="translate(-14.53 -7.58)"/><path class="cls-3" d="M152.73,66.41c-.43-.84-.88-1.7-1.38-2.6-4.21-7.64-.82-12.29,5.61-12s5.59-5,10.83-5,4.4,5.28,10.83,5a9.9,9.9,0,0,1,3.36.38c-.81,2.39-1.24,4.14-1.69,5.25C176.35,67.26,162.62,69.92,152.73,66.41Z" transform="translate(-14.53 -7.58)"/></svg>