<svg xmlns="http://www.w3.org/2000/svg" viewBox="0 0 230.27 116.49"><defs><style>.cls-1{isolation:isolate;}.cls-2{fill:#d2ebee;}.cls-2,.cls-3,.cls-6,.cls-8{opacity:0.39;}.cls-3,.cls-5,.cls-7{fill:#bbe1e5;}.cls-4{fill:#040000;}.cls-6{fill:#89b5b3;}.cls-7{opacity:0.49;}.cls-8{fill:#e9f5f6;}.cls-9{fill:#7f7986;}.cls-10{fill:#b8b7d9;}.cls-11,.cls-12{fill:#7ccbdc;}.cls-12{mix-blend-mode:multiply;}.cls-13{fill:#afafd7;opacity:0.54;mix-blend-mode:overlay;}.cls-14{fill:#34368c;}.cls-15{fill:#42459a;}</style></defs><g class="cls-1"><g id="圖層_1" data-name="圖層 1"><rect class="cls-2" x="148.23" y="23.28" width="5.66" height="20.87" transform="translate(111.41 171.4) rotate(-90)"/><rect class="cls-2" x="149.49" y="22.01" width="3.12" height="20.87" transform="translate(112.68 170.13) rotate(-90)"/><rect class="cls-3" x="11.24" y="28.93" width="35.03" height="3.91" transform="translate(-8.06 46.28) rotate(-90)"/><rect class="cls-3" x="11.24" y="28.93" width="35.03" height="3.91" transform="translate(-8.06 46.28) rotate(-90)"/><rect class="cls-3" x="11.24" y="28.93" width="35.03" height="3.91" transform="translate(-8.06 46.28) rotate(-90)"/><rect class="cls-3" x="11.24" y="28.93" width="35.03" height="3.91" transform="translate(-8.06 46.28) rotate(-90)"/><rect class="cls-2" x="61.21" y="-29.44" width="15.4" height="120.65" transform="translate(32.1 86.43) rotate(-90)"/><rect class="cls-2" x="65.06" y="-25.59" width="7.7" height="120.65" transform="translate(28.25 90.28) rotate(-90)"/><rect class="cls-4" x="119.68" y="19.43" width="18.95" height="22.93" transform="translate(92.34 146.67) rotate(-90)"/><rect class="cls-5" x="-7.93" y="29.56" width="30.38" height="2.66" transform="translate(-29.56 24.77) rotate(-90)"/><rect class="cls-6" x="148.23" y="23.28" width="5.66" height="20.87" transform="translate(111.41 171.4) rotate(-90)"/><path class="cls-7" d="M74.6-25.14H98.88a0,0,0,0,1,0,0V81.46a5.45,5.45,0,0,1-5.45,5.45H80a5.45,5.45,0,0,1-5.45-5.45V-25.14A0,0,0,0,1,74.6-25.14Z" transform="translate(49.93 104.26) rotate(-90)"/><path class="cls-8" d="M82.08-17.65H91.4a0,0,0,0,1,0,0V89.74a4.66,4.66,0,0,1-4.66,4.66h0a4.66,4.66,0,0,1-4.66-4.66V-17.65A0,0,0,0,1,82.08-17.65Z" transform="translate(42.44 111.74) rotate(-90)"/><rect class="cls-9" x="66.4" y="7.27" width="0.82" height="7.13"/><rect class="cls-9" x="67.8" y="10.37" width="0.82" height="4.03"/><rect class="cls-9" x="69.21" y="10.37" width="0.82" height="4.03"/><rect class="cls-9" x="70.61" y="10.37" width="0.82" height="4.03"/><rect class="cls-9" x="72.02" y="10.37" width="0.82" height="4.03"/><rect class="cls-9" x="73.42" y="7.27" width="0.82" height="7.13"/><rect class="cls-9" x="74.82" y="10.37" width="0.82" height="4.03"/><rect class="cls-9" x="76.23" y="10.37" width="0.82" height="4.03"/><rect class="cls-9" x="77.63" y="10.37" width="0.82" height="4.03"/><rect class="cls-9" x="79.04" y="10.37" width="0.82" height="4.03"/><rect class="cls-9" x="80.44" y="7.27" width="0.82" height="7.13"/><rect class="cls-9" x="81.84" y="10.37" width="0.82" height="4.03"/><rect class="cls-9" x="83.25" y="10.37" width="0.82" height="4.03"/><rect class="cls-9" x="84.65" y="10.37" width="0.82" height="4.03"/><rect class="cls-9" x="86.05" y="10.37" width="0.82" height="4.03"/><rect class="cls-9" x="87.46" y="7.27" width="0.82" height="7.13"/><rect class="cls-9" x="88.86" y="10.37" width="0.82" height="4.03"/><rect class="cls-9" x="90.27" y="10.37" width="0.82" height="4.03"/><rect class="cls-9" x="91.67" y="10.37" width="0.82" height="4.03"/><rect class="cls-9" x="93.07" y="10.37" width="0.82" height="4.03"/><rect class="cls-9" x="94.48" y="7.27" width="0.82" height="7.13"/><rect class="cls-9" x="95.88" y="10.37" width="0.82" height="4.03"/><rect class="cls-9" x="97.29" y="10.37" width="0.82" height="4.03"/><rect class="cls-9" x="98.69" y="10.37" width="0.82" height="4.03"/><rect class="cls-9" x="100.09" y="10.37" width="0.82" height="4.03"/><rect class="cls-9" x="101.5" y="7.27" width="0.82" height="7.13"/><rect class="cls-9" x="102.9" y="10.37" width="0.82" height="4.03"/><rect class="cls-9" x="104.31" y="10.37" width="0.82" height="4.03"/><rect class="cls-9" x="105.71" y="10.37" width="0.82" height="4.03"/><rect class="cls-9" x="107.11" y="10.37" width="0.82" height="4.03"/><rect class="cls-9" x="108.52" y="7.27" width="0.82" height="7.13"/><path class="cls-10" d="M165,33.5l67.63.35a23.12,23.12,0,0,1,3.52.3c0,.15-71.15.28-71.15.28h0c-.4,0-.72-.21-.72-.47s.32-.46.72-.46Z" transform="translate(-5.93 -13.37)"/><path class="cls-11" d="M163.47,30.76h0Z" transform="translate(-5.93 -13.37)"/><path class="cls-11" d="M163.47,30.76Z" transform="translate(-5.93 -13.37)"/><path class="cls-11" d="M163.32,30.74h0Z" transform="translate(-5.93 -13.37)"/><path class="cls-11" d="M163.38,30.75h-.17l-19.93-1.62v9.4l20.31-1.1h.2v-.87h.13a2.46,2.46,0,1,0,0-4.91h-.13v-.84l-.4,0h0Zm.17,6.67h0Zm-.07,0Zm0,0h0Zm.14,0h0Zm-.36-6.67h0Z" transform="translate(-5.93 -13.37)"/><path class="cls-11" d="M163.22,30.73h0Z" transform="translate(-5.93 -13.37)"/><polygon class="cls-12" points="137.36 15.74 140.97 16.04 140.97 24.95 137.36 25.14 137.36 15.74"/><rect class="cls-11" x="138.34" y="33.28" width="10.92" height="1.03" transform="translate(104.08 164.22) rotate(-90)"/><rect class="cls-12" x="138.34" y="33.28" width="10.92" height="1.03" transform="translate(104.08 164.22) rotate(-90)"/><path class="cls-13" d="M154.83,31.2c4,0,7.27.56,7.27,1.25s-3.26,1.24-7.27,1.24-7.27-.55-7.27-1.24S150.82,31.2,154.83,31.2Z" transform="translate(-5.93 -13.37)"/><rect class="cls-3" x="176.88" y="93.92" width="47.12" height="4.35" transform="translate(311.87 -106.06) rotate(96.26)"/><rect class="cls-3" x="176.88" y="93.92" width="47.12" height="4.35" transform="translate(311.87 -106.06) rotate(96.26)"/><rect class="cls-3" x="176.88" y="93.92" width="47.12" height="4.35" transform="translate(311.87 -106.06) rotate(96.26)"/><rect class="cls-3" x="176.88" y="93.92" width="47.12" height="4.35" transform="translate(311.87 -106.06) rotate(96.26)"/><rect class="cls-2" x="145.72" y="24.16" width="20.71" height="134.13" transform="translate(257.83 -67.35) rotate(96.26)"/><rect class="cls-2" x="151.46" y="19.02" width="10.35" height="134.13" transform="translate(253.34 -73.61) rotate(96.26)"/><rect class="cls-4" x="76.75" y="71.19" width="25.49" height="25.49" transform="translate(176.75 -9.26) rotate(96.26)"/><rect class="cls-5" x="203.77" y="97.22" width="40.86" height="2.96" transform="translate(340.82 -126.79) rotate(96.26)"/><rect class="cls-2" x="58.97" y="62.63" width="7.61" height="29.1" transform="translate(140.41 9.81) rotate(96.26)"/><rect class="cls-2" x="58.97" y="62.63" width="7.61" height="29.1" transform="translate(140.41 9.81) rotate(96.26)"/><rect class="cls-2" x="60.49" y="64.32" width="4.2" height="29.1" transform="translate(141.89 11.87) rotate(96.26)"/><path class="cls-7" d="M120,26.78H152.7a0,0,0,0,1,0,0V145.9a5.45,5.45,0,0,1-5.45,5.45H125.49A5.45,5.45,0,0,1,120,145.9V26.78a0,0,0,0,1,0,0Z" transform="translate(233.84 -50.15) rotate(96.26)"/><path class="cls-8" d="M131.2,16.78h12.53a0,0,0,0,1,0,0V135.9a5.45,5.45,0,0,1-5.45,5.45h-1.63a5.45,5.45,0,0,1-5.45-5.45V16.78a0,0,0,0,1,0,0Z" transform="translate(225.11 -62.34) rotate(96.26)"/><rect class="cls-9" x="146.07" y="99.24" width="9.59" height="0.91" transform="translate(29.4 225.43) rotate(-83.74)"/><rect class="cls-9" x="146.83" y="97" width="5.42" height="0.91" transform="translate(30.45 222.12) rotate(-83.74)"/><rect class="cls-9" x="145.28" y="96.83" width="5.42" height="0.91" transform="translate(29.23 220.42) rotate(-83.74)"/><rect class="cls-9" x="143.73" y="96.66" width="5.42" height="0.91" transform="translate(28.02 218.73) rotate(-83.74)"/><rect class="cls-9" x="142.18" y="96.49" width="5.42" height="0.91" transform="translate(26.81 217.03) rotate(-83.74)"/><rect class="cls-9" x="138.31" y="98.39" width="9.59" height="0.91" transform="translate(23.33 216.96) rotate(-83.74)"/><rect class="cls-9" x="139.07" y="96.15" width="5.42" height="0.91" transform="translate(24.38 213.65) rotate(-83.74)"/><rect class="cls-9" x="137.52" y="95.98" width="5.42" height="0.91" transform="translate(23.17 211.95) rotate(-83.74)"/><rect class="cls-9" x="135.97" y="95.81" width="5.42" height="0.91" transform="translate(21.95 210.26) rotate(-83.74)"/><rect class="cls-9" x="134.42" y="95.64" width="5.42" height="0.91" transform="translate(20.74 208.57) rotate(-83.74)"/><rect class="cls-9" x="130.56" y="97.54" width="9.59" height="0.91" transform="translate(17.27 208.49) rotate(-83.74)"/><rect class="cls-9" x="131.32" y="95.3" width="5.42" height="0.91" transform="translate(18.31 205.18) rotate(-83.74)"/><rect class="cls-9" x="129.76" y="95.13" width="5.42" height="0.91" transform="translate(17.1 203.48) rotate(-83.74)"/><rect class="cls-9" x="128.21" y="94.96" width="5.42" height="0.91" transform="translate(15.89 201.79) rotate(-83.74)"/><rect class="cls-9" x="126.66" y="94.79" width="5.42" height="0.91" transform="translate(14.67 200.1) rotate(-83.74)"/><rect class="cls-9" x="122.8" y="96.69" width="9.59" height="0.91" transform="translate(11.2 200.02) rotate(-83.74)"/><rect class="cls-9" x="123.56" y="94.45" width="5.42" height="0.91" transform="translate(12.25 196.71) rotate(-83.74)"/><rect class="cls-9" x="122.01" y="94.28" width="5.42" height="0.91" transform="translate(11.03 195.02) rotate(-83.74)"/><rect class="cls-9" x="120.46" y="94.11" width="5.42" height="0.91" transform="translate(9.82 193.32) rotate(-83.74)"/><rect class="cls-9" x="118.9" y="93.94" width="5.42" height="0.91" transform="translate(8.61 191.63) rotate(-83.74)"/><rect class="cls-9" x="115.04" y="95.84" width="9.59" height="0.91" transform="translate(5.13 191.55) rotate(-83.74)"/><rect class="cls-9" x="115.8" y="93.6" width="5.42" height="0.91" transform="translate(6.18 188.24) rotate(-83.74)"/><rect class="cls-9" x="114.25" y="93.43" width="5.42" height="0.91" transform="translate(4.97 186.55) rotate(-83.74)"/><rect class="cls-9" x="112.7" y="93.26" width="5.42" height="0.91" transform="translate(3.75 184.85) rotate(-83.74)"/><rect class="cls-9" x="111.15" y="93.09" width="5.42" height="0.91" transform="translate(2.54 183.16) rotate(-83.74)"/><rect class="cls-9" x="107.29" y="94.99" width="9.59" height="0.91" transform="translate(-0.94 183.09) rotate(-83.74)"/><rect class="cls-9" x="108.04" y="92.75" width="5.42" height="0.91" transform="translate(0.11 179.77) rotate(-83.74)"/><rect class="cls-9" x="106.49" y="92.58" width="5.42" height="0.91" transform="translate(-1.1 178.08) rotate(-83.74)"/><rect class="cls-9" x="104.94" y="92.41" width="5.42" height="0.91" transform="translate(-2.31 176.38) rotate(-83.74)"/><rect class="cls-9" x="103.39" y="92.24" width="5.42" height="0.91" transform="translate(-3.53 174.69) rotate(-83.74)"/><rect class="cls-9" x="99.53" y="94.14" width="9.59" height="0.91" transform="translate(-7 174.62) rotate(-83.74)"/><path class="cls-10" d="M121.24,121.52l-74.7-8.59a26.71,26.71,0,0,1-3.86-.75c0-.17,78.67,8.31,78.67,8.31h0c.45.05.78.32.75.6s-.42.48-.86.43Z" transform="translate(-5.93 -13.37)"/><path class="cls-14" d="M123.09,117.36h0l-.1,1-.15,0a2.73,2.73,0,1,0-.6,5.43l.15,0-.1.92L144.75,129l1.14-10.39Z" transform="translate(-5.93 -13.37)"/><polygon class="cls-15" points="138.82 115.63 134.86 114.87 135.94 105.02 139.96 105.24 138.82 115.63"/><rect class="cls-15" x="138.67" y="123.19" width="12.14" height="1.15" transform="matrix(-0.11, 0.99, -0.99, -0.11, 277.62, -20)"/><path class="cls-13" d="M131.83,122.16c-4.44-.49-8-1.5-7.88-2.26s3.74-1,8.18-.49,8,1.49,7.88,2.25S136.26,122.65,131.83,122.16Z" transform="translate(-5.93 -13.37)"/></g></g></svg>