<svg id="圖層_1" data-name="圖層 1" xmlns="http://www.w3.org/2000/svg" viewBox="0 0 203.67 148.12"><defs><style>.cls-1{fill:#164553;}.cls-2{fill:#f1c08a;}.cls-3{fill:#e5904d;}.cls-4{fill:#efa08e;}.cls-5{fill:#f0c77e;}.cls-6{fill:#325083;}.cls-7{fill:#4468aa;}.cls-8{fill:#e97156;}.cls-9{fill:#b05541;}.cls-10{fill:#fff;}.cls-11{fill:#0f3659;}.cls-12{fill:#f6dcb0;}.cls-13{fill:#ea887b;}.cls-14{fill:#e59689;}</style></defs><path class="cls-1" d="M102.54,108.16c-1,.23-1.89-.06-2-.66L79.45,17.67c-.14-.6.55-1.27,1.53-1.5s1.89.06,2,.66l21.06,89.83C104.21,107.26,103.53,107.93,102.54,108.16Z" transform="translate(-23.37 -1)"/><path class="cls-2" d="M97,125c.88-.21,1.73-.46,2.59-.6a3.21,3.21,0,0,0,2-1,6.2,6.2,0,0,0,1.61-5,11.28,11.28,0,0,0-.42-1.69L100,105.62c-.08-.3-.16-.59-.22-.88a.62.62,0,0,1,0-.35c.19.39.51.36.81.29.76-.17,1.52-.34,2.27-.54.26-.07.59-.15.49-.54,0,0,.14.11.16.2.62,2.87,1.23,5.75,1.84,8.62l.54,2.52a23,23,0,0,0,.56,2.62,6.13,6.13,0,0,0,3.75,3.9,3.16,3.16,0,0,0,2.32-.07,15.89,15.89,0,0,1,2.31-.56c.06,0,.2.08.23.16a3,3,0,0,1,.14.51q1.36,5.76,2.71,11.53a7.15,7.15,0,0,1-.18,3.7,16.16,16.16,0,0,1-3,5.43,25.32,25.32,0,0,1-1.72,2,3.38,3.38,0,0,1-3.84.9,21.93,21.93,0,0,1-6.18-3.31,8.92,8.92,0,0,1-2.83-3.49,4.35,4.35,0,0,1-.29-.86c-.93-3.91-1.84-7.83-2.76-11.75C97.07,125.45,97.05,125.24,97,125Zm5.52-18.53a.39.39,0,0,0-.51-.32.38.38,0,0,0-.31.5.4.4,0,0,0,.51.32A.4.4,0,0,0,102.55,106.51Z" transform="translate(-23.37 -1)"/><path class="cls-3" d="M115.2,121.5a3,3,0,0,0-.14-.51c0-.08-.17-.18-.23-.16a15.89,15.89,0,0,0-2.31.56,3.16,3.16,0,0,1-2.32.07,6.13,6.13,0,0,1-3.75-3.9,23,23,0,0,1-.56-2.62l-.54-2.52c-.61-2.87-1.22-5.75-1.84-8.62,0-.09-.12-.2-.16-.2.1.39-.23.47-.49.54l-1.19.3.41,1.74a.39.39,0,0,1,.47.33.4.4,0,0,1-.28.49l9,38.24a3.59,3.59,0,0,0,1.78-1.07,25.32,25.32,0,0,0,1.72-2,16.16,16.16,0,0,0,3-5.43,7.15,7.15,0,0,0,.18-3.7Q116.56,127.27,115.2,121.5Z" transform="translate(-23.37 -1)"/><path class="cls-4" d="M59.69,140.94a62.39,62.39,0,0,1-.32-8.24l-6,1.34a35.59,35.59,0,0,1,.5,7.2l-.17,1.52v4.48H68.4a64.66,64.66,0,0,1-7.47-4.15A3,3,0,0,1,59.69,140.94Z" transform="translate(-23.37 -1)"/><path class="cls-4" d="M36.46,139.88l1.86-5.33H33.45c-.25,3.42-.35,5.73-.35,5.73l-1.24,3.5L30.61,148s4.14,1.07,6.31-.13l-.24-4.15Z" transform="translate(-23.37 -1)"/><path class="cls-5" d="M36.68,143.65a7,7,0,0,1-4.8.07l-.27.74L30.55,148s4.2,1.29,6.37.09Z" transform="translate(-23.37 -1)"/><path class="cls-5" d="M53.59,148.35H68.82c.57,0,.7-.51.51-.79-.4-.59-2.18-1-4.18-1.95-3.5.37-10.86-2.05-11.41-2.86C53.42,144.38,53.27,148.28,53.59,148.35Z" transform="translate(-23.37 -1)"/><path class="cls-6" d="M53.91,62.6l-8.08,49.5-8.67,28.78-3.8-.46s-.27-13.7,1.81-22.41A72,72,0,0,0,37,103.47c.27-8.76.92-21.14,2.52-27.52a64.84,64.84,0,0,1,4.71-13.56Z" transform="translate(-23.37 -1)"/><path class="cls-7" d="M46,73.77C45.08,84.35,53.91,140,53.91,140h5.67s4.65-58.14,3.7-63.8-3.77-14.87-3.77-14.87l-12.7,1S46.2,70.9,46,73.77Z" transform="translate(-23.37 -1)"/><path class="cls-8" d="M53.14,28.4C44.38,24.87,40,26,38.43,26.81l.07,13.33c.25,1.12-.74,33.71-1,37.53,0,0,23,2.31,27.13-2.44,0,0-5.09-18.73-4.46-23.55C61.11,44.12,53.89,28.71,53.14,28.4Z" transform="translate(-23.37 -1)"/><path class="cls-4" d="M61,37.78s3.82,4.57,4.36,5c0,0,10.83-5.21,15.3-7.85l.15-.12c.08-.06.2-.11.2-.25,0-.6,0-2.68.11-3.58a1.72,1.72,0,0,1,.21-.7l.76-1.37L82.33,30a.65.65,0,0,0,.75.48h0A2.92,2.92,0,0,0,84,30a3.55,3.55,0,0,1,1.36-.43.89.89,0,0,1,1,.68,2.9,2.9,0,0,0,.28.86c.29.4,1.52,4.43.92,5A12.49,12.49,0,0,1,84.7,37.4a3.63,3.63,0,0,0-1.43.71L83,38.3h0c-3.11,2.2-13.45,9.77-13.45,9.77s-5.16,3.33-6.15,2.8-8.17-9-8.17-9Z" transform="translate(-23.37 -1)"/><path class="cls-4" d="M47.69,18.49a39.34,39.34,0,0,1-.24,6.78c-.44,1.87-1,2,2.76,2.58,1.49.22,2.93.55,2.93.55s-.39-2.74-.45-3.89c-.1-1.91.44-7.79.44-7.79Z" transform="translate(-23.37 -1)"/><path class="cls-9" d="M48.3,33.82c0,4.65,8,13.12,8,13.12s7.22-5.73,8.26-7.72c0,0-7.74-8.22-8.24-8.72a5.13,5.13,0,0,0-5.88-1.2C49.27,29.71,48.3,33.82,48.3,33.82Z" transform="translate(-23.37 -1)"/><path class="cls-1" d="M45,35.72c4.38-3.83,6-12.26,3.18-17.28,2-2.59,3.26-2.12,2.81-5.34C50.15,6.76,59,2.94,52.38,1.26,45.72-.08,40.18,4,37.14,8.08A16.26,16.26,0,0,1,32,12.61c-4,2.2-6.14,7.5-4,13-3.22,1.81-6,7-3.91,11.38.52,1,1.55,2.26,1.58,2.55-.06-.36-3,9.31,8,12.61C44.87,55.52,47.18,44.77,45,35.72Z" transform="translate(-23.37 -1)"/><path class="cls-1" d="M41.83,7.92c-1.3,5.35,5.72,9.23,11.28,9.37,3.61.09,5.27-.28,5.85-4.08C59.91,7,57.37,3.27,53.8,1.71,49.2-.3,42.9,3.51,41.83,7.92Z" transform="translate(-23.37 -1)"/><path class="cls-4" d="M50,4.32a7.32,7.32,0,0,0-3.75,3.29c-1.3,2.47-.65,10.37,4.77,13s7.91-3.31,7.52-7.67S56.56,2.83,50,4.32Z" transform="translate(-23.37 -1)"/><path class="cls-10" d="M53.38,16.48l3.84-.06A1.7,1.7,0,0,1,55.46,18C53.4,18.08,53.38,16.48,53.38,16.48Z" transform="translate(-23.37 -1)"/><path class="cls-9" d="M106.48,142.69c1.6-1.1,2.35-2.64,4.29-2.73a7.52,7.52,0,0,0,3.66-.74,43.87,43.87,0,0,0,4.6-2.69,7.87,7.87,0,0,1,4-1.33l6.85-1a9.37,9.37,0,0,1,2.53-.15c3.09.38,5.11,3.57,8.1,4.44,1.41.42,3,.29,4.28.95,1.69.86,2.52,2.81,2.93,4.66.25,1.14,2.54,1.79,3,4,.2.45-1.45-.2-1.86.05a3,3,0,0,1-1.41.3q-18.24,1-36.52.41c-1.47-.05-9.17.8-10.13-.55C99.68,146.79,105.27,143.52,106.48,142.69Z" transform="translate(-23.37 -1)"/><path class="cls-4" d="M172.29,64.39s-2.87-.72-3.34-.91-2.34-.53-2.49-.29,1.13,1.27,1.22,1.3,2.12.79,2.2.79S172.29,64.39,172.29,64.39Z" transform="translate(-23.37 -1)"/><path class="cls-4" d="M201.52,42.18c-.71,3.8-4.24,2.35-5,2.49l-7,14.93L173.2,64.38l-4,0c.2.15-2.78,0-3.95.63.07.19.4.44.49.63.92,1.8,2.26,3.23,2.73,5.21a9.59,9.59,0,0,0,2.74-.73c1.09-.52,4.08-1.69,4.08-1.69s17.25-3.43,18.23-4.16S203.85,46.15,201.52,42.18Z" transform="translate(-23.37 -1)"/><path class="cls-4" d="M197.3,138.94l.29,4.72c.1.6.51,2.07.51,2.62,0,2-9.69-1.74-7.52-2.64.2-.08,1.23-.7,1.29-1.4.1-1.07.36-3.23.36-3.23Z" transform="translate(-23.37 -1)"/><path class="cls-8" d="M190.61,143.62s2.27.62,3.44.78,2.7-1.16,3.52-.8.88,3.91.88,3.91-12.21,1-15.64,0C181.45,147.06,186,145.07,190.61,143.62Z" transform="translate(-23.37 -1)"/><path class="cls-11" d="M213.33,64.29s1.07,7.15-.27,10.29S201.58,108.49,201.44,111s-3.5,30.25-3.5,30.25l-7.05-.2-1.53-30.84,3.19-38.76,3.1-9.8Z" transform="translate(-23.37 -1)"/><path class="cls-4" d="M217.13,138.94l.29,4.72c.1.6.52,2.07.52,2.62,0,2-9.7-1.74-7.53-2.64.2-.08,1.54-1.17,1.6-1.86.1-1.07.05-2.77.05-2.77Z" transform="translate(-23.37 -1)"/><path class="cls-8" d="M210.44,143.62s2.27.62,3.44.78,2.7-1.16,3.53-.8.94,3.91.94,3.91-12.26,1.16-15.71,0C201.3,147,205.78,145.07,210.44,143.62Z" transform="translate(-23.37 -1)"/><path class="cls-1" d="M214.94,64.67s1.64,7.94,1,14-.72,27.42-.72,27.42l2.55,34.23-6.06.13s-10.16-35.53-10-34.65-2.41-24.09-2.41-24.09l11.54-17.76Z" transform="translate(-23.37 -1)"/><path class="cls-5" d="M190.37,57,198.63,60s2.21-6.86,3.08-10.18c1-4,2.06-9.31,1.54-9.32a7.6,7.6,0,0,0-5,1.45C193.13,46.19,190.37,57,190.37,57Z" transform="translate(-23.37 -1)"/><path class="cls-12" d="M196.57,49.07c-.24,1.26-6.4,33-6.4,33,15.57,8.53,27,4.47,27,4.47s-.59-23.51.2-26.78c.53-2.15,2.45-16.37,1.05-16.85a43.21,43.21,0,0,0-6.73-1.87c-1.93-.3-9.43-.8-10.8-.42A17.14,17.14,0,0,0,196.57,49.07Z" transform="translate(-23.37 -1)"/><path class="cls-1" d="M209.1,14.73s-5.77-2.53-7.31,2.48c0,0-5-.14-3.77,5,0,0-4.83,2.89-1.18,9.16,0,0-.94,6.21,6.24,6.07,0,0,1.23,2.09,4.46,1.34s4-1.67,4-1.67,5.91,1.26,7.28-4.09c0,0,3.9-1.24.85-6.15,0,0,3-6.87-3.27-8.41C216.39,18.42,215.17,11.71,209.1,14.73Z" transform="translate(-23.37 -1)"/><path class="cls-4" d="M213.44,29.86c-.36,1.29.06,2.53.93,2.77s1.87-.61,2.23-1.9-.06-2.53-.94-2.78S213.79,28.56,213.44,29.86Z" transform="translate(-23.37 -1)"/><path class="cls-4" d="M198.24,27.88c0,1.34.8,2.4,1.71,2.38s1.61-1.13,1.57-2.47-.8-2.41-1.7-2.38S198.2,26.54,198.24,27.88Z" transform="translate(-23.37 -1)"/><path class="cls-4" d="M204.82,36.08c0,.1-.53,3.52-.81,5.33a1.43,1.43,0,0,0,.92,1.57c1.71.63,5,1.45,7.15-.76a1,1,0,0,0,.25-.76l-.87-8Z" transform="translate(-23.37 -1)"/><path class="cls-13" d="M204.54,38c1.82.75,4,.61,6.39-1a7.81,7.81,0,0,0,.84-.65l-.31-2.87-6.64,2.63C204.82,36.13,204.7,37,204.54,38Z" transform="translate(-23.37 -1)"/><path class="cls-4" d="M208.42,18.85A8,8,0,0,1,213,21.91c1.8,2.54,3.25,10.16-2.23,13.94s-10-1.11-10.3-6S202,18.42,208.42,18.85Z" transform="translate(-23.37 -1)"/><path class="cls-10" d="M203.16,32l5.71,0a2.5,2.5,0,0,1-2.66,2.22C203.15,34.35,203.16,32,203.16,32Z" transform="translate(-23.37 -1)"/><path class="cls-1" d="M202.84,19.92s3-.29,4.8.66,5.94,7.84,7.12,7.48,1.68-4.7,1.22-5.56a32.35,32.35,0,0,0-2.77-3.83A25.57,25.57,0,0,0,210,17.45c-.47-.07-4.22.11-4.22.11Z" transform="translate(-23.37 -1)"/><path class="cls-4" d="M200.5,78.12c-.53-.32,1.37-2.5,1.11-3.06s-3.19,1.8-3.63,1.48c-.8-.58,3.06-2.77,2.71-3.06s-4.44,1.76-4.56.86,4.46-1.69,4.22-2.18-4.19,1.12-4.86.19c-.36-.5,7.1-1.88,7.49-2.63s-2.69-2-2.48-2.68,5.36,2.65,5.82,2.54,10.06-3,13.05-4.37c-.38-1.08-1.69-7.5-2.07-8.5,2.2-.15,3.51-2.58,5.68-2.86,1.09,3.45,4.48,13.65,4,14.57-1.38,2.79-16.24,4.94-18.93,5.13s-3.34,1.38-4.8,1.94S201,78.45,200.5,78.12Z" transform="translate(-23.37 -1)"/><path class="cls-5" d="M225.84,60l-10,4.86S214.22,57.46,213,52.9C212,49,217,42,218.7,43,222.43,45.1,225.84,60,225.84,60Z" transform="translate(-23.37 -1)"/><path class="cls-14" d="M170.32,68.4a1.14,1.14,0,0,1-.24,1.49c-.84.68-2.36,1.64-3.36.71-1.45-1.34-2.1-5.6-1.35-5.63s4.61,1.52,4.53,2.32A1.67,1.67,0,0,0,170.32,68.4Z" transform="translate(-23.37 -1)"/><path class="cls-1" d="M164.65,47.66c1-.17,1.88.19,2,.79l15.49,91c.1.6-.62,1.23-1.62,1.4s-1.88-.18-2-.79L163,49.07C162.93,48.46,163.65,47.83,164.65,47.66Z" transform="translate(-23.37 -1)"/><path class="cls-2" d="M171.19,31.16c-.89.15-1.75.35-2.62.43a3.3,3.3,0,0,0-2.08.88,6.26,6.26,0,0,0-1.9,4.89,11,11,0,0,0,.31,1.7l2.16,11.3c.06.3.12.6.17.9a.74.74,0,0,1-.06.34c-.16-.4-.48-.39-.79-.35-.77.13-1.54.26-2.3.41-.25.05-.59.11-.52.51a.37.37,0,0,1-.15-.21c-.43-2.91-.87-5.81-1.3-8.72l-.39-2.54a20.89,20.89,0,0,0-.4-2.65,6.1,6.1,0,0,0-3.5-4.13,3.12,3.12,0,0,0-2.31-.08,15.31,15.31,0,0,1-2.34.43c-.07,0-.2-.1-.23-.18a2.82,2.82,0,0,1-.11-.52q-1-5.84-2-11.67a7.1,7.1,0,0,1,.41-3.68A16.26,16.26,0,0,1,154.57,13c.59-.66,1.2-1.3,1.85-1.9a3.38,3.38,0,0,1,3.89-.66,21.75,21.75,0,0,1,6,3.69,8.9,8.9,0,0,1,2.61,3.65,5.35,5.35,0,0,1,.24.87q1,6,2,11.9A4.58,4.58,0,0,1,171.19,31.16Zm-6.65,18.15c.06.28.23.41.49.36a.39.39,0,0,0,.34-.49.4.4,0,0,0-.49-.35C164.6,48.87,164.52,49.07,164.54,49.31Z" transform="translate(-23.37 -1)"/><path class="cls-3" d="M152.83,33.57a2.82,2.82,0,0,0,.11.52c0,.08.16.19.23.18a15.31,15.31,0,0,0,2.34-.43,3.12,3.12,0,0,1,2.31.08,6.1,6.1,0,0,1,3.5,4.13,20.89,20.89,0,0,1,.4,2.65l.39,2.54c.43,2.91.87,5.81,1.3,8.72a.37.37,0,0,0,.15.21c-.07-.4.27-.46.52-.51l1.21-.22-.3-1.77a.42.42,0,0,1-.14-.83l-6.6-38.72a3.55,3.55,0,0,0-1.83,1c-.65.6-1.26,1.24-1.85,1.9a16.26,16.26,0,0,0-3.32,5.24,7.1,7.1,0,0,0-.41,3.68Q151.83,27.74,152.83,33.57Z" transform="translate(-23.37 -1)"/></svg>