<svg xmlns="http://www.w3.org/2000/svg" viewBox="0 0 240 136.04"><defs><style>.cls-1{isolation:isolate;}.cls-10,.cls-15,.cls-2{fill:#fff;}.cls-3{fill:#040000;}.cls-4{fill:#e7211b;}.cls-5,.cls-6{fill:#c4c1c5;}.cls-6{opacity:0.56;}.cls-20,.cls-6{mix-blend-mode:multiply;}.cls-7{fill:#e71e14;}.cls-8{fill:#c7c6c6;}.cls-9{fill:#e7211a;}.cls-10{opacity:0.32;}.cls-11{fill:#ede7ee;}.cls-12{fill:#9f9ba0;}.cls-13{fill:#aeadad;}.cls-14{fill:#8d8e8e;}.cls-15{opacity:0.46;}.cls-16,.cls-22{fill:#bfbac3;}.cls-17{fill:#d04718;}.cls-18{fill:#f4de26;}.cls-19{fill:#fdfbe3;opacity:0.43;}.cls-19,.cls-22{mix-blend-mode:overlay;}.cls-20{fill:#d8a929;}.cls-21{opacity:0.41;mix-blend-mode:screen;}.cls-22{opacity:0.65;}.cls-23{fill:#aaa5ac;}</style></defs><g class="cls-1"><g id="圖層_1" data-name="圖層 1"><rect class="cls-2" y="9.54" width="145.85" height="86.77"/><polygon class="cls-3" points="171.16 102.79 145.31 96.31 145.85 9.54 171.16 0 171.16 102.79"/><rect class="cls-4" x="171.16" width="24.04" height="102.79"/><path class="cls-5" d="M240.1,30.71v59a13.89,13.89,0,0,1-13.89,13.89h-80.8V16.82h80.8a13.92,13.92,0,0,1,13.46,10.42A14.22,14.22,0,0,1,240.1,30.71Z" transform="translate(-0.1 -7.28)"/><path class="cls-6" d="M239.67,27.24l-82.82,76.35H145.41V87l76.06-70.13h4.74A13.92,13.92,0,0,1,239.67,27.24Z" transform="translate(-0.1 -7.28)"/><polygon class="cls-6" points="213.88 9.54 145.31 72.76 145.31 49.84 189.02 9.54 213.88 9.54"/><polygon class="cls-6" points="184.33 9.54 145.31 45.52 145.31 9.54 184.33 9.54"/><path class="cls-7" d="M36.86,60.21c0,23.31-16.31,42.34-36.76,43.34V16.87C20.55,17.86,36.86,36.88,36.86,60.21Z" transform="translate(-0.1 -7.28)"/><rect class="cls-8" x="43.22" y="31.26" width="95.84" height="12.48"/><rect class="cls-9" x="57.74" y="52.92" width="53.31" height="5.65"/><rect class="cls-10" x="10.34" y="20.45" width="128.72" height="50.32"/><path class="cls-11" d="M167.52,33.17A9.18,9.18,0,1,1,158.34,24,9.18,9.18,0,0,1,167.52,33.17Z" transform="translate(-0.1 -7.28)"/><path class="cls-12" d="M163.72,40.61a8.67,8.67,0,0,1-6.57,2c-8-.66-11.38-11.15-5.15-16.1a9.21,9.21,0,0,0,5.24,15.39A9.51,9.51,0,0,0,163.72,40.61Z" transform="translate(-0.1 -7.28)"/><path class="cls-13" d="M153.64,38.57l10.45-10.45A63,63,0,0,0,153.64,38.57Z" transform="translate(-0.1 -7.28)"/><path class="cls-14" d="M153.64,38.57l-.28.35a62.66,62.66,0,0,0,10.73-10.8h0Z" transform="translate(-0.1 -7.28)"/><path class="cls-15" d="M165.79,31.55c0,2.11-2.78,3.82-6.21,3.82s-6.22-1.71-6.22-3.82,2.78-3.82,6.22-3.82S165.79,29.44,165.79,31.55Z" transform="translate(-0.1 -7.28)"/><circle class="cls-11" cx="186.11" cy="25.89" r="9.18"/><path class="cls-12" d="M191.6,40.61a8.69,8.69,0,0,1-6.58,2c-8-.66-11.37-11.15-5.14-16.1a9.21,9.21,0,0,0,5.23,15.39A9.53,9.53,0,0,0,191.6,40.61Z" transform="translate(-0.1 -7.28)"/><path class="cls-13" d="M181.52,38.57,192,28.12A63.32,63.32,0,0,0,181.52,38.57Z" transform="translate(-0.1 -7.28)"/><path class="cls-14" d="M181.52,38.57c-.09.11-.2.24-.28.35A63.38,63.38,0,0,0,192,28.12h0Z" transform="translate(-0.1 -7.28)"/><path class="cls-15" d="M193.66,31.55c0,2.11-2.78,3.82-6.21,3.82s-6.21-1.71-6.21-3.82,2.78-3.82,6.21-3.82S193.66,29.44,193.66,31.55Z" transform="translate(-0.1 -7.28)"/><path class="cls-11" d="M223.27,33.17A9.18,9.18,0,1,1,214.09,24,9.18,9.18,0,0,1,223.27,33.17Z" transform="translate(-0.1 -7.28)"/><path class="cls-12" d="M219.47,40.61a8.67,8.67,0,0,1-6.57,2c-8-.66-11.38-11.15-5.15-16.1A9.21,9.21,0,0,0,213,41.92,9.51,9.51,0,0,0,219.47,40.61Z" transform="translate(-0.1 -7.28)"/><path class="cls-13" d="M209.39,38.57l10.45-10.45A63,63,0,0,0,209.39,38.57Z" transform="translate(-0.1 -7.28)"/><path class="cls-14" d="M209.39,38.57l-.28.35a62.66,62.66,0,0,0,10.73-10.8h0Z" transform="translate(-0.1 -7.28)"/><path class="cls-15" d="M221.54,31.55c0,2.11-2.78,3.82-6.21,3.82s-6.22-1.71-6.22-3.82,2.78-3.82,6.22-3.82S221.54,29.44,221.54,31.55Z" transform="translate(-0.1 -7.28)"/><path class="cls-11" d="M167.52,62.88a9.18,9.18,0,1,1-9.18-9.19A9.18,9.18,0,0,1,167.52,62.88Z" transform="translate(-0.1 -7.28)"/><path class="cls-12" d="M163.72,70.32a8.7,8.7,0,0,1-6.57,2c-8-.66-11.38-11.14-5.15-16.1a9.22,9.22,0,0,0,5.24,15.4A9.57,9.57,0,0,0,163.72,70.32Z" transform="translate(-0.1 -7.28)"/><path class="cls-13" d="M153.64,68.27l10.45-10.45A63.38,63.38,0,0,0,153.64,68.27Z" transform="translate(-0.1 -7.28)"/><path class="cls-14" d="M153.64,68.27l-.28.36a62.37,62.37,0,0,0,10.73-10.81h0Z" transform="translate(-0.1 -7.28)"/><path class="cls-15" d="M165.79,61.26c0,2.11-2.78,3.82-6.21,3.82s-6.22-1.71-6.22-3.82,2.78-3.82,6.22-3.82S165.79,59.15,165.79,61.26Z" transform="translate(-0.1 -7.28)"/><circle class="cls-11" cx="186.11" cy="55.59" r="9.18"/><path class="cls-12" d="M191.6,70.32a8.73,8.73,0,0,1-6.58,2c-8-.66-11.37-11.14-5.14-16.1a9.22,9.22,0,0,0,5.23,15.4A9.59,9.59,0,0,0,191.6,70.32Z" transform="translate(-0.1 -7.28)"/><path class="cls-13" d="M181.52,68.27,192,57.82A63.71,63.71,0,0,0,181.52,68.27Z" transform="translate(-0.1 -7.28)"/><path class="cls-14" d="M181.52,68.27c-.09.12-.2.24-.28.36A63.08,63.08,0,0,0,192,57.82h0Z" transform="translate(-0.1 -7.28)"/><path class="cls-15" d="M193.66,61.26c0,2.11-2.78,3.82-6.21,3.82s-6.21-1.71-6.21-3.82,2.78-3.82,6.21-3.82S193.66,59.15,193.66,61.26Z" transform="translate(-0.1 -7.28)"/><path class="cls-11" d="M223.27,62.88a9.18,9.18,0,1,1-9.18-9.19A9.18,9.18,0,0,1,223.27,62.88Z" transform="translate(-0.1 -7.28)"/><path class="cls-12" d="M219.47,70.32a8.7,8.7,0,0,1-6.57,2c-8-.66-11.38-11.14-5.15-16.1A9.22,9.22,0,0,0,213,71.63,9.57,9.57,0,0,0,219.47,70.32Z" transform="translate(-0.1 -7.28)"/><path class="cls-13" d="M209.39,68.27l10.45-10.45A63.38,63.38,0,0,0,209.39,68.27Z" transform="translate(-0.1 -7.28)"/><path class="cls-14" d="M209.39,68.27l-.28.36a62.37,62.37,0,0,0,10.73-10.81h0Z" transform="translate(-0.1 -7.28)"/><path class="cls-15" d="M221.54,61.26c0,2.11-2.78,3.82-6.21,3.82s-6.22-1.71-6.22-3.82,2.78-3.82,6.22-3.82S221.54,59.15,221.54,61.26Z" transform="translate(-0.1 -7.28)"/><path class="cls-11" d="M167.52,87.45a9.18,9.18,0,1,1-9.18-9.19A9.18,9.18,0,0,1,167.52,87.45Z" transform="translate(-0.1 -7.28)"/><path class="cls-12" d="M163.72,94.89a8.7,8.7,0,0,1-6.57,2c-8-.66-11.38-11.14-5.15-16.1a9.22,9.22,0,0,0,5.24,15.4A9.57,9.57,0,0,0,163.72,94.89Z" transform="translate(-0.1 -7.28)"/><path class="cls-13" d="M153.64,92.85,164.09,82.4A62.61,62.61,0,0,0,153.64,92.85Z" transform="translate(-0.1 -7.28)"/><path class="cls-14" d="M153.64,92.85l-.28.35a62.66,62.66,0,0,0,10.73-10.8h0Z" transform="translate(-0.1 -7.28)"/><path class="cls-15" d="M165.79,85.83c0,2.11-2.78,3.82-6.21,3.82s-6.22-1.71-6.22-3.82S156.14,82,159.58,82,165.79,83.72,165.79,85.83Z" transform="translate(-0.1 -7.28)"/><path class="cls-11" d="M195.4,87.45a9.19,9.19,0,1,1-9.18-9.19A9.18,9.18,0,0,1,195.4,87.45Z" transform="translate(-0.1 -7.28)"/><path class="cls-12" d="M191.6,94.89a8.73,8.73,0,0,1-6.58,2c-8-.66-11.37-11.14-5.14-16.1a9.22,9.22,0,0,0,5.23,15.4A9.59,9.59,0,0,0,191.6,94.89Z" transform="translate(-0.1 -7.28)"/><path class="cls-13" d="M181.52,92.85,192,82.4A62.94,62.94,0,0,0,181.52,92.85Z" transform="translate(-0.1 -7.28)"/><path class="cls-14" d="M181.52,92.85c-.09.11-.2.24-.28.35A63.38,63.38,0,0,0,192,82.4h0Z" transform="translate(-0.1 -7.28)"/><path class="cls-15" d="M193.66,85.83c0,2.11-2.78,3.82-6.21,3.82s-6.21-1.71-6.21-3.82S184,82,187.45,82,193.66,83.72,193.66,85.83Z" transform="translate(-0.1 -7.28)"/><path class="cls-11" d="M223.27,87.45a9.18,9.18,0,1,1-9.18-9.19A9.18,9.18,0,0,1,223.27,87.45Z" transform="translate(-0.1 -7.28)"/><path class="cls-12" d="M219.47,94.89a8.7,8.7,0,0,1-6.57,2c-8-.66-11.38-11.14-5.15-16.1A9.22,9.22,0,0,0,213,96.2,9.57,9.57,0,0,0,219.47,94.89Z" transform="translate(-0.1 -7.28)"/><path class="cls-13" d="M209.39,92.85,219.84,82.4A62.61,62.61,0,0,0,209.39,92.85Z" transform="translate(-0.1 -7.28)"/><path class="cls-14" d="M209.39,92.85l-.28.35a62.66,62.66,0,0,0,10.73-10.8h0Z" transform="translate(-0.1 -7.28)"/><path class="cls-15" d="M221.54,85.83c0,2.11-2.78,3.82-6.21,3.82s-6.22-1.71-6.22-3.82S211.89,82,215.33,82,221.54,83.72,221.54,85.83Z" transform="translate(-0.1 -7.28)"/><path class="cls-16" d="M201.35,136.19a10.28,10.28,0,0,1-12.93,6.64L68.83,104.41a10.27,10.27,0,0,1-6.64-12.93l12.86-40A10.27,10.27,0,0,1,88,44.82L207.56,83.24A10.26,10.26,0,0,1,214.64,92C215,95.74,214.39,94.63,201.35,136.19Z" transform="translate(-0.1 -7.28)"/><path class="cls-17" d="M88.07,63.51l1.42,5.87a4,4,0,1,0,7.73-1.87L95.8,61.64Z" transform="translate(-0.1 -7.28)"/><path class="cls-18" d="M94.29,55.38a4,4,0,1,0-7.73,1.87l1.51,6.26,7.73-1.87Z" transform="translate(-0.1 -7.28)"/><path class="cls-19" d="M95.34,65.71l-.92-3.81-1-4.06a2.57,2.57,0,0,0-5,1.21l1,4.06.92,3.81a2.57,2.57,0,0,0,5-1.21Z" transform="translate(-0.1 -7.28)"/><path class="cls-20" d="M91.25,68.49l-1.42-5.87-1.51-6.25a4,4,0,0,1,1.26-3.93h-.09a4,4,0,0,0-2.93,4.8l1.51,6.26,1.42,5.87a4,4,0,0,0,4.8,2.93A4,4,0,0,0,96,71.44,4,4,0,0,1,91.25,68.49Z" transform="translate(-0.1 -7.28)"/><g class="cls-21"><path class="cls-2" d="M90.24,54.32A.62.62,0,0,1,91.45,54l3.74,14.38a.62.62,0,0,1-.45.76C93.77,69.4,94.09,68.69,90.24,54.32Z" transform="translate(-0.1 -7.28)"/></g><path class="cls-17" d="M103.17,68.36l1.41,5.86a4,4,0,0,0,7.73-1.86l-1.42-5.87Z" transform="translate(-0.1 -7.28)"/><path class="cls-18" d="M109.38,60.23a4,4,0,0,0-7.73,1.87l1.52,6.26,7.72-1.87Z" transform="translate(-0.1 -7.28)"/><path class="cls-19" d="M110.43,70.55l-.92-3.8-1-4.06a2.57,2.57,0,1,0-5,1.21l1,4.06.92,3.8a2.57,2.57,0,1,0,5-1.21Z" transform="translate(-0.1 -7.28)"/><path class="cls-20" d="M106.34,73.34l-1.41-5.87-1.52-6.26a4,4,0,0,1,1.26-3.92h-.09a4,4,0,0,0-2.93,4.8l1.52,6.26,1.41,5.86a4,4,0,0,0,4.8,2.93,3.92,3.92,0,0,0,1.67-.86A4,4,0,0,1,106.34,73.34Z" transform="translate(-0.1 -7.28)"/><g class="cls-21"><path class="cls-2" d="M105.33,59.17a.62.62,0,0,1,1.21-.31l3.74,14.38a.62.62,0,0,1-.45.76C108.86,74.25,109.18,73.54,105.33,59.17Z" transform="translate(-0.1 -7.28)"/></g><path class="cls-17" d="M118.26,73.2l1.41,5.87a4,4,0,0,0,7.73-1.86L126,71.34Z" transform="translate(-0.1 -7.28)"/><path class="cls-18" d="M124.47,65.08A4,4,0,1,0,116.74,67l1.52,6.25L126,71.34Z" transform="translate(-0.1 -7.28)"/><path class="cls-19" d="M125.52,75.4l-.92-3.8-1-4.06a2.57,2.57,0,1,0-5,1.21l1,4.06.92,3.8a2.57,2.57,0,1,0,5-1.21Z" transform="translate(-0.1 -7.28)"/><path class="cls-20" d="M121.44,78.19,120,72.32l-1.52-6.26a4,4,0,0,1,1.26-3.93l-.09,0a4,4,0,0,0-2.93,4.8l1.52,6.25,1.41,5.87a4,4,0,0,0,4.8,2.93,3.92,3.92,0,0,0,1.68-.87A4,4,0,0,1,121.44,78.19Z" transform="translate(-0.1 -7.28)"/><g class="cls-21"><path class="cls-2" d="M120.42,64a.62.62,0,0,1,1.21-.31l3.74,14.38a.62.62,0,0,1-.44.76C124,79.1,124.28,78.39,120.42,64Z" transform="translate(-0.1 -7.28)"/></g><path class="cls-17" d="M133.35,78.05l1.42,5.87a4,4,0,1,0,7.72-1.87l-1.42-5.87Z" transform="translate(-0.1 -7.28)"/><path class="cls-18" d="M139.56,69.93a4,4,0,0,0-7.73,1.86l1.52,6.26,7.72-1.87Z" transform="translate(-0.1 -7.28)"/><path class="cls-19" d="M140.62,80.25l-.92-3.81-1-4a2.57,2.57,0,1,0-5,1.21l1,4.06.92,3.8a2.58,2.58,0,0,0,5-1.21Z" transform="translate(-0.1 -7.28)"/><path class="cls-20" d="M136.53,83l-1.42-5.87-1.52-6.26A4,4,0,0,1,134.85,67l-.09,0a4,4,0,0,0-2.93,4.79l1.52,6.26,1.42,5.87a4,4,0,0,0,4.79,2.93,4,4,0,0,0,1.68-.87A4,4,0,0,1,136.53,83Z" transform="translate(-0.1 -7.28)"/><g class="cls-21"><path class="cls-2" d="M135.51,68.87a.63.63,0,0,1,1.21-.32l3.74,14.38a.63.63,0,0,1-.44.77C139.05,84,139.37,83.23,135.51,68.87Z" transform="translate(-0.1 -7.28)"/></g><path class="cls-17" d="M148.44,82.9l1.42,5.87a4,4,0,1,0,7.72-1.87L156.16,81Z" transform="translate(-0.1 -7.28)"/><path class="cls-18" d="M154.65,74.77a4,4,0,0,0-7.73,1.87l1.52,6.26L156.16,81Z" transform="translate(-0.1 -7.28)"/><path class="cls-19" d="M155.71,85.1l-.92-3.81-1-4.05a2.58,2.58,0,0,0-5,1.21l1,4,.92,3.81a2.58,2.58,0,1,0,5-1.21Z" transform="translate(-0.1 -7.28)"/><path class="cls-20" d="M151.62,87.88,150.2,82l-1.52-6.26a4,4,0,0,1,1.26-3.93l-.09,0a4,4,0,0,0-2.93,4.79l1.52,6.26,1.42,5.87a4,4,0,0,0,4.79,2.93,4,4,0,0,0,1.68-.87A4,4,0,0,1,151.62,87.88Z" transform="translate(-0.1 -7.28)"/><g class="cls-21"><path class="cls-2" d="M150.6,73.72a.63.63,0,0,1,1.21-.32l3.74,14.38a.61.61,0,0,1-.44.76C154.14,88.8,154.46,88.08,150.6,73.72Z" transform="translate(-0.1 -7.28)"/></g><path class="cls-17" d="M163.53,87.75,165,93.62a4,4,0,0,0,7.72-1.87l-1.42-5.87Z" transform="translate(-0.1 -7.28)"/><path class="cls-18" d="M169.74,79.62A4,4,0,1,0,162,81.49l1.51,6.26,7.72-1.87Z" transform="translate(-0.1 -7.28)"/><path class="cls-19" d="M170.8,89.94l-.92-3.8-1-4.06a2.58,2.58,0,0,0-5,1.21l1,4.06.92,3.81a2.58,2.58,0,0,0,5-1.22Z" transform="translate(-0.1 -7.28)"/><path class="cls-20" d="M166.71,92.73l-1.42-5.87-1.51-6.25A4,4,0,0,1,165,76.68h-.09a4,4,0,0,0-2.92,4.8l1.51,6.26L165,93.62a4,4,0,0,0,4.79,2.92,4,4,0,0,0,1.68-.86A4,4,0,0,1,166.71,92.73Z" transform="translate(-0.1 -7.28)"/><g class="cls-21"><path class="cls-2" d="M165.69,78.56a.62.62,0,0,1,1.21-.31l3.74,14.38a.62.62,0,0,1-.44.76C169.23,93.64,169.55,92.93,165.69,78.56Z" transform="translate(-0.1 -7.28)"/></g><path class="cls-17" d="M178.62,92.6,180,98.46a4,4,0,1,0,7.72-1.86l-1.42-5.87Z" transform="translate(-0.1 -7.28)"/><path class="cls-18" d="M184.83,84.47a4,4,0,1,0-7.72,1.87l1.51,6.26,7.72-1.87Z" transform="translate(-0.1 -7.28)"/><path class="cls-19" d="M185.89,94.79,185,91l-1-4.06a2.58,2.58,0,0,0-5,1.21l1,4.06.92,3.8a2.58,2.58,0,1,0,5-1.21Z" transform="translate(-0.1 -7.28)"/><path class="cls-20" d="M181.8,97.58l-1.42-5.87-1.51-6.26a4,4,0,0,1,1.25-3.92H180a4,4,0,0,0-2.92,4.8l1.51,6.26L180,98.46a4,4,0,0,0,4.79,2.93,3.86,3.86,0,0,0,1.68-.87A4,4,0,0,1,181.8,97.58Z" transform="translate(-0.1 -7.28)"/><g class="cls-21"><path class="cls-2" d="M180.78,83.41A.62.62,0,0,1,182,83.1l3.74,14.38a.62.62,0,0,1-.44.76C184.32,98.49,184.64,97.78,180.78,83.41Z" transform="translate(-0.1 -7.28)"/></g><path class="cls-17" d="M193.71,97.44l1.42,5.87a4,4,0,1,0,7.72-1.86l-1.42-5.87Z" transform="translate(-0.1 -7.28)"/><path class="cls-18" d="M199.92,89.32a4,4,0,1,0-7.72,1.87l1.51,6.25,7.72-1.86Z" transform="translate(-0.1 -7.28)"/><path class="cls-19" d="M201,99.64l-.92-3.8-1-4.06a2.58,2.58,0,0,0-5,1.21l1,4.06.92,3.8a2.58,2.58,0,1,0,5-1.21Z" transform="translate(-0.1 -7.28)"/><path class="cls-20" d="M196.89,102.43l-1.42-5.87L194,90.3a4,4,0,0,1,1.25-3.93l-.09,0a4,4,0,0,0-2.92,4.8l1.51,6.25,1.42,5.87a4,4,0,0,0,4.79,2.93,3.86,3.86,0,0,0,1.68-.87A4,4,0,0,1,196.89,102.43Z" transform="translate(-0.1 -7.28)"/><g class="cls-21"><path class="cls-2" d="M195.87,88.26a.63.63,0,0,1,1.21-.32l3.75,14.39a.64.64,0,0,1-.45.76C199.41,103.34,199.73,102.63,195.87,88.26Z" transform="translate(-0.1 -7.28)"/></g><path class="cls-17" d="M78.78,92.45l1.42,5.87a4,4,0,0,0,7.72-1.87L86.5,90.58Z" transform="translate(-0.1 -7.28)"/><path class="cls-18" d="M85,84.32a4,4,0,1,0-7.72,1.87l1.51,6.26,7.72-1.87Z" transform="translate(-0.1 -7.28)"/><path class="cls-19" d="M86.05,94.64l-.92-3.8-1-4.06a2.58,2.58,0,1,0-5,1.21l1,4.06.92,3.8a2.58,2.58,0,0,0,5-1.21Z" transform="translate(-0.1 -7.28)"/><path class="cls-20" d="M82,97.43l-1.42-5.87L79,85.31a4,4,0,0,1,1.25-3.93h-.09a4,4,0,0,0-2.92,4.8l1.51,6.26,1.42,5.87a4,4,0,0,0,6.47,2.06A4,4,0,0,1,82,97.43Z" transform="translate(-0.1 -7.28)"/><g class="cls-21"><path class="cls-2" d="M80.94,83.26A.62.62,0,0,1,82.15,83l3.74,14.38a.62.62,0,0,1-.44.76C84.48,98.34,84.8,97.63,80.94,83.26Z" transform="translate(-0.1 -7.28)"/></g><path class="cls-17" d="M93.87,97.3l1.42,5.86A4,4,0,1,0,103,101.3l-1.42-5.87Z" transform="translate(-0.1 -7.28)"/><path class="cls-18" d="M100.08,89.17A4,4,0,1,0,92.36,91l1.51,6.26,7.72-1.87Z" transform="translate(-0.1 -7.28)"/><path class="cls-19" d="M101.14,99.49l-.92-3.8-1-4.06a2.58,2.58,0,0,0-5,1.21l1,4.06.92,3.8a2.58,2.58,0,1,0,5-1.21Z" transform="translate(-0.1 -7.28)"/><path class="cls-20" d="M97.05,102.28l-1.42-5.87-1.51-6.26a4,4,0,0,1,1.25-3.92h-.09A4,4,0,0,0,92.36,91l1.51,6.26,1.42,5.86a4,4,0,0,0,4.79,2.93,3.86,3.86,0,0,0,1.68-.87A4,4,0,0,1,97.05,102.28Z" transform="translate(-0.1 -7.28)"/><g class="cls-21"><path class="cls-2" d="M96,88.11a.62.62,0,0,1,1.21-.31L101,102.18a.62.62,0,0,1-.44.76C99.57,103.19,99.89,102.48,96,88.11Z" transform="translate(-0.1 -7.28)"/></g><path class="cls-17" d="M109,102.14l1.42,5.87a4,4,0,1,0,7.72-1.87l-1.42-5.86Z" transform="translate(-0.1 -7.28)"/><path class="cls-18" d="M115.17,94a4,4,0,1,0-7.72,1.87l1.51,6.25,7.72-1.86Z" transform="translate(-0.1 -7.28)"/><path class="cls-19" d="M116.23,104.34l-.92-3.8-1-4.06a2.58,2.58,0,1,0-5,1.21l1,4.06.92,3.8a2.58,2.58,0,0,0,5-1.21Z" transform="translate(-0.1 -7.28)"/><path class="cls-20" d="M112.14,107.13l-1.42-5.87L109.21,95a4,4,0,0,1,1.25-3.93l-.09,0a4,4,0,0,0-2.92,4.8l1.51,6.25,1.42,5.87a4,4,0,0,0,6.47,2.06A4,4,0,0,1,112.14,107.13Z" transform="translate(-0.1 -7.28)"/><g class="cls-21"><path class="cls-2" d="M111.12,93a.63.63,0,0,1,1.21-.32L116.08,107a.64.64,0,0,1-.45.77C114.66,108,115,107.32,111.12,93Z" transform="translate(-0.1 -7.28)"/></g><path class="cls-17" d="M124.05,107l1.42,5.87a4,4,0,1,0,7.72-1.87l-1.42-5.87Z" transform="translate(-0.1 -7.28)"/><path class="cls-18" d="M130.26,98.87a4,4,0,0,0-7.72,1.86l1.51,6.26,7.72-1.87Z" transform="translate(-0.1 -7.28)"/><path class="cls-19" d="M131.32,109.19l-.92-3.81-1-4a2.58,2.58,0,0,0-5,1.21l1,4,.92,3.81a2.58,2.58,0,1,0,5-1.21Z" transform="translate(-0.1 -7.28)"/><path class="cls-20" d="M127.23,112l-1.42-5.87-1.51-6.26a4,4,0,0,1,1.25-3.93l-.08,0a4,4,0,0,0-2.93,4.79l1.51,6.26,1.42,5.87a4,4,0,0,0,6.47,2.06A4,4,0,0,1,127.23,112Z" transform="translate(-0.1 -7.28)"/><g class="cls-21"><path class="cls-2" d="M126.21,97.81a.63.63,0,0,1,1.21-.32l3.75,14.38a.63.63,0,0,1-.45.76C129.75,112.89,130.07,112.17,126.21,97.81Z" transform="translate(-0.1 -7.28)"/></g><path class="cls-17" d="M139.14,111.84l1.42,5.87a4,4,0,1,0,7.72-1.87L146.86,110Z" transform="translate(-0.1 -7.28)"/><path class="cls-18" d="M145.35,103.71a4,4,0,0,0-7.72,1.87l1.51,6.26,7.72-1.87Z" transform="translate(-0.1 -7.28)"/><path class="cls-19" d="M146.41,114l-.92-3.81-1-4.06a2.58,2.58,0,0,0-5,1.22l1,4,.92,3.81a2.58,2.58,0,0,0,5-1.21Z" transform="translate(-0.1 -7.28)"/><path class="cls-20" d="M142.32,116.82,140.9,111l-1.51-6.25a4,4,0,0,1,1.25-3.93l-.08,0a4,4,0,0,0-2.93,4.79l1.51,6.26,1.42,5.87a4,4,0,0,0,4.79,2.93,4.09,4.09,0,0,0,1.68-.87A4,4,0,0,1,142.32,116.82Z" transform="translate(-0.1 -7.28)"/><g class="cls-21"><path class="cls-2" d="M141.3,102.66a.63.63,0,0,1,1.21-.32l3.75,14.38a.63.63,0,0,1-.45.76C144.84,117.74,145.16,117,141.3,102.66Z" transform="translate(-0.1 -7.28)"/></g><path class="cls-17" d="M154.23,116.69l1.42,5.87a4,4,0,0,0,7.72-1.87L162,114.82Z" transform="translate(-0.1 -7.28)"/><path class="cls-18" d="M160.44,108.56a4,4,0,1,0-7.72,1.87l1.51,6.26,7.72-1.87Z" transform="translate(-0.1 -7.28)"/><path class="cls-19" d="M161.5,118.88l-.92-3.8-1-4.06a2.58,2.58,0,0,0-5,1.21l1,4.06.92,3.8a2.58,2.58,0,1,0,5-1.21Z" transform="translate(-0.1 -7.28)"/><path class="cls-20" d="M157.41,121.67,156,115.8l-1.51-6.25a4,4,0,0,1,1.25-3.93h-.08a4,4,0,0,0-2.93,4.8l1.51,6.26,1.42,5.87a4,4,0,0,0,6.47,2.06A4,4,0,0,1,157.41,121.67Z" transform="translate(-0.1 -7.28)"/><g class="cls-21"><path class="cls-2" d="M156.39,107.5a.62.62,0,0,1,1.21-.31l3.75,14.38a.64.64,0,0,1-.45.76C159.93,122.58,160.25,121.87,156.39,107.5Z" transform="translate(-0.1 -7.28)"/></g><path class="cls-17" d="M169.32,121.53l1.42,5.87a4,4,0,1,0,7.72-1.86l-1.41-5.87Z" transform="translate(-0.1 -7.28)"/><path class="cls-18" d="M175.53,113.41a4,4,0,1,0-7.72,1.87l1.51,6.25,7.73-1.86Z" transform="translate(-0.1 -7.28)"/><path class="cls-19" d="M176.59,123.73l-.92-3.8-1-4.06a2.58,2.58,0,1,0-5,1.21l1,4.06.92,3.8a2.58,2.58,0,0,0,5-1.21Z" transform="translate(-0.1 -7.28)"/><path class="cls-20" d="M172.5,126.52l-1.42-5.87-1.51-6.26a4,4,0,0,1,1.25-3.92h-.08a4,4,0,0,0-2.93,4.8l1.51,6.25,1.42,5.87a4,4,0,0,0,4.8,2.93,3.88,3.88,0,0,0,1.67-.87A4,4,0,0,1,172.5,126.52Z" transform="translate(-0.1 -7.28)"/><g class="cls-21"><path class="cls-2" d="M171.48,112.35a.62.62,0,0,1,1.21-.31l3.75,14.38a.64.64,0,0,1-.45.76C175,127.43,175.34,126.72,171.48,112.35Z" transform="translate(-0.1 -7.28)"/></g><path class="cls-17" d="M184.41,126.38l1.42,5.87a4,4,0,1,0,7.72-1.87l-1.41-5.86Z" transform="translate(-0.1 -7.28)"/><path class="cls-18" d="M190.62,118.26a4,4,0,1,0-7.72,1.87l1.51,6.25,7.73-1.86Z" transform="translate(-0.1 -7.28)"/><path class="cls-19" d="M191.68,128.58l-.92-3.8-1-4.06a2.58,2.58,0,0,0-5,1.21l1,4.06.92,3.8a2.58,2.58,0,1,0,5-1.21Z" transform="translate(-0.1 -7.28)"/><path class="cls-20" d="M187.59,131.37l-1.42-5.87-1.51-6.26a4,4,0,0,1,1.25-3.93l-.08,0a4,4,0,0,0-2.93,4.8l1.51,6.25,1.42,5.87a4,4,0,0,0,4.8,2.93,3.93,3.93,0,0,0,1.67-.87A4,4,0,0,1,187.59,131.37Z" transform="translate(-0.1 -7.28)"/><g class="cls-21"><path class="cls-2" d="M186.57,117.2a.63.63,0,0,1,1.21-.32l3.75,14.38a.63.63,0,0,1-.45.77C190.11,132.28,190.43,131.56,186.57,117.2Z" transform="translate(-0.1 -7.28)"/></g><polygon class="cls-22" points="213.99 89.24 210.71 99.45 167.63 128.9 159.7 126.35 213.99 89.24"/><path class="cls-22" d="M214.64,92l-59,40.32-19.85-6.37,65.42-44.72C203.85,82.58,213.71,82.86,214.64,92Z" transform="translate(-0.1 -7.28)"/><polygon class="cls-22" points="198.93 73.22 133.51 117.94 121.98 114.24 187.39 69.51 198.93 73.22"/><path class="cls-23" d="M198.06,115.57,81,78a3,3,0,0,1-1.92-3.73h0a3,3,0,0,1,3.73-1.92l117.09,37.62a3,3,0,0,1,1.92,3.73h0A3,3,0,0,1,198.06,115.57Z" transform="translate(-0.1 -7.28)"/></g></g></svg>