<svg id="圖層_1" data-name="圖層 1" xmlns="http://www.w3.org/2000/svg" viewBox="0 0 215.54 150"><defs><style>.cls-1{fill:#fcefe0;}.cls-2{fill:#97bba7;}.cls-3{fill:#288d92;}.cls-4{fill:#cec3a5;}.cls-5{fill:#f9d7af;}.cls-6{fill:#e16563;}.cls-7{fill:#1c1d1b;opacity:0.1;}.cls-8{fill:#2e96b5;}.cls-9{fill:#e2e2e1;}</style></defs><path class="cls-1" d="M99.66,142.18H58.94c14-23,12.19-48.76,13.43-71.71H86.23C87.47,93.42,85.68,119.22,99.66,142.18Z" transform="translate(-18.63)"/><path class="cls-2" d="M87.44,58.72S114.83,53.65,126,73a16.27,16.27,0,0,1-.57,17.09A20.78,20.78,0,0,1,111,99.56,10.54,10.54,0,0,1,99.11,92c-2.63-9.15-8.77-16.84-17.27-23.55L79.3,60.67Z" transform="translate(-18.63)"/><path class="cls-3" d="M128.08,81.7A16,16,0,0,0,126,73C114.83,53.65,87.44,58.72,87.44,58.72l-8.14,2,2.55,7.75.13.1C83.46,61,121.39,57.41,128.08,81.7Z" transform="translate(-18.63)"/><path class="cls-2" d="M76.92,68.69S67.62,95,45.32,94.92a16.3,16.3,0,0,1-14.52-9,20.75,20.75,0,0,1-1-17.21,10.53,10.53,0,0,1,12.5-6.48c9.24,2.29,19,.82,29-3.18l8,1.67Z" transform="translate(-18.63)"/><path class="cls-3" d="M36.7,92.4a16.21,16.21,0,0,0,8.62,2.52c22.3,0,31.6-26.23,31.6-26.23l2.38-8-8-1.67-.16.06C76.94,64.11,61.08,98.75,36.7,92.4Z" transform="translate(-18.63)"/><path class="cls-2" d="M73.54,54.59S55.45,33.41,66.63,14.11a16.32,16.32,0,0,1,15.09-8,20.8,20.8,0,0,1,15.42,7.73,10.53,10.53,0,0,1-.64,14.07c-6.61,6.85-10.2,16-11.76,26.73L79.3,60.67Z" transform="translate(-18.63)"/><path class="cls-3" d="M73.12,7.91a16.17,16.17,0,0,0-6.49,6.2c-11.18,19.3,6.91,40.48,6.91,40.48l5.76,6.08,5.44-6.08,0-.16C77.5,56.91,55.43,25.85,73.12,7.91Z" transform="translate(-18.63)"/><path class="cls-4" d="M79.3,0A60.67,60.67,0,1,0,140,60.67,60.74,60.74,0,0,0,79.3,0Zm6.78,57.51,43.8-25.29a56.92,56.92,0,0,1,3.74,8Zm48-16.08A57.75,57.75,0,0,1,136.35,50L86.52,58.73Zm-48.64,15,38.74-32.51a57.69,57.69,0,0,1,5.06,7.22Zm-3-2.49L99.77,6.34a58.12,58.12,0,0,1,8,3.75Zm26.42-43.15a56.66,56.66,0,0,1,7.22,5.06L83.59,54.54ZM81.24,53.44,90,3.62A57.75,57.75,0,0,1,98.54,5.9ZM80,53.22V2.62a59.22,59.22,0,0,1,8.79.77Zm-1.3,0L69.86,3.39a59.22,59.22,0,0,1,8.79-.77Zm-1.29.22L60.06,5.9a57.75,57.75,0,0,1,8.52-2.28Zm-1.22.45L50.85,10.09a58.12,58.12,0,0,1,8-3.75ZM75,54.54,42.5,15.8a56.66,56.66,0,0,1,7.22-5.06Zm-2.49,3L25,40.2a58.12,58.12,0,0,1,3.75-8ZM29.37,31.09a57.69,57.69,0,0,1,5.06-7.22L73.17,56.38ZM72.08,58.73,22.25,50a57.42,57.42,0,0,1,2.28-8.52ZM71.85,60H21.26A57.8,57.8,0,0,1,22,51.23Zm0,1.3L22,70.11a57.91,57.91,0,0,1-.76-8.79Zm.22,1.28L24.53,79.91a57.75,57.75,0,0,1-2.28-8.52Zm.45,1.23L28.72,89.12a58.67,58.67,0,0,1-3.75-8ZM73.17,65,34.43,97.47a57.69,57.69,0,0,1-5.06-7.22Zm3,2.49L58.83,115a56.92,56.92,0,0,1-8-3.74ZM49.72,110.6a57.69,57.69,0,0,1-7.22-5.06L75,66.79ZM77.36,67.89l-8.78,49.83a57.75,57.75,0,0,1-8.52-2.28Zm1.29.23v50.59a57.91,57.91,0,0,1-8.79-.76Zm1.3,0L88.74,118a57.91,57.91,0,0,1-8.79.76Zm1.29-.23,17.3,47.55A57.75,57.75,0,0,1,90,117.72Zm1.22-.44,25.29,43.8a56.92,56.92,0,0,1-8,3.74Zm1.13-.66,32.51,38.75a58.76,58.76,0,0,1-7.22,5.06Zm2.49-3,47.54,17.31a57.45,57.45,0,0,1-3.74,8Zm43.15,26.42a57.69,57.69,0,0,1-5.06,7.22L85.43,65ZM86.52,62.6l49.83,8.79a57.75,57.75,0,0,1-2.28,8.52Zm.23-1.28h50.59a57.91,57.91,0,0,1-.76,8.79Zm0-1.3,49.83-8.79a57.8,57.8,0,0,1,.76,8.79Zm36.57-37.14L84.59,55.38l32.5-38.73A57.26,57.26,0,0,1,123.32,22.88ZM41.51,16.65,74,55.38,35.28,22.88A57.26,57.26,0,0,1,41.51,16.65ZM35.28,98.46,74,66l-32.5,38.73A58.17,58.17,0,0,1,35.28,98.46Zm81.81,6.23L84.59,66l38.73,32.5A58.17,58.17,0,0,1,117.09,104.69Z" transform="translate(-18.63)"/><circle class="cls-1" cx="79.3" cy="60.67" r="19" transform="translate(-20.35 119.02) rotate(-73.18)"/><path class="cls-5" d="M93.34,60.67a14,14,0,1,1-14-14A14,14,0,0,1,93.34,60.67Z" transform="translate(-18.63)"/><path class="cls-4" d="M118.32,150h-78l2.57-7.18a12.11,12.11,0,0,1,11.4-8h50.1a12.11,12.11,0,0,1,11.4,8Z" transform="translate(-18.63)"/><path class="cls-6" d="M65.91,130.22H60.7A1.76,1.76,0,0,0,58.94,132v2.8h8.73V132A1.76,1.76,0,0,0,65.91,130.22Z" transform="translate(-18.63)"/><path class="cls-7" d="M44.47,139.79a11.76,11.76,0,0,0-1.62,3L40.28,150h78l-2.57-7.18a11.87,11.87,0,0,0-1.37-2.65C92.53,148.17,66.86,146.87,44.47,139.79Z" transform="translate(-18.63)"/><path class="cls-8" d="M234.17,69.11c-3.36,0-6.68,0-9.83-1.27-1.68-.59-3.34-1.26-5.08-1.72a26.2,26.2,0,0,0-6.31-.7,24.16,24.16,0,0,0-10.51,2.27,31.63,31.63,0,0,1-11.53,3.09,26.16,26.16,0,0,1-11.9-2,37.09,37.09,0,0,0-5.35-2,34.64,34.64,0,0,0-6.11-.79,31.84,31.84,0,0,0-6,.61,50.8,50.8,0,0,0-6.07,2.15,24.7,24.7,0,0,1-10.83,1.45A30.22,30.22,0,0,1,133.53,67a31,31,0,0,0-10.27-2.79c3.37,0,6.69.05,9.84,1.27,1.68.6,3.34,1.26,5.08,1.72a26.15,26.15,0,0,0,6.31.7A24.16,24.16,0,0,0,155,65.66a46.56,46.56,0,0,1,5.21-2.12,26.77,26.77,0,0,1,6.32-1,26,26,0,0,1,11.9,2,39,39,0,0,0,5.34,2,33.94,33.94,0,0,0,6.12.78,31.93,31.93,0,0,0,6-.61A49.74,49.74,0,0,0,202,64.59a24.84,24.84,0,0,1,10.83-1.44,30.31,30.31,0,0,1,11.09,3.17A30.83,30.83,0,0,0,234.17,69.11Z" transform="translate(-18.63)"/><path class="cls-8" d="M227.47,81.35c-3.37,0-6.68,0-9.84-1.27-1.68-.59-3.34-1.26-5.08-1.72a26.15,26.15,0,0,0-6.31-.7,24.32,24.32,0,0,0-10.51,2.26A31.45,31.45,0,0,1,184.2,83a26.11,26.11,0,0,1-11.89-2A38.35,38.35,0,0,0,167,79a35.83,35.83,0,0,0-6.12-.78,32.66,32.66,0,0,0-6,.6A51,51,0,0,0,148.75,81a24.68,24.68,0,0,1-10.83,1.45,30.17,30.17,0,0,1-11.09-3.17,30.83,30.83,0,0,0-10.27-2.79c3.36,0,6.68,0,9.83,1.27,1.69.59,3.34,1.26,5.08,1.72a26.29,26.29,0,0,0,6.32.7A24.36,24.36,0,0,0,148.3,77.9a44.59,44.59,0,0,1,5.2-2.12,26.42,26.42,0,0,1,6.33-1,26.11,26.11,0,0,1,11.89,2,38.35,38.35,0,0,0,5.35,2,35.58,35.58,0,0,0,6.12.78,31.82,31.82,0,0,0,6-.61,49.15,49.15,0,0,0,6.07-2.16,24.88,24.88,0,0,1,10.84-1.44,30.22,30.22,0,0,1,11.09,3.17A30.83,30.83,0,0,0,227.47,81.35Z" transform="translate(-18.63)"/><path class="cls-8" d="M220.76,93.58c-3.36,0-6.68,0-9.83-1.26-1.69-.6-3.34-1.26-5.08-1.72a26.29,26.29,0,0,0-6.32-.7A24.35,24.35,0,0,0,189,92.16a31.34,31.34,0,0,1-11.52,3.1,26.13,26.13,0,0,1-11.9-2,38.35,38.35,0,0,0-5.35-2,33.82,33.82,0,0,0-6.12-.78,31.81,31.81,0,0,0-6,.6,49.15,49.15,0,0,0-6.07,2.16,24.57,24.57,0,0,1-10.84,1.44,30.21,30.21,0,0,1-11.09-3.16,30.83,30.83,0,0,0-10.27-2.79c3.37,0,6.68,0,9.84,1.27,1.68.59,3.33,1.26,5.08,1.72a26.66,26.66,0,0,0,6.31.7,24.3,24.3,0,0,0,10.51-2.27,45.31,45.31,0,0,1,5.2-2.12,26.94,26.94,0,0,1,6.33-1A26.25,26.25,0,0,1,165,89a37.09,37.09,0,0,0,5.35,2,33.94,33.94,0,0,0,6.12.78,30.93,30.93,0,0,0,6-.6,51,51,0,0,0,6.08-2.16,24.67,24.67,0,0,1,10.83-1.44,30.17,30.17,0,0,1,11.09,3.17A31.05,31.05,0,0,0,220.76,93.58Z" transform="translate(-18.63)"/><path class="cls-9" d="M234.17,69.11c-3.36,0-6.68,0-9.83-1.27-1.68-.59-3.34-1.26-5.08-1.72a26.2,26.2,0,0,0-6.31-.7,24.16,24.16,0,0,0-10.51,2.27,31.63,31.63,0,0,1-11.53,3.09,26.16,26.16,0,0,1-11.9-2,37.09,37.09,0,0,0-5.35-2,34.64,34.64,0,0,0-6.11-.79,31.84,31.84,0,0,0-6,.61,50.8,50.8,0,0,0-6.07,2.15,24.7,24.7,0,0,1-10.83,1.45A30.22,30.22,0,0,1,133.53,67a31,31,0,0,0-10.27-2.79c3.37,0,6.69.05,9.84,1.27,1.68.6,3.34,1.26,5.08,1.72a26.15,26.15,0,0,0,6.31.7A24.16,24.16,0,0,0,155,65.66a46.56,46.56,0,0,1,5.21-2.12,26.77,26.77,0,0,1,6.32-1,26,26,0,0,1,11.9,2,39,39,0,0,0,5.34,2,33.94,33.94,0,0,0,6.12.78,31.93,31.93,0,0,0,6-.61A49.74,49.74,0,0,0,202,64.59a24.84,24.84,0,0,1,10.83-1.44,30.31,30.31,0,0,1,11.09,3.17A30.83,30.83,0,0,0,234.17,69.11Z" transform="translate(-18.63)"/><path class="cls-9" d="M227.47,81.35c-3.37,0-6.68,0-9.84-1.27-1.68-.59-3.34-1.26-5.08-1.72a26.15,26.15,0,0,0-6.31-.7,24.32,24.32,0,0,0-10.51,2.26A31.45,31.45,0,0,1,184.2,83a26.11,26.11,0,0,1-11.89-2A38.35,38.35,0,0,0,167,79a35.83,35.83,0,0,0-6.12-.78,32.66,32.66,0,0,0-6,.6A51,51,0,0,0,148.75,81a24.68,24.68,0,0,1-10.83,1.45,30.17,30.17,0,0,1-11.09-3.17,30.83,30.83,0,0,0-10.27-2.79c3.36,0,6.68,0,9.83,1.27,1.69.59,3.34,1.26,5.08,1.72a26.29,26.29,0,0,0,6.32.7A24.36,24.36,0,0,0,148.3,77.9a44.59,44.59,0,0,1,5.2-2.12,26.42,26.42,0,0,1,6.33-1,26.11,26.11,0,0,1,11.89,2,38.35,38.35,0,0,0,5.35,2,35.58,35.58,0,0,0,6.12.78,31.82,31.82,0,0,0,6-.61,49.15,49.15,0,0,0,6.07-2.16,24.88,24.88,0,0,1,10.84-1.44,30.22,30.22,0,0,1,11.09,3.17A30.83,30.83,0,0,0,227.47,81.35Z" transform="translate(-18.63)"/><path class="cls-9" d="M220.76,93.58c-3.36,0-6.68,0-9.83-1.26-1.69-.6-3.34-1.26-5.08-1.72a26.29,26.29,0,0,0-6.32-.7A24.35,24.35,0,0,0,189,92.16a31.34,31.34,0,0,1-11.52,3.1,26.13,26.13,0,0,1-11.9-2,38.35,38.35,0,0,0-5.35-2,33.82,33.82,0,0,0-6.12-.78,31.81,31.81,0,0,0-6,.6,49.15,49.15,0,0,0-6.07,2.16,24.57,24.57,0,0,1-10.84,1.44,30.21,30.21,0,0,1-11.09-3.16,30.83,30.83,0,0,0-10.27-2.79c3.37,0,6.68,0,9.84,1.27,1.68.59,3.33,1.26,5.08,1.72a26.66,26.66,0,0,0,6.31.7,24.3,24.3,0,0,0,10.51-2.27,45.31,45.31,0,0,1,5.2-2.12,26.94,26.94,0,0,1,6.33-1A26.25,26.25,0,0,1,165,89a37.09,37.09,0,0,0,5.35,2,33.94,33.94,0,0,0,6.12.78,30.93,30.93,0,0,0,6-.6,51,51,0,0,0,6.08-2.16,24.67,24.67,0,0,1,10.83-1.44,30.17,30.17,0,0,1,11.09,3.17A31.05,31.05,0,0,0,220.76,93.58Z" transform="translate(-18.63)"/></svg>