<svg id="圖層_1" data-name="圖層 1" xmlns="http://www.w3.org/2000/svg" viewBox="0 0 236.13 108.61"><defs><style>.cls-1{fill:#f5b446;}.cls-2{fill:#60b9c1;}.cls-3{fill:#4f4840;}</style></defs><path class="cls-1" d="M231.86,55.66C218.94,18.11,149.42,22,127,24.22a69.48,69.48,0,0,1-14,0C90.57,22,21.06,18.11,8.14,55.66c-14.74,42.85-6.3,98.73,59.11,66a108.55,108.55,0,0,0,13.54-8.29C86.76,109.18,99.94,102,120,102s33.23,7.17,39.21,11.36a108.55,108.55,0,0,0,13.54,8.29C238.16,154.39,246.6,98.51,231.86,55.66Z" transform="translate(-1.94 -22.89)"/><path class="cls-2" d="M222.72,58.2c-11.86-30.6-75.7-27.46-96.3-25.61a72.45,72.45,0,0,1-12.84,0c-20.6-1.85-84.44-5-96.3,25.61-13.82,35.64-5.46,81.49,58.08,51.14a66.53,66.53,0,0,0,7.73-4.43c5-3.28,17.4-9.83,36.91-9.83s31.92,6.55,36.91,9.83a65.71,65.71,0,0,0,7.73,4.43C228.18,139.69,236.54,93.84,222.72,58.2Z" transform="translate(-1.94 -22.89)"/><path class="cls-3" d="M68.91,78.33H68c-15.76-.51-26.46-14.41-26.91-15A2.74,2.74,0,0,1,45.47,60c.12.15,9.64,12.43,22.76,12.84,8.13.22,16.14-4.12,23.8-13a2.74,2.74,0,1,1,4.14,3.58C87.64,73.33,78.47,78.33,68.91,78.33Z" transform="translate(-1.94 -22.89)"/><rect class="cls-3" x="65.58" y="53.56" width="3.2" height="15.82"/><rect class="cls-3" x="73.14" y="75.65" width="3.19" height="15.82" transform="translate(-18 -5.08) rotate(-12.28)"/><rect class="cls-3" x="78.55" y="74.25" width="3.19" height="15.82" transform="translate(-23.17 5.46) rotate(-17.75)"/><rect class="cls-3" x="83.62" y="72.31" width="3.2" height="15.82" transform="translate(-27.96 20.97) rotate(-25.17)"/><rect class="cls-3" x="88.44" y="69.63" width="3.19" height="15.82" transform="matrix(0.84, -0.54, 0.54, 0.84, -29.47, 37.41)"/><rect class="cls-3" x="92.5" y="66.42" width="3.19" height="15.82" transform="translate(-27.68 47.15) rotate(-36.25)"/><rect class="cls-3" x="96.48" y="63.29" width="3.19" height="15.82" transform="translate(-24.61 58.73) rotate(-40.91)"/><rect class="cls-3" x="55.4" y="81.96" width="15.82" height="3.19" transform="translate(-33.74 104.76) rotate(-77.72)"/><rect class="cls-3" x="49.99" y="80.57" width="15.82" height="3.19" transform="translate(-39.93 89.41) rotate(-72.27)"/><rect class="cls-3" x="44.92" y="78.63" width="15.82" height="3.19" transform="translate(-44.19 70.99) rotate(-64.81)"/><rect class="cls-3" x="40.11" y="75.95" width="15.82" height="3.19" transform="translate(-45.12 53.61) rotate(-57.58)"/><rect class="cls-3" x="36.04" y="72.74" width="15.82" height="3.19" transform="translate(-43.93 42.98) rotate(-53.78)"/><rect class="cls-3" x="32.06" y="69.6" width="15.82" height="3.19" transform="translate(-41.95 31.9) rotate(-49.09)"/><path class="cls-3" d="M174.25,78.33h.89c15.76-.51,26.46-14.41,26.91-15A2.74,2.74,0,0,0,197.68,60c-.11.15-9.63,12.43-22.75,12.84-8.13.22-16.15-4.12-23.8-13A2.74,2.74,0,1,0,147,63.46C155.52,73.33,164.69,78.33,174.25,78.33Z" transform="translate(-1.94 -22.89)"/><rect class="cls-3" x="170.52" y="53.56" width="3.19" height="15.82"/><rect class="cls-3" x="160.52" y="81.96" width="15.82" height="3.19" transform="translate(49.02 207.47) rotate(-77.72)"/><rect class="cls-3" x="155.1" y="80.57" width="15.82" height="3.19" transform="translate(33.13 189.48) rotate(-72.25)"/><rect class="cls-3" x="150.03" y="78.63" width="15.82" height="3.19" transform="translate(16.19 166.11) rotate(-64.81)"/><rect class="cls-3" x="145.22" y="75.95" width="15.82" height="3.19" transform="translate(3.63 142.33) rotate(-57.57)"/><rect class="cls-3" x="141.15" y="72.74" width="15.82" height="3.19" transform="translate(-0.92 127.78) rotate(-53.78)"/><rect class="cls-3" x="137.18" y="69.6" width="15.82" height="3.19" transform="translate(-5.67 111.33) rotate(-49.09)"/><rect class="cls-3" x="178.25" y="75.65" width="3.19" height="15.82" transform="translate(-15.59 17.28) rotate(-12.28)"/><rect class="cls-3" x="183.66" y="74.25" width="3.19" height="15.82" transform="translate(-18.17 37.51) rotate(-17.75)"/><rect class="cls-3" x="188.74" y="72.31" width="3.2" height="15.82" transform="translate(-17.98 65.67) rotate(-25.17)"/><rect class="cls-3" x="193.55" y="69.63" width="3.19" height="15.82" transform="translate(-13.11 93.72) rotate(-32.39)"/><rect class="cls-3" x="197.62" y="66.42" width="3.19" height="15.82" transform="translate(-7.33 109.32) rotate(-36.26)"/><rect class="cls-3" x="201.59" y="63.29" width="3.19" height="15.82" transform="translate(1.06 127.56) rotate(-40.91)"/></svg>