<svg xmlns="http://www.w3.org/2000/svg" viewBox="0 0 221.19 145.79"><defs><style>.cls-1{isolation:isolate;}.cls-2,.cls-3{fill:#f0c77e;}.cls-3{opacity:0.5;mix-blend-mode:multiply;}.cls-4{fill:#f6ddb0;}.cls-5{fill:#efa08e;}.cls-6{fill:#93d0c1;}.cls-7{fill:#51b79e;}.cls-8{fill:#174554;}.cls-9{fill:#0e363f;}.cls-10{fill:#fff;}.cls-11{fill:#9abae2;}.cls-12{fill:#e97156;}.cls-13{fill:#4468aa;}.cls-14{fill:#0f3659;}.cls-15{fill:#ea887b;}.cls-16{fill:#073357;}.cls-17{fill:#3a8a78;}.cls-18{fill:#b05541;}</style></defs><g class="cls-1"><g id="圖層_1" data-name="圖層 1"><path class="cls-2" d="M121.24,27h5.57c24.29,0,62.39,0,79.65,15,17.59,15.27,7.53,48,7.53,73.1l-1.13,1.41H31.75l4-1.41c0-26.37-12.58-55.07,5.58-71.44C57.21,29.32,98.19,27,121.24,27Z" transform="translate(-13.87 -1.42)"/><path class="cls-3" d="M66.48,80.78H181.91c15.11,0,28-11.08,32.65-26.51a44.47,44.47,0,0,1,1.9,12.93v46.11a3.7,3.7,0,0,1-3.43,3.92H35.36a3.7,3.7,0,0,1-3.44-3.92V67.2a44.14,44.14,0,0,1,1.91-12.93C38.52,69.7,51.36,80.78,66.48,80.78Z" transform="translate(-13.87 -1.42)"/><path class="cls-4" d="M46.7,101.43c19-11.11,43.69-11.45,60.07-10a202.61,202.61,0,0,0,35.18,0C158.33,90,183,90.32,202,101.43l3.63,9.94s-6.54,16.16-7.62,16.16-73.68-1-73.68-1-72.58,1-73.67,1-7.62-16.16-7.62-16.16Z" transform="translate(-13.87 -1.42)"/><path class="cls-2" d="M15.23,73.94c2.3-5.93,7.64-9.62,13.3-9.11C48.25,66.62,47.47,108,47.45,108.09h154c0-.13-.8-41.47,18.92-43.26,5.67-.51,11,3.18,13.3,9.11,1.53,4,2.19,9.45-.31,16.51-5.69,16-21.29,27.2-23.47,47.09-.34,3.08-.77,4.69-1.27,5.22a7.25,7.25,0,0,1-6.35,4.17H46.42c-4.06,0-7.35-3.76-7.35-8.39v-.48l-.06-.52c-2.17-19.89-17.78-31.07-23.47-47.09C13,83.39,13.7,77.89,15.23,73.94Z" transform="translate(-13.87 -1.42)"/><path class="cls-3" d="M21.37,85c0,4.11,2.92,7.45,6.53,7.45s6.53-3.34,6.53-7.45-2.92-7.46-6.53-7.46S21.37,80.88,21.37,85Z" transform="translate(-13.87 -1.42)"/><path class="cls-3" d="M213.23,85c0,4.11,2.93,7.45,6.54,7.45s6.53-3.34,6.53-7.45-2.93-7.46-6.53-7.46S213.23,80.88,213.23,85Z" transform="translate(-13.87 -1.42)"/><path class="cls-5" d="M154.38,58.57c-1-.68-8.06,3.25-7.86,4.36s-4,12.5-4,12.5l-9.39-6.61s-1.56-2.63-1.87-3c-.58-.75-1.47-1.44-2.17-1.24s.71,1,.81,1.12c.27.42-.62.67-.62.67s-2.74-1.18-2.88-2-.84-2.55-1.37-2.13c-.27.22-.15,1.47,0,2.06-.23-.66-.54-1.4-.78-1.45-.43-.1-.59.46-.49.71s1.06,3,1.3,3.36,4.76,3.28,5.44,4c0,0,12.94,12.21,13.81,12.48s2.91-4.61,5.07-7.89S157.58,60.7,154.38,58.57Z" transform="translate(-13.87 -1.42)"/><path class="cls-6" d="M144.15,68.58l8.8,0s-.29-7.18-.61-10.59c-.4-4.14-1.26-9.43-1.75-9.27a7.64,7.64,0,0,0-4.16,3.06C143.05,57.55,144.15,68.58,144.15,68.58Z" transform="translate(-13.87 -1.42)"/><path class="cls-7" d="M147.75,57.77c-.06,1.28-.12,35.88-.12,35.88,16.61,6.15,24.76-1,24.76-1s-2.83-24-2.52-27.36c.2-2.21,0-16.52-1.43-16.79a43.86,43.86,0,0,0-6.93-.86c-1.94,0-9.42.59-10.71,1.16A17.13,17.13,0,0,0,147.75,57.77Z" transform="translate(-13.87 -1.42)"/><path class="cls-8" d="M159.65,20.91s-5.77-3.18-7.85,1.89c0,0-5.22-.62-4.41,4.81,0,0-5.31,2.56-2.09,9.44,0,0-1.57,6.38,5.92,6.91,0,0,1.09,2.3,4.52,1.82s4.32-1.35,4.32-1.35,6,1.87,8-3.58c0,0,4.19-.92,1.48-6.32,0,0,3.76-6.88-2.62-9.08C166.89,25.45,166.26,18.34,159.65,20.91Z" transform="translate(-13.87 -1.42)"/><path class="cls-5" d="M162.73,37.09c-.49,1.31-.18,2.64.71,3s2-.46,2.5-1.77.18-2.65-.71-3S163.23,35.77,162.73,37.09Z" transform="translate(-13.87 -1.42)"/><path class="cls-5" d="M147.08,33.58c-.09,1.4.61,2.58,1.55,2.65s1.79-1,1.88-2.43-.61-2.58-1.55-2.64S147.17,32.18,147.08,33.58Z" transform="translate(-13.87 -1.42)"/><path class="cls-5" d="M154,43.74c0,.1,0,3.55,0,5.38a1.42,1.42,0,0,0,1.14,1.41c1.78.38,5.19.69,6.94-1.79a1,1,0,0,0,.14-.79l-2-7.78Z" transform="translate(-13.87 -1.42)"/><path class="cls-5" d="M158.55,25.14A8.31,8.31,0,0,1,163,28.76c1.63,2.82,2.43,10.9-3.65,14.32S149,41,149.23,35.81,151.84,24.08,158.55,25.14Z" transform="translate(-13.87 -1.42)"/><path class="cls-5" d="M108.89,130.81s-1.07,2.19-3.08,2.41-7-2.43-8.07-2.31a2.33,2.33,0,0,0-1.55.66l11.33,10.19,3-3.43,1.76-2.88Z" transform="translate(-13.87 -1.42)"/><path class="cls-7" d="M104.59,133.12s1.75,3.84,3.77,4.47,2.15.39,2.3,1-2.66,3.88-2.66,3.88L95.24,131.06c-.84-.84-.68-1.89.54-1.77a14.43,14.43,0,0,1,2.12.49C99.4,130.15,104.59,133.12,104.59,133.12Z" transform="translate(-13.87 -1.42)"/><path class="cls-9" d="M172.39,92.66c-1.14-1.35-22.24-.36-22.24-.36s-19-1-23.22,1.51c-1.17.7-17.86,34.61-20.19,37.54l5.36,5.16,17.28-20.62a53,53,0,0,0,6.54-10.32,65,65,0,0,0,33,2.7C175.53,107.19,173.54,94,172.39,92.66Z" transform="translate(-13.87 -1.42)"/><path class="cls-5" d="M159.43,131.93s-.58,6.71-1.66,8.57.06,5,.12,5.45,2.25,1.05,5.76.68,3.44-1.18,3.16-2.48-2.15-3-2.26-4.21,1.07-5.7,1.07-5.7Z" transform="translate(-13.87 -1.42)"/><path class="cls-7" d="M164.08,147.15c3.61-.38,3.16-2.15,2.87-3.49-.18-.83-1.21-1.82-1.83-2.76a6,6,0,0,1-2.41,1.17c-1.63.48-3.86-.47-5.28-1.06a17.37,17.37,0,0,0-.48,4.63C157,146.09,160.48,147.53,164.08,147.15Z" transform="translate(-13.87 -1.42)"/><path class="cls-8" d="M162.09,105.22c-.72,5.49-4.33,32.8-4.33,32.8l8.36,1s10.28-35.64,9.75-41.1S171.5,92,171.5,92,164,90.7,162.09,105.22Z" transform="translate(-13.87 -1.42)"/><path class="cls-10" d="M151.82,38.37l5.94.58a2.61,2.61,0,0,1-3,2.06C151.58,40.79,151.82,38.37,151.82,38.37Z" transform="translate(-13.87 -1.42)"/><path class="cls-8" d="M152.63,25.72s3.18,0,4.94,1.15,5.45,8.73,6.71,8.47,2.19-4.74,1.79-5.67a33.65,33.65,0,0,0-2.51-4.27,30.44,30.44,0,0,0-3.27-1.57c-.49-.12-4.42-.29-4.42-.29Z" transform="translate(-13.87 -1.42)"/><path class="cls-5" d="M192.81,99.91c-.06-.17-.2-.17-.35-.17a38,38,0,0,1-4.27-.32,3.18,3.18,0,0,1-.69-.18,1.77,1.77,0,0,0-1.18,0,2.47,2.47,0,0,1-.66.07c-.72,0-2.77-.7-3.82-.89a.61.61,0,0,1-.49-.46c-1-4.09-3.26-13.28-3.54-16.31-.37-3.86-3-21.28-3-21.28l-7.14,2s2.94,12.86,3.75,19.09c.63,4.82,5.44,15,7,18a3,3,0,0,0,2.77,2.29.93.93,0,0,1,.57.31,4.21,4.21,0,0,0,.9.78,2.09,2.09,0,0,1,.61.61c.31.44.58.91.85,1.37s.36.41.63.33.41-.28.41-.63a2.84,2.84,0,0,0-.43-1.41.75.75,0,0,1,.06-1,3.09,3.09,0,0,1,.54-.6.91.91,0,0,1,.73-.27,10.31,10.31,0,0,0,1.55.29l.44.09.23,0s.8.09,1.06.09l.83,0a4.15,4.15,0,0,0,.83-.12,1,1,0,0,0,.67-.27c.08-.07.15-.15.11-.26a.26.26,0,0,0-.23-.18,9.26,9.26,0,0,1-1.05-.18l1.35,0a1.24,1.24,0,0,0,.91-.4C192.77,100.18,192.88,100.07,192.81,99.91Z" transform="translate(-13.87 -1.42)"/><path class="cls-6" d="M177.1,68.92l-8.92,1.76s-2-9.1-2.55-14c-.44-4,1.16-8,3.07-8.18C173.6,47.94,177.1,68.92,177.1,68.92Z" transform="translate(-13.87 -1.42)"/><polygon class="cls-11" points="123.25 8.52 126.2 8.29 126.64 10.44 129.56 10.32 130.31 12.34 132.51 12.53 132.38 13.41 129.44 13.15 128.73 11.24 125.7 11.37 125.26 9.25 122.59 9.45 123.25 8.52"/><path class="cls-12" d="M159.92,3.59a3.4,3.4,0,0,1-2.11,3.9,3.33,3.33,0,0,1-4-1.52c-1.65-2.69,1.07-5.59,3.13-4.18s1.89,3.85.16,4.19c-.65.13-1.81-.21-1.55-1.08a.27.27,0,0,1,.46-.09c.28.31.26.33.38.39a1,1,0,0,0,.6,0c1.75-.37-.21-4.18-2.1-2.79a2.38,2.38,0,0,0-.5,3.18,2.72,2.72,0,0,0,3,1.35,3.1,3.1,0,0,0,2.14-3.31.22.22,0,0,1,.43-.09Z" transform="translate(-13.87 -1.42)"/><polygon class="cls-13" points="158 2.71 157.9 4.33 156.35 4.92 156.37 6.75 154.52 6.88 154.44 8.94 152.76 9.27 152.36 11.24 153.11 11.39 153.41 9.92 155.18 9.57 155.26 7.59 157.13 7.46 157.12 5.44 158.63 4.86 158.72 3.36 159.8 3.18 159.67 2.43 158 2.71"/><path class="cls-2" d="M184.19,19.92a1.52,1.52,0,1,0-1.32,1.7A1.53,1.53,0,0,0,184.19,19.92Z" transform="translate(-13.87 -1.42)"/><path class="cls-2" d="M182.49,24.64a10.6,10.6,0,0,1,0-1.38.35.35,0,0,1,.69,0,12,12,0,0,1,0,1.47.36.36,0,0,1-.41.31.37.37,0,0,1-.3-.41Z" transform="translate(-13.87 -1.42)"/><path class="cls-2" d="M179.57,23.29A15.7,15.7,0,0,0,180.75,22a.35.35,0,0,1,.55.42A6.51,6.51,0,0,1,180,23.88a.37.37,0,1,1-.45-.59Z" transform="translate(-13.87 -1.42)"/><path class="cls-2" d="M180,20.43a.25.25,0,0,1,.13.33c-.11.33-.53.4-.84.45a3.43,3.43,0,0,1-1,0,.37.37,0,0,1,.11-.73C179.34,20.61,179.6,20.23,180,20.43Z" transform="translate(-13.87 -1.42)"/><path class="cls-2" d="M179.88,17.42c.56.55,1,.7,1,1.06a.31.31,0,0,1-.34.34c-.24,0-.42-.23-.59-.38s-.33-.28-.49-.44a.36.36,0,0,1-.06-.51.36.36,0,0,1,.51-.07Z" transform="translate(-13.87 -1.42)"/><path class="cls-2" d="M181.55,17a1.62,1.62,0,0,1,.21-.77.31.31,0,0,1,.54.07,1.49,1.49,0,0,1,0,.81.37.37,0,1,1-.73-.11Z" transform="translate(-13.87 -1.42)"/><path class="cls-2" d="M183.56,17.55c.53-.6.64-.75.89-.78a.31.31,0,0,1,.33.27c0,.31-.16.42-.65,1a.36.36,0,0,1-.57-.45Z" transform="translate(-13.87 -1.42)"/><path class="cls-2" d="M186.51,19.25a.33.33,0,0,1,0,.61,5.38,5.38,0,0,1-1.64.08.36.36,0,0,1-.41-.32.37.37,0,0,1,.32-.41A6,6,0,0,1,186.51,19.25Z" transform="translate(-13.87 -1.42)"/><path class="cls-2" d="M185,21.67c.81.53.89.39,1.24.74a.32.32,0,0,1-.21.5,1.34,1.34,0,0,1-.78-.24l-.71-.41a.39.39,0,0,1-.06-.53.38.38,0,0,1,.52-.06Z" transform="translate(-13.87 -1.42)"/><path class="cls-12" d="M136.89,23.42l-.18-.92.66-.66a.13.13,0,0,0-.08-.22l-.92-.12-.43-.83a.13.13,0,0,0-.23,0l-.4.85-.92.15a.13.13,0,0,0-.07.22l.68.64-.14.92a.13.13,0,0,0,.19.14l.82-.45.83.42A.13.13,0,0,0,136.89,23.42Z" transform="translate(-13.87 -1.42)"/><path class="cls-14" d="M62.1,40.69a17.71,17.71,0,0,1,1.71-8.76c1.18-2.41,4.12-3.77,6.8-3.78,8.5,0,9.58,10.93,15,15.15,1.62,1.27,3.43,2.3,5,3.65a7.44,7.44,0,0,1-.41,2.63c-1.67,4.43-5.93,6.93-10,9.19a26.85,26.85,0,0,1-11.65,3,94.38,94.38,0,0,1-3.7-9.48A38.57,38.57,0,0,1,62.1,40.69Z" transform="translate(-13.87 -1.42)"/><path class="cls-5" d="M55.47,35.5c-1-2.18-2.2-9-2.61-11.27A5.43,5.43,0,0,0,53.18,21c-.19-1.37.52-3.75-.34-3.5s-.66,2.64-1.23,2.29-1.35-5.33-2.14-5.1.27,4.87-.24,4.56-1-4.66-2.11-4.34,1,5.05.45,5.22-1.88-2.85-2.77-2.59,2,4,1.65,3.85-2.42-1.62-2.7-1.22,4.67,4.7,4.82,5.94h0c0,3.19-.17,9,1.24,12.45,1.71,4.26,5.95,13.66,5.95,13.66l6.61-2.34S56.62,38.1,55.47,35.5Z" transform="translate(-13.87 -1.42)"/><path class="cls-15" d="M51,20.83a2.75,2.75,0,0,0-.78.74,2.6,2.6,0,0,0-.42,2.22A4.42,4.42,0,0,1,51,20.83Z" transform="translate(-13.87 -1.42)"/><path class="cls-5" d="M97.83,50.45a4.87,4.87,0,0,1,.44-2.86c.46-1.14.4-3.37,1.06-3s0,2.44.51,2.26,2.3-4.32,2.9-4-1.3,4.17-.81,4,1.87-3.81,2.72-3.29-2,4.15-1.54,4.43S105.29,46,106,46.46s-2.52,3.07-2.23,3,2.37-.87,2.51-.46-4.14,2.35-4.54,3.4-7,11.73-9.17,12S79.83,59,78.89,56.91,78.58,52.44,80,52s11.26,5.15,11.7,5S97.83,50.45,97.83,50.45Z" transform="translate(-13.87 -1.42)"/><path class="cls-15" d="M99.74,47.64a2.51,2.51,0,0,1,.53.94,2.56,2.56,0,0,1-.25,2.25A4.42,4.42,0,0,0,99.74,47.64Z" transform="translate(-13.87 -1.42)"/><path class="cls-5" d="M88.88,100.31a13.53,13.53,0,0,0,3.18-2.47c2.63,2,8.07,8.37,8.07,8.37a2.17,2.17,0,0,1-1.88.3c-.87-.39-4.86-2.18-6.72-1.54-.49.17-5.91,2-10.71,3.25-.59-1.72,1-5.17.23-6.79C83.62,100.6,88.51,100.44,88.88,100.31Z" transform="translate(-13.87 -1.42)"/><path class="cls-16" d="M90.2,99.51s4.71,4.81,5.17,5.67c.37.69,6.22,3.08,6.51,2.19s-6.95-10.47-8.1-10.81S90.2,99.51,90.2,99.51Z" transform="translate(-13.87 -1.42)"/><path class="cls-5" d="M59.68,114.3a13.1,13.1,0,0,0,2.52,3.1c-2.14,2.51-8.76,7.69-8.76,7.69a2,2,0,0,1-.3-1.82c.42-.84,2.54-6,1.89-7.82a43.35,43.35,0,0,0-2.57-5.93,46.09,46.09,0,0,0,5.24-2.15C58.53,109.85,59.55,113.94,59.68,114.3Z" transform="translate(-13.87 -1.42)"/><path class="cls-17" d="M60.42,77S48.16,89.08,46.91,91.41c-.94,1.75,4.72,19.69,4.72,19.69s5.32-.4,7.55-2.55c0,0-2.82-12.52-2.23-13.08s14.59-8.69,14.59-8.69L69.8,79.36Z" transform="translate(-13.87 -1.42)"/><path class="cls-6" d="M63.12,76.65s3.2,7.43,3.2,10.33c0,2.22-1,20,3.71,21.72,2.66,1,15.18-.46,15.18-.46l-1.13-8s-6,.88-6.49.38,4.78-13.92,3.67-18.52S71,74.65,71,74.65Z" transform="translate(-13.87 -1.42)"/><path class="cls-12" d="M59.15,42.12s-1.5.45-6.1,6.7L60.44,60.5l4.5-10.85Z" transform="translate(-13.87 -1.42)"/><path class="cls-12" d="M69.92,49.76a37.56,37.56,0,0,1-5.55-1c-1.47-.53-11.11,31.28-7.74,32C63.67,82.27,82,86.3,82,86.3a11.56,11.56,0,0,0-.66-5c-1.71-5.44-2.68-17.88-2.68-20.07,0-1.29,6.67,3.18,6.67,3.18l2.8-10.11s-8.52-3.42-11.5-4C75.75,50.14,69.92,49.76,69.92,49.76Z" transform="translate(-13.87 -1.42)"/><path class="cls-16" d="M60.41,115.47s-5.32,4.85-6.28,5.32c-.78.38-2.59,6.12-1.6,6.43s10.86-6.79,11.27-8S60.41,115.47,60.41,115.47Z" transform="translate(-13.87 -1.42)"/><path class="cls-5" d="M67.65,45.89s.13,4.49-.29,4.91A1.64,1.64,0,0,0,67,53c.62,1.07,3.31.39,4.57-.22a6,6,0,0,0,2-1.69L72.89,44Z" transform="translate(-13.87 -1.42)"/><path class="cls-18" d="M69.44,47.75A6.33,6.33,0,0,0,73,45l-.09-1-5.24,1.92s0,1.1,0,2.26A6.2,6.2,0,0,0,69.44,47.75Z" transform="translate(-13.87 -1.42)"/><path class="cls-5" d="M68.72,30.28a4.76,4.76,0,0,0-3.83,1.92c-1.3,2-2.71,7.6-.57,11.49s4.88,2.93,6,2.54,3.36-1.27,4.48-4.9S75.11,29.52,68.72,30.28Z" transform="translate(-13.87 -1.42)"/><path class="cls-10" d="M69.22,42l-4.08-.37a1.79,1.79,0,0,0,1.74,1.78C69.07,43.66,69.22,42,69.22,42Z" transform="translate(-13.87 -1.42)"/><path class="cls-14" d="M67.75,30.3s3.66,6.33,6.27,6.62,3,3.66,3,3.66-.87-8.21-3.45-9.71A8.28,8.28,0,0,0,67.75,30.3Z" transform="translate(-13.87 -1.42)"/><path class="cls-5" d="M73.81,38.9s.13-2.64,1.75-2.13.39,4.5-1,4.37S73.81,38.9,73.81,38.9Z" transform="translate(-13.87 -1.42)"/></g></g></svg>