<svg id="圖層_1" data-name="圖層 1" xmlns="http://www.w3.org/2000/svg" viewBox="0 0 216.56 144.35"><defs><style>.cls-1{fill:#7a882e;}.cls-2{fill:#5c7b33;}.cls-3{fill:#00a5a9;}.cls-4{fill:#008a88;}.cls-5{fill:#e6ab7d;}.cls-6{fill:#e3b994;}.cls-7{fill:#4c6830;}.cls-8{fill:#547232;}.cls-9{fill:#93a724;}.cls-10{fill:#e94b22;}.cls-11{fill:#fff;}</style></defs><path class="cls-1" d="M68.53,12.38,64.7,48.45c-9.4-9.25-27,10.74-34.24,20l5.17-40.67Z" transform="translate(-11.72 -3.52)"/><path class="cls-2" d="M120,31.87v60c-10.31-1-11,8.49-31.41,5.28-28-4.42-11.84-36.91-23.89-48.73l3.83-36.07Z" transform="translate(-11.72 -3.52)"/><path class="cls-1" d="M157.09,125.08c.88-6.12-1.43-16.26-20-26.54C129,94.05,123.84,92.24,120,91.9v-60l13-4.77a79.14,79.14,0,0,0-5.54,17c-1.79,10.27,8.62-4.52,31.63,11,8.69,5.89,14.27,10.74,18.45,14.08l5.26,49.29Z" transform="translate(-11.72 -3.52)"/><path class="cls-2" d="M217.8,133.12l-35-14.64L177.5,69.19c6.88,5.5,10,6.92,17.14,2.22a72.22,72.22,0,0,0,13.83-11.55Z" transform="translate(-11.72 -3.52)"/><path class="cls-3" d="M64.7,48.45,57.19,119l-35,14.14,8.26-64.7C37.7,59.19,55.3,39.2,64.7,48.45Z" transform="translate(-11.72 -3.52)"/><path class="cls-4" d="M120,91.9v42.73L57.19,119,64.7,48.45c12,11.82-4.14,44.31,23.89,48.73C109,100.39,109.69,91,120,91.9Z" transform="translate(-11.72 -3.52)"/><path class="cls-3" d="M157.09,125.08,120,134.63V91.9c3.84.34,9,2.15,17.12,6.64C155.66,108.82,158,119,157.09,125.08Z" transform="translate(-11.72 -3.52)"/><path class="cls-3" d="M157.09,125.08a14.05,14.05,0,0,1-2.18,5.91l-32.62,6.36-38.81-6.1-29.11-7.64L18,139.5l9.17-66.75s1.23-1.75,3.3-4.33l-8.26,64.7,35-14.14L120,134.63Z" transform="translate(-11.72 -3.52)"/><polygon class="cls-5" points="45.47 115.46 44.55 124.13 108.28 140 108.28 131.11 45.47 115.46"/><polygon class="cls-6" points="172.01 124.13 171.04 114.96 108.28 131.11 108.28 140 172.01 124.13"/><path class="cls-2" d="M177.5,69.19c-4.18-3.34-9.76-8.19-18.45-14.08-23-15.56-33.42-.77-31.63-11a79.14,79.14,0,0,1,5.54-17l38.55-14.2Z" transform="translate(-11.72 -3.52)"/><path class="cls-7" d="M208.47,59.86a72.22,72.22,0,0,1-13.83,11.55c-7.11,4.7-10.26,3.28-17.14-2.22l-6-56.29,32.86,14.85Z" transform="translate(-11.72 -3.52)"/><path class="cls-8" d="M210.79,57a31.71,31.71,0,0,1-2.32,2.83l-4.1-32.11L171.51,12.9,133,27.1c1.42-3.29,2.54-5.49,2.54-5.49l35.79-10.85,37,13.93Z" transform="translate(-11.72 -3.52)"/><path class="cls-9" d="M31.28,46.76l-1.65-1.39a41.31,41.31,0,0,1,3.1-3.17l1.47,1.58A37.08,37.08,0,0,0,31.28,46.76Z" transform="translate(-11.72 -3.52)"/><path class="cls-9" d="M124.37,80.49c-1.51,0-2.94,0-4.27-.16l.17-2.15a63.45,63.45,0,0,0,8.32,0l.12,2.15C127.17,80.45,125.73,80.49,124.37,80.49Zm12.94-1.56-.69-2a22.78,22.78,0,0,0,7-3.89L145,74.68A24.79,24.79,0,0,1,137.31,78.93Zm-25.76-.41a19.79,19.79,0,0,1-7.31-5l1.56-1.48a17.74,17.74,0,0,0,6.54,4.44Zm39.38-10.28L149.17,67a44,44,0,0,0,4-7.22l2,.88A45.28,45.28,0,0,1,150.93,68.24ZM99.07,66.6,97.43,64c-.89-1.43-1.82-2.94-2.85-4.53l1.81-1.17c1,1.6,2,3.12,2.87,4.56.56.91,1.1,1.78,1.64,2.62Zm59.06-14L156.06,52c.76-2.53,1.42-5.27,2-8.14l2.12.42C159.59,47.17,158.9,50,158.13,52.58Zm-68.37,0c-1.72-2.22-3.48-4.31-5.41-6.39l1.59-1.46c2,2.12,3.77,4.26,5.53,6.54ZM78.4,40.33a36.6,36.6,0,0,0-6.76-4.67l1-1.9a38.33,38.33,0,0,1,7.17,4.94ZM40.7,38.64l-1.19-1.8a43.06,43.06,0,0,1,7.66-4.08l.81,2A41.88,41.88,0,0,0,40.7,38.64Zm120.8-2.87-2.14-.26c.33-2.71.58-5.53.76-8.39l2.15.13C162.09,30.15,161.83,33,161.5,35.77ZM64,32.93a26.15,26.15,0,0,0-8.1-.27l-.26-2.14a28,28,0,0,1,8.77.3Z" transform="translate(-11.72 -3.52)"/><path class="cls-9" d="M162.54,18.49h-2.16c0-2.66-.08-4.24-.08-4.26l2.15-.11S162.54,15.75,162.54,18.49Z" transform="translate(-11.72 -3.52)"/><path class="cls-6" d="M212.3,22.58,170.52,4.27,120,23.4,69.48,4.27,27.7,22.58l-16,125.29L56.27,128.4,120,144.27l63.73-15.87,44.55,19.47Zm-29.54,96.66L120,135.39,57.19,119.73l-35,14.15L35.63,28.51l32.9-15.38L120,32.63l51.51-19,32.86,14.86L217.8,133.88Z" transform="translate(-11.72 -3.52)"/><polygon class="cls-5" points="57.76 0 56.81 8.86 108.28 28.35 108.28 19.13 57.76 0"/><polygon class="cls-6" points="158.8 0 159.79 9.38 108.28 28.35 108.28 19.13 158.8 0"/><path class="cls-10" d="M78.3,23.39a8.3,8.3,0,0,0-13.86,0C59,32.13,71.35,44.08,71.35,44.08S83.71,32.13,78.3,23.39Zm-7,9.2a5,5,0,1,1,5-5A5,5,0,0,1,71.35,32.59Z" transform="translate(-11.72 -3.52)"/><path class="cls-11" d="M76.33,27.62a5,5,0,1,1-5-5A5,5,0,0,1,76.33,27.62Z" transform="translate(-11.72 -3.52)"/><path class="cls-10" d="M178.44,76.48a8.31,8.31,0,0,0-13.86,0c-5.41,8.74,6.92,20.69,6.92,20.69S183.85,85.22,178.44,76.48Zm-6.94,9.2a5,5,0,1,1,5-5A5,5,0,0,1,171.5,85.68Z" transform="translate(-11.72 -3.52)"/><path class="cls-11" d="M176.47,80.71a5,5,0,1,1-5-5A5,5,0,0,1,176.47,80.71Z" transform="translate(-11.72 -3.52)"/></svg>