<svg id="圖層_1" data-name="圖層 1" xmlns="http://www.w3.org/2000/svg" viewBox="0 0 240 100.24"><defs><style>.cls-1{fill:#bfc8e0;}.cls-2{fill:#2e96b5;}.cls-3{fill:#8b8ca0;}</style></defs><path class="cls-1" d="M195.32,71.69a18.06,18.06,0,0,0-5.41.93c-4.33-12.49-15.12-21.35-27.77-21.35A26.39,26.39,0,0,0,156,52c-7.7-16.34-23-27.48-40.56-27.48-21,0-38.72,15.92-44.13,37.61-.59-.05-1.15-.2-1.74-.2-10.62,0-19.48,8-22.31,18.91a14,14,0,0,0-5.78-1.28C32.89,79.56,26,87.35,26,97a19.68,19.68,0,0,0,.25,2.79H215a25.34,25.34,0,0,0,.6-5.28C215.6,81.89,206.52,71.69,195.32,71.69Z" transform="translate(0 -24.52)"/><path class="cls-2" d="M119.33,37.73a25.07,25.07,0,0,1-9.44-1.22c-1.62-.57-3.21-1.21-4.88-1.65A25.14,25.14,0,0,0,99,34.19a23.22,23.22,0,0,0-10.09,2.17,30.13,30.13,0,0,1-11.06,3,25.05,25.05,0,0,1-11.42-1.88,36.9,36.9,0,0,0-5.13-2,32.19,32.19,0,0,0-5.87-.75,31,31,0,0,0-5.78.57,46.79,46.79,0,0,0-5.82,2.08,23.8,23.8,0,0,1-10.4,1.38,28.86,28.86,0,0,1-10.65-3,29.62,29.62,0,0,0-9.86-2.67,24.84,24.84,0,0,1,9.44,1.21c1.62.57,3.21,1.21,4.88,1.65a25.14,25.14,0,0,0,6.06.67,23.33,23.33,0,0,0,10.09-2.17,41,41,0,0,1,5-2,25.35,25.35,0,0,1,6.07-.94,25.06,25.06,0,0,1,11.42,1.89,38.21,38.21,0,0,0,5.13,2,33.07,33.07,0,0,0,5.87.74,29.36,29.36,0,0,0,5.78-.58,47.47,47.47,0,0,0,5.83-2.07A23.78,23.78,0,0,1,98.83,32a29.2,29.2,0,0,1,10.64,3A29.94,29.94,0,0,0,119.33,37.73Z" transform="translate(0 -24.52)"/><path class="cls-2" d="M112.89,49.47a24.86,24.86,0,0,1-9.44-1.21c-1.61-.57-3.2-1.21-4.87-1.65a25.15,25.15,0,0,0-6.06-.68,23.31,23.31,0,0,0-10.09,2.18,30.43,30.43,0,0,1-11.07,3A25,25,0,0,1,60,49.2a36.59,36.59,0,0,0-5.14-2,33.79,33.79,0,0,0-5.87-.75,30.93,30.93,0,0,0-5.77.58,48.56,48.56,0,0,0-5.83,2.07,23.64,23.64,0,0,1-10.4,1.39,29.11,29.11,0,0,1-10.65-3A29.58,29.58,0,0,0,6.44,44.8,25,25,0,0,1,15.87,46c1.62.57,3.21,1.21,4.88,1.65a25.14,25.14,0,0,0,6.06.67A23.17,23.17,0,0,0,36.9,46.16a46.12,46.12,0,0,1,5-2A25.85,25.85,0,0,1,48,43.2a25.12,25.12,0,0,1,11.41,1.88,35.68,35.68,0,0,0,5.13,2,32.18,32.18,0,0,0,5.88.75,30.11,30.11,0,0,0,5.77-.58A49.19,49.19,0,0,0,82,45.14a23.65,23.65,0,0,1,10.4-1.38,28.81,28.81,0,0,1,10.64,3A29.69,29.69,0,0,0,112.89,49.47Z" transform="translate(0 -24.52)"/><path class="cls-2" d="M106.46,61.22A25.21,25.21,0,0,1,97,60c-1.62-.58-3.21-1.21-4.88-1.66a25.14,25.14,0,0,0-6.06-.67A23.3,23.3,0,0,0,76,59.85a30.19,30.19,0,0,1-11.06,3,25,25,0,0,1-11.42-1.89,38.21,38.21,0,0,0-5.13-2,33.08,33.08,0,0,0-5.88-.75,30.11,30.11,0,0,0-5.77.58,47.47,47.47,0,0,0-5.83,2.07,23.64,23.64,0,0,1-10.4,1.39,29.2,29.2,0,0,1-10.64-3A29.46,29.46,0,0,0,0,56.55a25.27,25.27,0,0,1,9.44,1.21c1.61.58,3.2,1.21,4.87,1.66a25.19,25.19,0,0,0,6.06.67,23.17,23.17,0,0,0,10.09-2.18,43.58,43.58,0,0,1,5-2,25.78,25.78,0,0,1,6.07-.94A25.06,25.06,0,0,1,53,56.83a34.81,34.81,0,0,0,5.13,2,32.85,32.85,0,0,0,5.87.75A30.11,30.11,0,0,0,69.72,59a46.93,46.93,0,0,0,5.83-2.08A23.8,23.8,0,0,1,86,55.5a29.3,29.3,0,0,1,10.65,3A29.64,29.64,0,0,0,106.46,61.22Z" transform="translate(0 -24.52)"/><path class="cls-3" d="M119.33,37.73a25.07,25.07,0,0,1-9.44-1.22c-1.62-.57-3.21-1.21-4.88-1.65A25.14,25.14,0,0,0,99,34.19a23.22,23.22,0,0,0-10.09,2.17,30.13,30.13,0,0,1-11.06,3,25.05,25.05,0,0,1-11.42-1.88,36.9,36.9,0,0,0-5.13-2,32.19,32.19,0,0,0-5.87-.75,31,31,0,0,0-5.78.57,46.79,46.79,0,0,0-5.82,2.08,23.8,23.8,0,0,1-10.4,1.38,28.86,28.86,0,0,1-10.65-3,29.62,29.62,0,0,0-9.86-2.67,24.84,24.84,0,0,1,9.44,1.21c1.62.57,3.21,1.21,4.88,1.65a25.14,25.14,0,0,0,6.06.67,23.33,23.33,0,0,0,10.09-2.17,41,41,0,0,1,5-2,25.35,25.35,0,0,1,6.07-.94,25.06,25.06,0,0,1,11.42,1.89,38.21,38.21,0,0,0,5.13,2,33.07,33.07,0,0,0,5.87.74,29.36,29.36,0,0,0,5.78-.58,47.47,47.47,0,0,0,5.83-2.07A23.78,23.78,0,0,1,98.83,32a29.2,29.2,0,0,1,10.64,3A29.94,29.94,0,0,0,119.33,37.73Z" transform="translate(0 -24.52)"/><path class="cls-3" d="M112.89,49.47a24.86,24.86,0,0,1-9.44-1.21c-1.61-.57-3.2-1.21-4.87-1.65a25.15,25.15,0,0,0-6.06-.68,23.31,23.31,0,0,0-10.09,2.18,30.43,30.43,0,0,1-11.07,3A25,25,0,0,1,60,49.2a36.59,36.59,0,0,0-5.14-2,33.79,33.79,0,0,0-5.87-.75,30.93,30.93,0,0,0-5.77.58,48.56,48.56,0,0,0-5.83,2.07,23.64,23.64,0,0,1-10.4,1.39,29.11,29.11,0,0,1-10.65-3A29.58,29.58,0,0,0,6.44,44.8,25,25,0,0,1,15.87,46c1.62.57,3.21,1.21,4.88,1.65a25.14,25.14,0,0,0,6.06.67A23.17,23.17,0,0,0,36.9,46.16a46.12,46.12,0,0,1,5-2A25.85,25.85,0,0,1,48,43.2a25.12,25.12,0,0,1,11.41,1.88,35.68,35.68,0,0,0,5.13,2,32.18,32.18,0,0,0,5.88.75,30.11,30.11,0,0,0,5.77-.58A49.19,49.19,0,0,0,82,45.14a23.65,23.65,0,0,1,10.4-1.38,28.81,28.81,0,0,1,10.64,3A29.69,29.69,0,0,0,112.89,49.47Z" transform="translate(0 -24.52)"/><path class="cls-3" d="M106.46,61.22A25.21,25.21,0,0,1,97,60c-1.62-.58-3.21-1.21-4.88-1.66a25.14,25.14,0,0,0-6.06-.67A23.3,23.3,0,0,0,76,59.85a30.19,30.19,0,0,1-11.06,3,25,25,0,0,1-11.42-1.89,38.21,38.21,0,0,0-5.13-2,33.08,33.08,0,0,0-5.88-.75,30.11,30.11,0,0,0-5.77.58,47.47,47.47,0,0,0-5.83,2.07,23.64,23.64,0,0,1-10.4,1.39,29.2,29.2,0,0,1-10.64-3A29.46,29.46,0,0,0,0,56.55a25.27,25.27,0,0,1,9.44,1.21c1.61.58,3.2,1.21,4.87,1.66a25.19,25.19,0,0,0,6.06.67,23.17,23.17,0,0,0,10.09-2.18,43.58,43.58,0,0,1,5-2,25.78,25.78,0,0,1,6.07-.94A25.06,25.06,0,0,1,53,56.83a34.81,34.81,0,0,0,5.13,2,32.85,32.85,0,0,0,5.87.75A30.11,30.11,0,0,0,69.72,59a46.93,46.93,0,0,0,5.83-2.08A23.8,23.8,0,0,1,86,55.5a29.3,29.3,0,0,1,10.65,3A29.64,29.64,0,0,0,106.46,61.22Z" transform="translate(0 -24.52)"/><path class="cls-3" d="M240,94c-4.25,0-8.44-.06-12.42-1.48-2.13-.7-4.22-1.48-6.42-2a35.36,35.36,0,0,0-8-.82,32.48,32.48,0,0,0-13.27,2.66,42.11,42.11,0,0,1-14.56,3.64,35.07,35.07,0,0,1-15-2.3,50.21,50.21,0,0,0-6.76-2.41,46.36,46.36,0,0,0-7.73-.92,43.74,43.74,0,0,0-7.59.71,64.39,64.39,0,0,0-7.67,2.54,33.37,33.37,0,0,1-13.68,1.69,40.2,40.2,0,0,1-14-3.72,41.6,41.6,0,0,0-13-3.28c4.25,0,8.44.06,12.42,1.49,2.13.7,4.22,1.48,6.42,2a35.36,35.36,0,0,0,8,.82A32.49,32.49,0,0,0,140,89.91a61,61,0,0,1,6.58-2.49,36.07,36.07,0,0,1,8-1.14,35.05,35.05,0,0,1,15,2.31,50.17,50.17,0,0,0,6.76,2.4,46.35,46.35,0,0,0,7.73.91,41.79,41.79,0,0,0,7.59-.71,64.39,64.39,0,0,0,7.67-2.54A33.56,33.56,0,0,1,213,87a40.43,40.43,0,0,1,14,3.73A41.31,41.31,0,0,0,240,94Z" transform="translate(0 -24.52)"/><path class="cls-3" d="M231.53,108.35c-4.25,0-8.44-.06-12.42-1.49-2.13-.7-4.22-1.48-6.41-2a35.51,35.51,0,0,0-8-.83,32.52,32.52,0,0,0-13.27,2.67,42.1,42.1,0,0,1-14.56,3.63,35.07,35.07,0,0,1-15-2.3,50.17,50.17,0,0,0-6.76-2.4,45.22,45.22,0,0,0-7.72-.92,42.8,42.8,0,0,0-7.6.7,66.24,66.24,0,0,0-7.67,2.54,33.18,33.18,0,0,1-13.68,1.7,40.64,40.64,0,0,1-14-3.72,41.05,41.05,0,0,0-13-3.28c4.25,0,8.44.06,12.42,1.49,2.13.7,4.22,1.48,6.42,2a35.42,35.42,0,0,0,8,.82,32.33,32.33,0,0,0,13.27-2.67,61,61,0,0,1,6.58-2.48,36.07,36.07,0,0,1,8-1.15,35.12,35.12,0,0,1,15,2.31,49.55,49.55,0,0,0,6.75,2.4,46.36,46.36,0,0,0,7.73.92,43.65,43.65,0,0,0,7.59-.71,68.21,68.21,0,0,0,7.67-2.54,33.39,33.39,0,0,1,13.68-1.69,40.42,40.42,0,0,1,14,3.72A41.32,41.32,0,0,0,231.53,108.35Z" transform="translate(0 -24.52)"/><path class="cls-3" d="M223.06,122.73c-4.25,0-8.43-.06-12.42-1.48-2.12-.71-4.22-1.49-6.41-2a35.51,35.51,0,0,0-8-.82A32.35,32.35,0,0,0,183,121.06a42.34,42.34,0,0,1-14.56,3.64,35.4,35.4,0,0,1-15-2.3,50.21,50.21,0,0,0-6.76-2.41,46.25,46.25,0,0,0-7.72-.92,43.77,43.77,0,0,0-7.6.71,64.39,64.39,0,0,0-7.67,2.54A33.35,33.35,0,0,1,110,124a40.2,40.2,0,0,1-14-3.72A41.32,41.32,0,0,0,83,117c4.26,0,8.44.06,12.42,1.49,2.13.7,4.22,1.48,6.42,2a35.43,35.43,0,0,0,8,.83,32.65,32.65,0,0,0,13.27-2.67,61,61,0,0,1,6.58-2.49,36.08,36.08,0,0,1,8-1.15,35.26,35.26,0,0,1,15,2.32,50.94,50.94,0,0,0,6.75,2.4,46.35,46.35,0,0,0,7.73.91,41.79,41.79,0,0,0,7.59-.71,64.39,64.39,0,0,0,7.67-2.54,33.56,33.56,0,0,1,13.68-1.69,40.64,40.64,0,0,1,14,3.72A41.05,41.05,0,0,0,223.06,122.73Z" transform="translate(0 -24.52)"/></svg>