<?xml version="1.0" encoding="utf-8"?>
<!-- Generator: Adobe Illustrator 25.2.1, SVG Export Plug-In . SVG Version: 6.00 Build 0)  -->
<svg version="1.1" id="圖層_1" xmlns="http://www.w3.org/2000/svg" xmlns:xlink="http://www.w3.org/1999/xlink" x="0px" y="0px"
	 viewBox="0 0 213.08 268.51" style="enable-background:new 0 0 213.08 268.51;" xml:space="preserve">
<style type="text/css">
	.st0{fill:#50BCB3;}
	.st1{fill:#E0655B;}
	.st2{fill:#F2DEC1;}
	.st3{fill:#CBC720;}
	.st4{fill:#F8EEDB;}
	.st5{fill:#DAE139;}
	.st6{fill:#6CC4C2;}
	.st7{fill:#E77E70;}
	.st8{fill:#272848;}
	.st9{fill:#373754;}
	.st10{fill:#F9F2E9;}
	.st11{fill:#ECD1AA;}
	.st12{fill:#ECEC9B;}
	.st13{fill:#D4CD73;}
</style>
<rect x="80.1" y="33.75" transform="matrix(0.2248 -0.9744 0.9744 0.2248 49.9672 134.4319)" class="st0" width="58.74" height="4.13"/>
<rect x="107.41" y="6.43" transform="matrix(0.9788 -0.205 0.205 0.9788 -5.0142 23.2025)" class="st0" width="4.13" height="58.74"/>
<polygon class="st1" points="164.95,200.6 151.08,212.64 137.21,200.6 123.33,212.64 109.47,200.6 109.47,215.96 123.33,228.01 
	137.21,215.95 151.08,228.01 164.95,215.95 178.83,228.01 191.19,217.27 186.27,206.18 178.83,212.64 "/>
<polygon class="st2" points="123.33,169.87 137.21,157.82 151.08,169.87 164.86,157.91 109.47,33.04 109.47,157.83 "/>
<polygon class="st2" points="164.95,194.57 151.08,206.61 137.21,194.57 123.33,206.61 109.47,194.57 109.47,200.6 123.33,212.64 
	137.21,200.6 151.08,212.64 164.95,200.6 178.83,212.64 186.27,206.18 184.34,201.84 178.83,206.61 "/>
<polygon class="st2" points="164.95,215.95 151.08,228.01 137.21,215.95 123.33,228.01 109.47,215.96 109.47,257.14 208.87,257.14 
	191.19,217.27 178.83,228.01 "/>
<polygon class="st0" points="164.95,179.2 151.08,191.26 137.21,179.2 123.33,191.26 109.47,179.21 109.47,194.57 123.33,206.61 
	137.21,194.57 151.08,206.61 164.95,194.57 178.83,206.61 184.34,201.84 179.43,190.74 178.83,191.26 "/>
<polygon class="st3" points="151.08,169.87 137.21,157.82 123.33,169.87 109.47,157.83 109.47,173.18 123.33,185.23 137.21,173.18 
	151.08,185.23 164.95,173.18 175.81,182.61 164.86,157.91 "/>
<polygon class="st2" points="151.08,185.23 137.21,173.18 123.33,185.23 109.47,173.18 109.47,179.21 123.33,191.26 137.21,179.2 
	151.08,191.26 164.95,179.2 178.83,191.26 179.43,190.74 175.81,182.61 164.95,173.18 "/>
<polygon class="st4" points="53.98,179.2 67.85,191.26 81.72,179.2 95.6,191.26 109.46,179.2 109.47,179.21 109.47,173.18 
	109.46,173.18 95.6,185.23 81.72,173.18 67.85,185.23 53.98,173.18 43.14,182.6 39.52,190.75 40.1,191.26 "/>
<polygon class="st5" points="67.85,185.23 81.72,173.18 95.6,185.23 109.46,173.18 109.47,173.18 109.47,157.83 109.46,157.82 
	95.6,169.87 81.72,157.82 67.85,169.87 54.08,157.91 43.14,182.6 53.98,173.18 "/>
<polygon class="st4" points="81.72,157.82 95.6,169.87 109.46,157.82 109.47,157.83 109.47,33.04 54.08,157.91 67.85,169.87 "/>
<polygon class="st4" points="109.46,215.95 95.6,228.01 81.72,215.95 67.85,228.01 53.98,215.95 40.1,228.01 27.75,217.28 
	10.07,257.14 109.47,257.14 109.47,215.96 "/>
<polygon class="st6" points="53.98,194.57 67.85,206.61 81.72,194.57 95.6,206.61 109.46,194.57 109.47,194.57 109.47,179.21 
	109.46,179.2 95.6,191.26 81.72,179.2 67.85,191.26 53.98,179.2 40.1,191.26 39.52,190.75 34.6,201.84 40.1,206.61 "/>
<polygon class="st7" points="53.98,215.95 67.85,228.01 81.72,215.95 95.6,228.01 109.46,215.95 109.47,215.96 109.47,200.6 
	109.46,200.6 95.6,212.64 81.72,200.6 67.85,212.64 53.98,200.6 40.1,212.64 32.68,206.18 27.75,217.28 40.1,228.01 "/>
<polygon class="st4" points="53.98,200.6 67.85,212.64 81.72,200.6 95.6,212.64 109.46,200.6 109.47,200.6 109.47,194.57 
	109.46,194.57 95.6,206.61 81.72,194.57 67.85,206.61 53.98,194.57 40.1,206.61 34.6,201.84 32.68,206.18 40.1,212.64 "/>
<polygon class="st8" points="109.47,257.14 147.75,257.14 109.47,166.34 "/>
<polygon class="st9" points="109.47,257.14 71.19,257.14 109.47,166.34 "/>
<polygon class="st10" points="109.47,166.34 165.32,257.14 147.75,257.14 "/>
<polygon class="st11" points="109.47,166.34 53.62,257.14 71.19,257.14 "/>
<polygon class="st12" points="109.47,136.98 95.6,149.03 109.47,149.03 "/>
<polygon class="st13" points="109.47,136.98 109.47,149.03 123.34,149.03 "/>
<polygon class="st12" points="109.47,123.08 97.12,133.81 109.47,133.81 "/>
<polygon class="st13" points="109.47,123.08 109.47,133.81 121.82,133.81 "/>
<polygon class="st12" points="109.47,109.19 98.64,118.6 109.47,118.6 "/>
<polygon class="st13" points="109.47,109.19 109.47,118.6 120.3,118.6 "/>
<polygon class="st12" points="109.47,95.3 100.16,103.38 109.47,103.38 "/>
<polygon class="st13" points="109.47,95.3 109.47,103.38 118.78,103.38 "/>
<polygon class="st13" points="109.47,81.41 109.47,88.16 117.26,88.16 "/>
<polygon class="st12" points="109.47,81.41 101.69,88.16 109.47,88.16 "/>
<polygon class="st12" points="109.47,67.51 103.21,72.95 109.47,72.95 "/>
<polygon class="st13" points="109.47,67.51 109.47,72.95 115.74,72.95 "/>
<path class="st1" d="M115.03,34.71c0,3.09-2.51,5.6-5.6,5.6s-5.6-2.51-5.6-5.6s2.51-5.6,5.6-5.6
	C112.53,29.11,115.03,31.62,115.03,34.71z"/>
</svg>
