<?xml version="1.0" encoding="utf-8"?>
<!-- Generator: Adobe Illustrator 25.2.1, SVG Export Plug-In . SVG Version: 6.00 Build 0)  -->
<svg version="1.1" id="圖層_1" xmlns="http://www.w3.org/2000/svg" xmlns:xlink="http://www.w3.org/1999/xlink" x="0px" y="0px"
	 viewBox="0 0 483.6 233.8" style="enable-background:new 0 0 483.6 233.8;" xml:space="preserve">
<style type="text/css">
	.st0{fill:#FFFFFF;}
	.st1{fill:#BCBDBF;}
	.st2{fill:#2D2D2D;}
	.st3{fill:#985244;}
	.st4{fill:#5F391A;}
	.st5{fill:#D1D3D4;}
	.st6{fill:#24434C;}
	.st7{fill:#939498;}
	.st8{fill:#EF8515;}
	.st9{fill:#803F37;}
</style>
<g>
	<g id="圖層_1_1_">
		<path class="st0" d="M100.2,189.8H68.5c-12.81,0-23.2-10.39-23.2-23.2v-32.5l0,0h55l0,0v55.7H100.2z"/>
		<rect x="42.7" y="130.37" class="st1" width="46.3" height="3.63"/>
		<rect x="32.1" y="192.99" class="st2" width="3" height="23.11"/>
		<circle class="st2" cx="33.7" cy="219.2" r="5.7"/>
		<circle class="st1" cx="33.7" cy="219.2" r="3.2"/>
		<rect x="17.7" y="189.8" class="st2" width="100.7" height="6.3"/>
		<rect x="403.7" y="192.99" class="st2" width="5.8" height="31.91"/>
		<path class="st2" d="M407.1,217.7h-0.4c-3.98,0-7.2,3.22-7.2,7.2l0,0h14.8C414.3,220.92,411.08,217.7,407.1,217.7z"/>
		
			<rect x="66.42" y="180.78" transform="matrix(0.7466 -0.6652 0.6652 0.7466 -100.6649 101.0819)" class="st2" width="31.9" height="3.82"/>
		<path class="st0" d="M473,163.9c0,1.1-7.5,0-7.5,0s-17.1,32.3-61.5,32.3h-81.2c-0.98-17.42-15.9-30.75-33.33-29.77
			c-16.05,0.9-28.87,13.72-29.77,29.77H98.1c0,0-28.3-30.1-22.3-65c1-5.6,2.2-11.5,3.4-17.5c0.3-1.7,0.7-3.4,1.1-5.1l1.8-8
			c5.8-25.7,12.2-48.6,12.3-49h-3.7c0,0,0.5-12.9,19.6-22.8S196.1-1.1,285.8,0.1s145.1,20.4,157.7,27.6s18.9,20.6,18.9,20.6h-8.9
			c5.12,17.2,9.36,34.66,12.7,52.3l1.5,8c0.3,1.7,0.6,3.4,0.8,5.1C471.2,130.1,473.1,147.5,473,163.9z"/>
		<path class="st3" d="M467.7,108.6H80.3l1.8-8h384.1L467.7,108.6z"/>
		<rect x="251.7" y="154.9" class="st4" width="78.6" height="41.22"/>
		<path class="st3" d="M473,163.9c0,1.1-7.5,0-7.5,0s-17.1,32.3-61.5,32.3h-81.2c-0.98-17.42-15.9-30.75-33.33-29.77
			c-16.05,0.9-28.87,13.72-29.77,29.77H98.1c0,0-28.3-30.1-22.3-65c1-5.6,2.2-11.5,3.4-17.5h389.3
			C471.2,130.1,473.1,147.5,473,163.9z"/>
		<path class="st5" d="M462.4,48.3h-8.9c-6.7-16-80.2-42.3-210.7-36.2S94.4,51.5,94.4,51.5h-3.7c0,0,0.5-12.9,19.6-22.8
			S176.8,0.1,285.8,0.1c89.6,1.1,145.1,20.4,157.7,27.6S462.4,48.3,462.4,48.3z"/>
		<circle class="st2" cx="291.05" cy="196.66" r="28"/>
		
			<ellipse transform="matrix(0.2317 -0.9728 0.9728 0.2317 32.2612 434.56)" class="st0" cx="291.25" cy="196.86" rx="20.8" ry="20.8"/>
		<circle class="st1" cx="291.29" cy="196.93" r="14.4"/>
		<path class="st6" d="M184.3,47.6v40.9c0.06,4.75-3.75,8.64-8.5,8.7c-0.03,0-0.07,0-0.1,0h-46c-4.8,0-8.7-3.9-8.7-8.7V47.6H184.3z"
			/>
		<path class="st1" d="M136.7,97.2h-7c-4.8,0-8.7-3.9-8.7-8.7V47.6h21.9c0,0-1.4,21.7-14.6,27.4h-0.2v2.5
			C128.1,77.5,135.9,84.4,136.7,97.2z"/>
		<path class="st7" d="M126.3,75.3h-1.8l-0.3-0.2v-0.2c0.1-0.1,4.4-7.5,4.9-15.1c0-0.17,0.13-0.3,0.3-0.3l0,0c0.1,0,0.2,0.2,0.2,0.3
			c-0.4,6.7-3.7,13.2-4.7,14.9h1.3c7.4-6.3,9.1-22.8,9.1-23s0.2-0.2,0.3-0.2c0.17,0,0.3,0.13,0.3,0.3v0c-0.1,0.7-1.8,17-9.4,23.4
			L126.3,75.3z"/>
		<path class="st7" d="M131,90c-0.1,0-0.3-0.1-0.3-0.2c-0.8-5.1-4.2-11.1-4.8-12h-1c0.73,2.19,1.3,4.43,1.7,6.7
			c0,0.2-0.1,0.3-0.3,0.4c-0.17,0-0.3-0.13-0.3-0.3v0c-0.35-2.39-0.95-4.74-1.8-7c-0.01-0.11,0.03-0.22,0.1-0.3h1.8
			c0.11,0,0.2,0.09,0.2,0.2c0.1,0,4.1,6.7,5,12.3c0,0.17-0.13,0.3-0.3,0.3L131,90z"/>
		<path class="st8" d="M129.4,76.1v0.2c0,0.66-0.54,1.2-1.2,1.2H121V75h7.3C128.91,75,129.4,75.49,129.4,76.1z"/>
		<path class="st1" d="M168.7,97.2h7c4.75,0,8.6-3.85,8.6-8.6c0-0.03,0-0.07,0-0.1V47.6h-21.8c0,0,1.4,21.7,14.6,27.4h0.2v2.5
			C177.3,77.5,169.5,84.4,168.7,97.2z"/>
		<path class="st7" d="M180.9,75.3h-2c-7.7-6.4-9.3-22.7-9.4-23.4c0-0.17,0.13-0.3,0.3-0.3l0,0l0.3,0.2c0,0.2,1.7,16.7,9.1,23h1.2
			c-0.9-1.7-4.2-8.2-4.7-14.9l0.3-0.3c0.17,0,0.3,0.13,0.3,0.3v0c0.5,7.6,4.8,15,4.8,15.1s0.1,0.1,0,0.2
			C181.06,75.27,180.98,75.31,180.9,75.3z"/>
		<path class="st7" d="M174.4,90h-0.1c-0.1,0-0.2-0.2-0.2-0.3c0.9-5.6,4.9-12.3,4.9-12.3l0.3-0.2h1.8c0.07,0.08,0.11,0.19,0.1,0.3
			c-0.9,2.25-1.5,4.6-1.8,7c-0.13,0.2-0.23,0.3-0.3,0.3c-0.2-0.1-0.3-0.2-0.3-0.4c0.4-2.27,0.97-4.51,1.7-6.7h-1.1
			c-0.5,0.9-3.9,6.9-4.7,12L174.4,90z"/>
		<path class="st8" d="M176,76.1v0.2c0,0.66,0.54,1.2,1.2,1.2h7.1V75h-7.2C176.49,75,176,75.49,176,76.1C176,76.1,176,76.1,176,76.1
			z"/>
		<path class="st1" d="M163.2,40.4h-21c-0.5,0-0.9-0.4-0.9-0.9l0,0c0-0.5,0.4-0.9,0.9-0.9h21c0.5,0,0.9,0.4,0.9,0.9l0,0
			C164.1,40,163.7,40.4,163.2,40.4z"/>
		<path class="st1" d="M163.2,36.7h-21c-0.44,0.06-0.84-0.26-0.89-0.69c0-0.04-0.01-0.07-0.01-0.11l0,0c0-0.5,0.4-0.9,0.9-0.9h21
			c0.5,0,0.9,0.4,0.9,0.9l0,0c0,0.44-0.35,0.8-0.79,0.81C163.27,36.71,163.24,36.7,163.2,36.7z"/>
		<path class="st6" d="M322.9,47.6v40.9c0.06,4.75-3.75,8.64-8.5,8.7c-0.03,0-0.07,0-0.1,0h-46c-4.8,0-8.7-3.9-8.7-8.7v0V47.6H322.9
			z"/>
		<path class="st1" d="M275.3,97.2h-7c-4.8,0-8.7-3.9-8.7-8.7v0V47.6h21.9c0,0-1.4,21.7-14.6,27.4h-0.2v2.5
			C266.7,77.5,274.5,84.4,275.3,97.2z"/>
		<path class="st7" d="M264.9,75.3h-1.8l-0.3-0.2v-0.2c0.1-0.1,4.3-7.5,4.9-15.1c0-0.17,0.13-0.3,0.3-0.3c0.1,0,0.2,0.2,0.2,0.3
			c-0.4,6.7-3.8,13.2-4.7,14.9h1.3c7.4-6.3,9.1-22.8,9.1-23s0.1-0.2,0.3-0.2c0.17,0,0.3,0.13,0.3,0.3c-0.1,0.7-1.8,17-9.5,23.4
			L264.9,75.3z"/>
		<path class="st7" d="M269.6,90c-0.2,0-0.3-0.1-0.3-0.2c-0.8-5.1-4.2-11.1-4.8-12h-1c0.73,2.18,1.27,4.42,1.6,6.7
			c0.1,0.2,0,0.3-0.2,0.4c-0.17,0-0.3-0.13-0.3-0.3c-0.35-2.39-0.95-4.74-1.8-7v-0.3h1.9c0.11,0,0.2,0.09,0.2,0.2v0
			c0.1,0,4,6.7,4.9,12.3c0.1,0.1,0,0.3-0.2,0.3L269.6,90z"/>
		<path class="st8" d="M267.9,76.1v0.2c0.06,0.6-0.39,1.14-1,1.2c-0.03,0-0.07,0-0.1,0h-7.2V75h7.3c0.55,0,1,0.44,1.01,0.99
			C267.91,76.03,267.9,76.07,267.9,76.1z"/>
		<path class="st1" d="M307.2,97.2h7.1c4.75,0,8.6-3.85,8.6-8.6c0-0.03,0-0.07,0-0.1V47.6H301c0,0,1.5,21.7,14.7,27.4h0.2v2.5
			C315.9,77.5,308.1,84.4,307.2,97.2z"/>
		<path class="st7" d="M319.5,75.3h-2c-7.7-6.4-9.3-22.7-9.4-23.4s0.1-0.3,0.2-0.3s0.3,0.1,0.3,0.2s1.7,16.7,9.2,23h1.2
			c-0.9-1.7-4.2-8.2-4.7-14.9c0-0.17,0.13-0.3,0.3-0.3c0.17,0,0.3,0.13,0.3,0.3l0,0c0.5,7.6,4.8,15,4.8,15.1s0.1,0.1,0,0.2
			C319.66,75.27,319.58,75.31,319.5,75.3z"/>
		<path class="st7" d="M313,90h-0.1c-0.1,0-0.2-0.2-0.2-0.3c0.9-5.6,4.9-12.3,4.9-12.3l0.3-0.2h1.8c0.08,0.07,0.09,0.2,0.02,0.28
			c-0.01,0.01-0.01,0.01-0.02,0.02c-0.79,2.28-1.39,4.62-1.8,7c0,0.17-0.13,0.3-0.3,0.3c-0.13-0.09-0.2-0.24-0.2-0.4
			c0.3-2.29,0.87-4.54,1.7-6.7H318c-0.5,0.9-3.9,6.9-4.8,12c0.06,0.1,0.02,0.22-0.07,0.27C313.09,90,313.04,90.01,313,90z"/>
		<path class="st8" d="M314.6,76.1v0.2c0,0.66,0.54,1.2,1.2,1.2l0,0h7.1V75h-7.2C315.09,75,314.6,75.49,314.6,76.1
			C314.6,76.1,314.6,76.1,314.6,76.1z"/>
		<path class="st1" d="M301.8,40.4h-21c-0.5,0-0.9-0.4-0.9-0.9l0,0c0-0.5,0.4-0.9,0.9-0.9h21c0.46,0.05,0.8,0.44,0.8,0.9l0,0
			C302.6,39.96,302.26,40.35,301.8,40.4z"/>
		<path class="st1" d="M301.8,36.7h-21c-0.44,0.06-0.84-0.26-0.89-0.69c0-0.04-0.01-0.07-0.01-0.11l0,0c0-0.5,0.4-0.9,0.9-0.9h21
			c0.46,0.05,0.8,0.44,0.8,0.9l0,0C302.6,36.34,302.24,36.7,301.8,36.7z"/>
		<path class="st6" d="M414.3,47.6v40.9c0.06,4.75-3.75,8.64-8.5,8.7c-0.03,0-0.07,0-0.1,0h-46c-4.8,0-8.7-3.9-8.7-8.7v0V47.6H414.3
			z"/>
		<path class="st1" d="M366.7,97.2h-7c-4.8,0-8.7-3.9-8.7-8.7v0V47.6h21.9c0,0-1.4,21.7-14.6,27.4h-0.2v2.5
			C358.1,77.5,365.9,84.4,366.7,97.2z"/>
		<path class="st7" d="M356.3,75.3h-1.8l-0.3-0.2v-0.2c0.1-0.1,4.3-7.5,4.9-15.1c0-0.17,0.13-0.3,0.3-0.3c0.1,0,0.2,0.2,0.2,0.3
			c-0.4,6.7-3.8,13.2-4.7,14.9h1.3c7.4-6.3,9.1-22.8,9.1-23s0.1-0.2,0.3-0.2c0.17,0,0.3,0.13,0.3,0.3c-0.1,0.7-1.8,17-9.4,23.4
			L356.3,75.3z"/>
		<path class="st7" d="M361,90c-0.2,0-0.3-0.1-0.3-0.2c-0.8-5.1-4.2-11.1-4.8-12h-1c0.73,2.19,1.3,4.43,1.7,6.7
			c0,0.2-0.1,0.3-0.3,0.4c-0.17,0-0.3-0.13-0.3-0.3c-0.35-2.39-0.95-4.74-1.8-7v-0.3h1.9c0.11,0,0.2,0.09,0.2,0.2v0
			c0.1,0,4.1,6.7,5,12.3c0,0.17-0.13,0.3-0.3,0.3L361,90z"/>
		<path class="st8" d="M359.4,76.1v0.2c0,0.66-0.54,1.2-1.2,1.2l0,0H351V75h7.3C358.91,75,359.4,75.49,359.4,76.1
			C359.4,76.1,359.4,76.1,359.4,76.1z"/>
		<path class="st1" d="M398.7,97.2h7c4.75,0,8.6-3.85,8.6-8.6c0-0.03,0-0.07,0-0.1V47.6h-21.9c0,0,1.5,21.7,14.7,27.4h0.2v2.5
			C407.3,77.5,399.5,84.4,398.7,97.2z"/>
		<path class="st7" d="M410.9,75.3h-2c-7.7-6.4-9.3-22.7-9.4-23.4s0.1-0.3,0.2-0.3s0.3,0.1,0.3,0.2s1.7,16.7,9.2,23h1.2
			c-0.9-1.7-4.2-8.2-4.7-14.9c0-0.17,0.13-0.3,0.3-0.3c0.17,0,0.3,0.13,0.3,0.3l0,0c0.5,7.6,4.8,15,4.8,15.1s0.1,0.1,0,0.2
			C411.06,75.27,410.98,75.31,410.9,75.3z"/>
		<path class="st7" d="M404.4,90h-0.1c-0.1,0-0.2-0.2-0.2-0.3c0.9-5.6,4.9-12.3,4.9-12.3l0.3-0.2h1.8c0.07,0.08,0.11,0.19,0.1,0.3
			c-0.9,2.25-1.5,4.6-1.8,7c-0.1,0.2-0.2,0.3-0.4,0.3c-0.13-0.09-0.2-0.24-0.2-0.4c0.35-2.28,0.92-4.53,1.7-6.7h-1.1
			c-0.5,0.9-3.9,6.9-4.7,12L404.4,90z"/>
		<path class="st8" d="M406,76.1v0.2c0,0.66,0.54,1.2,1.2,1.2l0,0h7.1V75h-7.2C406.49,75,406,75.49,406,76.1
			C406,76.1,406,76.1,406,76.1z"/>
		<path class="st1" d="M393.2,40.4h-21c-0.5,0-0.9-0.4-0.9-0.9l0,0c0-0.5,0.4-0.9,0.9-0.9h21c0.5,0,0.9,0.4,0.9,0.9l0,0
			C394.1,40,393.7,40.4,393.2,40.4z"/>
		<path class="st1" d="M393.2,36.7h-21c-0.44,0.06-0.84-0.26-0.89-0.69c0-0.04-0.01-0.07-0.01-0.11l0,0c0-0.5,0.4-0.9,0.9-0.9h21
			c0.5,0,0.9,0.4,0.9,0.9l0,0c0,0.44-0.35,0.8-0.79,0.81C393.27,36.71,393.24,36.7,393.2,36.7z"/>
		<path class="st9" d="M178.8,130.5h-22.1c-0.51-0.05-0.9-0.48-0.9-1l0,0c0-0.5,0.4-0.9,0.9-0.9h22.1c0.49-0.06,0.94,0.3,0.99,0.79
			c0,0.04,0.01,0.07,0.01,0.11l0,0C179.8,130.05,179.35,130.5,178.8,130.5z"/>
		<path class="st9" d="M178.8,126.6h-22.1c-0.5,0-0.9-0.4-0.9-0.9l0,0c0-0.5,0.4-0.9,0.9-0.9h22.1c0.49-0.06,0.94,0.3,0.99,0.79
			c0,0.04,0.01,0.07,0.01,0.11l0,0c0,0.5-0.4,0.9-0.89,0.91C178.87,126.61,178.84,126.6,178.8,126.6z"/>
		<path class="st9" d="M332.1,130.5H310c-0.53-0.05-0.95-0.47-1-1l0,0c0.05-0.51,0.48-0.9,1-0.9h22.1c0.5,0,0.9,0.4,0.9,0.9l0,0
			C333,130.02,332.61,130.45,332.1,130.5z"/>
		<path class="st9" d="M332.1,126.6H310c-0.52,0-0.95-0.39-1-0.9l0,0c0.05-0.51,0.48-0.9,1-0.9h22.1c0.5,0,0.9,0.4,0.9,0.9l0,0
			C333,126.2,332.6,126.6,332.1,126.6C332.1,126.6,332.1,126.6,332.1,126.6z"/>
		<path class="st3" d="M240.1,26.9h-36.5c-4.14-0.06-7.54,3.26-7.6,7.4c0,0,0,0,0,0v161.9h51.6V34.3
			C247.55,30.2,244.2,26.9,240.1,26.9z"/>
		<rect x="196" y="100.6" class="st0" width="51.6" height="7.84"/>
		<path class="st9" d="M229.1,80.8h-14.6c-2.63-0.05-4.75-2.17-4.8-4.8V51.8c0.05-2.63,2.17-4.75,4.8-4.8h14.6
			c2.65,0,4.8,2.15,4.8,4.8v0V76C233.9,78.65,231.75,80.8,229.1,80.8L229.1,80.8z M214.5,48.1c-2.02,0.05-3.65,1.68-3.7,3.7V76
			c0.05,2.02,1.68,3.65,3.7,3.7h14.6c2.04,0,3.7-1.66,3.7-3.7V51.8c0-2.04-1.66-3.7-3.7-3.7L214.5,48.1z"/>
		<rect x="196" y="113.8" class="st0" width="51.8" height="82.36"/>
		<path class="st1" d="M232.9,160.9h-22.1c-0.49,0.06-0.94-0.3-0.99-0.79c0-0.04-0.01-0.07-0.01-0.11l0,0c0-0.55,0.45-1,1-1h22.1
			c0.51,0.05,0.9,0.48,0.9,1l0,0C233.8,160.5,233.4,160.9,232.9,160.9z"/>
		<path class="st1" d="M232.9,157.1h-22.1c-0.49,0.06-0.94-0.3-0.99-0.79c0-0.04-0.01-0.07-0.01-0.11l0,0
			c-0.06-0.49,0.29-0.94,0.79-1c0.07-0.01,0.14-0.01,0.21,0h22.1c0.5,0,0.9,0.4,0.91,0.89c0,0.04,0,0.07-0.01,0.11l0,0
			C233.8,156.7,233.4,157.1,232.9,157.1z"/>
		<path class="st1" d="M232.9,168.7h-22.1c-0.49,0.06-0.94-0.3-0.99-0.79c0-0.04-0.01-0.07-0.01-0.11l0,0c0-0.5,0.4-0.9,0.89-0.91
			c0.04,0,0.07,0,0.11,0.01h22.1c0.5,0,0.9,0.4,0.9,0.9l0,0C233.8,168.3,233.4,168.7,232.9,168.7z"/>
		<path class="st1" d="M232.9,164.9h-22.1c-0.49,0.06-0.94-0.3-0.99-0.79c0-0.04-0.01-0.07-0.01-0.11l0,0c0-0.5,0.4-0.9,0.89-0.91
			c0.04,0,0.07,0,0.11,0.01h22.1c0.5,0,0.9,0.4,0.9,0.9l0,0C233.8,164.5,233.4,164.9,232.9,164.9z"/>
		<path class="st2" d="M297.3,196.9c0,3.31-2.69,6-6,6s-6-2.69-6-6s2.69-6,6-6S297.3,193.59,297.3,196.9z"/>
	</g>
</g>
</svg>
