<?xml version="1.0" encoding="utf-8"?>
<!-- Generator: Adobe Illustrator 25.2.1, SVG Export Plug-In . SVG Version: 6.00 Build 0)  -->
<svg version="1.1" id="圖層_1" xmlns="http://www.w3.org/2000/svg" xmlns:xlink="http://www.w3.org/1999/xlink" x="0px" y="0px"
	 viewBox="0 0 358.05 199.18" style="enable-background:new 0 0 358.05 199.18;" xml:space="preserve">
<style type="text/css">
	.st0{fill:#FFFFFF;}
	.st1{fill:#D4A05C;}
	.st2{fill:#E6B86E;}
	.st3{fill:#2D2D2D;}
	.st4{fill:#F6DFAA;}
	.st5{fill:#23424B;}
</style>
<g id="圖層_1-2">
	
		<rect x="334.89" y="143.49" transform="matrix(0.6984 -0.7157 0.7157 0.6984 -20.2433 291.197)" class="st0" width="1.02" height="52.26"/>
	<polygon class="st1" points="59.92,150.17 40.13,151.65 63.53,131.22 	"/>
	<polygon class="st1" points="298.13,150.17 317.92,151.65 294.52,131.22 	"/>
	<polygon class="st2" points="179.03,0 54.28,136.95 76.29,188.18 179.03,188.18 281.76,188.18 303.77,136.95 	"/>
	<path class="st1" d="M179.02,58.16c0,0-19.79,89-75.18,129.92h30.06l28.85-18.21L179.02,86L179.02,58.16z"/>
	
		<rect x="-3.3" y="168.73" transform="matrix(0.7169 -0.6972 0.6972 0.7169 -111.541 63.8298)" class="st0" width="52.25" height="1.06"/>
	<polygon class="st3" points="0,179.76 4.35,193.91 6.2,193.91 5.09,179.76 	"/>
	<path class="st4" d="M179.02,0L40.22,151.65c0,0,104.77-60,138.8-107.54c34.13,47.53,138.9,107.54,138.9,107.54L179.02,0z"/>
	<path class="st1" d="M179.02,58.16c0,0,19.88,89,75.18,129.92h-30.05l-28.76-18.21L179.02,86V58.16z"/>
	<polygon class="st3" points="358.05,179.76 353.7,193.91 351.85,193.91 352.96,179.76 	"/>
	<path class="st5" d="M179.02,67.78c0,0-5.08,77.77-45.12,120.3h90.25C184.2,145.55,179.02,67.78,179.02,67.78z"/>
</g>
</svg>
