<?xml version="1.0" encoding="utf-8"?>
<!-- Generator: Adobe Illustrator 25.2.1, SVG Export Plug-In . SVG Version: 6.00 Build 0)  -->
<svg version="1.1" id="圖層_1" xmlns="http://www.w3.org/2000/svg" xmlns:xlink="http://www.w3.org/1999/xlink" x="0px" y="0px"
	 viewBox="0 0 355.08 190.72" style="enable-background:new 0 0 355.08 190.72;" xml:space="preserve">
<style type="text/css">
	.st0{opacity:0.05;fill:#1C1D1B;enable-background:new    ;}
	.st1{fill:#F5F2CB;}
	.st2{fill:#D69570;}
	.st3{fill:#E2E3B6;}
	.st4{opacity:0.1;fill:#1C1D1B;enable-background:new    ;}
	.st5{fill:#F7F4D7;}
	.st6{fill:#CCCCA3;}
	.st7{fill:#EDEDEC;}
	.st8{fill:#EEEFC2;}
	.st9{opacity:0.2;fill:#1C1D1B;enable-background:new    ;}
	.st10{opacity:0.15;fill:#FFFFFF;enable-background:new    ;}
	.st11{fill:#DDB49D;}
	.st12{fill:#F2E9AB;}
	.st13{fill:#341E16;}
	.st14{fill:#9E9D9C;}
	.st15{fill:#3C3C3B;}
</style>
<rect x="99.07" y="177.86" class="st0" width="157.32" height="7.45"/>
<polygon class="st1" points="101.56,178.23 66.65,169.41 70.55,150.38 91.7,47.16 134.93,23.5 152.75,13.74 177.87,0 202.98,13.74 
	220.81,23.5 264.04,47.16 285.19,150.38 289.08,169.41 256.39,177.86 "/>
<path class="st2" d="M208.69,102.34c-2.25-16.61-16-29-32.18-29h-25.55l-10.19,75.49l-2.53,18.7h79.3l-2.52-18.7L208.69,102.34z"/>
<path class="st3" d="M137.54,165.45l12.15-90h26.85c15.17,0,28.19,11.74,30.29,27.3l8.47,62.67L137.54,165.45z"/>
<path class="st4" d="M214.96,48.81l-80,3l-2.42,23.67L117.8,178.14h21.49l12.5-95.89c29.78,6.56,59.94,22.17,59.94,22.17
	l12.16,73.52h5.82L214.96,48.81z"/>
<path class="st4" d="M229.71,177.93c0.25,3.07,0.25,3.07,0.85,7.38L229.71,177.93z"/>
<path class="st4" d="M229.71,177.92L229.71,177.92L229.71,177.92z"/>
<path class="st5" d="M235.02,51.78L177.87,0l-57.15,51.78L99.07,185.31h26.11l16.91-121.12h34c21.56,0.01,39.81,15.9,42.79,37.25
	l11.66,83.87h26.11L235.02,51.78z"/>
<path class="st6" d="M88.26,86.75c-3.63,4-2.36,10.61-1.77,15.91c1.78-8.07,5.33-13.35,11-15.26
	C94.89,85.19,91.15,84.93,88.26,86.75z"/>
<path class="st6" d="M267.48,86.75c3.63,4,2.35,10.61,1.77,15.91c-1.78-8.07-5.34-13.35-11-15.26
	C260.85,85.19,264.59,84.93,267.48,86.75z"/>
<path class="st6" d="M87.73,102.66l12.52,5l0.62-17.63l-3.33-1.14C92.92,90.08,89.81,96.15,87.73,102.66z"/>
<path class="st6" d="M268.01,102.66l-12.53,5l-0.62-17.63l3.35-1.11C262.82,90.08,265.92,96.15,268.01,102.66z"/>
<path class="st7" d="M89.59,101.8c2.23-6.44,5-10.34,7.91-11.35l1.85,0.61l-0.51,14.4L89.59,101.8z"/>
<path class="st7" d="M266.15,101.8c-2.23-6.44-4.95-10.34-7.91-11.35l-1.85,0.61l0.51,14.4L266.15,101.8z"/>
<path class="st8" d="M101.54,108.87c-0.85-10.32-3.45-24.8-13.3-22.12C98.19,80.25,111.06,84.86,101.54,108.87z"/>
<path class="st8" d="M254.17,108.87c0.86-10.32,3.45-24.8,13.31-22.12C257.54,80.25,244.68,84.86,254.17,108.87z"/>
<polygon class="st2" points="177.87,29.69 145.24,29.56 134.93,23.5 152.75,13.74 159.27,16.86 196.46,16.86 202.98,13.74 
	220.81,23.5 210.5,29.56 "/>
<polygon class="st9" points="145.24,29.56 134.93,23.5 152.75,13.74 159.27,16.86 "/>
<polygon class="st9" points="210.5,29.56 220.81,23.5 202.98,13.74 196.46,16.86 "/>
<polygon class="st10" points="177.87,0 91.7,47.19 120.72,51.78 235.02,51.78 264.04,47.19 "/>
<polygon class="st11" points="102.96,161.25 71.19,147.27 66.65,169.41 99.06,185.3 125.18,185.3 128.54,161.25 "/>
<polygon class="st11" points="284.54,147.27 252.77,161.25 227.2,161.25 230.56,185.3 256.67,185.3 289.08,169.41 "/>
<polygon class="st9" points="99.06,185.3 66.65,169.41 71.19,147.26 102.96,161.25 "/>
<polygon class="st9" points="256.67,185.3 289.08,169.41 284.55,147.26 252.77,161.25 "/>
<path class="st11" d="M224.74,100.62c-3.47-24.25-24.19-42.28-48.68-42.38h-39.15l-0.71,5.13l-16.2,116l-0.77,6h5.95l16.91-121.18
	h34c21.56,0.01,39.81,15.9,42.79,37.25l11.66,83.87h7.34l-2.16-6L224.74,100.62z"/>
<path class="st12" d="M141.54,60.58c1.86,0.55,3.58,1.47,5.06,2.72l-2.66,17.91l-0.4,3.68c0.02,12.49-1.34,24.94-4.07,37.13
	l-0.41,3.68c-0.36,12.47-1.72,24.88-4.07,37.13l-0.4,3.68l-1.36,18.83c-1.9,0.52-3.85,0.79-5.82,0.82c-3.37,0-6.68-0.87-9.61-2.52
	l2.74-18.67l0.4-3.68c0.59-12.45,1.95-24.85,4.07-37.13l0.41-3.68c0-10.31,1.72-23.2,4.07-37.13l0.41-3.68l1.26-18.06
	C134.39,60.04,138.07,59.68,141.54,60.58z"/>
<rect x="125.89" y="157.38" transform="matrix(0.109 -0.994 0.994 0.109 -49.6771 273.4438)" class="st13" width="3.62" height="14.11"/>
<rect x="130.24" y="117.57" transform="matrix(0.109 -0.994 0.994 0.109 -6.221 242.3061)" class="st13" width="3.62" height="14.11"/>
<rect x="134.63" y="77.76" transform="matrix(0.109 -0.994 0.994 0.109 37.2548 211.1905)" class="st13" width="3.62" height="14.11"/>
<path class="st9" d="M141.54,60.58c1.85,0.56,3.57,1.48,5.06,2.72l-3,20.49l-0.39,3.59c0.04,12.19-1.3,24.34-4,36.22l-0.39,3.6
	c-0.34,12.16-1.68,24.27-4,36.21l-0.4,3.6l-1.3,18.37c-1.9,0.5-3.86,0.76-5.82,0.79c1.68-9,0.95-18.46,2-27.6
	c0.93-7.88,3.2-15.55,4.18-23.44c0.82-6.84,0.66-13.78,1.73-20.6c1-6.22,2.93-12.27,3.28-18.56c0.22-4.14-0.26-8.3-0.25-12.44
	C138.4,76.81,140.06,67.08,141.54,60.58z"/>
<path class="st14" d="M353.25,158c0.08-0.22,0.25-0.39,0.46-0.48c0.22-0.09,0.46-0.09,0.68,0c0.27,0.08,0.55-0.08,0.63-0.35
	c0.07-0.24-0.05-0.49-0.27-0.6c-0.46-0.19-0.98-0.19-1.44,0c-0.45,0.19-0.81,0.55-1,1l-1,2.36h1.1L353.25,158z"/>
<path class="st15" d="M276.69,58.24l76.76,100.17c0.24,0.29,0.2,0.73-0.09,0.97c-0.01,0.01-0.02,0.02-0.04,0.03
	c-0.29,0.23-0.71,0.17-0.94-0.12l-0.01-0.01l-75.68-98.79V58.24z"/>
<path class="st14" d="M308.54,188.75c0.09-0.21,0.26-0.38,0.47-0.47c0.22-0.09,0.46-0.09,0.68,0c0.26,0.1,0.55-0.03,0.65-0.28
	c0,0,0,0,0-0.01c0.1-0.27-0.03-0.56-0.29-0.67c-0.46-0.18-0.98-0.18-1.44,0c-0.45,0.19-0.81,0.55-1,1l-1,2.36h1.1L308.54,188.75z"/>
<path class="st15" d="M242.69,64.97l66,124.19c0.24,0.29,0.2,0.73-0.09,0.97c-0.01,0.01-0.02,0.02-0.04,0.03
	c-0.12,0.09-0.26,0.14-0.41,0.14c-0.22,0-0.42-0.1-0.55-0.27l-64.91-122.8V64.97z"/>
<path class="st14" d="M1.83,158c-0.08-0.22-0.25-0.39-0.46-0.48c-0.22-0.09-0.46-0.09-0.68,0c-0.27,0.08-0.55-0.08-0.63-0.35
	c-0.07-0.24,0.05-0.49,0.27-0.6c0.46-0.19,0.98-0.19,1.44,0c0.45,0.19,0.81,0.55,1,1l1,2.36H2.64L1.83,158z"/>
<path class="st15" d="M78.39,58.24L1.63,158.41c-0.24,0.29-0.2,0.73,0.09,0.97c0.01,0.01,0.02,0.02,0.04,0.03
	c0.29,0.23,0.71,0.17,0.94-0.12l0.01-0.01l75.68-98.79V58.24z"/>
<path class="st14" d="M46.54,188.75c-0.09-0.21-0.26-0.38-0.47-0.47c-0.22-0.09-0.46-0.09-0.68,0c-0.26,0.1-0.55-0.03-0.65-0.28
	c0,0,0,0,0-0.01c-0.1-0.27,0.03-0.56,0.29-0.67c0.46-0.18,0.98-0.18,1.44,0c0.45,0.19,0.81,0.55,1,1l1,2.36h-1.1L46.54,188.75z"/>
<path class="st15" d="M112.39,64.97l-66,124.19c-0.24,0.29-0.2,0.73,0.09,0.97c0.01,0.01,0.02,0.02,0.04,0.03
	c0.12,0.09,0.26,0.14,0.41,0.14c0.22,0,0.42-0.1,0.55-0.27l64.91-122.8V64.97z"/>
<polygon class="st12" points="267.05,61.88 278.18,61.88 278.18,58.07 264.04,47.19 "/>
<polygon class="st12" points="237.41,66.53 244.51,68.44 244.51,64.63 235.21,51.84 "/>
<polygon class="st12" points="88.68,61.88 77.56,61.88 77.56,58.07 91.7,47.19 "/>
<polygon class="st12" points="118.32,66.53 111.23,68.44 111.23,64.63 120.53,51.84 "/>
</svg>
