<?xml version="1.0" encoding="utf-8"?>
<!-- Generator: Adobe Illustrator 25.2.1, SVG Export Plug-In . SVG Version: 6.00 Build 0)  -->
<svg version="1.1" id="圖層_1" xmlns="http://www.w3.org/2000/svg" xmlns:xlink="http://www.w3.org/1999/xlink" x="0px" y="0px"
	 viewBox="0 0 276.61 233.31" style="enable-background:new 0 0 276.61 233.31;" xml:space="preserve">
<style type="text/css">
	.st0{fill:#1F2223;}
	.st1{fill:#5A5E60;}
	.st2{fill:#994031;}
	.st3{fill:#8A362D;}
	.st4{fill:#050101;}
	.st5{fill:#414547;}
	.st6{fill:#252728;}
	.st7{opacity:0.19;}
	.st8{fill:#FFFFFF;}
	.st9{fill:#777D7F;}
	.st10{fill:#B3463B;}
	.st11{fill:#4E6A78;}
	.st12{fill:#415962;}
	.st13{fill:#A1635C;}
	.st14{fill:#C0776B;}
	.st15{fill:#DFC0AD;}
</style>
<path class="st0" d="M58.83,98.01C57.7,99.9,13.61,222.52,13.61,222.52h7.98L70.17,98.01H58.83z"/>
<path class="st1" d="M107.32,55.63c-1.13,1.89-45.23,124.51-45.23,124.51h7.98l48.58-124.51C118.65,55.63,107.32,55.63,107.32,55.63
	z"/>
<path class="st0" d="M211.92,100.5c1.25,1.82,52.71,121.53,52.71,121.53l-7.96,0.49L200.61,101.2L211.92,100.5z"/>
<path class="st1" d="M162.32,58.12c1.25,1.82,52.71,121.52,52.71,121.52l-7.96,0.49L151,58.81L162.32,58.12z"/>
<path class="st2" d="M203.45,110.36H67.53c-16.79,0-30.4-13.61-30.4-30.4V52.91h196.73v27.04
	C233.86,96.75,220.24,110.36,203.45,110.36L203.45,110.36z"/>
<path class="st3" d="M68.51,110.36h132.73c17.67,0,32-12.93,32-28.89l0.59-29.38l-15.06-2.75c1.82,7.19,2.48,14.64-0.62,21.34
	c-3.6,7.8-11.83,13.24-20.65,16.06c-8.82,2.82-18.3,3.37-27.64,3.89l-79.68,4.46c-12.18,0.7-24.52,1.38-36.5-0.72
	c-5.24-0.99-10.33-2.7-15.1-5.09C42.42,101.35,53.9,110.36,68.51,110.36z"/>
<path class="st0" d="M219.28,62.08H51.7c-9.66,0-16.64-5.98-14.02-12l14.14-32.43c1.79-4.09,7.58-6.9,14.15-6.87l139.07,0.84
	c6.41,0.04,12.02,2.79,13.83,6.77l14.37,31.59C236.01,56.02,229.01,62.08,219.28,62.08z"/>
<path class="st0" d="M220.47,65.79H50.84c-9.77,0-16.84-6.05-14.19-12.14l14.32-32.82c1.81-4.14,7.67-6.99,14.32-6.95l140.77,0.85
	c6.49,0.04,12.17,2.82,14,6.85l14.55,31.97C237.4,59.66,230.32,65.79,220.47,65.79z"/>
<path class="st4" d="M51.83,62.08h167.59c0.77,0,1.53-0.04,2.3-0.12l-7.06-16.36c-1.72-3.98-7.04-6.73-13.11-6.77l-131.8-0.84
	c-6.23-0.04-11.72,2.77-13.41,6.87l-7.06,17.08C50.12,62.03,50.97,62.08,51.83,62.08z"/>
<ellipse class="st5" cx="133.22" cy="78.2" rx="17.14" ry="5.38"/>
<path class="st6" d="M147.82,75.54c0.26,0.34,0.4,0.75,0.41,1.17c0,2.97-7.67,5.38-17.14,5.38c-6.32,0-11.84-1.08-14.81-2.68
	c1.7,2.41,8.54,4.21,16.73,4.21c9.47,0,17.14-2.41,17.14-5.38C150.15,77.26,149.3,76.34,147.82,75.54z"/>
<g class="st7">
	<path class="st8" d="M119.95,78.98c0.99,0.16,2-0.08,2.8-0.68c0.81-0.53,1.48-1.22,2.29-1.75c2.44-1.6,5.72-1.53,8.74-1.49
		c0.18,0.03,0.37-0.02,0.51-0.14c0.19-0.24-0.15-0.54-0.46-0.64c-1.05-0.27-2.13-0.31-3.2-0.13c-2.28,0.24-4.55,0.57-6.81,1
		c-1.4,0.19-2.75,0.67-3.94,1.43C118.9,77.29,118.08,78.54,119.95,78.98z"/>
</g>
<g class="st7">
	<path class="st8" d="M43.78,77.82c2.16,2.76,6.4,2.1,9.87,1.57c11.16-1.7,22.48,0.89,33.75,1.63c2.74,0.32,5.51,0.1,8.17-0.64
		c2.6-0.88,4.98-2.89,5.6-5.57c0.5-1.83-0.17-3.77-1.68-4.91c-0.82-0.46-1.74-0.72-2.68-0.76c-6.48-0.64-12.83,1.83-19.3,2.63
		c-9.02,1.11-18.23-0.97-26.82-3.59c-2.44-0.74-5.01-2.33-7.04-0.12C41.78,70.1,42.16,75.75,43.78,77.82z"/>
</g>
<rect x="29.21" y="186.68" class="st0" width="218.22" height="12.3"/>
<rect x="75.85" y="143.95" class="st1" width="122.22" height="8.41"/>
<path class="st9" d="M223.87,63.16c-0.44,0-0.83-0.26-1-0.67l-15.95-38.71H61.39L46.04,61.45c-0.25,0.54-0.9,0.77-1.44,0.52
	c-0.5-0.24-0.74-0.81-0.56-1.34l15.63-38.34c0.17-0.41,0.56-0.67,1-0.67h146.98c0.44,0,0.83,0.26,1,0.67l16.22,39.38
	c0.23,0.55-0.04,1.18-0.59,1.41C224.15,63.13,224.01,63.16,223.87,63.16L223.87,63.16z"/>
<path class="st9" d="M65.53,64.75c-0.09,0-0.17-0.01-0.26-0.03c-0.58-0.14-0.94-0.72-0.8-1.3l9.88-40.97
	c0.14-0.58,0.72-0.94,1.3-0.8c0.58,0.14,0.94,0.72,0.8,1.3l-9.89,40.97C66.46,64.41,66.03,64.75,65.53,64.75z"/>
<path class="st9" d="M87.95,64.75c-0.04,0-0.09,0-0.13-0.01c-0.59-0.07-1.01-0.61-0.94-1.2l0,0c0.01-0.1,1.24-10.36,2.49-20.49
	c0.73-5.95,1.33-10.69,1.76-14.09c0.26-2.02,0.47-3.59,0.62-4.65c0.08-0.57,0.15-1.02,0.2-1.32c0.08-0.48,0.23-1.36,1.16-1.36
	c0.6,0,1.08,0.48,1.08,1.08l0,0c0,0.13-0.02,0.26-0.07,0.38c-0.37,1.79-3.24,25.22-5.1,40.72C88.95,64.34,88.5,64.75,87.95,64.75z
	 M93.41,23.74c-0.1,0.03-0.2,0.04-0.3,0.04C93.21,23.78,93.31,23.77,93.41,23.74L93.41,23.74z"/>
<path class="st9" d="M109.28,65.97c-0.03,0-0.07,0-0.1,0c-0.59-0.05-1.03-0.58-0.98-1.17c0.01-0.1,0.94-10.36,1.89-20.49
	c0.56-5.95,1.01-10.69,1.35-14.09c0.2-2.02,0.36-3.59,0.48-4.65c0.06-0.57,0.12-1.02,0.16-1.33c0.06-0.45,0.19-1.39,1.16-1.39
	c0.6,0,1.08,0.48,1.08,1.08c0,0.12-0.02,0.24-0.06,0.35c-0.32,1.8-2.5,25.22-3.9,40.72C110.3,65.54,109.83,65.97,109.28,65.97z
	 M113.76,24.86c-0.16,0.09-0.34,0.14-0.52,0.14C113.41,25,113.6,24.95,113.76,24.86z"/>
<path class="st9" d="M131.74,64.75c-0.6,0-1.08-0.48-1.08-1.08l0,0V23.92c0-0.6,0.48-1.08,1.08-1.08s1.08,0.48,1.08,1.08v39.75
	C132.82,64.27,132.34,64.75,131.74,64.75z"/>
<path class="st9" d="M200.43,65.07c-0.5,0-0.93-0.34-1.05-0.83l-9.89-40.97c-0.14-0.58,0.22-1.16,0.8-1.3s1.16,0.22,1.3,0.8
	l9.88,40.97c0.14,0.58-0.22,1.16-0.8,1.3C200.6,65.06,200.51,65.07,200.43,65.07L200.43,65.07z"/>
<path class="st9" d="M178.01,65.07c-0.55,0-1.01-0.41-1.07-0.95c-1.86-15.5-4.73-38.93-5.1-40.72c-0.21-0.56,0.08-1.18,0.64-1.39
	c0.12-0.04,0.25-0.07,0.38-0.07c0.94,0,1.09,0.89,1.16,1.36c0.05,0.31,0.12,0.75,0.2,1.32c0.15,1.07,0.36,2.63,0.62,4.65
	c0.44,3.4,1.03,8.14,1.76,14.09c1.25,10.13,2.48,20.39,2.49,20.49c0.07,0.59-0.35,1.13-0.94,1.2
	C178.09,65.06,178.05,65.07,178.01,65.07z M172.55,24.06c0.1,0.03,0.2,0.04,0.3,0.04C172.75,24.1,172.65,24.09,172.55,24.06
	L172.55,24.06z"/>
<path class="st9" d="M156.68,66.28c-0.56,0-1.02-0.43-1.07-0.98c-1.4-15.5-3.58-38.91-3.9-40.72c-0.04-0.11-0.06-0.23-0.06-0.35
	c0-0.6,0.48-1.08,1.08-1.08l0,0c0.97,0,1.09,0.94,1.16,1.39c0.04,0.31,0.1,0.75,0.16,1.33c0.12,1.07,0.28,2.63,0.48,4.65
	c0.34,3.4,0.79,8.14,1.35,14.09c0.95,10.13,1.88,20.39,1.89,20.49c0.05,0.59-0.38,1.12-0.98,1.17
	C156.75,66.28,156.71,66.28,156.68,66.28z M152.2,25.18c0.16,0.09,0.34,0.14,0.52,0.14C152.54,25.32,152.36,25.27,152.2,25.18z"/>
<path class="st10" d="M234.45,53.61l-0.83-1.84c0.86,5.42-5.7,10.37-14.5,10.37H51.53c-8.33,0-14.67-4.45-14.56-9.54l-0.48,1.11
	c-2.66,6.09,4.41,12.14,14.19,12.14h169.63C230.15,65.86,237.23,59.73,234.45,53.61z"/>
<path class="st11" d="M126.11,23.75c0.65,0.37,1.37,0.6,2.12,0.67c1.47,0.04,2.59-1.04,3.96-1.47c2.65-0.65,5.34,0.85,6.19,3.44
	c0.57,2.25-0.49,4.54-1.53,6.68c-1.47-0.82-2.38-2.18-3.88-2.96c-3.37-1.77-7.71,0.05-11.32,1.47c-8.54,3.36-18.32,4.43-27.78,3.73
	C86.6,34.72,79.45,33.28,72.53,31c-2.03-0.65-7.94-1.85-8.43-3.97c-0.5-2.15,4.02-3.49,5.9-4.28c11.59-4.66,24.2-6.25,36.59-4.6
	C113.35,18.99,119.93,20.88,126.11,23.75z"/>
<path class="st12" d="M137.63,30.3c-1.47-0.82-2.38-2.18-3.88-2.96c-3.37-1.77-7.71,0.05-11.32,1.47
	c-8.54,3.36-18.32,4.43-27.79,3.73c-7.25-0.59-14.41-2.03-21.33-4.31c-1.76-0.57-6.44-1.54-7.97-3.18
	c-0.87,0.61-1.43,1.32-1.24,2.16c0.49,2.12,6.4,3.31,8.43,3.97c6.91,2.27,14.07,3.72,21.33,4.31c9.47,0.7,19.24-0.37,27.78-3.73
	c3.61-1.42,7.96-3.24,11.32-1.47c1.5,0.79,2.4,2.15,3.88,2.96c0.85-1.52,1.42-3.18,1.67-4.9C138.25,29.01,137.94,29.66,137.63,30.3z
	"/>
<path class="st12" d="M83.74,20.43c2.33,3.08,3.04,6.78,3.16,10.39c0.12,0.62-0.13,1.26-0.63,1.64c-1.02,0.6-3.38,0.38-3.73-0.7
	c-0.28-0.88,1.24-2.58,1.54-3.46C84.87,26.09,85.31,22.5,83.74,20.43z"/>
<path class="st12" d="M77.06,22.34c-0.53,0.06-0.98,0.39-1.23,0.86c-0.33,0.87,0.1,1.85,0.98,2.18c0.11,0.04,0.21,0.07,0.33,0.09
	c1.11,0.27,2.44-0.48,2.45-1.41c0.01-0.94-1.41-1.69-2.45-1.27L77.06,22.34z"/>
<g class="st7">
	<path class="st8" d="M81.97,22.82c0.68,0.17,1.38,0.2,2.07,0.1c11.57-1,23.56-1.53,34.55,1.55c-1.4-2.35-4.96-3.23-8.14-3.72
		c-8.31-1.26-16.73-1.54-25.1-0.84C84.16,20.02,78.57,21.68,81.97,22.82z"/>
</g>
<path class="st11" d="M123.22,46.95c0.65,0.38,1.37,0.62,2.12,0.7c1.47,0.04,2.59-1.09,3.96-1.53c2.67-0.85,5.62,1.24,6.19,3.59
	c0.58,2.35-0.49,4.74-1.53,6.97c-1.47-0.85-2.38-2.27-3.88-3.09c-3.36-1.84-7.71,0.05-11.32,1.53c-8.54,3.5-18.32,4.62-27.79,3.89
	c-7.27-0.62-14.43-2.12-21.33-4.49c-2.03-0.68-7.94-1.93-8.43-4.14c-0.5-2.25,4.02-3.64,5.9-4.46c11.54-4.86,24.18-6.51,36.59-4.8
	C110.48,41.99,117.08,43.96,123.22,46.95z"/>
<path class="st12" d="M134.75,53.79c-1.47-0.85-2.38-2.27-3.88-3.09c-3.36-1.84-7.71,0.05-11.32,1.53
	c-8.54,3.51-18.32,4.62-27.79,3.89C84.49,55.5,77.33,54,70.43,51.63c-1.76-0.59-6.44-1.61-7.97-3.31c-0.87,0.64-1.43,1.38-1.24,2.25
	c0.49,2.21,6.4,3.46,8.43,4.14c6.9,2.37,14.06,3.88,21.33,4.49c9.47,0.73,19.24-0.39,27.79-3.89c3.61-1.48,7.96-3.37,11.32-1.53
	c1.5,0.82,2.41,2.24,3.88,3.09c0.86-1.59,1.42-3.32,1.67-5.11C135.37,52.44,135.06,53.12,134.75,53.79z"/>
<path class="st12" d="M80.86,43.49c2.33,3.21,3.04,7.07,3.16,10.83c0.12,0.64-0.12,1.3-0.64,1.71c-1.02,0.62-3.38,0.39-3.72-0.73
	c-0.28-0.92,1.24-2.69,1.54-3.61C81.99,49.39,82.43,45.65,80.86,43.49z"/>
<path class="st12" d="M74.18,45.48c-0.53,0.07-0.99,0.41-1.23,0.89c-0.35,0.91,0.12,1.94,1.03,2.28c0.09,0.03,0.18,0.06,0.27,0.08
	c1.11,0.28,2.44-0.5,2.44-1.47s-1.41-1.77-2.45-1.33L74.18,45.48z"/>
<g class="st7">
	<path class="st8" d="M79.1,45.98c0.68,0.18,1.38,0.21,2.07,0.1c11.57-1.05,23.56-1.6,34.55,1.62c-1.4-2.46-4.96-3.37-8.14-3.87
		c-8.3-1.31-16.73-1.6-25.1-0.87C81.28,43.06,75.69,44.8,79.1,45.98z"/>
</g>
<path class="st13" d="M151.83,26.28c-1.23,0.18-2.42,0.62-3.47,1.28c-1.08,0.79-1.54-1.12-2.14,0.03c-0.64,1.24-1.43,5.84-0.71,7.04
	c0.7,1.16,2.31,1.44,3.71,1.58c9.47,0.98,18.99,1.28,28.5,0.91c5.68-0.22,11.39-0.69,17.03-0.03c1.81,0.3,3.64,0.45,5.47,0.43
	s3.58-0.77,4.86-2.09c1.58-1.87,2.96-8.53,1.45-10.45c-1.51-1.92-5.67,0.8-8.14,0.29c-2.51-0.39-5.03-0.63-7.57-0.72
	c-6.13-0.5-12.47-2.58-18.62-1.65C165.38,23.94,158.58,24.82,151.83,26.28z"/>
<path class="st14" d="M152.77,21.23c-1.23,0.18-2.42,0.62-3.47,1.28c-1,0.85-1.79,1.93-2.3,3.14c-0.64,1.24-1.27,2.74-0.55,3.93
	c0.7,1.16,2.31,1.44,3.71,1.59c9.47,0.98,18.99,1.28,28.5,0.91c5.68-0.22,11.39-0.69,17.03-0.03c1.81,0.3,3.64,0.45,5.47,0.43
	s3.58-0.77,4.86-2.09c1.58-1.87,1.27-4.74-0.24-6.66c-1.68-1.88-3.96-3.12-6.45-3.5c-2.51-0.39-5.03-0.63-7.57-0.72
	c-6.13-0.5-12.47-2.58-18.62-1.65C166.32,18.89,159.52,19.77,152.77,21.23z"/>
<path class="st15" d="M186.03,23.71c-0.51,0.08-1,0.25-1.45,0.5s-0.67,0.77-0.54,1.26c0.24,0.59,1.06,0.71,1.72,0.73
	c3.33,0.09,6.66,0,9.98-0.25c1.16-0.09,3.27-0.56,2.19-1.94c-0.87-0.81-1.91-1.39-3.06-1.71C191.93,21.47,188.82,23.05,186.03,23.71
	z"/>
<path class="st13" d="M153.63,48.04c-1.23,0.18-2.42,0.62-3.47,1.28c-1.08,0.78-1.54-1.12-2.14,0.03c-0.64,1.24-1.43,5.84-0.71,7.04
	c0.7,1.16,2.31,1.44,3.71,1.59c9.47,0.98,18.99,1.28,28.5,0.91c5.68-0.22,11.39-0.69,17.03-0.03c1.81,0.3,3.64,0.45,5.47,0.43
	s3.58-0.77,4.86-2.09c1.58-1.87,2.96-8.53,1.45-10.45c-1.51-1.92-5.67,0.79-8.15,0.29c-2.51-0.39-5.03-0.63-7.57-0.71
	c-6.13-0.5-12.47-2.58-18.62-1.65C167.18,45.7,160.38,46.58,153.63,48.04z"/>
<path class="st14" d="M154.57,42.99c-1.23,0.18-2.42,0.62-3.47,1.28c-1,0.85-1.79,1.93-2.3,3.14c-0.64,1.24-1.27,2.74-0.54,3.93
	c0.7,1.16,2.31,1.44,3.71,1.59c9.47,0.98,18.99,1.28,28.5,0.91c5.68-0.22,11.39-0.69,17.03-0.03c1.81,0.3,3.64,0.45,5.47,0.43
	s3.58-0.77,4.86-2.09c1.58-1.87,1.27-4.74-0.24-6.66c-1.68-1.88-3.96-3.12-6.45-3.5c-2.51-0.39-5.03-0.63-7.57-0.72
	c-6.13-0.5-12.47-2.58-18.62-1.65C168.12,40.65,161.32,41.53,154.57,42.99z"/>
<path class="st15" d="M187.83,45.47c-0.51,0.08-1,0.25-1.45,0.5s-0.67,0.77-0.54,1.26c0.24,0.59,1.06,0.71,1.72,0.73
	c3.33,0.09,6.66,0,9.98-0.25c1.16-0.09,3.27-0.56,2.19-1.94c-0.87-0.81-1.91-1.39-3.06-1.71C193.73,43.23,190.62,44.81,187.83,45.47
	z"/>
</svg>
