<?xml version="1.0" encoding="utf-8"?>
<!-- Generator: Adobe Illustrator 25.2.1, SVG Export Plug-In . SVG Version: 6.00 Build 0)  -->
<svg version="1.1" id="圖層_1" xmlns="http://www.w3.org/2000/svg" xmlns:xlink="http://www.w3.org/1999/xlink" x="0px" y="0px"
	 viewBox="0 0 357.18 193.11" style="enable-background:new 0 0 357.18 193.11;" xml:space="preserve">
<style type="text/css">
	.st0{fill:#F0C77E;}
	.st1{fill:#0F3659;}
	.st2{fill:#C3D9F1;}
	.st3{fill:#E2AC54;}
	.st4{fill:#E97156;}
	.st5{fill:#9F4A3C;}
	.st6{fill:#4B3D38;}
	.st7{fill:#B44D26;}
	.st8{fill:#B05541;}
	.st9{fill:#5BB1E4;}
	.st10{fill:#4468AA;}
	.st11{fill:#EA887B;}
	.st12{fill:#50B79E;}
	.st13{fill:#325083;}
	.st14{fill:#3A8A78;}
	.st15{fill:#F6DCB0;}
	.st16{fill:#174554;}
	.st17{fill:#F6DDB0;}
	.st18{fill:#3B8A78;}
	.st19{fill:#732A8C;}
	.st20{fill:#F0EACA;}
	.st21{fill:#D8D1B2;}
</style>
<path class="st0" d="M151.31,38.65c0,0.07,0,0.15,0,0.22l0.14,1.35c0,0.13,0,0.25,0,0.38l-12.34,3.66l-8.83-0.92l-0.35-2.17
	l0.69-0.16l0.66,0.44l0.7-0.38l0.68,0.42l0.68-0.39l0.69,0.39l0.68-0.4l0.69,0.38l0.67-0.42l0.7,0.37l0.66-0.44l0.7,0.36l0.65-0.45
	l0.71,0.34l0.64-0.48l0.72,0.32l0.62-0.49l0.73,0.3l0.6-0.5l0.74,0.27l0.59-0.53l0.75,0.26l0.57-0.55l0.76,0.22l0.55-0.57l0.77,0.19
	l0.52-0.59l0.78,0.15l0.49-0.62l0.79,0.1l0.45-0.65l0.7-0.13C151.25,38.15,151.28,38.42,151.31,38.65z"/>
<path class="st1" d="M151.46,40.41c0.15-0.07,0.4,8.61,1,10.84s2.08,10.22,2.08,10.22l-21.4,3.38c0,0-0.55-11.48-1.21-15
	s-1.76-6.47-1.6-6.54C130.48,43.24,146.47,42.65,151.46,40.41z"/>
<path class="st2" d="M133.72,54.08c0.49,2.6,4.7,3.99,9.4,3.1s8.11-3.73,7.62-6.33c-0.49-2.6-4.7-3.98-9.4-3.09
	C136.65,48.65,133.23,51.48,133.72,54.08z"/>
<path class="st3" d="M106.99,55.52c1.48-0.05,2.89-0.64,3.97-1.65c0.8-0.75,2.84-2.11,4.65-1.67c3.3,0.79,4.05,4.44,1.73,7.41
	c-2.03,2.6-9.98,6.32-13.15,0.85C101.96,56.64,104.49,55.63,106.99,55.52z"/>
<path class="st4" d="M117.04,57.04c-0.72-0.18-1.39-0.51-1.97-0.97c-0.68-0.42-1.29-0.92-1.83-1.51c-0.15-0.16,0.07-0.35,0.24-0.27
	c0.68,0.38,1.32,0.83,1.97,1.25c0.63,0.32,1.22,0.71,1.75,1.17c0.07,0.07,0.07,0.18,0,0.25c-0.04,0.04-0.1,0.06-0.15,0.05
	L117.04,57.04L117.04,57.04z"/>
<path class="st4" d="M115.54,58.66c-1.14,0.16-3.2-1.74-3.98-2.58c-0.19-0.21,0.13-0.56,0.34-0.37c0.59,0.54,1.23,1.03,1.91,1.46
	c0.57,0.38,1.46,0.67,1.83,1.23c0.06,0.07,0.05,0.17-0.03,0.23C115.59,58.64,115.56,58.65,115.54,58.66z"/>
<path class="st4" d="M112.56,59.8c-0.38-0.28-0.71-0.62-0.98-1.02c-0.33-0.41-0.71-0.77-1.04-1.18c-0.13-0.18-0.09-0.44,0.1-0.57
	c0.14-0.1,0.32-0.1,0.46-0.01c0.89,0.61,1.54,1.51,1.83,2.54c0.02,0.14-0.08,0.26-0.22,0.27C112.65,59.84,112.6,59.83,112.56,59.8
	L112.56,59.8z"/>
<path class="st4" d="M110.3,60.43c-0.49-0.5-0.79-1.14-0.87-1.83c0-0.47,1.01,0,1.22,1.68c0.01,0.11-0.07,0.21-0.18,0.22
	C110.4,60.51,110.34,60.49,110.3,60.43L110.3,60.43z"/>
<path class="st4" d="M108.65,59.05c0.47,1.39-0.35,1.42-0.48,1.08c-0.11-0.35-0.11-0.72,0-1.07c0.05-0.12,0.19-0.18,0.31-0.13
	c0.06,0.02,0.1,0.07,0.13,0.13L108.65,59.05z"/>
<path class="st3" d="M108.58,61.21c0,0-0.99,4.64-7.62,5.49c-6.11,0.78-7.84-5.49-4.96-6.82c2.88-1.33,6.22-1.91,7.75-3.15
	C106.58,54.46,109.64,58.81,108.58,61.21z"/>
<path class="st0" d="M98.57,56.26c0.44,0.51,0.75,1.12,0.92,1.77c0.38,1.52,0.01,3.13-0.99,4.33c-2.48,3.08-10.2,3.89-10.12-0.3
	c0.07-4.19,4.46-2.23,6.06-3.89c0.72-0.74,0.98-1.78,1.89-2.3C97.07,55.51,97.97,55.67,98.57,56.26z"/>
<path class="st4" d="M96.86,57.78c0.4,0.28,0.75,0.64,1.03,1.04c0.27,0.38,0.61,0.78,0.51,1.25c-0.04,0.13-0.17,0.2-0.29,0.16
	c-0.4-0.16-0.54-0.56-0.77-0.92s-0.55-0.82-0.79-1.26C96.46,57.89,96.67,57.64,96.86,57.78L96.86,57.78z"/>
<path class="st4" d="M95.97,58.8c0.65,0.74,1.14,1.61,1.43,2.55c0,0.23-0.29,0.32-0.44,0.17c-0.28-0.34-0.51-0.73-0.66-1.14
	c-0.23-0.43-0.47-0.85-0.68-1.3C95.53,58.87,95.79,58.61,95.97,58.8C95.97,58.81,95.97,58.8,95.97,58.8z"/>
<path class="st4" d="M94.49,59.54c0.44,0.85,0.78,1.74,1,2.67c0,0.2-0.29,0.34-0.42,0.17c-0.48-0.85-0.79-1.78-0.92-2.75
	c-0.05-0.22,0.28-0.38,0.38-0.16L94.49,59.54z"/>
<path class="st4" d="M93.16,60.27c0.16,0.29,0.28,0.59,0.36,0.92c0.22,0.78,0.37,1.19,0.05,1.33c-0.16,0.1-0.38,0.05-0.48-0.11
	c-0.02-0.03-0.03-0.07-0.04-0.11c-0.2-0.62-0.31-1.26-0.35-1.9c0.01-0.14,0.12-0.24,0.26-0.24C93.04,60.15,93.11,60.2,93.16,60.27z"
	/>
<path class="st4" d="M91.61,60.92c0.44,0.42,0.66,1.21,0.28,1.4c-0.12,0.1-0.29,0.1-0.41,0c-0.28-0.25,0-0.64-0.22-1.11
	c-0.05-0.11-0.01-0.24,0.1-0.29c0.08-0.04,0.18-0.02,0.25,0.04C91.61,60.96,91.61,60.92,91.61,60.92z"/>
<path class="st0" d="M102.14,55.96c1.03-1.45,3-1.28,5.3-0.59c1.99,0.59,6.01,1.26,7.08,1.44c1.06,0.17,5.14,0.31,7.21,0.17
	c2.39-0.16,4.36,0.12,5.03,1.76c0.68,1.64,1.09,5.63-11.9,4.58l-2.2-0.18C99.83,61.2,101.12,57.4,102.14,55.96z"/>
<path class="st4" d="M99.17,55.08c1-0.7,1.83-0.65,5.28,1.03c1.02,0.48,2.08,0.88,3.16,1.2c4.27,1.31,8.74,1.82,13.19,1.49
	c1.12-0.07,2.24-0.23,3.34-0.47c3.72-0.92,4.58-0.72,5.37,0.17c0.8,0.9,0.75,3.81-3.56,4.29s-12.23,1.24-12.31,1.09
	c-0.02-0.32-0.02-0.65,0-0.97c-0.04,0.31-0.11,0.62-0.2,0.92c-0.13,0.15-7.68-2.38-11.77-3.82C97.58,58.58,98.17,55.81,99.17,55.08z
	"/>
<path class="st0" d="M101.68,60.06c1.03-1.45,3.01-1.27,5.31-0.59c1.98,0.59,6,1.26,7.07,1.44c1.06,0.17,5.14,0.32,7.21,0.18
	c2.4-0.16,4.36,0.11,5.03,1.75c0.68,1.64,1.1,5.63-11.9,4.58l-2.23-0.26C99.36,65.3,100.65,61.51,101.68,60.06z"/>
<path class="st5" d="M109.41,61.63c1.11,0.12,2.21-0.29,2.98-1.1c0.14-0.15,0.26-0.3,0.38-0.47l0.17-0.22
	c0.41-0.53,0.99-0.91,1.65-1.06c0.57-0.12,1.17,0.06,1.57,0.49c0.11,0.17,0.2,0.36,0.27,0.55c0.45,1.44,1.74,2.46,3.24,2.56
	c2.04,0.16,2.93-2.11,3.22-2.86l0.07-0.17c0.15-0.35,0.8-0.49,1.3-0.3c0.68,0.37,1.26,0.9,1.69,1.54c0.32,0.33,0.85,0.34,1.18,0.02
	c0.29-0.28,0.34-0.73,0.11-1.07c-0.61-0.87-1.42-1.57-2.38-2.03c-1.27-0.57-2.77-0.06-3.42,1.17c-0.04,0.08-0.07,0.16-0.1,0.24
	c-0.34,0.87-0.82,1.83-1.55,1.83c-1.2-0.09-1.5-0.78-1.83-1.57c-0.13-0.34-0.32-0.67-0.54-0.96c-0.79-0.87-1.98-1.26-3.13-1.03
	c-1.04,0.22-1.98,0.81-2.64,1.65l-0.19,0.25c-0.09,0.12-0.18,0.24-0.28,0.35c-0.67,0.76-1.82,0.84-2.58,0.17
	c-0.21-0.18-0.38-0.41-0.48-0.67c-0.12-0.29-0.21-0.6-0.27-0.92c-0.11-0.63-0.36-1.23-0.73-1.76c-1.04-1.12-2.71-1.39-4.05-0.66
	c-0.41,0.2-0.58,0.7-0.38,1.11c0.2,0.41,0.7,0.58,1.11,0.38c0.64-0.37,1.46-0.29,2.01,0.2c0.22,0.34,0.36,0.73,0.42,1.13
	c0.08,0.4,0.21,0.8,0.37,1.18c0.5,1.06,1.49,1.81,2.65,2L109.41,61.63z"/>
<polygon class="st6" points="26.94,180.11 19.69,180.11 34.39,77.22 41.65,77.22 "/>
<polygon class="st6" points="108.89,180.11 116.15,180.11 101.45,77.22 94.19,77.22 "/>
<polygon class="st6" points="245.38,180.11 238.12,180.11 252.82,77.22 260.08,77.22 "/>
<polygon class="st6" points="327.33,180.11 334.59,180.11 319.88,77.22 312.62,77.22 "/>
<path class="st3" d="M296.16,49.55c0,0-0.27,6.41-8.89,9.01c-7.94,2.42-11.66-5.49-8.15-7.93s7.83-3.95,9.59-5.94
	C291.96,41.04,297.02,46.12,296.16,49.55z"/>
<path class="st0" d="M281.74,45.24c0.68,0.59,1.22,1.32,1.58,2.14c0.86,1.93,0.73,4.16-0.33,5.99c-2.59,4.65-12.65,7.48-13.51,1.89
	c-0.86-5.59,5.42-3.97,7.17-6.54c0.79-1.14,0.92-2.59,1.98-3.48C279.56,44.59,280.8,44.59,281.74,45.24z"/>
<path class="st0" d="M294.17,44.97c1.99-0.08,3.89-0.86,5.35-2.22c1.07-1.02,3.83-2.84,6.26-2.25c4.44,1.06,5.49,5.99,2.33,10
	c-2.75,3.51-13.44,8.51-17.72,1.14C287.38,46.48,290.76,45.12,294.17,44.97z"/>
<path class="st4" d="M307.69,47.03c-0.96-0.24-1.86-0.68-2.65-1.29c-0.91-0.56-1.75-1.25-2.47-2.04c-0.19-0.22,0.1-0.47,0.33-0.35
	c0.92,0.49,1.78,1.12,2.64,1.69c0.86,0.43,1.66,0.97,2.37,1.61c0.09,0.11,0.07,0.26-0.03,0.35c-0.05,0.04-0.12,0.06-0.19,0.05V47.03
	z"/>
<path class="st4" d="M305.67,49.2c-1.52,0.21-4.31-2.34-5.36-3.49c-0.26-0.27,0.17-0.75,0.46-0.49c0.81,0.73,1.67,1.39,2.58,1.98
	c0.76,0.49,1.96,0.92,2.46,1.64c0.08,0.1,0.06,0.24-0.04,0.32C305.74,49.18,305.71,49.19,305.67,49.2L305.67,49.2z"/>
<path class="st4" d="M301.66,50.74c-0.5-0.37-0.94-0.82-1.29-1.34c-0.45-0.55-0.96-1.03-1.41-1.58c-0.2-0.23-0.18-0.57,0.04-0.78
	c0.2-0.18,0.5-0.19,0.71-0.02c0.99,0.75,2.33,2.14,2.48,3.43c0.03,0.18-0.1,0.35-0.28,0.37c-0.08,0.01-0.17-0.01-0.24-0.05
	L301.66,50.74z"/>
<path class="st4" d="M298.62,51.59c-0.65-0.67-1.07-1.54-1.18-2.47c0-0.63,1.37,0,1.65,2.26c0.02,0.14-0.08,0.28-0.22,0.3
	C298.78,51.7,298.68,51.66,298.62,51.59L298.62,51.59z"/>
<path class="st4" d="M296.41,49.72c0.62,1.83-0.49,1.91-0.65,1.46c-0.12-0.47-0.1-0.97,0.05-1.44c0.08-0.16,0.27-0.23,0.44-0.16
	c0.07,0.03,0.12,0.09,0.16,0.16V49.72z"/>
<path class="st4" d="M279.81,47.64c0.6,0.29,1.15,0.68,1.62,1.15c0.43,0.43,0.98,0.92,0.96,1.55c-0.02,0.17-0.18,0.3-0.36,0.28
	c-0.57-0.13-0.84-0.61-1.22-1.03c-0.38-0.41-0.92-0.97-1.34-1.49C279.31,47.89,279.54,47.52,279.81,47.64L279.81,47.64z"/>
<path class="st4" d="M278.86,49.21c0.65,0.53,2.26,2.21,2.47,3.07c0.07,0.3-0.32,0.49-0.55,0.34c-0.45-0.4-0.83-0.86-1.14-1.38
	c-0.39-0.53-0.81-1.03-1.19-1.58C278.28,49.39,278.58,49,278.86,49.21L278.86,49.21z"/>
<path class="st4" d="M277.08,50.53c0.78,1.03,1.42,2.15,1.92,3.34c0.05,0.26-0.31,0.51-0.52,0.32c-0.84-0.99-1.49-2.14-1.9-3.37
	C276.46,50.54,276.87,50.26,277.08,50.53L277.08,50.53z"/>
<path class="st4" d="M275.47,51.79c0.29,0.36,0.52,0.77,0.69,1.2c0.46,0.98,0.75,1.49,0.38,1.75c-0.2,0.17-0.5,0.15-0.67-0.05
	c-0.03-0.04-0.06-0.08-0.08-0.13c-0.41-0.79-0.72-1.64-0.92-2.51c-0.02-0.19,0.11-0.35,0.3-0.37c0.11-0.01,0.21,0.03,0.29,0.11
	L275.47,51.79z"/>
<path class="st7" d="M285.2,68.11h15.12c8.72,0,15.79-7.07,15.79-15.79v-0.01h-46.68C269.42,61.03,276.48,68.1,285.2,68.11z"/>
<path class="st4" d="M285.2,68.11h15.12c8.72,0,15.79-7.07,15.79-15.79v-0.01h-46.68C269.42,61.03,276.48,68.1,285.2,68.11z"/>
<path class="st8" d="M310.07,52.31h6.04c0.01,8.72-7.06,15.79-15.78,15.8h-0.01h-6.04C303,68.11,310.07,61.04,310.07,52.31
	C310.07,52.32,310.07,52.32,310.07,52.31z"/>
<path class="st4" d="M70.44,63.07h-8.63c-4.48,0-8.12-3.64-8.12-8.12l0,0v-0.29l0,0h24.88l0,0v0.29
	C78.57,59.43,74.93,63.07,70.44,63.07L70.44,63.07z"/>
<path class="st8" d="M75.34,54.66h3.22c0,4.65-3.77,8.41-8.41,8.41l0,0h-3.19C71.6,63.06,75.35,59.29,75.34,54.66z"/>
<path class="st7" d="M62.09,68.29h8.06c4.65,0,8.41-3.77,8.41-8.41l0,0H53.68C53.68,64.53,57.44,68.29,62.09,68.29L62.09,68.29z"/>
<path class="st9" d="M62.09,68.29h8.06c4.65,0,8.41-3.77,8.41-8.41l0,0H53.68C53.68,64.53,57.44,68.29,62.09,68.29L62.09,68.29z"/>
<path class="st10" d="M75.34,59.88h3.22c0,4.65-3.77,8.41-8.41,8.41l0,0h-3.19C71.6,68.28,75.35,64.52,75.34,59.88z"/>
<path class="st11" d="M156.3,59.14c-0.19,3.43-4.71,6.67-9.27,6.67s-8.89-3.41-8.89-6.85c0-4.93,2.55-4.92,5.8-4.65
	c0.61,0,1.26,0.11,1.91,0.15c0.39,0,0.78,0,1.17,0s0.81,0,1.23,0c0.41,0,1-0.09,1.48-0.15C153.39,53.91,156.66,53.47,156.3,59.14z"
	/>
<path class="st12" d="M144.69,49.55L144.69,49.55L144.69,49.55C144.69,49.55,144.68,49.54,144.69,49.55z"/>
<path class="st12" d="M151.49,52.15c-0.24-0.25-0.64-0.26-0.89-0.02c-0.01,0.01-0.02,0.01-0.02,0.02c0.63,0,0.35,0.74-0.17,1.26
	c-0.32,0.32-2.65,0.22-3.47,0h-0.16c0.59-1.76-0.15-5.73-2.46-5.03l0.38,1.09c0.08-0.05,0.17-0.07,0.26-0.08
	c0.97-0.1,1.83,2.65,1.56,4.01c-1.41,0-3.88,0.73-4.15,0.29c-0.27-0.44,0.49-0.7,0.49-0.7l0.75,0.2c0,0-0.71-1.05-1.45-0.8
	c-0.61,0.13-1,0.74-0.86,1.35c0.04,0.18,0.12,0.34,0.23,0.48c0.22,0.22,2.42,0.23,3.49,0.22c-0.87,0.35-1.61,0.93-2.16,1.68
	c-0.69,1.09,0.75,2.62,0.75,2.62s-0.78-1.52,0.05-2.35c0.78-0.69,1.64-1.31,2.54-1.83l0.08,3.79c0.56-0.58,0.86-1.37,0.83-2.18
	c0.03-0.59-0.06-1.17-0.25-1.73l0.77,0.07c0.6,0.18,1.18,0.42,1.73,0.73c0.87,0.52-0.44,1.94-0.44,1.94c0.44-0.17,0.8-0.5,1.03-0.92
	c0.7-1.28-0.08-1.61-0.71-1.89c0.49-0.05,0.92,0,1.64-0.15C152.09,54.11,151.94,52.63,151.49,52.15z"/>
<rect x="26.34" y="67.71" class="st10" width="80.72" height="9.51"/>
<rect x="105.17" y="67.71" class="st13" width="220.66" height="9.51"/>
<path class="st14" d="M191.24,63.13c0,0,5.3-13.36,5.06-15.63s-2.29-3.41-3.49-0.81c-1.2,2.6-1.62,5.49-2.53,4.44
	c-0.91-1.05,2.29-11.8-1.34-12.5c-3.62-0.7-1.29,13.8-2.75,13.47c-1.46-0.33-2.2-15.8-6.06-14.55c-3.86,1.24,2.53,15.69,1.04,15.69
	s-3.86-13.73-8.16-11.58c-4.3,2.15,5.42,12.63,3.87,14.4s-7.73-11.22-11.69-7.51s9.76,11.14,9.27,11.72
	c-0.49,0.58-11.75-8.69-14.23-5.17c-2.48,3.51,8.7,5.35,8.02,6.5s-6.41-0.77-6.07,1.51c0.34,2.28,12.52,2.22,12.52,2.22
	L191.24,63.13z"/>
<path class="st14" d="M213.9,57.33c-1.17-0.49-1.68-1.36-0.77-2.26c1.39-1.15,3.45-0.95,4.6,0.44c0.02,0.03,0.05,0.06,0.07,0.08
	c0.71,1.16,0.69,2.64-0.07,3.77c-0.36,0.57-0.86,1.04-1.45,1.37c-0.58,0.33-1.22,0.53-1.89,0.58l0.15,0.64
	c0.37-0.07,0.72-0.18,1.07-0.32c1.04-0.4,1.93-1.13,2.54-2.07c0,0,1.48-2.33,0.16-4.29c-1.32-1.96-4.98-2.23-6.28-0.2
	c-0.81,1.24,0,2.54,1.43,3.17L213.9,57.33z"/>
<path class="st10" d="M211.49,61.56c0,0-8.5-0.65-9.32-0.92s-0.61-2-3.79-2.61c-3.18-0.6-5.11,0.38-5.49,1.93s1.83,2.82,2.69,1.78
	s1.06-2.24,2.9-2.02c1.23,0.22,2.37,0.81,3.25,1.69L211.49,61.56z"/>
<path class="st0" d="M182.06,59.47c0,0,1.02,5.99,9.15,5.09c8.32-0.92,10.98,1.83,18.08,1.5c5.69-0.26,13.1-7.76,10.24-17.03
	S183.45,36.59,182.06,59.47z"/>
<path class="st4" d="M182.08,59.03c-0.04,0.46,0.03,0.93,0.21,1.35c0.6,1.62,2.67,5.19,9.02,4.49c8.33-0.92,10.98,1.53,18.04,1.16
	c5.69-0.3,13.16-7.15,10.42-15.48S184.28,39.03,182.08,59.03z"/>
<path class="st15" d="M219.73,50.55c-2.87-7.6-32.04-10.59-37.01,5.68c-0.28,0.92-0.5,1.85-0.64,2.8
	c0.45-5.91,3.78-10.65,10.22-13.29c9.47-3.83,21.5-1.54,25.82,2.43C218.86,48.81,219.42,49.63,219.73,50.55z"/>
<path class="st11" d="M212.95,62.85c0,0,5.24-2.49,5.45-6.86c0.2-4.37-3.78-8.07-7.16-8.81s0.66,0.92,2.08,6.41
	C214.73,59.08,210.17,62.95,212.95,62.85z"/>
<path class="st11" d="M185.95,59.22c-1.39,0-2.51-1.12-2.51-2.5c0-0.11,0.01-0.23,0.02-0.34c0.19-1.21,0.92-2.75,2.98-4.47
	c4.91-4.17,19.56-7.66,20.81-4.58c1.24,3.08-6.52,3.9-7.57,8.37C198.82,59.17,189.94,59.33,185.95,59.22z"/>
<path class="st11" d="M186.39,61.02c-0.66,0.11-1.1,0.73-0.99,1.39c0.03,0.19,0.11,0.37,0.22,0.52c0.67,0.85,1.9,1.68,4.2,1.44
	c4.49-0.37,9-0.25,13.46,0.35c4.04,0.47,7.22,0.52,7.08-0.78c-0.14-1.3-7.73-3.29-9.33-4.38C199.45,58.45,190.11,60.28,186.39,61.02
	z"/>
<path class="st16" d="M159.48,59.75c0,0,0,4.9,5.65,6.12c5.65,1.23,14.91-1.49,15.84-2.51c0.65-0.76,0.89-1.78,0.64-2.75
	c-0.1-0.85-0.37-0.36-3.93-1.4s-4-0.16-7.45-1.75C166.78,55.88,159.63,56.45,159.48,59.75z"/>
<path class="st12" d="M179.67,62.33c0.71-0.17,1.34-0.61,1.74-1.23l0,0c0.48-0.76,0.37-1.76-3.19-2.8s-4.28-0.67-7.73-2.26
	s-10.9,0.36-11.05,3.66c0,0.17,0.03,0.34,0.08,0.5c1.31,1.92,3.37,3.19,5.67,3.5C169.36,64.5,175.33,63.51,179.67,62.33z"/>
<path class="st17" d="M160.68,60.83c-0.61-0.63-0.67-1.6-0.14-2.3c1.63-2.17,7.02-3.33,9.66-2.11c1.51,0.74,3.12,1.26,4.78,1.56
	c1.43,0.29,7.2,1.25,5.91,3.19c-0.7,1.05-3.1,1.16-4.38,1.43s-2.5,0.49-3.77,0.64c-1.35,0.25-2.73,0.35-4.11,0.28
	C167.73,63.41,163.31,63.76,160.68,60.83z"/>
<path class="st4" d="M170.75,57.15c2.55,0.35,4.38,1.78,4.09,3.19c-0.29,1.42-2.61,2.28-5.16,1.94s-4.39-1.78-4.09-3.19
	S168.2,56.81,170.75,57.15z"/>
<path class="st14" d="M208.04,55.36c-1.16-0.49-1.68-1.37-0.76-2.26c1.39-1.15,3.45-0.95,4.6,0.44c0.02,0.03,0.05,0.06,0.07,0.08
	c0.72,1.16,0.68,2.64-0.08,3.77c-0.36,0.57-0.86,1.04-1.45,1.37c-0.57,0.34-1.22,0.53-1.89,0.58l0.16,0.64
	c0.37-0.07,0.72-0.18,1.07-0.32c1.04-0.39,1.92-1.1,2.54-2.02c0,0,1.48-2.34,0.16-4.29c-1.38-2.1-4.97-2.23-6.27-0.21
	c-0.81,1.24,0,2.55,1.43,3.18L208.04,55.36z"/>
<path class="st1" d="M183.71,59.27c0-2.97,3.35-5.36,7.49-5.36c3,0,5.59,1.27,6.78,3.1c6.18,0.25,10.98,1.83,10.98,3.8
	c0,0.92-0.97,1.54-1.73,1.94c-1.45,0.68-2.99,1.15-4.58,1.38c-1.96,0.33-3.94,0.56-5.93,0.69c-1.92,0.15-3.85,0.18-5.78,0.06
	c-1.52-0.09-3-0.48-4.37-1.16c-1.11-0.54-1.98-1.46-2.46-2.59C183.87,60.54,183.73,59.91,183.71,59.27z"/>
<path class="st10" d="M205.63,59.58c0,0-8.5-0.65-9.32-0.92c-0.81-0.27-0.6-2-3.78-2.61c-3.18-0.6-5.11,0.38-5.49,1.93
	s1.83,2.82,2.69,1.78s1.05-2.24,2.9-2.02c1.23,0.23,2.36,0.83,3.24,1.73L205.63,59.58z"/>
<path class="st14" d="M204.93,59.24l0.92,0.43l-0.71,0.59l0.98,0.29l-0.92,0.61l0,0l1.06,0.57l-0.86,0.67l1.06,0.45l-0.14,0.64
	c2.91-0.36,3.48-2.47,3.48-2.47c0.03-0.25,0.03-0.5,0-0.75c-0.28-2.65-4.89-2.55-4.89-2.55l0.7,0.42l-0.46,0.14l0.56,0.42
	L204.93,59.24z"/>
<path class="st8" d="M165.53,60.06c-0.16,2.75-3.73,5.29-7.32,5.29c-3.59,0-7.06-2.75-7.06-5.43c0-3.91,2.03-3.9,4.58-3.66
	c0.49,0,1.01,0.09,1.52,0.12c0.31,0,0.62,0,0.92,0c0.32,0,0.64,0,0.97,0s0.79-0.07,1.17-0.11
	C163.23,55.92,165.82,55.56,165.53,60.06z"/>
<path class="st14" d="M156.32,52.45L156.32,52.45L156.32,52.45z"/>
<path class="st14" d="M161.72,54.55c-0.18-0.19-0.49-0.2-0.69-0.02c-0.01,0.01-0.01,0.01-0.02,0.02c0.5,0,0.27,0.59-0.15,1
	c-0.25,0.26-2.1,0.17-2.75,0h-0.13c0.48-1.4-0.12-4.58-1.96-4l0.31,0.92c0.06-0.04,0.13-0.06,0.2-0.06
	c0.77-0.08,1.44,2.11,1.24,3.18c-1.12,0-3.08,0.59-3.29,0.23s0.39-0.55,0.39-0.55l0.59,0.16c0,0-0.57-0.83-1.14-0.62
	c-0.49,0.14-0.77,0.64-0.63,1.13c0.03,0.1,0.08,0.2,0.14,0.29c0.9,0.17,1.83,0.23,2.75,0.17c-0.68,0.28-1.28,0.74-1.71,1.34
	c-0.55,0.86,0.59,2.07,0.59,2.07s-0.61-1.2,0.05-1.83c0.64-0.56,1.34-1.06,2.08-1.48v3c0.45-0.46,0.68-1.09,0.66-1.73
	c0.02-0.46-0.05-0.92-0.19-1.36h0.6c0.48,0.15,0.94,0.34,1.37,0.59c0.69,0.42-0.35,1.54-0.35,1.54c0.34-0.13,0.63-0.38,0.81-0.7
	c0.55-1.02-0.06-1.28-0.57-1.5c0.39,0,0.76,0,1.3-0.12C162.15,56.07,162.07,54.89,161.72,54.55z"/>
<path class="st12" d="M261.25,25.55V3.35h-5.49v22.2l0,0c-2.25,0.01-4.08,1.84-4.07,4.09l0,0v38.23h13.68V29.64
	c0.01-2.25-1.82-4.09-4.07-4.09l0,0H261.25z"/>
<path class="st18" d="M261.25,25.55V3.35h-2.84v22.2c2.25,0.01,4.07,1.84,4.06,4.09v38.23h2.85V29.64
	C265.33,27.38,263.5,25.55,261.25,25.55L261.25,25.55z"/>
<rect x="255.72" y="3.35" class="st8" width="5.53" height="10.77"/>
<rect x="251.65" y="42.93" class="st8" width="13.68" height="19.45"/>
<path class="st12" d="M220.34,67.85h-82.9c-2.81,0-5.08-2.27-5.08-5.08l0,0h93.06C225.42,65.58,223.15,67.85,220.34,67.85z"/>
<path class="st9" d="M127.71,67.71H91.67c-1.22,0-2.21-1.5-2.21-3.35h40.44C129.93,66.21,128.94,67.71,127.71,67.71z"/>
<path class="st0" d="M243.54,45.12c0,1.21,0.72,2.18,1.57,2.17s1.52-1.01,1.5-2.22c-0.02-1.21-0.72-2.18-1.57-2.16
	S243.52,43.91,243.54,45.12z M245.88,44.02c0,0.28-0.36,0.51-0.81,0.52s-0.82-0.21-0.83-0.49c-0.01-0.28,0.37-0.51,0.81-0.52
	C245.5,43.52,245.88,43.74,245.88,44.02z M243.92,45.74c0-0.43,0.51-0.8,1.15-0.81c0.64-0.01,1.16,0.33,1.17,0.77
	s-0.5,0.79-1.14,0.8S243.93,46.13,243.92,45.74z"/>
<path class="st19" d="M248.6,47.69c0.33,0.69,0.5,1.45,0.52,2.22l0.27,16.02c0.01,0.98-0.77,1.77-1.75,1.78l0,0l-9.15,0.16
	c-0.98,0.04-1.79-0.73-1.83-1.7c0-0.01,0-0.01,0-0.02l-0.27-16.03c-0.01-0.77,0.15-1.52,0.46-2.22L248.6,47.69z"/>
<path class="st19" d="M248.6,47.69c0.33,0.69,0.5,1.45,0.52,2.22l0.27,16.02c0.01,0.98-0.77,1.77-1.75,1.78l0,0l-9.15,0.16
	c-0.98,0.04-1.79-0.73-1.83-1.7c0-0.01,0-0.01,0-0.02l-0.27-16.03c-0.01-0.77,0.15-1.52,0.46-2.22L248.6,47.69z"/>
<path class="st4" d="M236.42,50.11l0.27,16.03c0.02,0.98,0.84,1.75,1.81,1.72c0.01,0,0.01,0,0.02,0l9.15-0.16
	c0.97,0,1.74-0.79,1.74-1.76c0-0.01,0-0.01,0-0.02l-0.29-16.02c-0.02-0.77-0.2-1.52-0.53-2.22l-11.72,0.19
	C236.56,48.58,236.41,49.34,236.42,50.11z"/>
<path class="st11" d="M246.95,65.96l-0.27-16.02c-0.01-0.77-0.19-1.52-0.52-2.22h2.43c0.33,0.69,0.5,1.45,0.52,2.22l0.27,16.02
	c-0.01,0.96-0.79,1.74-1.75,1.75l-2.43,0.05c0.97-0.01,1.75-0.8,1.74-1.78C246.95,65.97,246.95,65.97,246.95,65.96z"/>
<path class="st8" d="M236.42,50.11l0.27,16.03c0.02,0.98,0.84,1.75,1.81,1.72c0.01,0,0.01,0,0.02,0l3.74-0.06
	c-0.98,0.04-1.79-0.73-1.83-1.7c0-0.01,0-0.01,0-0.02l-0.27-16.02c-0.01-0.77,0.15-1.52,0.46-2.22l-3.73,0.05
	C236.58,48.58,236.41,49.34,236.42,50.11z"/>
<path class="st16" d="M236.87,47.88l11.73-0.19l0,0c0-0.51-0.41-0.92-0.92-0.92l-9.86,0.16c-0.51,0-0.92,0.41-0.92,0.92
	L236.87,47.88z"/>
<rect x="236.91" y="62.05" transform="matrix(0.9998 -0.02 0.02 0.9998 -1.2122 4.8779)" class="st16" width="12.71" height="1.99"/>
<path class="st20" d="M26.34,67.71l-14.35,84.43c0,0,51.74,22.83,98.66,10.33c0,0,123.17,16.37,228.28-3.01l-13.09-91.75
	C325.84,67.71,26.34,67.71,26.34,67.71z"/>
<path class="st21" d="M325.84,67.71c0,0-43.33,85.06-214.35,79.79c0,0-63.32,14.98-99.51,4.64c0,0,64.23,25.45,98.66,10.33
	c0,0,146.01,18.09,228.28-3.01L325.84,67.71z"/>
<path class="st21" d="M99.11,96.57l8.02,60.3l4.76-2.61C111.88,154.26,100.89,97.17,99.11,96.57z"/>
</svg>
