<svg id="圖層_1" data-name="圖層 1" xmlns="http://www.w3.org/2000/svg" xmlns:xlink="http://www.w3.org/1999/xlink" viewBox="0 0 260 150"><defs><style>.cls-1{fill:none;}.cls-2{clip-path:url(#clip-path);}.cls-3{fill:#a5755c;}.cls-4{fill:#c79f73;}.cls-5{fill:#e4b58a;}.cls-6{fill:#fad1a8;}.cls-7{fill:#431a0a;}.cls-8{fill:#f5a931;}.cls-9{fill:#dd6c15;}.cls-10{fill:#d64a16;}.cls-11{fill:#542b14;}.cls-12{fill:#391c09;}.cls-13{fill:#eec487;}.cls-14{fill:#b06e54;}.cls-15{fill:#d29b66;}.cls-16{fill:#767776;}.cls-17{fill:#a36333;}.cls-18{fill:#d8e4e9;}.cls-19{fill:#c8d3d5;}.cls-20,.cls-28{fill:#fff;}.cls-20{opacity:0.37;}.cls-21{fill:#c0854e;}.cls-22{fill:#c07c3e;}.cls-23{fill:#ca8c54;}.cls-24{fill:#955824;}.cls-25{fill:#a67851;}.cls-26{fill:#bb8960;}.cls-27{fill:#d79966;}.cls-28{opacity:0.29;}</style><clipPath id="clip-path"><path class="cls-1" d="M248.77,103.31c0,14.49,4.29,29.67-2.7,36.11-7.25,6.67-18.15,5-32.42,5.32-24.49.54-67.71.65-98.5,0-28.77-.6-46.4-.3-66.68,0-6.53.1-7.61,0-15.58,0-5.85,0-7.19-.94-10.74-1.54C9.05,141,10.31,120.91,10.31,103.1c0-55.33,52.85-100,118.89-100S248.77,48,248.77,103.31Z"/></clipPath></defs><g class="cls-2"><rect class="cls-3" x="9.63" y="3.12" width="240.76" height="141.63"/><path class="cls-4" d="M16.15,139.33a15.4,15.4,0,0,0,3.6,5.41H60.44c.53-.49,1-1,1.53-1.55,3.91-4.39,6.8-8.78,8.09-14.73,1.45-6.69,4.29-13.28,4.45-20.24.28-11.71-6.56-18.43-15.31-23-8.5-4.48-18.13-2.15-26.93.45-9.2,2.71-16.21,11.57-18.4,21.77a97.26,97.26,0,0,0-1.4,11.85c-.31,3.46-1.25,7.33-.17,10.69S15,136.17,16.15,139.33Z"/><path class="cls-4" d="M130.6,144.74c-.87-8.37-3.93-15.64-12.12-17.28-4.39-.88-10.36-.63-14.4,1.31-2.93,1.39-5.08,4.75-6.56,7.75-1.34,2.74-2.62,5.49-3.94,8.22Z"/><path class="cls-5" d="M128.8,144.74c-.83-7.2-3.54-13.41-10.63-14.82-3.86-.78-9.12-.56-12.67,1.15-2.58,1.23-4.48,4.19-5.78,6.83-1.12,2.28-2.19,4.57-3.28,6.84Z"/><path class="cls-4" d="M170.62,144.74a41.6,41.6,0,0,0-7.11-15.81c-3-4-6.34-4.76-10.46-6.21-6.51-2.27-11.86.2-16.38,6.26a25.53,25.53,0,0,0-4.44,15.76Z"/><path class="cls-5" d="M168.53,144.74a37.53,37.53,0,0,0-6.21-13.32c-2.68-3.57-5.7-4.29-9.41-5.59-5.85-2-10.67.17-14.73,5.63a23.08,23.08,0,0,0-4,13.28Z"/><path class="cls-4" d="M197.52,144.74c-.6-4.73-1.75-10.27-5.05-12-5.08-2.72-11.79.29-14.83,5.13a27,27,0,0,0-2.8,6.91Z"/><path class="cls-4" d="M216.79,144.74c1.29-5.34,2.39-12.05,1.91-16.77-.43-4.14-7.22-13.3-11.49-10-2.16,1.65-2.23,6-3,8.52-1.49,5.14-4.36,9.55-4.67,15.1a15.09,15.09,0,0,0,.18,3.18Z"/><path class="cls-4" d="M250.38,144.74V120.93c-3.32.24-6.62,1.12-10.15,1.49-7,.74-14.23,1.8-18.2,9.4a41.43,41.43,0,0,0-3.61,12.92Z"/><path class="cls-5" d="M250.38,144.74V123.56c-3.4,0-6.69,1-10.27,1.34-6,.63-12.28,1.54-15.71,8.1a36.67,36.67,0,0,0-3.18,11.74Z"/><path class="cls-4" d="M250.38,79.18C245.61,82.5,238.73,85,234,87c-6.35,2.69-13.8,4.35-19.56,8.56-7.62,5.58-3.51,19.81,3.41,24.21,9.69,6.17,23.81,1.71,32.56-5.29Z"/><path class="cls-5" d="M250.38,80.31c-3.75,4-11.52,6.67-16.53,8.78-5.42,2.3-11.79,3.72-16.7,7.32-6.51,4.76-3,16.9,2.91,20.66,8.93,5.69,22.29.8,29.51-6,.28-.27.54-.55.81-.83Z"/><path class="cls-4" d="M250.38,55.53c-4.18-1.71-10.62-1.08-14.43-.9-5,.25-10.08,2-14.86,3.74C211.9,61.74,204,68.2,203.84,79.81c-.23,21.42,35.09,5.89,46.54-6.88Z"/><path class="cls-4" d="M250.38,31.47c-4.74-.27-10.69,1.61-12.62,5.75-2.3,4.94-1.55,13.07,3.49,15.44a17.24,17.24,0,0,0,9.13,1.16Z"/><path class="cls-5" d="M250.38,33.7c-3.66-.7-9.1.65-10.73,4.13-1.73,3.69-1.16,9.76,2.6,11.53a13.09,13.09,0,0,0,8.13.61Z"/><path class="cls-4" d="M250.38,3.12H238.32a28.32,28.32,0,0,1-1.44,4.53c-1.28,2.64-2.86,5.06-4.12,7.72-2.34,4.93-4.53,12.53.78,16.32,3.67,2.62,12.31-.37,15.78-2.73a10.56,10.56,0,0,0,1.06-.84Z"/><path class="cls-5" d="M250.38,3.12h-9.47a35.63,35.63,0,0,1-1.37,4.41c-1,2.06-2.25,4-3.24,6-1.82,3.85-3.53,9.81.63,12.78,2.87,2,9.63-.29,12.35-2.14a9.58,9.58,0,0,0,1.1-.92Z"/><path class="cls-4" d="M207.42,3.12a63.14,63.14,0,0,0-3.68,8.55c-1.13,4.2-2.08,8.77-1.45,13.15C203.91,36.23,216,31.58,222,27.74a28.52,28.52,0,0,0,10.72-13.66,25.17,25.17,0,0,0,1.79-11Z"/><path class="cls-5" d="M210,3.12a48.72,48.72,0,0,0-2.83,6.54,25.32,25.32,0,0,0-1.1,9.89c1.23,8.57,10.31,5.07,14.85,2.19A21.49,21.49,0,0,0,229,11.48a19,19,0,0,0,1.32-8.36Z"/><path class="cls-4" d="M164,3.12a61.58,61.58,0,0,0-3.69,5.15,26.27,26.27,0,0,0-2.72,22.82c3.22,9.18,11.51,12.82,20.26,11.63C191.58,40.84,202,27.56,201.47,12a22.6,22.6,0,0,0-2-8.9Z"/><path class="cls-5" d="M168.76,3.12a41.52,41.52,0,0,0-3.74,5,21.08,21.08,0,0,0-2.18,18.34c2.58,7.37,9.24,10.29,16.26,9.34,11.07-1.51,19.47-12.18,19-24.66a17.51,17.51,0,0,0-2.12-8Z"/><path class="cls-4" d="M131.53,3.12c.23,2.36.38,4.72.45,7.17.08,3.06,0,7.29,2,9.78,4,5.06,11.44,3.27,15.89,0,3.5-2.58,5.67-7.68,7.72-11.62.52-1,1.56-3.09,2.48-5.33Z"/><path class="cls-5" d="M134.88,3.12c.11,1.37.19,2.75.23,4.16.07,2.56,0,6.09,1.67,8.16,3.36,4.23,9.54,2.74,13.26,0,2.92-2.15,4.73-6.42,6.44-9.7.29-.55.76-1.51,1.28-2.63Z"/><path class="cls-4" d="M105.74,3.12c-3.16,5.7-5.29,13.58-3.73,19.69.89,3.49,2.62,6.74,5.46,8.67s6,1,8.88.27c8-2.1,12.53-8.22,13.31-17a30.42,30.42,0,0,0-.91-11.63Z"/><path class="cls-5" d="M126.91,3.12H109.06c-2.83,4.66-4.85,11.53-3.51,16.8A11.76,11.76,0,0,0,110,27c2.26,1.54,4.83.84,7.2.22,6.47-1.7,10.17-6.66,10.79-13.79a24.57,24.57,0,0,0-.78-9.61C127.1,3.53,127,3.34,126.91,3.12Z"/><path class="cls-4" d="M75.39,3.12c.3,2.4.69,4.79,1.15,7.17.65,3.41,1.61,8.39,4.44,10.45,6.71,4.89,17.22-.53,19.26-8.5a23.21,23.21,0,0,0,.36-9.12Z"/><path class="cls-5" d="M78.25,3.12c.2,1.58.45,3.16.72,4.73.47,2.66,1.16,6.55,3.2,8.15C87,19.82,94.54,15.59,96,9.37a19.36,19.36,0,0,0,.35-6.25Z"/><path class="cls-4" d="M70.89,3.12H9.63v40.3A94.11,94.11,0,0,0,15.9,51.9c3.63,4.37,7.35,7.57,12.74,8.72,5.14,1.1,10.07,3.16,15.35,3.63,8.63.77,16.65-3.2,22.86-9.67C75.06,46,76.67,35.06,76.54,23,76.46,16.23,74.05,9.05,70.89,3.12Z"/><path class="cls-5" d="M60.76,4.31c-.24-.41-.5-.81-.76-1.19H9.63V31.18a65.52,65.52,0,0,0,8.55,13c2.86,3.44,5.79,6,10,6.87,4.05.87,7.94,2.5,12.1,2.86,6.81.61,13.13-2.52,18-7.62C64.82,39.54,66.1,30.91,66,21.44,65.92,15.51,63.62,9.23,60.76,4.31Z"/><path class="cls-4" d="M110.76,34.2C93,38.06,78.62,65.65,89.07,83.33c9.12,15.42,33.13,3,39.73-9.32,5.34-9.93,8.62-31.43-4-37.08C123.63,36.39,117.88,32.65,110.76,34.2Z"/><path class="cls-4" d="M144.56,53.63c-5.32,0-7.42,1.79-9.66,7.59a53.26,53.26,0,0,0-3.53,19.13c0,7.37.13,17.61,5.31,23,3.42,3.54,6.58,5.39,10.92,2.06,4.66-3.59,7.3-10.15,7.57-16.29.34-7.72.4-16.62-.75-24.16C152.75,54,144.56,53.63,144.56,53.63Z"/><path class="cls-4" d="M141.37,25.61c-4.09-3.7-10.13-2.36-13.45,2.22s0,11.85,4.93,13.25c3.19.91,8.2-.87,9.78-4.19,1.36-2.89,1.6-7.69-.5-10.28Z"/><path class="cls-5" d="M152.37,23.84c-1.88-1.34-5.23.75-6.56,2.31a6.06,6.06,0,0,0-.34,7.34c2.74,3.83,11,1.22,10.28-4.7A6.4,6.4,0,0,0,152.37,23.84Z"/><path class="cls-5" d="M114.26,36.23c-14.14-.37-29.89,25.82-22.48,40C96.54,85.3,107,85.72,115,82.48c5-2,9.24-4.91,11.73-10.22a39,39,0,0,0,3.47-16.32c-.28-7-5.49-18.81-14.1-19.71Z"/><path class="cls-6" d="M116.2,41.26c-7.52-.17-15.92,12.22-12,18.92,2.53,4.3,8.12,4.5,12.37,3,2.64-1,4.92-2.33,6.25-4.84a16.73,16.73,0,0,0,1.85-7.72c-.15-3.33-2.93-8.9-7.51-9.33Z"/><path class="cls-5" d="M146.45,55.76c-7.08-.73-9.33,9.14-10.38,14.07a61.93,61.93,0,0,0,.16,24c.58,2.88,1.59,6.28,4.45,7.06,4.11,1.12,7.16-3.24,8.56-6.91,2.22-5.82,2.7-12.12,2.93-18.37.17-4.66.59-10.15-.62-14.61-.52-1.92-1.59-4.12-3.13-4.92Z"/><path class="cls-6" d="M145.77,61.66c-3.81-.29-5,3.69-5.58,5.68a18.77,18.77,0,0,0,.09,9.7c.31,1.17.85,2.54,2.39,2.85,2.21.45,3.85-1.31,4.6-2.78a17.78,17.78,0,0,0,1.58-7.42c.09-1.88.32-4.09-.34-5.89a3.26,3.26,0,0,0-1.68-2Z"/><path class="cls-5" d="M140.24,26.52c-3-2.66-7.31-1.7-9.71,1.59s0,8.51,3.56,9.51c2.31.66,5.92-.62,7-3,1-2.07,1.16-5.52-.35-7.37Z"/><path class="cls-4" d="M130.46,94.24c-1.07-2.43-1.25-5.51-3.68-7-2.06-1.28-5.23-.94-7.39-.37-7.33,1.93-15.12,8.51-16.94,16.9A28.93,28.93,0,0,0,104,119.12c1.75,4.43,5.28,5.54,9.26,6.63a19.33,19.33,0,0,0,12.5-.93c4.11-1.78,5.44-4.95,6.44-9.57,1.2-5.49.42-13.8-1.1-19.5Z"/><path class="cls-5" d="M129,95.7c-.83-1.9-1-4.31-2.87-5.48-1.62-1-4.1-.73-5.79-.29-5.73,1.5-11.82,6.66-13.25,13.22a22.55,22.55,0,0,0,1.19,12c1.36,3.47,4.12,4.34,7.24,5.19a15.09,15.09,0,0,0,9.78-.73c3.22-1.39,4.25-3.86,5-7.48.94-4.3.32-10.79-.86-15.26Z"/><path class="cls-6" d="M124.83,96.64c-.41-.85-.48-1.93-1.41-2.46a4.35,4.35,0,0,0-2.85-.13c-2.81.68-5.81,3-6.51,5.94a9.28,9.28,0,0,0,.58,5.38c.68,1.56,2,1.95,3.56,2.33a8.07,8.07,0,0,0,4.81-.33c1.58-.62,2.09-1.73,2.47-3.35a15.24,15.24,0,0,0-.41-6.85Z"/><path class="cls-5" d="M27.6,139.28c-2.11-2.11-4.1-3.77-5.25-6.88-.94-2.61-2.21-5.09-3-7.77s-.12-6,.13-8.83a83.7,83.7,0,0,1,1.11-9.8c1.73-8.43,7.3-15.75,14.6-18,7-2.14,14.61-4.08,21.35-.37,7,3.82,12.37,9.37,12.15,19-.13,5.75-2.38,11.2-3.53,16.73-1,4.91-3.31,8.54-6.41,12.17-4.11,4.8-9.55,6.81-15.4,7.16-4,.25-10,1.28-13.3-2Z"/><path class="cls-6" d="M36,122.07a9.75,9.75,0,0,1-2.83-3.56c-.51-1.35-1.19-2.64-1.64-4s-.06-3.09.07-4.57a42.6,42.6,0,0,1,.6-5.06c.94-4.37,3.94-8.15,7.86-9.31,3.77-1.11,7.88-2.11,11.52-.19s6.67,4.84,6.54,9.85c-.06,3-1.28,5.79-1.89,8.65a13.54,13.54,0,0,1-3.46,6.3,11.57,11.57,0,0,1-8.3,3.7c-2.18.13-5.4.66-7.17-1Z"/><path class="cls-4" d="M155.78,99.33c-4.89,4.32-7.32,10.3-3.29,16.39,5.41,8.17,15.3,11.63,24.16,13.65a41.73,41.73,0,0,0,15.67.56c3.94-.68,9-1.46,10.81-6,1.26-3.19,1.46-8.44-.61-11.2-2.55-3.41-7.23-4.46-10.71-6.42a81,81,0,0,0-20.31-7.61c-4.94-1.25-9.52-1-14.31-.5Z"/><path class="cls-5" d="M158.73,101.48c-3.88,3.43-5.81,8.18-2.61,13,4.29,6.49,12.14,9.23,19.19,10.83a33.17,33.17,0,0,0,12.44.45c3.12-.54,7.18-1.16,8.58-4.75,1-2.54,1.16-6.71-.48-8.9-2-2.71-5.74-3.54-8.5-5.1a64.88,64.88,0,0,0-16.14-6,31.57,31.57,0,0,0-11.36-.39Z"/><path class="cls-6" d="M159.37,102.74a5.64,5.64,0,0,0-1.14,6.81c1.86,3.4,5.26,4.83,8.31,5.67a11.93,11.93,0,0,0,5.38.23c1.35-.28,3.11-.61,3.72-2.48a6.59,6.59,0,0,0-.21-4.66c-.88-1.42-2.49-1.85-3.68-2.66a25,25,0,0,0-7-3.16,11.41,11.41,0,0,0-4.92-.21Z"/><path class="cls-4" d="M89.07,24.09c-3.72.94-11.55.77-10.62,7.56.74,5.4,10.91,6.79,14.87,6.38,5-.51,10.25-3.75,8.14-10.07-1.9-5.72-6.33-5.16-10.72-4.7Z"/><path class="cls-4" d="M81.34,37.18c-3.3-1.91-6.81,2-5.2,5.88,2.3,5.61,6.81-.68,5.5-4.37Z"/><path class="cls-5" d="M90.43,39.87c-2.41-.55-4.84-2.58-6.63,0-1.46,2.15-.52,5.68.69,7.72,3.69,6.22,8.74-1.09,6.89-6.29a.65.65,0,0,0,0-.13Z"/><path class="cls-4" d="M82.25,47.76C71.69,43.44,61.37,65.58,72.85,70c5.47,2.12,10-1.33,11.55-7,1.12-4.17,2.53-10.65-.63-14.1Z"/><path class="cls-4" d="M81.79,71.58c-5.28.64-10.43,2.85-12.84,8.89-2,5,1.65,13,5,16.75,4.19,4.64,10.53-.19,12.4-5.33s0-11.35-1.48-16.15c-.45-1.48-.46-2.88-2-3.48Z"/><path class="cls-4" d="M65.11,63C60.57,60.41,53.53,64,53,69.74c-.32,3.41,1,5.89,3,8.26,1.39,1.66,3.73,5.59,5.64,6.38C68.55,87.25,71,67.86,66.18,64Z"/><path class="cls-5" d="M50.11,66.72c-.61-2.59-4.59-1.54-6.1-.55-2.4,1.57-3.15,4.17-3.15,7.09,0,5.48,7,11.75,9.59,4.53.89-2.48,1.16-7.44.27-9.9Z"/><path class="cls-5" d="M39.19,68.56c-.77-6.2-8.92-7.62-11.41-1.84-2.23,5.18-1.56,13.88,4,16.11,5.7,2.29,7.22-7.48,7.44-11.92Z"/><path class="cls-4" d="M102.71,92.06c-3.37-.59-6,7-2.72,8,2.15.64,6.47-5.77,3.94-7.34Z"/><path class="cls-4" d="M97.11,91.22c-5-.28-10.36-1.3-10.62,6.54-.22,6.93,6,8.39,9.28,2.73a20.29,20.29,0,0,0,2.09-8.43Z"/><path class="cls-4" d="M86.49,103.13c-2.84-4.85-9.11-4-10.43,1.85-1.41,6.29,5.82,9,9.33,4.31a6.05,6.05,0,0,0,1.25-4.65Z"/><path class="cls-4" d="M100.14,103.64c2.43,4.41,1.33,13.82-4.84,12.41s-4.7-9.24-.51-12.12c1.42-1,2.63-1.71,4.29-1.13Z"/><path class="cls-4" d="M146.07,109.17c-3-2.28-11.3-3.25-12.43,1.85-1.35,6,3.09,11.44,8.18,10.73,4.11-.57,9.61-5.39,5.77-10.56Z"/><path class="cls-5" d="M135.46,121.42c-3.11-.44-4.21.21-5.76,3.15-1,1.81-2.74,5.41-1.33,7.56,2.82,4.26,10.47-5.24,8.16-9.2,0-.12-.05-.18-.16-.17Z"/><path class="cls-4" d="M169.88,61.85c-4.72-1.94-12.34.44-13.34,6.21-1,6-.28,14.28,5.14,17.08,6.73,3.47,18.94,3.47,24.15-2.94s1.12-14.67-5-18c-2.41-1.32-5.66-1.74-8.19-2.13Z"/><path class="cls-4" d="M102.56,118.4c-1-2.54-4-1.67-5.91-1-3,1-3.79,2.46-4.51,5.71-.83,3.73-.34,14.66,5.39,9.86,2.55-2.14,7.35-9.28,5.33-12.88Z"/><path class="cls-4" d="M90,106.49c-2.45-.56-7.5,7.48-8,9.9-.94,4.29,2.43,13.33,7.09,8.19,1.82-2,2.28-5.41,2-8-.33-2.88-.24-6-.57-8.73Z"/><path class="cls-5" d="M80.73,114.38c-2.2-3.51-6.33-1.16-6.55,2.84-.27,4.77,5.73,2.57,6.25-1.17Z"/><path class="cls-5" d="M80.58,120.59c-1.93.29-11,2.48-8.35,7,1.79,3,9.43-2.53,9-6Z"/><path class="cls-4" d="M173.52,45.11c-3.61-1.43-11.22-5.09-14.86-2.79-6.22,3.93-3.78,15.19,2.58,16.87,4.38,1.16,11.8,1.09,15.76-1.25,6.48-3.82,4.12-8.11-.76-11.66-.24-.18-.51-.35-.75-.52Z"/><path class="cls-5" d="M169.6,63c-4.1-1.69-10.73.38-11.6,5.4-.9,5.18-.24,12.41,4.48,14.85,5.85,3,16.47,3,21-2.56S184.45,68,179.1,65c-2.09-1.16-4.91-1.52-7.12-1.86Z"/><path class="cls-6" d="M166.73,65.08c-2.13-.89-5.58.19-6,2.8s-.13,6.45,2.32,7.72c3,1.57,8.56,1.57,10.91-1.33s.51-6.62-2.27-8.15a11.72,11.72,0,0,0-3.7-1Z"/><path class="cls-5" d="M171,45.63c-2.74-1.09-8.54-3.87-11.3-2.12-4.73,3-2.88,11.56,2,12.84,3.33.88,9,.83,12-1,4.92-2.92,3.13-6.17-.58-8.87-.2-.14-.39-.28-.58-.4Z"/><path class="cls-6" d="M165.91,46.67c-1.18-.46-3.68-1.67-4.86-.91-2.05,1.29-1.25,5,.84,5.53a7.93,7.93,0,0,0,5.16-.41c2.13-1.26,1.36-2.66-.24-3.82l-.25-.17Z"/><path class="cls-6" d="M240.75,128.6c-1.86-.71-3.5,0-5.35.14-2.1.22-4.29.55-5.49,2.84-1,2-2.1,7.45.14,8.85,2.93,1.84,7.66,1.3,10.38-.63s3-6,2.53-9.19a3.58,3.58,0,0,0-.42-1.56Z"/><path class="cls-5" d="M246.59,59.4c-3.1-2.48-9.69-1.81-13.34-1.63-4.09.2-8.19,1.61-12.07,3-7.47,2.72-13.93,7.94-14,17.34-.2,19.59,36.47,1,40.39-9.4.82-2.18,1.6-6,.41-8.12Z"/><path class="cls-6" d="M228.72,63.72c-1.35-1.29-4.25-.94-5.85-.85a16.31,16.31,0,0,0-5.3,1.58,9.44,9.44,0,0,0-6.15,9c-.09,10.23,16,.53,17.72-4.91.36-1.14.7-3.13.17-4.23Z"/><path class="cls-6" d="M246.74,37.61c-1.49-.57-4.29,0-5.06,1.59s-.48,4.1,1.1,4.85c1.35.64,3.79.61,4.92-.54s1.81-5.35-.48-5.64Z"/><path class="cls-4" d="M232.64,33.33c-9.82-12.95-25.46,7.47-17.62,19.8,3.19,5,10.85,3.26,14.89,0C233,50.7,235.25,41,234.28,36.85a5.34,5.34,0,0,0-.88-2Z"/><path class="cls-5" d="M230.27,35.36c-7.43-9.8-19.28,5.66-13.34,15,2.42,3.8,8.21,2.46,11.27,0,2.35-1.87,4-9.23,3.3-12.35a4.12,4.12,0,0,0-.66-1.53Z"/><path class="cls-6" d="M225.2,36.67c-3.78-5-9.81,2.88-6.79,7.63,1.23,1.94,4.19,1.26,5.74,0,1.19-1,2.06-4.7,1.68-6.29a2.16,2.16,0,0,0-.33-.78Z"/><path class="cls-4" d="M195.5,47.25c-4.08-.11-11.25,2.86-13.3,7a8.92,8.92,0,0,0,6,12.58c6,1.38,13.09.21,18.69-2.51,4.75-2.31,9-8.57,4.4-13.8-2.89-3.28-8.62-2.85-12.32-3.49Z"/><path class="cls-5" d="M194.53,49.05c-3-.08-8.19,2.08-9.69,5.13a6.52,6.52,0,0,0,4.39,9.17,21.56,21.56,0,0,0,13.61-1.83c3.46-1.68,6.56-6.24,3.2-10.05-2.1-2.39-6.27-2.07-9-2.54Z"/><path class="cls-6" d="M192.4,51.11c-1.4,0-3.87,1-4.58,2.42a3.09,3.09,0,0,0,2.07,4.34,10.2,10.2,0,0,0,6.44-.87c1.63-.8,3.09-3,1.51-4.75-1-1.12-3-1-4.24-1.2Z"/><path class="cls-4" d="M201.42,69.4c-15.12-6.09-15.46,23-3.65,19.17,4.9-1.6,6.85-14.22,4.71-18.66Z"/><path class="cls-5" d="M198.61,71.74c-9.28-3.74-9.49,14.14-2.24,11.77,3-1,4.21-8.73,2.89-11.46Z"/><path class="cls-6" d="M197,75c-3.28-1.32-3.35,5-.79,4.16,1.06-.35,1.49-3.09,1-4.05Z"/><path class="cls-5" d="M206.87,34.33c-2.14-4.16-11.49,2.43-13.94,3.9-1.83,1.1-14.36,6.35-11.87,9.74,1.46,2,13.81-3,16.11-3.61,3.28-.89,10.8-3.43,10.16-8.52Z"/><path class="cls-5" d="M211.72,37.18c-2.53-1-9.15,6.53-6.78,9.19,3.09,3.48,7.21-5.5,7.24-7.85Z"/><path class="cls-4" d="M178.37,88.37c-2.77,0-14.13.13-8.91,6.7,1.54,1.94,6,3.12,8.11,3.82,4.62,1.53,9.49,2.4,14.14,3.73s14.56,1.8,17.74-3.77c3.9-6.82-5.35-9.41-9.26-9.07-6.4.57-13.26.72-19.39-1.41Z"/><path class="cls-5" d="M179.74,89.87c-2,0-10.21.1-6.44,4.85,1.12,1.41,4.33,2.25,5.86,2.76,3.35,1.11,6.87,1.74,10.23,2.7s10.52,1.3,12.82-2.72c2.82-4.94-3.87-6.8-6.69-6.56-4.63.41-9.59.51-14-1Z"/><path class="cls-5" d="M206.42,104.31c-6.8,0-7.2,2.88-2.47,7.42,1.15,1.1,3.31,4.81,4.93,3.66,1.4-1,.44-6.84.08-8.2a6.86,6.86,0,0,0-1-2.38Z"/><path class="cls-4" d="M173.52,129.81c-4.85-4.46-6.55,3.18-3.84,6.92,3.71,5.11,8.13-.85,5-5.24Z"/><path class="cls-5" d="M163.66,88c-3.51-4.1-10.47,2.23-7,6.75,3.77,4.94,13.23-2.58,7.92-6.08Z"/><path class="cls-4" d="M145.32,39.53c-4.13-.67-12,5.52-9.37,10.74,2.72,5.43,11.25.7,12.37-4,.58-2.49-.8-4.61-1.94-6.38Z"/><path class="cls-4" d="M157.29,35.34c-2.73.19-13.29,4-7.12,8.26,2.79,1.9,11.82-4.34,8.34-7.93Z"/><path class="cls-6" d="M153.2,46.08c-3.09-1.2-6.64,3.94-4.51,6.84,3.49,4.78,5.17-2.55,5.12-5.5Z"/><path class="cls-5" d="M128.79,77.79c-2,1.42-6.61,5.51-2.27,7.18,3.19,1.23,5.39-3.81,3.34-6.17Z"/><path class="cls-6" d="M151.58,25.65c-1-.7-2.72.39-3.41,1.2a3.16,3.16,0,0,0-.18,3.82c1.42,2,5.71.63,5.35-2.45A3.35,3.35,0,0,0,151.58,25.65Z"/><path class="cls-6" d="M155.73,136.58c-3.33,3.65-11.85,4.64-12-2.34s7-7.18,10.54-3.35c1.2,1.31,2.11,2.43,2,4.36Z"/><path class="cls-6" d="M143.05,110.93c-1.78-1.32-6.58-1.88-7.24,1.08-.78,3.51,1.8,6.65,4.76,6.24,2.39-.33,5.59-3.13,3.35-6.14Z"/><path class="cls-5" d="M80.26,73.81c-4.09.49-8.06,2.2-9.93,6.87-1.54,3.88,1.29,10.09,3.86,12.94,3.24,3.58,8.14-.15,9.58-4.12s0-8.77-1.15-12.48c-.34-1.15-.35-2.22-1.54-2.69Z"/><path class="cls-6" d="M74.14,81c-.15,2.13,1.6,6.55,4,5.8a4.66,4.66,0,0,0,2.3-6.94c-1.31-1.92-4.73-3.45-5.86-.16Z"/><path class="cls-5" d="M81.37,49.81C73.22,46.48,65.26,63.56,74.12,67c4.23,1.64,7.75-1,8.92-5.4.86-3.22,1.95-8.22-.5-10.88Z"/><path class="cls-6" d="M80.42,51.81c-4.12-1.69-8.15,6.95-3.67,8.69,2.14.83,3.92-.52,4.51-2.73.44-1.63,1-4.16-.25-5.51Z"/><path class="cls-5" d="M62.17,65.29c-2.77-1.6-7.06.56-7.38,4.08a6.54,6.54,0,0,0,1.82,5c.84,1,2.27,3.4,3.44,3.88,4.21,1.76,5.7-10.06,2.77-12.38Z"/><path class="cls-6" d="M108.65,137.39c1.67,3,2.82,3.47,5.86,2.93,1.88-.33,5.52-1.09,6.11-3.65,1.2-5.13-10.29-5.64-11.59-1.14a.14.14,0,0,0,0,.23Z"/><path class="cls-5" d="M84.76,103.77c-1.65-2.82-5.28-2.33-6,1.07a3,3,0,0,0,5.4,2.5,3.54,3.54,0,0,0,.73-2.7Z"/><path class="cls-6" d="M98.87,105.23c1.22,2.21.67,6.9-2.41,6.19s-2.35-4.6-.26-6a2.25,2.25,0,0,1,2.14-.56Z"/><path class="cls-6" d="M35.73,68A3,3,0,0,0,30,67.1c-1.13,2.59-.79,7,2,8.07s3.61-3.75,3.72-6Z"/><path class="cls-4" d="M21.45,61.85c-3.77-4.71-8.28-7.7-11.82-12.67V97.82a7.7,7.7,0,0,0,2-.73c5.79-3,12.08-9.43,13.46-16.58C26.15,74.93,24.87,66.13,21.45,61.85Z"/><path class="cls-6" d="M81.66,3.12a5.79,5.79,0,0,0,1.52,3.25c2.53,2,6.44-.06,7.44-3.25Z"/><path class="cls-6" d="M39.22,3.12H12.91c-.05,3.54-.33,7.15.48,10.58a27,27,0,0,0,5.68,10.39,8.7,8.7,0,0,0,5,3.4c2,.43,3.92,1.24,6,1.42a11.07,11.07,0,0,0,8.91-3.77c3.2-3.34,3.83-7.61,3.77-12.29a18.05,18.05,0,0,0-2.57-8.46A8.71,8.71,0,0,0,39.22,3.12Z"/><path class="cls-6" d="M124.21,3.12h-7l-.24.32c-1.46,2.1-2.61,5.58-1.94,8.18a5.35,5.35,0,0,0,2,3.2c1,.7,2.2.39,3.28.1,3-.78,4.64-3,4.92-6.27a11.08,11.08,0,0,0-.36-4.38A3.36,3.36,0,0,0,124.21,3.12Z"/><path class="cls-6" d="M139.46,3.12c0,.21,0,.41,0,.63,0,1.42,0,3.38.93,4.53,1.87,2.35,5.31,1.52,7.37,0,1.56-1.15,2.55-3.37,3.46-5.16Z"/><path class="cls-6" d="M177,3.12a20.57,20.57,0,0,0-1.77,2.37,10.61,10.61,0,0,0-1.1,9.19c1.3,3.69,4.64,5.16,8.15,4.68,5.55-.75,9.75-6.1,9.53-12.35a8.92,8.92,0,0,0-1-3.89Z"/><path class="cls-6" d="M215.6,3.12A11,11,0,0,0,215,4.78a12.55,12.55,0,0,0-.56,5c.62,4.35,5.23,2.57,7.54,1.11A11,11,0,0,0,226,5.7a11.07,11.07,0,0,0,.64-2.58Z"/><path class="cls-6" d="M250.38,3.12h-6a15.72,15.72,0,0,1-.69,2.23c-.48,1-1.09,1.93-1.57,2.94-.89,1.88-1.72,4.77.3,6.22,1.4,1,4.69-.14,6-1a6,6,0,0,0,1.93-2.54Z"/><path class="cls-6" d="M250.38,85.54c-2.17,1.61-5.45,2.79-7.69,3.74-2.88,1.22-6.27,2-8.87,3.88-3.45,2.53-1.59,9,1.55,11,4.48,2.85,11.07.68,15-2.61Z"/><path class="cls-5" d="M214.52,144.74l.54-.72c1.23-4.27,2.67-11.18,2.21-15.7-.33-3.17-5.54-10.19-8.81-7.69-1.65,1.26-1.71,4.63-2.26,6.53-1.14,4-3.34,7.32-3.58,11.58a13.14,13.14,0,0,0,1.19,6Z"/><path class="cls-5" d="M195.7,144.74c-.45-3.8-1.29-8.53-4-10-3.94-2.11-9.16.23-11.52,4a21.36,21.36,0,0,0-2.33,6Z"/><path class="cls-4" d="M91.66,144.74c1.79-5.8,1.51-12.76-3.77-16.4-6.36-4.39-11.93.07-16.14,5.33-2,2.45-5.14,6.74-6.7,11.07Z"/><path class="cls-7" d="M144.53,143.2H110.88c-23.81,0-43.11-19.65-43.11-43.89h0c0-24.24,19.3-43.88,43.11-43.88h33.65c23.8,0,43.1,19.64,43.1,43.88h0C187.63,123.55,168.33,143.2,144.53,143.2Z"/><path class="cls-8" d="M134.63,127.51c8.61-9.18,10.62-14.12,10.82-20,.21-6-4.83-10.08-3.36-18.42-1.05.58-7.77,4.27-8.81,15.51-3.57-4.46-1.05-15.31,0-20.35s2.1-14-5-22.88c.21,2.52,1.26,6.4-3.36,13.57s-11.13,12.8-10.29,31.79c-4.61-2.13-5-14-3.56-22.48-2.73,5.23-10.5,10.66-10.71,21.32-.17,8.87,8.38,18.82,11.25,21.9Z"/><path class="cls-9" d="M131.36,127.51c9-10.06,8.33-15.91,6.33-22.94-1.68,5.82-3.51,7.5-6.44,9.57-1.54-1.68-3.78-7.24-5-14.86s1.68-13.18,2.24-20.94c-.7,4-5.74,8.92-8.68,16.41-1.64,4.19-2.52,10.86-2.66,19.13-6.43-1.55-10.07-10.21-10.77-16-1.4,3.1-2.38,6.71-.84,13.69,1.23,5.59,8,13.17,10.68,16Z"/><path class="cls-8" d="M130.2,50.26a5.8,5.8,0,0,0-2.85,5.7c.29,4.17,4,5.16,5.27,7.68,1.22-3.73-2.49-5-2.42-8.61a6.4,6.4,0,0,1,2.85-5.49A6.19,6.19,0,0,0,130.2,50.26Z"/><path class="cls-8" d="M108.86,75.18a5.12,5.12,0,0,1,2.52,5c-.25,3.68-3.52,4.55-4.66,6.78-1.07-3.29,2.2-4.41,2.14-7.61a5.63,5.63,0,0,0-2.52-4.84A5.41,5.41,0,0,1,108.86,75.18Z"/><path class="cls-8" d="M142.45,77.35a3.83,3.83,0,0,1,1.89,3.78c-.19,2.76-2.64,3.42-3.5,5.09-.8-2.47,1.65-3.31,1.61-5.71a4.25,4.25,0,0,0-1.89-3.64A4.21,4.21,0,0,1,142.45,77.35Z"/><path class="cls-10" d="M129.15,118.44c-4.49-2.72-4.77-8.68-6.74-15.16-2.1,3.63-2.8,12.83-1.26,17.11-2.1-.26-4.77,0-9.12-3.5.5,3.34,6.54,9.34,7.87,10.62h9.68c2.38-2.77,5.2-8.7,4.76-11.79C132.94,117.41,130.69,118.05,129.15,118.44Z"/><path class="cls-11" d="M109,136.26a5,5,0,1,0,0-9.94H89.37v9.94Z"/><path class="cls-12" d="M89.37,132.42v3.84H109a5.32,5.32,0,0,0,5.24-3.84Z"/><path class="cls-11" d="M94.75,131.29a5.4,5.4,0,1,1-5.38-5A5.19,5.19,0,0,1,94.75,131.29Z"/><path class="cls-13" d="M94,131.29A4.67,4.67,0,1,1,89.37,127,4.49,4.49,0,0,1,94,131.29Z"/><path class="cls-14" d="M89.37,135.12a3.85,3.85,0,1,1,4.15-3.83A4,4,0,0,1,89.37,135.12Zm0-7.38a3.56,3.56,0,1,0,3.84,3.55A3.7,3.7,0,0,0,89.37,127.74Z"/><path class="cls-14" d="M89.37,134.6A3.33,3.33,0,1,1,93,131.29,3.47,3.47,0,0,1,89.37,134.6Zm0-6.34a3,3,0,1,0,3.28,3A3.17,3.17,0,0,0,89.37,128.26Z"/><path class="cls-15" d="M89.37,133.89a2.61,2.61,0,1,1,2.82-2.6A2.73,2.73,0,0,1,89.37,133.89Zm0-4.92a2.33,2.33,0,1,0,2.51,2.32A2.43,2.43,0,0,0,89.37,129Z"/><path class="cls-15" d="M89.37,133.46a2.18,2.18,0,1,1,2.36-2.17A2.27,2.27,0,0,1,89.37,133.46Zm0-4.07a1.9,1.9,0,1,0,2,1.9A2,2,0,0,0,89.37,129.39Z"/><path class="cls-14" d="M89.37,133.08a1.8,1.8,0,1,1,1.95-1.79A1.88,1.88,0,0,1,89.37,133.08Zm0-3.31A1.52,1.52,0,1,0,91,131.29,1.59,1.59,0,0,0,89.37,129.77Z"/><path class="cls-15" d="M89.37,132.42a1.14,1.14,0,1,1,1.23-1.13A1.19,1.19,0,0,1,89.37,132.42Zm0-2a.86.86,0,1,0,.92.86A.89.89,0,0,0,89.37,130.43Z"/><path class="cls-15" d="M89.37,132a.71.71,0,1,1,.77-.71A.75.75,0,0,1,89.37,132Zm0-1.14a.43.43,0,1,0,.46.43A.45.45,0,0,0,89.37,130.86Z"/><path class="cls-11" d="M116.08,136.26a4.13,4.13,0,1,0,0-8.23H99.85v8.23Z"/><path class="cls-12" d="M99.85,133.08v3.18h16.23a4.39,4.39,0,0,0,4.33-3.18Z"/><path class="cls-11" d="M104.31,132.14A4.47,4.47,0,1,1,99.85,128,4.31,4.31,0,0,1,104.31,132.14Z"/><path class="cls-13" d="M103.71,132.14a3.87,3.87,0,1,1-3.86-3.56A3.73,3.73,0,0,1,103.71,132.14Z"/><path class="cls-14" d="M99.85,135.32a3.19,3.19,0,1,1,3.44-3.18A3.32,3.32,0,0,1,99.85,135.32Zm0-6.12a2.95,2.95,0,1,0,3.18,2.94A3.07,3.07,0,0,0,99.85,129.2Z"/><path class="cls-14" d="M99.85,134.88a2.75,2.75,0,1,1,3-2.74A2.86,2.86,0,0,1,99.85,134.88Zm0-5.25a2.52,2.52,0,1,0,2.72,2.51A2.62,2.62,0,0,0,99.85,129.63Z"/><path class="cls-15" d="M99.85,134.3a2.16,2.16,0,1,1,2.33-2.16A2.25,2.25,0,0,1,99.85,134.3Zm0-4.08a1.93,1.93,0,1,0,2.08,1.92A2,2,0,0,0,99.85,130.22Z"/><path class="cls-15" d="M99.85,133.94a1.81,1.81,0,1,1,2-1.8A1.88,1.88,0,0,1,99.85,133.94Zm0-3.37a1.57,1.57,0,1,0,1.7,1.57A1.65,1.65,0,0,0,99.85,130.57Z"/><path class="cls-14" d="M99.85,133.63a1.49,1.49,0,1,1,1.61-1.49A1.55,1.55,0,0,1,99.85,133.63Zm0-2.74a1.26,1.26,0,1,0,1.36,1.25A1.31,1.31,0,0,0,99.85,130.89Z"/><path class="cls-15" d="M99.85,133.08a.94.94,0,1,1,1-.94A1,1,0,0,1,99.85,133.08Zm0-1.64a.73.73,0,0,0-.76.7.76.76,0,0,0,1.52,0A.73.73,0,0,0,99.85,131.44Z"/><path class="cls-15" d="M99.85,132.73a.62.62,0,0,1-.64-.59.64.64,0,0,1,1.28,0A.62.62,0,0,1,99.85,132.73Zm0-.94a.37.37,0,0,0-.38.35.38.38,0,0,0,.76,0A.37.37,0,0,0,99.85,131.79Z"/><path class="cls-11" d="M112.42,128.08a4.13,4.13,0,1,0,0-8.23H96.19v8.23Z"/><path class="cls-12" d="M96.19,124.91v3.17h16.23a4.38,4.38,0,0,0,4.33-3.17Z"/><path class="cls-11" d="M100.65,124a4.47,4.47,0,1,1-4.46-4.12A4.3,4.3,0,0,1,100.65,124Z"/><path class="cls-13" d="M100.05,124a3.87,3.87,0,1,1-3.86-3.57A3.72,3.72,0,0,1,100.05,124Z"/><path class="cls-14" d="M96.19,127.14A3.18,3.18,0,1,1,99.63,124,3.31,3.31,0,0,1,96.19,127.14Zm0-6.11A2.95,2.95,0,1,0,99.37,124,3.07,3.07,0,0,0,96.19,121Z"/><path class="cls-14" d="M96.19,126.71a2.75,2.75,0,1,1,3-2.74A2.86,2.86,0,0,1,96.19,126.71Zm0-5.25A2.52,2.52,0,1,0,98.91,124,2.62,2.62,0,0,0,96.19,121.46Z"/><path class="cls-15" d="M96.19,126.12A2.16,2.16,0,1,1,98.53,124,2.25,2.25,0,0,1,96.19,126.12Zm0-4.07A1.93,1.93,0,1,0,98.27,124,2,2,0,0,0,96.19,122.05Z"/><path class="cls-15" d="M96.19,125.77a1.81,1.81,0,1,1,2-1.8A1.89,1.89,0,0,1,96.19,125.77Zm0-3.37a1.57,1.57,0,1,0,1.7,1.57A1.63,1.63,0,0,0,96.19,122.4Z"/><path class="cls-14" d="M96.19,125.46A1.49,1.49,0,1,1,97.8,124,1.55,1.55,0,0,1,96.19,125.46Zm0-2.75A1.26,1.26,0,1,0,97.55,124,1.32,1.32,0,0,0,96.19,122.71Z"/><path class="cls-15" d="M96.19,124.91a.94.94,0,1,1,1-.94A1,1,0,0,1,96.19,124.91Zm0-1.65a.74.74,0,0,0-.76.71.73.73,0,0,0,.76.7A.74.74,0,0,0,97,124,.75.75,0,0,0,96.19,123.26Z"/><path class="cls-15" d="M96.19,124.56a.61.61,0,0,1-.63-.59.61.61,0,0,1,.63-.59.62.62,0,0,1,.64.59A.62.62,0,0,1,96.19,124.56Zm0-.94a.36.36,0,0,0-.38.35.38.38,0,0,0,.76,0A.36.36,0,0,0,96.19,123.62Z"/><path class="cls-11" d="M137.56,136.26a5.26,5.26,0,1,0,0-10.49H116.88v10.49Z"/><path class="cls-12" d="M116.88,132.21v4h20.68a5.61,5.61,0,0,0,5.53-4Z"/><path class="cls-11" d="M122.56,131a5.69,5.69,0,1,1-5.68-5.24A5.48,5.48,0,0,1,122.56,131Z"/><path class="cls-13" d="M121.8,131a4.94,4.94,0,1,1-4.92-4.54A4.75,4.75,0,0,1,121.8,131Z"/><path class="cls-14" d="M116.88,135.06a4.06,4.06,0,1,1,4.38-4.05A4.23,4.23,0,0,1,116.88,135.06Zm0-7.79a3.76,3.76,0,1,0,4.06,3.74A3.91,3.91,0,0,0,116.88,127.27Z"/><path class="cls-14" d="M116.88,134.51a3.51,3.51,0,1,1,3.79-3.5A3.65,3.65,0,0,1,116.88,134.51Zm0-6.69a3.21,3.21,0,1,0,3.46,3.19A3.34,3.34,0,0,0,116.88,127.82Z"/><path class="cls-15" d="M116.88,133.76a2.75,2.75,0,1,1,3-2.75A2.87,2.87,0,0,1,116.88,133.76Zm0-5.19a2.45,2.45,0,1,0,2.65,2.44A2.56,2.56,0,0,0,116.88,128.57Z"/><path class="cls-15" d="M116.88,133.31a2.3,2.3,0,1,1,2.49-2.3A2.4,2.4,0,0,1,116.88,133.31Zm0-4.29a2,2,0,1,0,2.17,2A2.08,2.08,0,0,0,116.88,129Z"/><path class="cls-14" d="M116.88,132.91a1.9,1.9,0,1,1,2.06-1.9A2,2,0,0,1,116.88,132.91Zm0-3.5a1.6,1.6,0,1,0,1.73,1.6A1.67,1.67,0,0,0,116.88,129.41Z"/><path class="cls-15" d="M116.88,132.21a1.2,1.2,0,1,1,1.3-1.2A1.25,1.25,0,0,1,116.88,132.21Zm0-2.1a.9.9,0,1,0,1,.9A.95.95,0,0,0,116.88,130.11Z"/><path class="cls-15" d="M116.88,131.76a.75.75,0,1,1,.81-.75A.78.78,0,0,1,116.88,131.76Zm0-1.2a.47.47,0,0,0-.48.45.49.49,0,0,0,1,0A.48.48,0,0,0,116.88,130.56Z"/><path class="cls-11" d="M160.31,136.26a4.13,4.13,0,1,0,0-8.23H141.53v8.23Z"/><path class="cls-12" d="M141.53,133.08v3.18h18.78a4.39,4.39,0,0,0,4.33-3.18Z"/><path class="cls-11" d="M146,132.14a4.47,4.47,0,1,1-4.45-4.11A4.3,4.3,0,0,1,146,132.14Z"/><path class="cls-13" d="M145.39,132.14a3.87,3.87,0,1,1-3.86-3.56A3.73,3.73,0,0,1,145.39,132.14Z"/><path class="cls-14" d="M141.53,135.32a3.19,3.19,0,1,1,3.44-3.18A3.32,3.32,0,0,1,141.53,135.32Zm0-6.12a2.95,2.95,0,1,0,3.18,2.94A3.07,3.07,0,0,0,141.53,129.2Z"/><path class="cls-14" d="M141.53,134.88a2.75,2.75,0,1,1,3-2.74A2.86,2.86,0,0,1,141.53,134.88Zm0-5.25a2.52,2.52,0,1,0,2.71,2.51A2.63,2.63,0,0,0,141.53,129.63Z"/><path class="cls-15" d="M141.53,134.3a2.16,2.16,0,1,1,2.33-2.16A2.25,2.25,0,0,1,141.53,134.3Zm0-4.08a1.93,1.93,0,1,0,2.08,1.92A2,2,0,0,0,141.53,130.22Z"/><path class="cls-15" d="M141.53,133.94a1.81,1.81,0,1,1,1.95-1.8A1.87,1.87,0,0,1,141.53,133.94Zm0-3.37a1.57,1.57,0,1,0,1.7,1.57A1.64,1.64,0,0,0,141.53,130.57Z"/><path class="cls-14" d="M141.53,133.63a1.49,1.49,0,1,1,1.61-1.49A1.55,1.55,0,0,1,141.53,133.63Zm0-2.74a1.26,1.26,0,1,0,1.36,1.25A1.31,1.31,0,0,0,141.53,130.89Z"/><path class="cls-15" d="M141.53,133.08a.94.94,0,1,1,1-.94A1,1,0,0,1,141.53,133.08Zm0-1.64a.73.73,0,0,0-.76.7.76.76,0,0,0,1.52,0A.73.73,0,0,0,141.53,131.44Z"/><path class="cls-15" d="M141.53,132.73a.62.62,0,0,1-.64-.59.64.64,0,0,1,1.28,0A.62.62,0,0,1,141.53,132.73Zm0-.94a.37.37,0,0,0-.38.35.38.38,0,0,0,.76,0A.37.37,0,0,0,141.53,131.79Z"/><path class="cls-11" d="M144.49,128a3.4,3.4,0,1,0,0-6.78H131.13V128Z"/><path class="cls-12" d="M131.13,125.42V128h13.36a3.62,3.62,0,0,0,3.57-2.61Z"/><path class="cls-11" d="M134.8,124.64a3.68,3.68,0,1,1-3.67-3.39A3.54,3.54,0,0,1,134.8,124.64Z"/><path class="cls-13" d="M134.31,124.64a3.19,3.19,0,1,1-3.18-2.93A3.07,3.07,0,0,1,134.31,124.64Z"/><path class="cls-14" d="M131.13,127.25a2.62,2.62,0,1,1,2.83-2.61A2.73,2.73,0,0,1,131.13,127.25Zm0-5a2.43,2.43,0,1,0,2.62,2.42A2.53,2.53,0,0,0,131.13,122.22Z"/><path class="cls-14" d="M131.13,126.9a2.27,2.27,0,1,1,2.44-2.26A2.36,2.36,0,0,1,131.13,126.9Zm0-4.32a2.07,2.07,0,1,0,2.24,2.06A2.16,2.16,0,0,0,131.13,122.58Z"/><path class="cls-15" d="M131.13,126.42a1.78,1.78,0,1,1,1.92-1.78A1.86,1.86,0,0,1,131.13,126.42Zm0-3.36a1.58,1.58,0,1,0,1.71,1.58A1.65,1.65,0,0,0,131.13,123.06Z"/><path class="cls-15" d="M131.13,126.13a1.49,1.49,0,1,1,1.61-1.49A1.55,1.55,0,0,1,131.13,126.13Zm0-2.78a1.29,1.29,0,1,0,1.4,1.29A1.35,1.35,0,0,0,131.13,123.35Z"/><path class="cls-14" d="M131.13,125.87a1.23,1.23,0,1,1,1.33-1.23A1.29,1.29,0,0,1,131.13,125.87Zm0-2.26a1,1,0,1,0,1.12,1A1.08,1.08,0,0,0,131.13,123.61Z"/><path class="cls-15" d="M131.13,125.42a.78.78,0,1,1,.84-.78A.81.81,0,0,1,131.13,125.42Zm0-1.36a.58.58,0,1,0,.63.58A.61.61,0,0,0,131.13,124.06Z"/><path class="cls-15" d="M131.13,125.12a.48.48,0,1,1,.52-.48A.5.5,0,0,1,131.13,125.12Zm0-.77a.29.29,0,1,0,0,.58.29.29,0,1,0,0-.58Z"/><path class="cls-8" d="M101.43,127.22l.35.29h11.14a27.37,27.37,0,0,0,4.1-7.34c1.91-5.29-.32-10.29-3.18-12,.92,4.24.82,7.7-2.33,10.25,1.18-4.64.49-7.28-3.55-12.29-3.61-4.46-4.64-5.83-5.13-8.93-2.55,3.53-.63,8.2.39,9.93,1.88,3.19,1.68,8.11-.52,9.56-1.8,1.2-4.13.29-6.36-5.58C92.2,119,101.43,127.22,101.43,127.22Z"/><path class="cls-9" d="M103.61,127.51h6.93c2.48-2.47,4.35-6,4.41-9.1-.89,1.51-3.18,2.8-5.77,3.49,1.7-5.06,1.18-9-2.37-11.62,1.19,4.1-.07,8.07-1.63,9.23a5.45,5.45,0,0,1-6.51.47A17.19,17.19,0,0,0,103.61,127.51Z"/><path class="cls-8" d="M95.57,103.54c0,1.19,1.13,1.68,1.13,3.15a4,4,0,0,1-1,2.87c1.89-.75,2.81-1.51,3.25-2.41a4.74,4.74,0,0,0-.52-4.46c-.45-.66-.72-1.33-.27-1.92A2.73,2.73,0,0,0,95.57,103.54Z"/><path class="cls-8" d="M104.26,90.06a3.62,3.62,0,0,0-1.77,3.56c.17,2.59,2.47,3.21,3.28,4.78.75-2.33-1.55-3.11-1.51-5.37A4,4,0,0,1,106,89.62,4,4,0,0,0,104.26,90.06Z"/><path class="cls-8" d="M113.46,103.71c0,.61-.59.87-.59,1.63a2,2,0,0,0,.54,1.48,2.84,2.84,0,0,1-1.69-1.24,2.45,2.45,0,0,1,.27-2.31c.23-.35.37-.69.14-1A1.42,1.42,0,0,1,113.46,103.71Z"/><path class="cls-8" d="M141.71,128h18.15c4.33-6.11,5.8-14.91,3-21.41-.38,2-1.91,6-5.35,7.76,2.54-9.17-1-21.41-7.39-28.58.76,8.47-2.93,14.47-4.59,18.23s-4.46,6-1.91,16.47c-1.27-.35-3.18-4-4.08-10-.76,2.47-2.93,5.41-2.67,9.65C137.1,123.53,140.39,126.83,141.71,128Z"/><path class="cls-9" d="M159.91,117.28c-1.1,3.22-3.14,3.22-5.77,6.12-1.27-1.1-1.36-3.76-.6-7.06s.77-6.27-1.95-14.19c-1.44,4.47-4.67,5.88-5.69,11.21a21.9,21.9,0,0,0,1.36,12.79c-2.46-.24-4.33-1.57-6.2-2.91a7.74,7.74,0,0,0,2.78,4.79h13.29C159.62,124.82,160.88,121.46,159.91,117.28Z"/><path class="cls-8" d="M151.68,80.11c0,1,1,1.44,1,2.71a3.38,3.38,0,0,1-.89,2.47c1.63-.65,2.43-1.3,2.81-2.07a4.12,4.12,0,0,0-.45-3.84c-.39-.57-.62-1.15-.23-1.66A2.36,2.36,0,0,0,151.68,80.11Z"/><path class="cls-8" d="M140.68,104.05a2.35,2.35,0,0,1,1.15,2.3c-.12,1.68-1.6,2.07-2.12,3.09-.49-1.5,1-2,1-3.47a2.54,2.54,0,0,0-1.15-2.2A2.49,2.49,0,0,1,140.68,104.05Z"/><path class="cls-8" d="M161.39,101.15c.14.86,1.05,1.07,1.26,2.13a2.8,2.8,0,0,1-.35,2.19c1.27-.76,1.82-1.42,2-2.12a3.52,3.52,0,0,0-1-3.15c-.42-.42-.7-.87-.47-1.36A2,2,0,0,0,161.39,101.15Z"/><rect class="cls-16" x="72.39" y="79.54" width="110.68" height="0.21"/><path class="cls-17" d="M101.87,77.31a1,1,0,0,0-.48.18c-.35.28-.4.94-.4,1.5a5.34,5.34,0,0,0,.64,3,2.8,2.8,0,0,0,1.49.93c.51.16,1,.32,1.53.45a1.51,1.51,0,0,0,1.18,0,2.51,2.51,0,0,0,.83-1.47,8,8,0,0,0,.3-1.7,4.78,4.78,0,0,0-1.56-3.9C104.23,75.36,103.1,77,101.87,77.31Z"/><path class="cls-18" d="M140.75,62.33a2.07,2.07,0,0,0,.81-.68c.22-.39.21-.95.58-1.21a.93.93,0,0,1,1,.11,1.36,1.36,0,0,1,.57.81.94.94,0,0,1-.27.93,1.33,1.33,0,0,1,1.28,1.15.75.75,0,0,1-.5.88c-.34.06-.64-.25-1-.34a1.73,1.73,0,0,0-1.26.36c-.82.47-1.66.92-2.51,1.32a9.73,9.73,0,0,1-2.2.82,4.25,4.25,0,0,1-2.32-.1c-.37-.13-.77-.42-.74-.82.07-1.21,2.08-1.2,2.84-1.44A18.11,18.11,0,0,0,140.75,62.33Z"/><path class="cls-19" d="M144.71,63.44a1.33,1.33,0,0,0-1.28-1.15.94.94,0,0,0,.27-.93,1.36,1.36,0,0,0-.57-.81,1,1,0,0,0-.88-.17,1.42,1.42,0,0,1,.93,1,1,1,0,0,1-.28.93,1.33,1.33,0,0,1,1.28,1.15.83.83,0,0,1-.34.82.68.68,0,0,0,.37.06A.75.75,0,0,0,144.71,63.44Z"/><path class="cls-19" d="M142.7,64a1.73,1.73,0,0,0-1.26.36c-.82.47-1.65.92-2.51,1.32a9.73,9.73,0,0,1-2.2.82,7,7,0,0,1-.78.11,5.24,5.24,0,0,0,1.31-.11,9.73,9.73,0,0,0,2.2-.82c.85-.4,1.69-.85,2.51-1.32a2.7,2.7,0,0,1,.75-.35Z"/><path class="cls-20" d="M137.25,64.73a.27.27,0,0,0,.28.15.9.9,0,0,0,.32-.09l1-.43a16.31,16.31,0,0,0,1.62-.81,1.57,1.57,0,0,0,.67-.68s0-.1,0-.13-.16,0-.22,0a3.9,3.9,0,0,1-.63.51C139.89,63.52,137,64.16,137.25,64.73Z"/><path class="cls-20" d="M142,60.81c0,.14.09.27.1.41a.85.85,0,0,1-.09.31c0,.11,0,.25.07.3a.21.21,0,0,0,.19,0,.66.66,0,0,0,.44-.67.62.62,0,0,0-.11-.32C142.48,60.71,142.06,60.51,142,60.81Z"/><path class="cls-18" d="M149.7,72a2,2,0,0,0,.81-.68c.22-.39.21-1,.58-1.2a.9.9,0,0,1,1,.1,1.39,1.39,0,0,1,.57.81.94.94,0,0,1-.27.93,1.33,1.33,0,0,1,1.28,1.15.75.75,0,0,1-.5.88c-.34.06-.64-.25-1-.34a1.73,1.73,0,0,0-1.26.36c-.82.48-1.66.92-2.51,1.33a10.2,10.2,0,0,1-2.2.81,4.16,4.16,0,0,1-2.32-.1c-.37-.13-.77-.42-.74-.82.07-1.21,2.08-1.2,2.84-1.43A18.68,18.68,0,0,0,149.7,72Z"/><path class="cls-19" d="M153.66,73.13A1.33,1.33,0,0,0,152.38,72a.94.94,0,0,0,.27-.93,1.39,1.39,0,0,0-.57-.81,1,1,0,0,0-.88-.16,1.11,1.11,0,0,1,.35.16,1.45,1.45,0,0,1,.58.81,1,1,0,0,1-.28.93,1.35,1.35,0,0,1,1.29,1.15.85.85,0,0,1-.35.82.68.68,0,0,0,.37.06A.75.75,0,0,0,153.66,73.13Z"/><path class="cls-19" d="M151.65,73.67a1.73,1.73,0,0,0-1.26.36c-.82.48-1.65.92-2.51,1.33a10.2,10.2,0,0,1-2.2.81,5.23,5.23,0,0,1-.78.11,4.81,4.81,0,0,0,1.31-.11,10.2,10.2,0,0,0,2.2-.81c.85-.41,1.69-.85,2.51-1.33a3,3,0,0,1,.75-.35Z"/><path class="cls-21" d="M134.06,63.66a12.11,12.11,0,0,1,4.1-.7.94.94,0,0,1,.81.38,1.07,1.07,0,0,1,.06.59c-.21,2.46-.58,5.24-2.56,6.69a7.42,7.42,0,0,1-4.06,1.13,13.73,13.73,0,0,1-7.94-1.53,2.89,2.89,0,0,1-1.65-2.49c.18-1.84,2.88-2.79,4.4-3A52.88,52.88,0,0,0,134.06,63.66Z"/><path class="cls-22" d="M137.31,66.06a40.81,40.81,0,0,1-4.45-1,28.56,28.56,0,0,0-8.46-.46,32.31,32.31,0,0,0-10.32,2.31,20,20,0,0,0-8.39,6.4,12.93,12.93,0,0,0-2.6,6.61,8.68,8.68,0,0,0,2.22,6.62c1.87,1.94,4.63,2.66,7.27,3.1a54.48,54.48,0,0,0,14.37.5c4.14-.4,8.54-1.44,11.32-4.58a20.08,20.08,0,0,0,3.35-6.34l2.9-7.5a11.89,11.89,0,0,0,.9-3.18,4.08,4.08,0,0,0-.86-3.11,2.21,2.21,0,0,0-3.11-.29A6.38,6.38,0,0,1,137.31,66.06Z"/><path class="cls-23" d="M127.78,64.63q-1.05-.09-2.1-.12l-1.19.07a32.92,32.92,0,0,0-10.32,2.31,19.9,19.9,0,0,0-8.38,6.4,14.78,14.78,0,0,0-1.39,2.28c.86.22,2.14-1.2,2.64-1.62q2.22-1.86,4.37-3.81a6.1,6.1,0,0,1,2.26-1.52.65.65,0,0,1,.61,0c.35.28,0,.82-.32,1.12q-3.3,2.91-6.59,5.83c-.29.25-.61.58-.53,1a.74.74,0,0,0,.8.53,2,2,0,0,0,.94-.42c2.41-1.65,4.42-3.93,7-5.22a20.25,20.25,0,0,1,3.77-1.3,20.28,20.28,0,0,0,4.18-1.38,19.46,19.46,0,0,0,3.16-2.17l2-1.61A1.27,1.27,0,0,0,127.78,64.63Z"/><path class="cls-24" d="M145.42,68.6a4.08,4.08,0,0,0-.86-3.11,2.63,2.63,0,0,0-.63-.52c-.06.08-.18.16-.19.29,0,.48.78,1.31.51,2.63-.95,4.51-2.5,6-4.59,8.78a11.33,11.33,0,0,1-3.46,3.23,15.76,15.76,0,0,1-6.38,1.46L113,82.78a22.15,22.15,0,0,1-5,0,7.28,7.28,0,0,1-4.39-2.15,5.57,5.57,0,0,0-.59-.6,8.67,8.67,0,0,0,2.22,6.54c1.87,1.94,4.63,2.66,7.27,3.1a54.48,54.48,0,0,0,14.37.5c4.14-.4,8.54-1.44,11.32-4.58a20.08,20.08,0,0,0,3.35-6.34l2.9-7.5A11.89,11.89,0,0,0,145.42,68.6Z"/><path class="cls-25" d="M128.88,74.31A10,10,0,0,1,135,70.77c.43-.06,1,0,1.15.48s-.33,1-.75,1.18c-1.76,1-3.68,1.73-5,3.38a11,11,0,0,0-1.68,3.4c-.37,1.14-.54,2.88-1.19,3.84-.76,1.12-1.79-.23-1.85-1.3a9.89,9.89,0,0,1,.95-3.32A12.77,12.77,0,0,1,128.88,74.31Z"/><path class="cls-26" d="M116.12,86.4a29.32,29.32,0,0,0,3.69-3.7,3.34,3.34,0,0,0,.82-1.33,2.32,2.32,0,0,0-1.31-2.46,5.84,5.84,0,0,1-.74,1.9A5.54,5.54,0,0,1,116,82.5a26.42,26.42,0,0,0-4.6,2.52,10.37,10.37,0,0,0-1.81,1.51,1.59,1.59,0,0,0-.52,1.47,1,1,0,0,0,.69.61,2.52,2.52,0,0,0,.91.06c.42,0,.86,0,1.27,0a5.11,5.11,0,0,0,1.5-.55A13.31,13.31,0,0,0,116.12,86.4Z"/><path class="cls-17" d="M125.21,87.4a3.6,3.6,0,0,0,2.14,1.71,7.8,7.8,0,0,0,2.81,0c1.27-.15,2.53-.37,3.77-.64a7.93,7.93,0,0,0,1.18-.33,9.11,9.11,0,0,0,3.36-2.83,3.7,3.7,0,0,0,1.19-2.51.39.39,0,0,0-.06-.19.36.36,0,0,0-.3-.09c-3.59.12-7,1.75-10.59,1.78-.88,0-2.31-3.23-3-2.57S124,85.43,125.21,87.4Z"/><path class="cls-21" d="M105,87c-1.54,1.32-1.61,2.29-1.52,3.23s1,1.55,1.89,1.88a20,20,0,0,0,5.75,1c1.81.13,3.62.23,5.44.29a3,3,0,0,0,2.52-.78q3.9-2.93,7.59-6.1-3,1.56-6,3a4.46,4.46,0,0,1-1.55.49,5.18,5.18,0,0,1-2.48-.71,20.52,20.52,0,0,0-5.12-1.58l7.4-5.53a2.61,2.61,0,0,0,1.25-1.64,2,2,0,0,0-.91-1.68,6.34,6.34,0,0,0-5.36-1.41c-2.87.49-3.72,1.86-4.79,3.51C107.63,83.27,107.15,85.18,105,87Z"/><path class="cls-25" d="M126.71,86.52c-.95.5-1.9,1-2.85,1.46-.13.12-.25.23-.36.35a13.31,13.31,0,0,1-4.66,3.23,4.12,4.12,0,0,1-1.7.25,6.44,6.44,0,0,1-1.74-.52,24.19,24.19,0,0,0-9.17-1.63,3.82,3.82,0,0,1-2-.3,1.83,1.83,0,0,1-.53-.74,3.05,3.05,0,0,0-.19,1.58c.08.94,1,1.55,1.89,1.88a20,20,0,0,0,5.75,1c1.81.13,3.62.23,5.44.29a4.1,4.1,0,0,0,1.44-.13,4.25,4.25,0,0,0,1.08-.65C121.71,90.67,124.25,88.63,126.71,86.52Z"/><path class="cls-25" d="M111.78,87.71l-.23,0,7.4-5.53a2.61,2.61,0,0,0,1.25-1.64,2,2,0,0,0-.91-1.68,6.53,6.53,0,0,0-3.21-1.46.34.34,0,0,0-.25.2A.42.42,0,0,0,116,78a2.9,2.9,0,0,0,.41.27,1.92,1.92,0,0,1,.69,2A4.18,4.18,0,0,1,116,82.22a12.47,12.47,0,0,1-4,2.87A8.15,8.15,0,0,0,108.89,87a.56.56,0,0,0-.17.46c.07.26.39.31.65.3h1.43C111.08,87.69,111.46,87.75,111.78,87.71Z"/><path class="cls-26" d="M142.48,72.56a7.15,7.15,0,0,0,2.76-3.08q-.7,2.33-1.4,4.64c-.09.29-.21.61-.48.71a1.07,1.07,0,0,1-.68-.07,7.41,7.41,0,0,0-1.32-.21l-1.85-.18c-.58-.06-.61-.21-.07-.45A21.71,21.71,0,0,0,142.48,72.56Z"/><path class="cls-21" d="M129.28,77.29c-2.18,1.46-4.19,3.85-3.79,6.48a5.29,5.29,0,0,0,3.81,4.08,8.28,8.28,0,0,0,5.69-.66,22.4,22.4,0,0,0,4.83-3.34q3.84-3.22,7.45-6.74c.41-.4.85-1,.61-1.49-1,.17-1.81-.93-2.75-1.42a4.45,4.45,0,0,0-1.68-.4A22.52,22.52,0,0,0,129.28,77.29Z"/><path class="cls-25" d="M147.88,75.58a2.23,2.23,0,0,1-1.71-.68,35.06,35.06,0,0,0-4.61,3.1,30,30,0,0,1-13.35,5.27,4.07,4.07,0,0,1-2.08-.06c-.28-.11-.48-.29-.69-.39a4.08,4.08,0,0,0,0,.92,5.29,5.29,0,0,0,3.82,4.07,8.29,8.29,0,0,0,5.69-.66,22.65,22.65,0,0,0,4.82-3.33q3.84-3.24,7.45-6.75C147.67,76.67,148.12,76.11,147.88,75.58Z"/><path class="cls-27" d="M128.94,66.13a1.64,1.64,0,0,0-.41.53.66.66,0,0,0,.06.64.74.74,0,0,0,.38.22,5.67,5.67,0,0,0,2.46,0,8.85,8.85,0,0,1,5,.77c.53.27,1,.61,1.57.84a3.61,3.61,0,0,0,2.81.07,2.66,2.66,0,0,0,1.61-2.26.75.75,0,0,0-.06-.39.69.69,0,0,0-.55-.36,2,2,0,0,0-.68.09,12.48,12.48,0,0,1-3.78.5,12.18,12.18,0,0,1-2.46-.49L133,65.76a10.94,10.94,0,0,0-1.7-.36A2.49,2.49,0,0,0,128.94,66.13Z"/><path class="cls-27" d="M109.8,80.21a.71.71,0,0,0,.56.47,2.11,2.11,0,0,0,.75,0,27.76,27.76,0,0,0,4-1,2.76,2.76,0,0,0,1.27-.74,1.12,1.12,0,0,0,.13-1.38,1.48,1.48,0,0,0-1.13-.43,7.47,7.47,0,0,0-3.87.67,2.76,2.76,0,0,0-.8.76C110.4,79,109.66,79.62,109.8,80.21Z"/><path class="cls-20" d="M146.2,74.42a.3.3,0,0,0,.28.16.92.92,0,0,0,.32-.1l.95-.43a12.88,12.88,0,0,0,1.62-.81,1.55,1.55,0,0,0,.67-.67.14.14,0,0,0,0-.14c0-.07-.16,0-.22,0a3.43,3.43,0,0,1-.63.51C148.84,73.21,146,73.85,146.2,74.42Z"/><path class="cls-20" d="M150.94,70.5c0,.14.09.27.1.41a1,1,0,0,1-.09.32.27.27,0,0,0,.07.3.31.31,0,0,0,.19,0,.67.67,0,0,0,.44-.67.62.62,0,0,0-.11-.33C151.43,70.4,151,70.2,150.94,70.5Z"/><path class="cls-28" d="M114.6,67.5a.48.48,0,0,0-.08.28.49.49,0,0,0,.49.38c.23,0,.45-.06.67,0a5,5,0,0,1,1,.41,2.37,2.37,0,0,0,1.52-.18c2.3-.88,4.42-2.39,6.87-2.6a.91.91,0,0,0,.49-.14.29.29,0,0,0,0-.44.39.39,0,0,0-.32,0c-1.95.31-3.9.62-5.85,1l-2.9.5C115.86,66.72,115,66.78,114.6,67.5Z"/><path class="cls-28" d="M127.28,80.55a1.08,1.08,0,0,0,0,.71.87.87,0,0,0,.88.47,2,2,0,0,0,1-.42c1.57-1.15,2.45-3.16,4.17-4.06.58-.3,1.3-.52,1.58-1.13a1.6,1.6,0,0,0-1.25,0C131.6,76.85,127.87,78.07,127.28,80.55Z"/><path class="cls-28" d="M137.34,75.71a20.92,20.92,0,0,1,2.25-.25.74.74,0,0,0,.43-.19.32.32,0,0,0,0-.44.46.46,0,0,0-.2-.09,2.62,2.62,0,0,0-.79,0c-.83,0-2.58-.09-3.22.58a.52.52,0,0,0,.07.86C136.28,76.33,137,75.83,137.34,75.71Z"/><path class="cls-28" d="M104.74,88.11a.4.4,0,0,0-.18.29c0,.13.13.24.25.3a1.4,1.4,0,0,0,1.37-.1c.63-.42.82-1.25,1.15-1.93a12.13,12.13,0,0,1,1.58-2.2A4.37,4.37,0,0,0,110,82c-.62,0-1,.69-1.25,1.25A17.07,17.07,0,0,1,104.74,88.11Z"/></g></svg>