<svg id="圖層_1" data-name="圖層 1" xmlns="http://www.w3.org/2000/svg" viewBox="0 0 82.91 217.35"><defs><style>.cls-1{fill:#eba186;}.cls-2{fill:#4d3931;}.cls-3{fill:#382723;}.cls-4{fill:#d97358;}.cls-5{fill:#07191d;}.cls-6{fill:#f0e6dc;}.cls-7{fill:#fffffd;}.cls-8{fill:#fff;}.cls-9{fill:#323b4c;}.cls-10{fill:#3d485f;}.cls-11{fill:#7c494a;}.cls-12{fill:#eba084;}.cls-13{fill:#ac332d;}.cls-14{fill:#c2863a;}.cls-15{fill:#d25949;}</style></defs><path class="cls-1" d="M55.75,26.43c.06,5.13,1.76,8.93-7.67,13.37,5.61,7.73,11.14,10.58,11.14,10.58s11.83-5.33,15.9-8.85C73,40,70.79,38.84,68.84,37.47c-3.85-2.71-1.58-8.72-2.33-10.94Z" transform="translate(-12.28 -1)"/><path class="cls-1" d="M58,31.81c2.13,1.32,4.56.91,7,.13,2.7-.86,7.09-8.7,5.44-18.36S58,2.67,53.69,9.24C49.81,15.17,52.46,28.36,58,31.81Z" transform="translate(-12.28 -1)"/><path class="cls-2" d="M55.27,13.38c.29-.06.16-.56.32-.8.46-.73,1.57-.56,2.32-1,.51-.28,1-.85,1.53-.69s.65.61,1.08.65.75-.33,1.11-.21.73,1.28,2.25.77c2.47-.84,4.07.06,4.32.6a26.91,26.91,0,0,1,2.22,9.67l2.64-8a6.78,6.78,0,0,0-1.17-3.31c-1.5-1.57,1.28-3-1.12-5.95-1.85-1.44-2.86-1.91-3.87-1.08a3,3,0,0,0-3.13-2.55C60.89,1.8,61.68,0,58,1.84c-.64.32-2.56,1.22-2.82,2.12s.71,1.93-1,2.4C53.38,6.26,48,7.55,51.56,19c.18.59.91,3.53,1.13,4.09C51.92,17.64,54.43,13.55,55.27,13.38Z" transform="translate(-12.28 -1)"/><path class="cls-3" d="M57.2,10.19c-.56-1.26-1.17-2.9-2.58-3.34-.62-.19.79-1.09,2.27,1.87-.24-.87-2-3.34-1.31-3.43a.16.16,0,0,1,.18.14,4.63,4.63,0,0,0,.75,1.75C57.49,8.81,57.35,9.2,57.2,10.19Z" transform="translate(-12.28 -1)"/><path class="cls-3" d="M63.43,10.59c1.58-.95,3.82-4.1,3.25-5.88-.21-.64,1.42.1-.46,3.25C64.11,11.49,62.9,10.91,63.43,10.59Z" transform="translate(-12.28 -1)"/><path class="cls-3" d="M54.1,10.57a12.54,12.54,0,0,0-1.81-1,.16.16,0,0,1-.07-.22.17.17,0,0,1,.22-.08,8.2,8.2,0,0,1,1.91,1c.42.46.56,2.2.27,2.22S54.53,11,54.1,10.57Z" transform="translate(-12.28 -1)"/><path class="cls-3" d="M61.93,6.29c1-1.2,1.83-2.75,1.06-4.11A.16.16,0,0,1,63.05,2c.45-.25,1.3,2-.87,4.54a.16.16,0,1,1-.25-.21Z" transform="translate(-12.28 -1)"/><path class="cls-3" d="M59.12,10.26a2.37,2.37,0,0,0,0-3.21.16.16,0,0,1,0-.23h0c.45-.43,1.71,2.06.29,3.66a.17.17,0,0,1-.24,0,.16.16,0,0,1,0-.23Z" transform="translate(-12.28 -1)"/><path class="cls-3" d="M62.57,8.17a.16.16,0,0,1,.26.2h0c-.41.56-1.17,1.53-.84,2.49C62.19,11.44,60.56,10.89,62.57,8.17Z" transform="translate(-12.28 -1)"/><path class="cls-3" d="M68.87,13.53c.82-1,1.95-2.43,1.74-4-.09-.68,1.66.39-1.48,4.25a.18.18,0,0,1-.24,0A.17.17,0,0,1,68.87,13.53Z" transform="translate(-12.28 -1)"/><path class="cls-3" d="M68.46,8.26c.36-.46,1.47-1.76.74-2.79-.45-.64,1.85,0-.48,3a.16.16,0,0,1-.23,0A.17.17,0,0,1,68.46,8.26Z" transform="translate(-12.28 -1)"/><path class="cls-3" d="M61.77,6.34a3.85,3.85,0,0,0-.35-2.43.16.16,0,0,1,.08-.22.17.17,0,0,1,.22.07,4.15,4.15,0,0,1,.37,2.64.16.16,0,0,1-.32-.06Z" transform="translate(-12.28 -1)"/><path class="cls-3" d="M52.24,16.14A.16.16,0,0,1,52.1,16h0a2.41,2.41,0,0,0-.84-2.22.16.16,0,0,1,0-.23.16.16,0,0,1,.22,0C52.63,14.42,52.63,16.19,52.24,16.14Z" transform="translate(-12.28 -1)"/><path class="cls-3" d="M72,14a.16.16,0,0,1,0,.23h0A3.22,3.22,0,0,0,70.66,17a.18.18,0,0,1-.16.18C69.68,17.2,71.42,13.26,72,14Z" transform="translate(-12.28 -1)"/><path class="cls-1" d="M71.77,17.87c-1.88-.47-1.83,3.42-1.76,5.35C70.16,27,74.73,18.61,71.77,17.87Z" transform="translate(-12.28 -1)"/><path class="cls-4" d="M71.45,19.79a.14.14,0,0,0-.18-.09.14.14,0,0,0-.08.18c.37,1.05.07,1.69-.36,1.95a.15.15,0,0,0,0,.2C71.05,22.46,72,21.29,71.45,19.79Z" transform="translate(-12.28 -1)"/><path class="cls-1" d="M51.05,18.68c1.84-.62,2.12,3.25,2.2,5.18C53.42,27.66,48.17,19.66,51.05,18.68Z" transform="translate(-12.28 -1)"/><path class="cls-4" d="M51.53,20.56a.14.14,0,0,1,.17-.1.15.15,0,0,1,.1.17c-.28,1.08.07,1.7.52,1.92a.14.14,0,0,1,.06.19C52.15,23.2,51.12,22.11,51.53,20.56Z" transform="translate(-12.28 -1)"/><path class="cls-3" d="M65.77,19.76c.61,0,1-2.35-.48-2.29C64.5,17.5,64.78,19.81,65.77,19.76Z" transform="translate(-12.28 -1)"/><path class="cls-3" d="M56.75,20.23c-.61,0-1.18-2.27.3-2.33C57.83,17.87,57.74,20.19,56.75,20.23Z" transform="translate(-12.28 -1)"/><path class="cls-4" d="M66.45,30.57a.18.18,0,0,0-.25,0c-1.59,2.07-7.22,2.77-9.93-.18a.16.16,0,0,0-.24,0,.17.17,0,0,0,0,.22C60,35,67.45,31.34,66.45,30.57Z" transform="translate(-12.28 -1)"/><path class="cls-2" d="M63.55,16.35c.14.07,4.82.42,4.9.4,1.13-.38-2.87-2-4.84-1.12C63.36,15.74,63.29,16.22,63.55,16.35Z" transform="translate(-12.28 -1)"/><path class="cls-2" d="M59,15.49c-2-.79-5.73,1-4.78,1.34.29,0,4.81-.58,4.87-.62a.44.44,0,0,0,0-.61A.49.49,0,0,0,59,15.49Z" transform="translate(-12.28 -1)"/><path class="cls-4" d="M62.43,23.67c0-.26-.39-.26-.66-.31-1-.18-1,.31-.75-3.92.06-.83.18-1.27-.11-1.28s-.19.31-.26,1.25c-.31,4.6-.35,4,1.56,4.41A.19.19,0,0,0,62.43,23.67Z" transform="translate(-12.28 -1)"/><path class="cls-4" d="M64.29,27.18c.22-.43-.43-.28-5.51-.6C57.65,26.51,61.64,32.33,64.29,27.18Z" transform="translate(-12.28 -1)"/><path class="cls-1" d="M44.44,209.65a4.86,4.86,0,0,1-6,.26l.34-11.8,7.61.22Z" transform="translate(-12.28 -1)"/><path class="cls-5" d="M37.47,217.1c.79.58.68.42,17.91,1.24,3.45.17,3.61-1.61,1.82-2.72-2.72-1.7-12.55-7.13-13.17-6.77-1.76,1-2.66,1.21-5.43.83C38.15,209.61,35.09,215.37,37.47,217.1Z" transform="translate(-12.28 -1)"/><path class="cls-6" d="M48,211a5.51,5.51,0,0,1-2.31,1.77Z" transform="translate(-12.28 -1)"/><path class="cls-7" d="M45.72,213a.23.23,0,0,1-.23-.23.22.22,0,0,1,.14-.21,5.17,5.17,0,0,0,2.22-1.7.22.22,0,0,1,.32,0,.22.22,0,0,1,0,.3,5.56,5.56,0,0,1-2.41,1.85Z" transform="translate(-12.28 -1)"/><path class="cls-6" d="M49.73,212c0,.7-1.35,1.56-2,1.85Z" transform="translate(-12.28 -1)"/><path class="cls-7" d="M47.72,214.06a.22.22,0,0,1-.22-.23.23.23,0,0,1,.13-.21c.8-.36,1.9-1.15,1.87-1.62a.23.23,0,0,1,.2-.25.21.21,0,0,1,.25.2v0C50,213,47.84,214,47.82,214Z" transform="translate(-12.28 -1)"/><path class="cls-6" d="M51.53,213a3.61,3.61,0,0,1-2.2,1.71Z" transform="translate(-12.28 -1)"/><path class="cls-7" d="M49.36,214.93a.22.22,0,0,1-.22-.13.21.21,0,0,1,.1-.28h0a3.46,3.46,0,0,0,2.07-1.58.24.24,0,0,1,.3-.13.23.23,0,0,1,.12.3,3.8,3.8,0,0,1-2.28,1.82A.17.17,0,0,1,49.36,214.93Z" transform="translate(-12.28 -1)"/><path class="cls-7" d="M53.45,217.25h-.62c-.21,0-.4,0-.58,0A.22.22,0,0,1,52,217a.24.24,0,0,1,.23-.23h.58c1.46,0,3.13.05,3.39-1.14a.23.23,0,0,1,.44.1C56.38,217.1,54.87,217.25,53.45,217.25Z" transform="translate(-12.28 -1)"/><path class="cls-8" d="M72.64,213.82a6.11,6.11,0,0,0,0,1.54,2,2,0,0,0,.64,1.27,2.49,2.49,0,0,0,1.31.53c.47.06,1,.06,1.54.09l6.28.32c2.09.15,4.17.24,6.26.35,1,.05,2.09.1,3.13.09a10,10,0,0,0,1.55-.06l.17,0,.15-.07a2.18,2.18,0,0,0,.28-.25.89.89,0,0,0,.3-.66h0a1,1,0,0,1-.26.73,1.85,1.85,0,0,1-.28.28,1,1,0,0,1-.37.16,10.31,10.31,0,0,1-1.57.16c-1,0-2.09,0-3.14,0-2.1-.05-4.19-.14-6.29-.25s-4.18-.26-6.27-.42c-.53-.05-1-.06-1.57-.16a2.74,2.74,0,0,1-1.43-.64,2.25,2.25,0,0,1-.62-1.43,6,6,0,0,1,.12-1.57Z" transform="translate(-12.28 -1)"/><polygon class="cls-1" points="68.22 208.49 62.19 209.07 61.12 197.87 68.49 198.08 68.22 208.49"/><path class="cls-5" d="M73.42,217c.79.58.67.42,17.91,1.24,3.45.16,3.6-1.62,1.81-2.73-2.71-1.69-12.54-7.13-13.16-6.76-1.77,1-2.66,1.21-5.43.82C74.09,209.52,71,215.28,73.42,217Z" transform="translate(-12.28 -1)"/><path class="cls-8" d="M81.66,212.86a.23.23,0,0,1-.23-.22.23.23,0,0,1,.15-.21,5.24,5.24,0,0,0,2.22-1.7.23.23,0,0,1,.36.27,5.78,5.78,0,0,1-2.41,1.85Z" transform="translate(-12.28 -1)"/><path class="cls-8" d="M83.67,214a.22.22,0,0,1-.09-.43c.8-.36,1.9-1.15,1.87-1.63a.23.23,0,0,1,.45-.05v0c.07,1.06-2.12,2.06-2.14,2.07A.15.15,0,0,1,83.67,214Z" transform="translate(-12.28 -1)"/><path class="cls-8" d="M85.31,214.84a.22.22,0,0,1-.22-.13.21.21,0,0,1,.09-.28h0a3.55,3.55,0,0,0,2.08-1.58.22.22,0,0,1,.29-.13.23.23,0,0,1,.13.3,3.83,3.83,0,0,1-2.29,1.81A.15.15,0,0,1,85.31,214.84Z" transform="translate(-12.28 -1)"/><path class="cls-8" d="M89.4,217.16h-.63c-.2,0-.39,0-.57,0a.23.23,0,0,1-.23-.23.24.24,0,0,1,.24-.23h.57c1.47,0,3.13.05,3.39-1.14a.23.23,0,0,1,.27-.17.23.23,0,0,1,.18.27C92.32,217,90.81,217.16,89.4,217.16Z" transform="translate(-12.28 -1)"/><path class="cls-9" d="M40.56,94.72C40.44,97,35,207.34,37.17,207.55c1.16.11,8.93.69,9.19-.48,9.25-42.13,13.56-83.28,13.56-83.28,2.6,16.53,2.6,33.39,5.11,49.94.93,6.2,7,32.91,8,33.12,1.64.35,9,1.1,9-.41,0-9.5-.9-111.71-.9-111.71Z" transform="translate(-12.28 -1)"/><path class="cls-10" d="M59.84,119.53h0a.23.23,0,0,1-.2-.25,65.66,65.66,0,0,0,.3-16c-.24-2.4-.37-3.72.6-5.47a.22.22,0,0,1,.31-.07.23.23,0,0,1,.09.29c-.91,1.62-.79,2.82-.55,5.2a65.76,65.76,0,0,1-.29,16.12A.24.24,0,0,1,59.84,119.53Z" transform="translate(-12.28 -1)"/><path class="cls-10" d="M74,205.41a.23.23,0,0,1-.22-.17c-6-23.54-7.77-43.7-9-58.43-.83-9.66-1.42-16.64-2.88-20.74a.23.23,0,1,1,.43-.15h0c1.48,4.16,2.07,11.16,2.9,20.85,1.25,14.71,3,34.85,9,58.35a.23.23,0,0,1-.16.28H74Z" transform="translate(-12.28 -1)"/><path class="cls-10" d="M79.27,112.46a.23.23,0,0,1-.14,0c-5.5-4-5.51-5.55-5.58-12.77,0-.83,0-1.75,0-2.76a.23.23,0,0,1,.24-.22.22.22,0,0,1,.21.21c0,1,0,1.93,0,2.77.07,7.2.08,8.49,5.4,12.4a.24.24,0,0,1,0,.32A.21.21,0,0,1,79.27,112.46Z" transform="translate(-12.28 -1)"/><path class="cls-10" d="M41.79,109.42a.23.23,0,0,1-.23-.22.25.25,0,0,1,.13-.21c5.91-2.93,6.15-4.21,7.46-11.29.15-.82.31-1.73.51-2.72a.23.23,0,0,1,.26-.18.23.23,0,0,1,.18.27c-.19,1-.36,1.89-.51,2.72-1.32,7.1-1.58,8.57-7.7,11.6A.17.17,0,0,1,41.79,109.42Z" transform="translate(-12.28 -1)"/><path class="cls-10" d="M59.75,123c-.19,0-.3-.18-.53-.55-.53-.85-1.63-2.61-3.6-2.07a.22.22,0,0,1-.12-.43c2.29-.64,3.56,1.4,4.11,2.27l.07.12a3.55,3.55,0,0,1,2.81-2.24.22.22,0,0,1,.25.19h0a.22.22,0,0,1-.19.25A3.1,3.1,0,0,0,60,122.76a.3.3,0,0,1-.23.24Z" transform="translate(-12.28 -1)"/><path class="cls-10" d="M62,110.41l-.46,0a3.62,3.62,0,0,0-1,0,.21.21,0,0,1-.26-.17.22.22,0,0,1,.17-.27,3.83,3.83,0,0,1,1.17,0c.46,0,.74.06,1-.15.79-.67,1.24-3.91,1.67-11.94a.23.23,0,0,1,.24-.22.22.22,0,0,1,.21.24c-.51,9.48-1,11.57-1.82,12.27A1.3,1.3,0,0,1,62,110.41Z" transform="translate(-12.28 -1)"/><rect class="cls-11" x="28.28" y="94.63" width="40.57" height="4.43"/><path class="cls-12" d="M92.16,107c-2.17.74-5,1.12-6.26.7,2,7.85,1.15,3.67,1.08,6.66,0,1.69-1.29,7.92.07,8.84,1,.69,1.41-2.15,1.79-3.86.52-2.37,4.38,1.1,2.09,6.55-.23.54-1.57,3.11.14,4,3.3-4.38,4.81-11.74,1.16-17.4C91.86,111.92,92,111.88,92.16,107Z" transform="translate(-12.28 -1)"/><path class="cls-13" d="M93.23,112c.45-.07.36-.55.4-1.45-2.55.75-7.86.43-7.86.43C86.1,112.14,85.34,113.26,93.23,112Z" transform="translate(-12.28 -1)"/><path class="cls-9" d="M52.31,100.8c-.17,0-.1-6.58-.1-6.42,0-.18,1.23-.11,1.07-.11.17,0,.1,6.58.1,6.43C53.38,100.88,52.15,100.8,52.31,100.8Z" transform="translate(-12.28 -1)"/><path class="cls-9" d="M71.19,100.8c-.17,0-.11-6.58-.11-6.42,0-.18,1.23-.11,1.07-.11.17,0,.11,6.58.11,6.43C72.26,100.88,71,100.8,71.19,100.8Z" transform="translate(-12.28 -1)"/><path class="cls-14" d="M60.09,100.67c-2.18,0-2.77-.07-3.12-.43a1,1,0,0,1-.27-.8c0-.8,0-1.48,0-2,0-2.14,0-2.86.39-3.28a1.08,1.08,0,0,1,.82-.29l4.72,0c4,0,4.78,0,5.23.41a1,1,0,0,1,.27.81c0,.79,0,1.47,0,2,0,2.13,0,2.85-.39,3.28a1.12,1.12,0,0,1-.82.29l-4.72,0Zm4.69-6H62.63l-4.73,0a.57.57,0,0,0-.18,0,9.27,9.27,0,0,0-.13,2.63c0,.58,0,1.26,0,2.06a.55.55,0,0,0,0,.18,23.24,23.24,0,0,0,4.57.13l4.73,0a.55.55,0,0,0,.18,0,9.28,9.28,0,0,0,.13-2.63c0-.58,0-1.26,0-2.06a.61.61,0,0,0,0-.19A9.33,9.33,0,0,0,64.78,94.69Z" transform="translate(-12.28 -1)"/><path class="cls-15" d="M74.15,49.08c-.59,12.34,1.93,20,11.62,61.94a14.45,14.45,0,0,0,7.86-.43c2.54-.62,2.87-67-12.4-68.39C78.31,41.93,74.29,46.3,74.15,49.08Z" transform="translate(-12.28 -1)"/><path class="cls-13" d="M88.92,111.6a15.6,15.6,0,0,1-3.19-.36l-.15,0,0-.14C83.92,104,82.49,98,81.24,92.6c-6.16-26.2-7.81-33.24-7.31-43.53.07-1.59,1.36-3.73,3.19-5.33A5.85,5.85,0,0,1,81.25,42c9.22.85,12.31,24,13.33,37.71,1.1,14.75.64,30.75-.9,31.12A17.83,17.83,0,0,1,88.92,111.6Zm-3-.78c3.06.61,4.61.34,7.61-.44,1.42-.85,2.3-31-2.29-51.26-2.43-10.68-5.81-16.3-10.08-16.69a5.52,5.52,0,0,0-3.79,1.66c-1.71,1.49-3,3.55-3,5l-.23,0,.23,0c-.5,10.22,1.16,17.25,7.3,43.4C82.93,97.81,84.34,103.82,86,110.82Z" transform="translate(-12.28 -1)"/><path class="cls-7" d="M67.16,35.44c-2.83,2.56-9.83,2.68-12.64-.26-3,1.49-12.79,4.56-14.73,5.91-4.46,3.12-5.63,49,.77,53.64,15.57,1.18,24.7,5,40.4,3.17,9.65-2.63,1.78-55,1.66-55.44C82.61,42.41,67.21,35.46,67.16,35.44Z" transform="translate(-12.28 -1)"/><path class="cls-6" d="M72.78,98.6a107,107,0,0,1-17.56-1.78c-4.51-.71-9.17-1.45-14.68-1.87h-.06l0,0c-3.5-2.53-4.64-16.24-4.55-28.23.1-11.56,1.42-24.12,3.78-25.77,1.1-.77,4.65-2.06,8.07-3.31,2.77-1,5.39-2,6.69-2.62l.15-.08.11.12c2.83,2.95,9.66,2.67,12.33.25l.11-.1.13,0L75,38.73c7.8,3.54,7.8,3.54,7.84,3.67.14.52,8.16,53-1.82,55.72A70.89,70.89,0,0,1,72.78,98.6ZM40.64,94.5c5.5.42,10.15,1.16,14.65,1.88,8,1.26,15.53,2.46,25.65,1.29,9.12-2.49,1.89-52.52,1.48-55.06C81.21,42,68.63,36.34,67.2,35.7c-2.84,2.42-9.73,2.7-12.73-.24-1.36.66-3.9,1.59-6.59,2.57-3.4,1.24-6.91,2.52-8,3.25-1.94,1.35-3.48,12.28-3.59,25.4-.11,14.84,1.58,25.73,4.31,27.83Z" transform="translate(-12.28 -1)"/><path class="cls-15" d="M46.86,68.35c.09,7.16,2.92,14.23,2,21.32C44.23,123,46.2,126,44.05,126c-12.61.2-12.43.46-12.78-.5-2.65-7.35-15.94-67.4,8.33-84.33,2.61-1.82,9.86-4.37,10-3.78C51.69,45.79,46.77,60,46.86,68.35Z" transform="translate(-12.28 -1)"/><path class="cls-13" d="M33.69,126.43c-2.33,0-2.4-.18-2.63-.81-1.5-4.19-5.35-21.22-5.95-38.66C24.56,71,26.61,50,39.47,41c2.46-1.72,9.27-4.2,10.15-3.87a.28.28,0,0,1,.2.22c1.27,5.07,0,12.12-1.21,18.94a71.15,71.15,0,0,0-1.52,12,57.25,57.25,0,0,0,1.07,9c.71,4.06,1.44,8.26.87,12.4-2.31,16.8-3,25.88-3.29,30.76s-.41,5.76-1.69,5.78l-6.5.13C35.83,126.41,34.59,126.43,33.69,126.43ZM49.34,37.55a32.71,32.71,0,0,0-9.61,3.83C27,50.23,25,71,25.57,86.94c.6,17.39,4.42,34.36,5.92,38.5.21.59.21.6,6.06.48,1.66,0,3.78-.09,6.5-.13.83,0,.9-.54,1.24-5.36s1-14,3.29-30.79c.56-4.08-.16-8.24-.86-12.26a56.94,56.94,0,0,1-1.08-9,71.85,71.85,0,0,1,1.52-12.13c1.21-6.73,2.45-13.69,1.24-18.67Z" transform="translate(-12.28 -1)"/><polygon class="cls-12" points="19.71 95.78 27.61 104.06 32.54 99.88 25.52 89.74 19.71 95.78"/><path class="cls-15" d="M12.86,81.26c5.37,8.71,17.06,23.8,22.91,19.81,4.12-1.89,2.92-3,6-5.11,3.81-2.66-5.23-10.89-10.38-17.12-1-1.2-.45-1.53.49-3C40,63.6,40.24,40.78,40.24,40.78a13.33,13.33,0,0,0-7.38,3.66C30.46,46.84,9.48,75.76,12.86,81.26Z" transform="translate(-12.28 -1)"/><path class="cls-13" d="M33.58,102a5,5,0,0,1-1.16-.13c-6.52-1.38-15.77-14-19.75-20.45-3.54-5.75,18.06-35.12,20-37.09a13.59,13.59,0,0,1,7.5-3.72l.27-.06v.28c0,.23-.35,23-8.41,35.23-.13.21-.26.39-.37.55-.68,1-.86,1.24-.12,2.14,1.08,1.3,2.3,2.67,3.6,4.11,3.95,4.4,8,9,7.71,11.71a2.2,2.2,0,0,1-1,1.62,8.71,8.71,0,0,0-2.28,2.25,7.78,7.78,0,0,1-3.74,2.88A3.92,3.92,0,0,1,33.58,102ZM40,41.06a13,13,0,0,0-7,3.54c-2.72,2.73-23.2,31.29-20,36.54C17,87.55,26.15,100,32.52,101.38a3.9,3.9,0,0,0,3.12-.5,7.53,7.53,0,0,0,3.61-2.77,9.13,9.13,0,0,1,2.38-2.34,1.78,1.78,0,0,0,.8-1.3c.29-2.55-3.72-7-7.6-11.35-1.3-1.45-2.53-2.82-3.61-4.14-1-1.16-.59-1.7.09-2.67l.37-.55C39.18,64.41,39.94,43.71,40,41.06Z" transform="translate(-12.28 -1)"/><path class="cls-15" d="M75.62,89.65c-.93,7.68,1.23,15.36,1.75,23.07.86,12.73-.43,14.24,2,14.69S91,128.61,91,126.27c-.4-22.18,1.48-76.89-8.34-83.8-8.38-3.83-8.58-4-8.51-3.72C82.53,74.29,78.84,63.28,75.62,89.65Z" transform="translate(-12.28 -1)"/><path class="cls-13" d="M85.53,128.1a41,41,0,0,1-6.16-.47c-1.8-.33-1.81-1.18-1.86-5.29,0-2.2-.07-5.2-.37-9.6-.18-2.66-.56-5.37-.93-8-.7-5-1.42-10.08-.81-15.12.89-7.25,1.82-11.74,2.5-15,1.81-8.72,2.09-10.06-4-35.8a.3.3,0,0,1,.08-.32c.19-.16.19-.16,3.48,1.36l5.27,2.42c8.34,5.86,8.37,44.94,8.39,70.8,0,5.13,0,9.56.08,13.2a1.13,1.13,0,0,1-.43.89C89.9,127.88,87.76,128.1,85.53,128.1ZM75.62,89.65l.23,0c-.61,5,.11,10.08.81,15,.37,2.63.75,5.34.93,8,.3,4.41.34,7.43.37,9.62.06,4.14.11,4.6,1.5,4.86,2.09.38,9.38,1,11-.38a.68.68,0,0,0,.27-.54c-.06-3.64-.07-8.07-.07-13.2,0-25.77-.06-64.71-8.17-70.42-2.3-1-4-1.83-5.23-2.4-1.55-.72-2.46-1.13-2.87-1.3,6.06,25.59,5.77,27,4,35.74-.68,3.28-1.61,7.76-2.49,15Z" transform="translate(-12.28 -1)"/><path class="cls-13" d="M25.6,80.63a.23.23,0,0,1-.23-.23.28.28,0,0,1,0-.13c1-1.5,2.61-3.39,4.65-2.65a13.82,13.82,0,0,0-2.92-4.53.22.22,0,0,1,0-.32.23.23,0,0,1,.32,0c1.52,1.56,3.39,4.62,3,5.2a.35.35,0,0,1-.45.1c-1.37-.56-2.71.22-4.22,2.45A.26.26,0,0,1,25.6,80.63Z" transform="translate(-12.28 -1)"/><path class="cls-13" d="M37,107.59a.23.23,0,0,1-.23-.23.22.22,0,0,1,.07-.17c2.83-2.52,5.77-5,8.74-7.31a.24.24,0,0,1,.32.05.23.23,0,0,1,0,.31c-3,2.32-5.9,4.78-8.72,7.29A.35.35,0,0,1,37,107.59Z" transform="translate(-12.28 -1)"/><path class="cls-13" d="M89,107.59a.22.22,0,0,1-.15-.06c-2.81-2.51-5.75-5-8.71-7.29a.22.22,0,0,1,0-.32.23.23,0,0,1,.31,0c3,2.33,5.91,4.79,8.73,7.31a.22.22,0,0,1,0,.32.21.21,0,0,1-.17.08Z" transform="translate(-12.28 -1)"/><path class="cls-13" d="M37,101.89c-.31.21-.57-.21-1.21-.82,2.36-1.22,6-5.11,6-5.11C42.31,97,43.66,97.29,37,101.89Z" transform="translate(-12.28 -1)"/><path class="cls-6" d="M57.14,41.9h-.07c-.54,0-.94-.64-1.73-1.84-.63-.94-1.49-2.24-2.85-3.93a.23.23,0,1,1,.36-.28,48.24,48.24,0,0,1,2.86,4c.67,1,1.07,1.61,1.4,1.64s.91-.59,1.85-1.6c.43-.46.94-1,1.57-1.66.4-.41,1.1.27,2.17,1.29.73.71,1.73,1.66,2.14,1.65a.14.14,0,0,0,.08-.05c.56-.71,1.16-1.52,1.74-2.29.7-.93,1.42-1.89,2.07-2.7a.23.23,0,0,1,.32,0,.23.23,0,0,1,0,.32h0c-.64.81-1.36,1.76-2,2.69s-1.2,1.59-1.76,2.3a.53.53,0,0,1-.4.22c-.57,0-1.36-.68-2.49-1.77-.53-.51-1.33-1.29-1.56-1.29-.6.63-1.11,1.18-1.53,1.64C58.2,41.34,57.68,41.9,57.14,41.9Z" transform="translate(-12.28 -1)"/><path class="cls-6" d="M62.18,97.16A.22.22,0,0,1,62,97c-2.83-18.82-1.49-24.83-.42-29.66a26.13,26.13,0,0,0,.84-8.16c-.15-2.55-.51-5.33-.86-8a66.4,66.4,0,0,1-.89-12.06.23.23,0,0,1,.24-.22h0a.22.22,0,0,1,.22.23h0a65.58,65.58,0,0,0,.88,12c.35,2.7.71,5.49.86,8A26.57,26.57,0,0,1,62,67.4c-1.06,4.8-2.39,10.76.43,29.5a.24.24,0,0,1-.19.26Z" transform="translate(-12.28 -1)"/><path class="cls-6" d="M71.93,65.84c-1.52,0-2.14-.07-2.48-.4a1,1,0,0,1-.25-.75c0-1.19,0-2.19,0-3,0-2.69,0-3.6.39-4a1,1,0,0,1,.75-.25l3,0c2.69,0,3.6,0,4,.39a1,1,0,0,1,.25.75c0,1.19,0,2.19,0,3,0,2.7,0,3.61-.39,4a1,1,0,0,1-.75.25l-3,0Zm2.94-8H73.35l-3,0c-.28,0-.37.06-.43.12-.29.29-.28,1.43-.25,3.71,0,.84,0,1.84,0,3a.59.59,0,0,0,.11.43c.3.29,1.44.27,3.72.25l3,0c.28,0,.37-.06.43-.12.29-.29.28-1.43.25-3.71,0-.83,0-1.84,0-3,0-.27-.05-.37-.11-.42-.22-.22-.91-.27-2.2-.27Z" transform="translate(-12.28 -1)"/><path class="cls-6" d="M68.87,97.15a.21.21,0,0,1-.17-.08.23.23,0,0,1,0-.32h0a5.8,5.8,0,0,0,1.6-5.9.23.23,0,0,1,.43-.16v0A6.26,6.26,0,0,1,69,97.09.22.22,0,0,1,68.87,97.15Z" transform="translate(-12.28 -1)"/><path class="cls-6" d="M54.38,96.05c-2.24-.18-2.85-2.57-3.13-4.63a.22.22,0,0,1,.19-.25h0a.23.23,0,0,1,.26.18h0c.26,1.89.8,4.08,2.7,4.24a.22.22,0,0,1,.22.23A.23.23,0,0,1,54.38,96.05Z" transform="translate(-12.28 -1)"/><path class="cls-6" d="M62.1,42.92c-1.22-.48-.45-1.48.14-1.48C63,41.44,62.85,43.21,62.1,42.92Z" transform="translate(-12.28 -1)"/><path class="cls-6" d="M63.67,53.83c-1.23-.48-.45-1.49.14-1.49C64.56,52.34,64.42,54.12,63.67,53.83Z" transform="translate(-12.28 -1)"/><path class="cls-6" d="M64.34,65.13c-1.22-.47-.45-1.48.14-1.48C65.24,63.65,65.09,65.43,64.34,65.13Z" transform="translate(-12.28 -1)"/><path class="cls-6" d="M62.78,75.16c-1.23-.47-.45-1.48.14-1.48C63.67,73.68,63.53,75.46,62.78,75.16Z" transform="translate(-12.28 -1)"/><path class="cls-6" d="M62.42,85.81c-1.23-.48-.45-1.49.14-1.49C63.31,84.32,63.17,86.1,62.42,85.81Z" transform="translate(-12.28 -1)"/><path class="cls-6" d="M63.47,96.2c-1.22-.48-.44-1.48.15-1.48C64.37,94.72,64.23,96.49,63.47,96.2Z" transform="translate(-12.28 -1)"/></svg>