<svg id="圖層_1" data-name="圖層 1" xmlns="http://www.w3.org/2000/svg" viewBox="0 0 215.93 215.19"><defs><style>.cls-1{fill:#2f333e;}.cls-2{fill:#e79487;}.cls-3{fill:#343a48;}.cls-4{fill:#382723;}.cls-5{fill:#353b4a;}.cls-6{fill:#d97358;}.cls-7{fill:#e79384;}.cls-8{fill:#fffffd;}.cls-9{fill:#f0e6dc;}.cls-10{fill:#e8b37c;}.cls-11{fill:#c2863a;}.cls-12{fill:#eba186;}.cls-13{fill:#4d3931;}.cls-14{fill:#07191d;}.cls-15{fill:#fff;}.cls-16{fill:#323b4c;}.cls-17{fill:#3d485f;}.cls-18{fill:#7c494a;}.cls-19{fill:#eba084;}.cls-20{fill:#ac332d;}.cls-21{fill:#d25949;}</style></defs><path class="cls-1" d="M165.9,35.31c-3.49,4.39-4.81,6.8-3.63,9.43s32.87,6.83,30-1.37c-.61-1.79-2.19-3.25-2.29-4.59-.07-.87.85-1.62.77-2.49S188.74,34.63,188,34c-1-.93-.46-2.14-1.11-3.29-1-1.8-.72-3-1-3.53-3-6.51-16.59-4.56-19-.5C165.47,29.26,168.31,32.28,165.9,35.31Z" transform="translate(-2.04 -2.21)"/><path class="cls-2" d="M190.72,56.2c-5.8-4.07-11.2-4-9-14.52l-10-.61c-.4,7.83.12,8.39-3.25,11.28-.74.64-5.47,3.27-5.47,3.27C170.53,62.11,184.24,61.58,190.72,56.2Z" transform="translate(-2.04 -2.21)"/><path class="cls-2" d="M167.66,27.08c-2.57,15.39,10.45,24.54,15.65,12.31C192.67,17.33,169.74,14.56,167.66,27.08Z" transform="translate(-2.04 -2.21)"/><path class="cls-1" d="M177.37,22.32c6.47,1.14,6.78,9.73,7.37,13,.61-2.53,4.52-5.51,2.6-9.71-1.62-3.52-3-9.74-10.09-8.77-4.3.6-8.94,2.68-9.7,6.67-.65,3.38-.84,8.33.25,11.93.6-2.8.12-4.88,1.41-7.44C170.82,24.82,174.06,21.74,177.37,22.32Z" transform="translate(-2.04 -2.21)"/><path class="cls-3" d="M172.08,19.11a.21.21,0,0,1,.26-.12.2.2,0,0,1,.13.25,4.6,4.6,0,0,0,.47,3.69.21.21,0,0,1-.07.29h0C172.52,23.43,171.4,21.3,172.08,19.11Z" transform="translate(-2.04 -2.21)"/><path class="cls-3" d="M182,24.16a3,3,0,0,0,1.9-2.6.21.21,0,0,1,.41,0,3.41,3.41,0,0,1-2.17,3,.21.21,0,0,1-.25-.15A.21.21,0,0,1,182,24.16Z" transform="translate(-2.04 -2.21)"/><path class="cls-3" d="M184.06,27.17a1.2,1.2,0,0,0,1.11-.84.21.21,0,0,1,.4.12,1.61,1.61,0,0,1-1.51,1.13.2.2,0,0,1-.19-.22A.2.2,0,0,1,184.06,27.17Z" transform="translate(-2.04 -2.21)"/><path class="cls-3" d="M176.15,21.44c-1-1.68.4-3.87.81-3.42a.2.2,0,0,1,0,.29h0a2.47,2.47,0,0,0-.44,2.93.21.21,0,0,1-.08.28A.2.2,0,0,1,176.15,21.44Z" transform="translate(-2.04 -2.21)"/><path class="cls-3" d="M179.6,22.34a3.91,3.91,0,0,0,.37-2.92c-.26-.66,1.45-.32,0,3.08a.2.2,0,0,1-.27.1A.22.22,0,0,1,179.6,22.34Z" transform="translate(-2.04 -2.21)"/><path class="cls-3" d="M169.79,25.76c-1.32-1.55-.77-3.21-.33-3a.21.21,0,0,1,.09.28,2.21,2.21,0,0,0,.56,2.43.21.21,0,0,1-.32.27Z" transform="translate(-2.04 -2.21)"/><path class="cls-2" d="M185.69,32.49c-1.5-.5-1.72,2.67-1.78,4.25C183.78,39.84,188.05,33.29,185.69,32.49Z" transform="translate(-2.04 -2.21)"/><path class="cls-2" d="M166.84,31.62c1.53-.38,1.51,2.79,1.45,4.37C168.18,39.09,164.42,32.23,166.84,31.62Z" transform="translate(-2.04 -2.21)"/><path class="cls-4" d="M171.67,33.37c-.52,0-.86-2,.42-2C172.77,31.41,172.53,33.4,171.67,33.37Z" transform="translate(-2.04 -2.21)"/><path class="cls-4" d="M180.68,33.71c.52,0,1-2-.26-2C179.74,31.68,179.82,33.68,180.68,33.71Z" transform="translate(-2.04 -2.21)"/><path class="cls-5" d="M172.85,29c.83.15.71.82.08.9-.86.12-1.09-.46-2.85.2C168.14,30.81,170.24,28.5,172.85,29Z" transform="translate(-2.04 -2.21)"/><path class="cls-5" d="M179.79,29.33c-.85,0-.85.68-.24.88.82.27,1.15-.26,2.76.71C184.08,32,182.43,29.33,179.79,29.33Z" transform="translate(-2.04 -2.21)"/><path class="cls-6" d="M175,36.73c1.78.8,1.69-.06,1.15,0-1.79.05,0-.65.2-3.6,0-.31-.35-.33-.39-.08s-.08.83-.13,1C175.21,36.31,174.4,36.48,175,36.73Z" transform="translate(-2.04 -2.21)"/><path class="cls-6" d="M178.52,39.49a.11.11,0,0,1,.14.06.12.12,0,0,1,0,.1c-3.65,4.46-5.89-.46-5.23-.2A7.92,7.92,0,0,0,178.52,39.49Z" transform="translate(-2.04 -2.21)"/><path class="cls-6" d="M167.1,33.19a.11.11,0,0,1,.15-.06.12.12,0,0,1,.07.13c-.3.86-.06,1.39.29,1.6a.1.1,0,0,1,0,.15h0C167.44,35.37,166.67,34.42,167.1,33.19Z" transform="translate(-2.04 -2.21)"/><path class="cls-6" d="M185,35.68a1.88,1.88,0,0,0,.24-1.5.11.11,0,0,1,.11-.11.1.1,0,0,1,.12.09C185.7,36.15,184.68,36,185,35.68Z" transform="translate(-2.04 -2.21)"/><path class="cls-6" d="M172.29,43.27c3.38,3,7.9,1.33,9-.7.43-.79.24,1.79-3.59,2.47C173.45,45.79,171.31,42.4,172.29,43.27Z" transform="translate(-2.04 -2.21)"/><path class="cls-6" d="M145.85,126c.73-.14.74,1.23-.22,1.05a.93.93,0,0,1-.67-.62c-.5.5.47,1.39,0,1.93-.82,1-5.66-3.39-3-6.2.58-.59.86.17,1.23.62C145.78,125.77,148.84,125,145.85,126Z" transform="translate(-2.04 -2.21)"/><path class="cls-7" d="M149.54,118.53c12.86-28.5,13.19-34.8,13.17-47.18-2.4-.38-4.77-1.14-7.16-1.48-1.22,3.4-1.88,14.65-1.8,15.08-1,8.81-6.17,31.68-6.17,31.68-.89.19-2.3,1.24-6.25,3.63-.62.37-.69.53-.86,1.26-.58,2.5-1.48,2.2-.61,4,1.53,3.25,3.14,4.74,3.41,3.57s-3.86-4.24-.43-7c2.43-1.94,3.34,1.32,2.25,2.53A2.53,2.53,0,0,0,144,127c3.58-.82,3.63-4.23,4.51-6A7.17,7.17,0,0,0,149.54,118.53Z" transform="translate(-2.04 -2.21)"/><path class="cls-8" d="M162.33,54.75c-5.78,1.22-5.25.91-10.65,21.11-.44,1.63,4.43,4.18,11.52,4.07,4.4-9.59,8.54-17.07,6-22.28C168.32,55.76,163.48,54.51,162.33,54.75Z" transform="translate(-2.04 -2.21)"/><path class="cls-9" d="M162.76,80.15c-5.52,0-9.74-1.61-11-3.17a1.35,1.35,0,0,1-.33-1.17l1.14-4.26c4.21-15.86,4.21-15.86,9.51-17l.17,0c1.29-.27,6.19,1,7.13,3,2.27,4.71-.73,11.13-4.52,19.25-.49,1-1,2.12-1.49,3.22l-.06.12h-.59ZM162.38,55l-.17,0c-5,1.06-5,1.06-9.19,16.66l-1.13,4.26a.94.94,0,0,0,.25.8c1,1.29,5.05,3.06,10.93,3,.48-1.06,1-2.1,1.44-3.1,3.74-8,6.71-14.35,4.53-18.88-.84-1.73-5.52-3-6.66-2.78Z" transform="translate(-2.04 -2.21)"/><path class="cls-6" d="M212,120.42a7.53,7.53,0,0,1,3.42,2.28c1.5,1.61,2.38.79,1.88.3-3-2.91-6.23-4.09-6.56-3.54a7.36,7.36,0,0,0,1.26,1Z" transform="translate(-2.04 -2.21)"/><path class="cls-7" d="M207,117.07c8.66,1.47,11.1,5.1,11,5.5-.26,1-2.25-.68-4.72-1.73-4.35-1.84-6.05.29-4.18,1,.66.25,2.11.12,2.45,1.55.06.26,0,.89-.59.59-1.31-.67-1.24.46-5.13-2.41-1.37-1-3.49-1.61-3.82-2.88-1.59-4.95-9.84-29.91-12.8-45.79-.62-3.33,8.6-5.46,8.46-6.12,2.08,9.68,7.78,49.87,7.78,49.87S206.82,117.05,207,117.07Z" transform="translate(-2.04 -2.21)"/><path class="cls-8" d="M188.05,53.73c5.89.37,5.71-.25,14,18.87.8,1.86-6.27,5.32-11.18,6.17-5.74-8.85-10.92-15.65-9.19-21.18C182.28,55.59,186.89,53.66,188.05,53.73Z" transform="translate(-2.04 -2.21)"/><path class="cls-9" d="M190.74,79l-.07-.12-1.95-3c-4.93-7.49-8.83-13.4-7.27-18.39.65-2.08,5.29-4.09,6.62-4l.54,0c5.51.32,5.64.5,13.61,19a1.18,1.18,0,0,1-.11,1C201,75.63,195,78.27,190.88,79ZM188,53.94c-1.26,0-5.55,1.91-6.11,3.71-1.5,4.8,2.34,10.63,7.21,18L191,78.53c4.32-.78,9.82-3.42,10.78-5.17a.78.78,0,0,0,.09-.68c-7.94-18.39-8-18.39-13.24-18.7l-.54,0Z" transform="translate(-2.04 -2.21)"/><path class="cls-8" d="M169.83,51.29c1.62,3.37,10.8,5.06,12.69-.73,6,1.89,8.2,3.45,8.2,3.45.63,8.53,6.71,32.81.42,37.14-11.21,1.48-19.38,2.14-28.71.17-4.85-2.15-1.74-35.8-1.66-36.23A72.57,72.57,0,0,0,169.83,51.29Z" transform="translate(-2.04 -2.21)"/><path class="cls-9" d="M174.43,92.76a56.63,56.63,0,0,1-12-1.23l0,0c-5.08-2.24-1.85-36.13-1.79-36.46l0-.12.12,0a73.69,73.69,0,0,0,9-3.8l.2-.09.09.2c.85,1.78,4.08,3.12,7,2.93a5.52,5.52,0,0,0,5.25-3.64l.06-.2.21.06c6,1.88,8.16,3.42,8.25,3.48l.08.06V54c.15,2.06.63,5,1.17,8.49,1.7,10.76,4,25.49-.83,28.84l-.05,0h-.05A128.56,128.56,0,0,1,174.43,92.76ZM162.5,91.11c8.89,1.87,16.6,1.41,28.57-.17,4.59-3.25,2.29-17.78.61-28.39-.54-3.4-1-6.34-1.17-8.42a33.85,33.85,0,0,0-7.85-3.3,5.93,5.93,0,0,1-5.56,3.73c-3.07.2-6.3-1.13-7.36-3A76.69,76.69,0,0,1,161,55.26C160.61,58,158.06,89.06,162.5,91.11Z" transform="translate(-2.04 -2.21)"/><path class="cls-7" d="M165.88,205.79c1.15,3.33,5.24,3.3,5.82-.5l0-9.19-7.26,0Z" transform="translate(-2.04 -2.21)"/><path class="cls-7" d="M185.65,205.77c1.07,3.36,5.15,3.44,5.83-.34l.21-9.19-7.27-.25Z" transform="translate(-2.04 -2.21)"/><path class="cls-9" d="M154.83,215a1.28,1.28,0,0,1-.11-1.14c.42-1.1,11.59-8.34,11.16-8.05a5,5,0,0,0,5.82-.5c.72,1.46,2.79,6.75.75,7.29C171.22,212.91,155.75,216.41,154.83,215Z" transform="translate(-2.04 -2.21)"/><path class="cls-8" d="M156.47,215.51c-1,0-1.63-.12-1.82-.41a1.51,1.51,0,0,1-.13-1.34c.39-1,9-6.7,11-7.95h0l.28-.19,0,0,.12-.07h.16l0,.09a4.83,4.83,0,0,0,5.46-.52l.21-.23.14.29c.62,1.25,2.2,5.21,1.44,6.86a1.26,1.26,0,0,1-.83.73C172.36,212.82,161,215.51,156.47,215.51Zm-1.45-.64c.74,1.16,14.83-1.82,17.37-2.5a.8.8,0,0,0,.55-.48c.6-1.31-.58-4.64-1.31-6.24a5.32,5.32,0,0,1-5.74.39c-1.41.89-10.63,7-11,7.87a1.09,1.09,0,0,0,.1,1Z" transform="translate(-2.04 -2.21)"/><path class="cls-8" d="M160.76,212.31a3.37,3.37,0,0,1-1.36-.34,1.63,1.63,0,0,1-.92-.88.42.42,0,0,1,.3-.53.44.44,0,0,1,.53.3,1.22,1.22,0,0,0,.57.38,1.87,1.87,0,0,0,1.09.18.43.43,0,1,1,.37.77h0A1.36,1.36,0,0,1,160.76,212.31Z" transform="translate(-2.04 -2.21)"/><path class="cls-8" d="M163.05,210.68a2.68,2.68,0,0,1-2.25-1.22.45.45,0,0,1,.14-.6.44.44,0,0,1,.59.14h0a1.84,1.84,0,0,0,1.72.81.43.43,0,0,1,.48.38.42.42,0,0,1-.38.47A1.51,1.51,0,0,1,163.05,210.68Z" transform="translate(-2.04 -2.21)"/><path class="cls-8" d="M165.06,209.11a3.32,3.32,0,0,1-2.2-.84.43.43,0,1,1,.58-.63h0a2.44,2.44,0,0,0,1.86.6.44.44,0,0,1,.49.37.43.43,0,0,1-.38.48h-.35Z" transform="translate(-2.04 -2.21)"/><path class="cls-9" d="M174.36,214.66c-.62-1,.34-1.91,1.34-2.55,4.66-3,10-6.34,10-6.34a5,5,0,0,0,5.83-.34c.6,1.31,2.67,6.8.51,7.31C190.76,213,175.25,216.13,174.36,214.66Z" transform="translate(-2.04 -2.21)"/><path class="cls-8" d="M176.36,215.25c-1.17,0-2-.14-2.18-.48-.56-.93-.09-1.88,1.4-2.84,4.61-3,9.91-6.31,10-6.34l.12-.08.11.08a4.85,4.85,0,0,0,5.56-.31l.22-.23.13.29c.58,1.26,2,5.26,1.25,6.89a1.29,1.29,0,0,1-.89.72C191.91,213,181.14,215.25,176.36,215.25Zm9.29-9.23c-.8.51-5.61,3.55-9.84,6.27-1.7,1.09-1.53,1.81-1.26,2.26.72,1.2,14.74-1.39,17.39-2a.85.85,0,0,0,.6-.49c.64-1.3-.42-4.6-1.13-6.25a5.32,5.32,0,0,1-5.76.23Z" transform="translate(-2.04 -2.21)"/><path class="cls-8" d="M180.09,212.6H180c-.51-.08-2.05-.31-2.16-1.6a.43.43,0,0,1,.4-.46.45.45,0,0,1,.46.38c0,.29.2.64,1.43.83a.43.43,0,0,1-.07.85Z" transform="translate(-2.04 -2.21)"/><path class="cls-8" d="M182.29,211a3,3,0,0,1-2.29-1.26.43.43,0,0,1,.11-.59.42.42,0,0,1,.6.11,2.12,2.12,0,0,0,1.59.88.43.43,0,0,1,.43.43A.45.45,0,0,1,182.29,211Z" transform="translate(-2.04 -2.21)"/><path class="cls-8" d="M184.15,209.46a2.73,2.73,0,0,1-1.9-.89.43.43,0,0,1,.69-.51,1.79,1.79,0,0,0,1.37.52.43.43,0,0,1,.3.81A1.43,1.43,0,0,1,184.15,209.46Z" transform="translate(-2.04 -2.21)"/><path class="cls-10" d="M175,201.16a.94.94,0,0,1-.93.91c-12.31.06-12.68.4-12.73-.84-3.48-88.55-5.48-95.95,1.09-109.91,8.62.05,20,.15,28.72-.17,3.3,6,5.72,16.43,5.65,20.88l-2.28,89a.93.93,0,0,1-.93.92c-12.23.12-12.61.46-12.66-.78l-3.4-82.44C177.23,116.25,175,201.59,175,201.16Z" transform="translate(-2.04 -2.21)"/><path class="cls-11" d="M164.58,202.37c-3.25,0-3.42-.19-3.46-1.13-.66-16.78-1.27-30.87-1.77-42.19-2.13-48.94-2.46-56.46,2.89-67.82l.06-.13h1.87c8.39.06,18.83.13,27-.17h.13l.06.12c3.24,5.93,5.76,16.33,5.68,21l-2.27,89a1.16,1.16,0,0,1-1.15,1.13c-2.58,0-4.62.06-6.26.09-6.32.11-6.57.11-6.62-1.08L177.49,123c-.65,16.79-2.26,77.47-2.27,78.17l0,.2a1.14,1.14,0,0,1-1.12.92c-2.6,0-4.66,0-6.31.06Zm-2-110.84c-5.25,11.21-4.91,18.84-2.79,67.5.5,11.32,1.11,25.41,1.77,42.19,0,.75.21.77,6.21.69,1.64,0,3.7,0,6.3,0a.74.74,0,0,0,.73-.71c0-.69.56-21.34,1.12-41.23.34-12,.63-21.51.85-28.36.43-13.08.46-13.08.74-13.1,0,0,.22,0,.25.24l3.39,82.45c0,.75.2.77,6.18.67,1.64,0,3.69-.07,6.26-.09a.72.72,0,0,0,.72-.71l2.28-89c.07-4.58-2.38-14.76-5.56-20.66-8.13.3-18.51.23-26.85.17Z" transform="translate(-2.04 -2.21)"/><path class="cls-10" d="M191.14,91.15a82.65,82.65,0,0,1-28.71.17c-4.65-3.65,3.95-13.39,4.54-21.77a.43.43,0,0,1,.43-.41c19.75,0,19-.19,19,.41C186.94,78.26,196.52,87.19,191.14,91.15Z" transform="translate(-2.04 -2.21)"/><path class="cls-11" d="M176.7,92.7a86.67,86.67,0,0,1-14.3-1.17h-.06l0,0c-2.86-2.24-1-6.53,1.16-11.5,1.43-3.29,3.06-7,3.3-10.45a.65.65,0,0,1,.64-.61h11c8.26,0,8.26,0,8.26.58v.05c.21,3.59,2,7.28,3.61,10.54,2.3,4.74,4.3,8.82,1,11.24l-.08,0A74.22,74.22,0,0,1,176.7,92.7Zm-14.18-1.59A82.62,82.62,0,0,0,191.05,91c2.94-2.21,1-6.14-1.19-10.68-1.61-3.3-3.43-7-3.65-10.71v-.07a0,0,0,0,0,0,0c-.19-.13-2.11-.12-7.82-.1h-11a.23.23,0,0,0-.22.21c-.24,3.49-1.89,7.26-3.33,10.6C161.78,84.93,160,89.06,162.52,91.11Z" transform="translate(-2.04 -2.21)"/><path class="cls-11" d="M191.65,92.11c-10.16,1.15-24.27,1.19-29.64,0l.42-.83a2.24,2.24,0,0,1-.87-.83c10.46.42,23.79.14,30.61-.4-.45.63-.78,1-1,1.06Z" transform="translate(-2.04 -2.21)"/><path class="cls-11" d="M174.79,93.21A71.59,71.59,0,0,1,162,92.36l-.27,0,.46-.91a2.45,2.45,0,0,1-.78-.82l-.17-.33.38,0c10.53.43,23.81.13,30.58-.4l.46,0-.27.37a4.51,4.51,0,0,1-.91,1l.55,1-.31,0A161.51,161.51,0,0,1,174.79,93.21ZM162.32,92c5.45,1.06,19,1,29-.07l-.5-1,.3,0c.13,0,.39-.32.6-.6-6.8.5-19.48.77-29.71.38a2.2,2.2,0,0,0,.51.4l.22.08Z" transform="translate(-2.04 -2.21)"/><path class="cls-11" d="M168.61,70l-.72.1c-.17-5.11-2.07-11-2.47-16.76l.6-.25C166.53,58.81,168.64,66.75,168.61,70Z" transform="translate(-2.04 -2.21)"/><path class="cls-11" d="M167.68,70.31v-.24a53.88,53.88,0,0,0-1.2-8.38,69.72,69.72,0,0,1-1.26-8.38l0-.14,1-.44,0,.3c.25,2.8.89,6.18,1.45,9.16A49.52,49.52,0,0,1,168.82,70v.18Zm-2-16.87a70.72,70.72,0,0,0,1.26,8.17,58.07,58.07,0,0,1,1.19,8.2l.3,0a55.77,55.77,0,0,0-1.13-7.51c-.55-2.89-1.16-6.14-1.43-8.9Z" transform="translate(-2.04 -2.21)"/><path class="cls-11" d="M184.69,70.16l.72.11c.17-5.12,2.11-11.94,2.51-17.72l-.52-.23C186.89,58.09,184.66,67,184.69,70.16Z" transform="translate(-2.04 -2.21)"/><path class="cls-11" d="M185.62,70.52l-1.14-.17v-.19a58.59,58.59,0,0,1,1.21-8.31c.58-3.17,1.25-6.76,1.5-9.54l0-.3.94.41v.15a83.84,83.84,0,0,1-1.28,8.77,64.13,64.13,0,0,0-1.23,8.93Zm-.71-.54.3,0a69.91,69.91,0,0,1,1.22-8.76,82.31,82.31,0,0,0,1.26-8.57l-.1,0c-.27,2.75-.91,6.22-1.48,9.29a64,64,0,0,0-1.2,8.05Z" transform="translate(-2.04 -2.21)"/><path class="cls-8" d="M169.11,70.06c.72-1.4-1.34-1.33-1.68-.69a.91.91,0,0,0,1.66.74S169.11,70.08,169.11,70.06Z" transform="translate(-2.04 -2.21)"/><path class="cls-8" d="M184.08,70.06c-.71-1.4,1.35-1.33,1.69-.69a.9.9,0,0,1-.47,1.2.91.91,0,0,1-1.2-.47Z" transform="translate(-2.04 -2.21)"/><path class="cls-11" d="M176.26,84.25c-1.29,0-2.59,0-3.87-.07-.45,0-.64-.22-.63-.69A29.39,29.39,0,0,1,172,79.3l0-.13.12,0c2.09-.71,8.29-.74,8.95-.32a.3.3,0,0,1,.14.22s.34,3.93-.51,4.9a.64.64,0,0,1-.47.24C179,84.22,177.61,84.25,176.26,84.25Zm-3.82-4.75a31.32,31.32,0,0,0-.25,4c0,.25,0,.25.21.26,2.62.09,5.27.09,7.88,0a.2.2,0,0,0,.16-.09c.56-.64.5-3.47.41-4.5a26.53,26.53,0,0,0-8.41.35Z" transform="translate(-2.04 -2.21)"/><path class="cls-8" d="M172.24,79.12l0-1.15c0-.25,8.85-.44,8.85,0v.88C181.06,79.08,172.25,79.55,172.24,79.12Z" transform="translate(-2.04 -2.21)"/><path class="cls-8" d="M174,79.51c-1.89,0-2-.14-2-.38l0-1.28.13-.09c.44-.26,8.29-.44,9,0a.26.26,0,0,1,.15.24v.88c0,.23,0,.32-2.61.49-1.49.1-3.16.16-4.37.17ZM172.45,79a50.45,50.45,0,0,0,8.39-.3v-.62a55,55,0,0,0-8.41,0Z" transform="translate(-2.04 -2.21)"/><path class="cls-3" d="M167.18,27.22a.2.2,0,0,1,.23-.18.19.19,0,0,1,.18.21,4.88,4.88,0,0,0,.34,2.17C168.13,29.9,167,30,167.18,27.22Z" transform="translate(-2.04 -2.21)"/><path class="cls-3" d="M185.13,30.43a3.89,3.89,0,0,0,1.42-2.32.21.21,0,0,1,.41.08h0a4.36,4.36,0,0,1-1.58,2.56.2.2,0,0,1-.28-.07A.21.21,0,0,1,185.13,30.43Z" transform="translate(-2.04 -2.21)"/><path class="cls-3" d="M185.45,44.52c-3-4.41-1.07-5.19-1.19-4.44-.25,1.6.78,3.1,1.53,4.21a.21.21,0,0,1-.06.28A.2.2,0,0,1,185.45,44.52Z" transform="translate(-2.04 -2.21)"/><path class="cls-3" d="M190,44.41c-.81-1.68-1.68-2.08-2.17-3-1.17-2.15,1-3.31.91-4.72a.9.9,0,0,0-.69-.84.2.2,0,0,1-.18-.22.2.2,0,0,1,.22-.19c.58.06,1.74.82.44,3-1.71,2.91.47,2.91,1.84,5.76a.19.19,0,0,1-.1.27.2.2,0,0,1-.27-.09Z" transform="translate(-2.04 -2.21)"/><path class="cls-3" d="M186.82,42.64a.2.2,0,0,1,.08-.28.21.21,0,0,1,.27.07c1.47,2.44,1.78,2.7,1.49,2.87S188.29,45.08,186.82,42.64Z" transform="translate(-2.04 -2.21)"/><path class="cls-3" d="M163.32,44.36c-1.74-3.3,3.17-8.74,3.66-8a.22.22,0,0,1-.06.3c-2.07,1.44-4.38,5.34-3.22,7.55a.22.22,0,0,1-.11.29A.22.22,0,0,1,163.32,44.36Z" transform="translate(-2.04 -2.21)"/><path class="cls-3" d="M165.13,44.88a3.29,3.29,0,0,0,0-1.59c-.38-2,1.29-3.9,1.61-3.62a.22.22,0,0,1,0,.31h0c-2.36,2.69-.67,2.91-1.22,5a.21.21,0,0,1-.28.11A.2.2,0,0,1,165.13,44.88Z" transform="translate(-2.04 -2.21)"/><path class="cls-3" d="M167.63,44.36c-.33-.11,0-.7.18-1a3.4,3.4,0,0,0,.43-2.64c-.22-.61,1.46-.41,0,2.82C167.92,44.12,167.91,44.44,167.63,44.36Z" transform="translate(-2.04 -2.21)"/><path class="cls-3" d="M169.58,46c-.26-.09-.12-.35,0-.59a4.65,4.65,0,0,0,.43-2c-.07-.38,1-1-.13,2.49a.23.23,0,0,1-.27.14Z" transform="translate(-2.04 -2.21)"/><path class="cls-3" d="M182.4,42.66a.22.22,0,0,1,.23.2,3.76,3.76,0,0,0,1.21,2.83.21.21,0,0,1,0,.29C183.32,46.79,181.55,42.7,182.4,42.66Z" transform="translate(-2.04 -2.21)"/><path class="cls-11" d="M177.59,117.7a.23.23,0,0,1-.2-.13,26.29,26.29,0,0,1-2-11.22.23.23,0,0,1,.23-.21.21.21,0,0,1,.2.23,25.89,25.89,0,0,0,1.94,11,.21.21,0,0,1-.11.28h0A.15.15,0,0,1,177.59,117.7Z" transform="translate(-2.04 -2.21)"/><path class="cls-11" d="M158.68,109.22a.21.21,0,0,1-.14-.38l.32-.26c2.81-2.3,4-3.26,5.75-14.86a.2.2,0,0,1,.25-.17.21.21,0,0,1,.17.23c-1.8,11.77-3,12.76-5.9,15.13l-.32.26A.15.15,0,0,1,158.68,109.22Z" transform="translate(-2.04 -2.21)"/><path class="cls-11" d="M195,109.16a.16.16,0,0,1-.1,0c-3.69-1.89-4.25-2.18-8.1-15.67a.22.22,0,0,1,.13-.28.22.22,0,0,1,.28.14v0c3.8,13.31,4.34,13.59,7.89,15.41a.22.22,0,0,1,.09.29.22.22,0,0,1-.19.12Z" transform="translate(-2.04 -2.21)"/><path class="cls-10" d="M173.19,92.29a73.87,73.87,0,0,1-10.71-.75.22.22,0,0,1-.19-.24.22.22,0,0,1,.24-.19h0c8.55,1.21,15.06.76,28-.14l.37,0a.21.21,0,1,1,.05.42h0l-.37,0C183.23,91.92,178,92.29,173.19,92.29Z" transform="translate(-2.04 -2.21)"/><path class="cls-6" d="M148.94,118.11h-.07a2.23,2.23,0,0,1-1.24-1,.21.21,0,0,1,.11-.28.22.22,0,0,1,.26.07,1.82,1.82,0,0,0,1,.84.22.22,0,0,1-.07.42Z" transform="translate(-2.04 -2.21)"/><path class="cls-6" d="M203.39,118h0a.22.22,0,0,1-.2-.24.21.21,0,0,1,.21-.19,1.61,1.61,0,0,0,1.31-.64.21.21,0,0,1,.3-.06.23.23,0,0,1,.06.3h0A2,2,0,0,1,203.39,118Z" transform="translate(-2.04 -2.21)"/><path class="cls-12" d="M45.08,27.4c.06,5.08,1.74,8.85-7.6,13.24,5.56,7.65,11,10.48,11,10.48s11.71-5.28,15.73-8.76c-2.09-1.53-4.28-2.67-6.21-4-3.81-2.68-1.56-8.64-2.31-10.84Z" transform="translate(-2.04 -2.21)"/><path class="cls-12" d="M47.35,32.73c2.1,1.3,4.51.9,6.93.13,2.68-.85,7-8.62,5.39-18.18S47.3,3.88,43,10.38C39.19,16.25,41.82,29.31,47.35,32.73Z" transform="translate(-2.04 -2.21)"/><path class="cls-13" d="M44.61,14.48c.28-.05.16-.56.31-.8.46-.71,1.55-.55,2.3-1,.5-.27,1-.85,1.51-.69s.65.61,1.07.64.74-.32,1.1-.2.72,1.27,2.22.76c2.44-.83,4,.06,4.28.59a26.37,26.37,0,0,1,2.19,9.58l2.63-7.91a6.57,6.57,0,0,0-1.17-3.27c-1.48-1.56,1.27-2.94-1.1-5.89-1.83-1.43-2.84-1.89-3.84-1.07A2.94,2.94,0,0,0,53,2.73C50.17,3,51,1.22,47.25,3.05c-.63.31-2.52,1.2-2.78,2.1s.7,1.91-.95,2.37c-.79-.1-6.13,1.18-2.59,12.51.18.59.89,3.5,1.12,4.06C41.29,18.7,43.77,14.64,44.61,14.48Z" transform="translate(-2.04 -2.21)"/><path class="cls-4" d="M46.51,11.33C46,10.07,45.35,8.45,44,8c-.61-.19.8-1.08,2.26,1.85-.25-.87-2-3.31-1.31-3.4a.16.16,0,0,1,.18.14,4.54,4.54,0,0,0,.75,1.73C46.8,10,46.67,10.34,46.51,11.33Z" transform="translate(-2.04 -2.21)"/><path class="cls-4" d="M52.68,11.72c1.57-1,3.78-4.06,3.21-5.82-.2-.64,1.42.1-.44,3.22C53.35,12.62,52.16,12,52.68,11.72Z" transform="translate(-2.04 -2.21)"/><path class="cls-4" d="M43.45,11.7a13.32,13.32,0,0,0-1.79-.95.17.17,0,0,1,.14-.3,8.41,8.41,0,0,1,1.89,1c.42.46.56,2.18.27,2.19S43.87,12.15,43.45,11.7Z" transform="translate(-2.04 -2.21)"/><path class="cls-4" d="M51.2,7.46c1-1.19,1.81-2.72,1-4.07a.16.16,0,0,1,.06-.22h0c.45-.25,1.29,1.94-.86,4.5a.16.16,0,0,1-.23,0A.15.15,0,0,1,51.2,7.46Z" transform="translate(-2.04 -2.21)"/><path class="cls-4" d="M48.41,11.39a2.35,2.35,0,0,0,0-3.17.17.17,0,0,1,0-.23h0c.45-.43,1.7,2,.29,3.62a.17.17,0,0,1-.25-.22Z" transform="translate(-2.04 -2.21)"/><path class="cls-4" d="M51.83,9.33a.16.16,0,0,1,.23,0,.17.17,0,0,1,0,.23c-.41.56-1.16,1.52-.83,2.46C51.46,12.56,49.84,12,51.83,9.33Z" transform="translate(-2.04 -2.21)"/><path class="cls-4" d="M58.06,14.63c.82-1,1.93-2.4,1.73-4-.09-.67,1.64.39-1.47,4.21a.16.16,0,0,1-.23,0A.17.17,0,0,1,58.06,14.63Z" transform="translate(-2.04 -2.21)"/><path class="cls-4" d="M57.66,9.41C58,9,59.11,7.66,58.4,6.65c-.45-.64,1.83,0-.48,3a.17.17,0,0,1-.26-.21Z" transform="translate(-2.04 -2.21)"/><path class="cls-4" d="M51,7.51a3.8,3.8,0,0,0-.35-2.41A.16.16,0,0,1,51,5a4.15,4.15,0,0,1,.38,2.61.17.17,0,0,1-.2.13A.16.16,0,0,1,51,7.51Z" transform="translate(-2.04 -2.21)"/><path class="cls-4" d="M41.61,17.22a.17.17,0,0,1-.14-.19h0a2.39,2.39,0,0,0-.83-2.2.16.16,0,0,1,0-.23.16.16,0,0,1,.22,0C42,15.51,42,17.27,41.61,17.22Z" transform="translate(-2.04 -2.21)"/><path class="cls-4" d="M61.15,15.12a.17.17,0,0,1,0,.23h0A3.16,3.16,0,0,0,59.84,18a.18.18,0,0,1-.16.18C58.87,18.27,60.6,14.37,61.15,15.12Z" transform="translate(-2.04 -2.21)"/><path class="cls-12" d="M60.94,18.93c-1.86-.47-1.82,3.38-1.74,5.29C59.34,28,63.87,19.66,60.94,18.93Z" transform="translate(-2.04 -2.21)"/><path class="cls-6" d="M60.62,20.82a.13.13,0,0,0-.17-.08.15.15,0,0,0-.09.18h0c.37,1,.08,1.67-.35,1.93A.15.15,0,0,0,60,23C60.23,23.47,61.15,22.32,60.62,20.82Z" transform="translate(-2.04 -2.21)"/><path class="cls-12" d="M40.43,19.72c1.81-.61,2.09,3.23,2.17,5.14C42.77,28.62,37.57,20.69,40.43,19.72Z" transform="translate(-2.04 -2.21)"/><path class="cls-6" d="M40.9,21.59a.14.14,0,1,1,.27.07h0c-.28,1.07.06,1.68.51,1.9a.12.12,0,0,1,.06.18C41.52,24.2,40.5,23.12,40.9,21.59Z" transform="translate(-2.04 -2.21)"/><path class="cls-4" d="M55,20.8c.6,0,1-2.33-.49-2.27C53.74,18.56,54,20.84,55,20.8Z" transform="translate(-2.04 -2.21)"/><path class="cls-4" d="M46.07,21.26c-.6,0-1.17-2.24.29-2.3C47.14,18.93,47.05,21.22,46.07,21.26Z" transform="translate(-2.04 -2.21)"/><path class="cls-6" d="M55.67,31.5a.17.17,0,0,0-.24,0h0c-1.58,2-7.16,2.74-9.83-.18a.18.18,0,0,0-.25,0,.17.17,0,0,0,0,.24C49.29,35.9,56.66,32.26,55.67,31.5Z" transform="translate(-2.04 -2.21)"/><path class="cls-13" d="M52.8,17.42c.14.08,4.78.42,4.85.39,1.12-.37-2.84-1.95-4.79-1.1C52.61,16.82,52.54,17.29,52.8,17.42Z" transform="translate(-2.04 -2.21)"/><path class="cls-13" d="M48.31,16.57c-2-.78-5.67,1-4.73,1.33.29,0,4.76-.58,4.83-.62a.42.42,0,0,0,0-.6A.26.26,0,0,0,48.31,16.57Z" transform="translate(-2.04 -2.21)"/><path class="cls-6" d="M51.69,24.67c.05-.26-.38-.26-.65-.31-1-.18-1,.31-.74-3.88.06-.82.18-1.26-.12-1.27s-.19.32-.25,1.25c-.31,4.55-.35,4,1.55,4.36a.18.18,0,0,0,.21-.15Z" transform="translate(-2.04 -2.21)"/><path class="cls-6" d="M53.53,28.14c.22-.43-.42-.28-5.45-.59C47,27.48,50.91,33.24,53.53,28.14Z" transform="translate(-2.04 -2.21)"/><path class="cls-12" d="M33.89,208.79a4.81,4.81,0,0,1-5.91.26l.34-11.68,7.53.21Z" transform="translate(-2.04 -2.21)"/><path class="cls-14" d="M27,216.17c.79.57.67.42,17.73,1.23,3.42.16,3.57-1.6,1.8-2.7-2.69-1.68-12.42-7.06-13-6.7-1.75,1-2.64,1.2-5.38.82C27.65,208.76,24.63,214.46,27,216.17Z" transform="translate(-2.04 -2.21)"/><path class="cls-9" d="M37.44,210.09a5.37,5.37,0,0,1-2.3,1.75Z" transform="translate(-2.04 -2.21)"/><path class="cls-8" d="M35.14,212.07a.23.23,0,0,1-.08-.44,5.2,5.2,0,0,0,2.2-1.68.21.21,0,0,1,.31,0,.22.22,0,0,1,0,.31,5.59,5.59,0,0,1-2.39,1.83Z" transform="translate(-2.04 -2.21)"/><path class="cls-9" d="M39.12,211.1c0,.69-1.34,1.54-2,1.83Z" transform="translate(-2.04 -2.21)"/><path class="cls-8" d="M37.13,213.16a.22.22,0,0,1-.22-.23.2.2,0,0,1,.13-.2c.79-.36,1.88-1.14,1.86-1.62a.21.21,0,0,1,.2-.23.22.22,0,0,1,.24.21c.07,1-2.09,2-2.12,2A.16.16,0,0,1,37.13,213.16Z" transform="translate(-2.04 -2.21)"/><path class="cls-9" d="M40.9,212.12a3.61,3.61,0,0,1-2.17,1.69Z" transform="translate(-2.04 -2.21)"/><path class="cls-8" d="M38.75,214a.23.23,0,0,1-.21-.13.22.22,0,0,1,.09-.29h0A3.5,3.5,0,0,0,40.7,212a.22.22,0,0,1,.42.16h0a3.75,3.75,0,0,1-2.26,1.8Z" transform="translate(-2.04 -2.21)"/><path class="cls-8" d="M42.8,216.32H41.61a.22.22,0,0,1-.22-.23.24.24,0,0,1,.24-.22h.56c1.46,0,3.1,0,3.36-1.13a.23.23,0,0,1,.27-.17.22.22,0,0,1,.17.26C45.7,216.17,44.21,216.32,42.8,216.32Z" transform="translate(-2.04 -2.21)"/><path class="cls-15" d="M61.8,212.92a6.53,6.53,0,0,0,0,1.53,2,2,0,0,0,.64,1.25,2.4,2.4,0,0,0,1.3.52,15,15,0,0,0,1.53.09l6.21.32c2.06.15,4.13.24,6.2.34,1,.06,2.07.1,3.1.1a9.8,9.8,0,0,0,1.53-.07l.17,0,.14-.06a3.47,3.47,0,0,0,.29-.25.92.92,0,0,0,.29-.66h0a1,1,0,0,1-.25.73,2.37,2.37,0,0,1-.28.27.85.85,0,0,1-.37.15,9,9,0,0,1-1.55.16c-1,0-2.08,0-3.12,0-2.07,0-4.15-.13-6.22-.24s-4.14-.26-6.21-.42c-.52,0-1-.06-1.55-.15a2.61,2.61,0,0,1-1.41-.64,2.1,2.1,0,0,1-.62-1.41,5.06,5.06,0,0,1,.12-1.55Z" transform="translate(-2.04 -2.21)"/><polygon class="cls-12" points="67.54 206.42 61.58 206.99 60.51 195.91 67.81 196.11 67.54 206.42"/><path class="cls-14" d="M62.57,216.08c.78.57.67.42,17.73,1.23,3.42.16,3.57-1.6,1.8-2.7-2.69-1.68-12.42-7.06-13-6.7-1.74,1-2.63,1.2-5.37.82C63.24,208.67,60.21,214.37,62.57,216.08Z" transform="translate(-2.04 -2.21)"/><path class="cls-15" d="M70.73,212a.21.21,0,0,1-.22-.22.23.23,0,0,1,.14-.21,5.11,5.11,0,0,0,2.19-1.68.23.23,0,0,1,.32,0,.21.21,0,0,1,0,.31h0A5.57,5.57,0,0,1,70.82,212Z" transform="translate(-2.04 -2.21)"/><path class="cls-15" d="M72.72,213.06a.22.22,0,0,1-.23-.22.2.2,0,0,1,.14-.2c.79-.36,1.88-1.15,1.85-1.62a.22.22,0,0,1,.21-.23.22.22,0,0,1,.24.21c.06,1-2.1,2-2.12,2A.15.15,0,0,1,72.72,213.06Z" transform="translate(-2.04 -2.21)"/><path class="cls-15" d="M74.34,213.93a.22.22,0,0,1-.22-.13.21.21,0,0,1,.1-.28h0a3.51,3.51,0,0,0,2-1.57.22.22,0,0,1,.29-.12.22.22,0,0,1,.13.29,3.75,3.75,0,0,1-2.26,1.8A.17.17,0,0,1,74.34,213.93Z" transform="translate(-2.04 -2.21)"/><path class="cls-15" d="M78.39,216.23H77.2A.22.22,0,0,1,77,216a.23.23,0,0,1,.23-.22h.57c1.46,0,3.1,0,3.36-1.13a.22.22,0,0,1,.26-.17.23.23,0,0,1,.17.27h0C81.28,216.08,79.79,216.23,78.39,216.23Z" transform="translate(-2.04 -2.21)"/><path class="cls-16" d="M30,95c-.11,2.23-5.5,111.49-3.36,111.7,1.15.11,8.85.69,9.1-.47,9.15-41.71,13.43-82.45,13.43-82.45,2.57,16.37,2.58,33.05,5,49.44.93,6.14,6.93,32.58,7.89,32.79,1.62.34,8.91,1.08,8.9-.41,0-9.4-.89-110.6-.89-110.6Z" transform="translate(-2.04 -2.21)"/><path class="cls-17" d="M49.13,119.57h0a.23.23,0,0,1-.2-.25h0a64.81,64.81,0,0,0,.3-15.85c-.24-2.38-.37-3.68.59-5.42a.23.23,0,1,1,.4.22c-.9,1.61-.78,2.79-.54,5.15a65.18,65.18,0,0,1-.3,16A.22.22,0,0,1,49.13,119.57Z" transform="translate(-2.04 -2.21)"/><path class="cls-17" d="M63.19,204.6a.23.23,0,0,1-.22-.17c-6-23.3-7.69-43.27-8.93-57.85-.82-9.56-1.41-16.46-2.85-20.52a.23.23,0,0,1,.14-.29.22.22,0,0,1,.28.14c1.46,4.11,2,11,2.87,20.64,1.24,14.56,3,34.5,8.93,57.77a.22.22,0,0,1-.16.27h-.06Z" transform="translate(-2.04 -2.21)"/><path class="cls-17" d="M68.36,112.57a.2.2,0,0,1-.13,0c-5.45-4-5.46-5.49-5.53-12.64,0-.83,0-1.74,0-2.73a.22.22,0,0,1,.22-.23.22.22,0,0,1,.23.22h0c0,1,0,1.91,0,2.74.07,7.13.08,8.41,5.34,12.28a.22.22,0,0,1-.13.4Z" transform="translate(-2.04 -2.21)"/><path class="cls-17" d="M31.26,109.57a.23.23,0,0,1-.23-.23.23.23,0,0,1,.13-.2C37,106.24,37.24,105,38.54,98c.15-.82.32-1.71.51-2.69a.23.23,0,0,1,.26-.18.23.23,0,0,1,.18.26c-.19,1-.36,1.88-.51,2.69-1.3,7-1.57,8.5-7.62,11.5A.19.19,0,0,1,31.26,109.57Z" transform="translate(-2.04 -2.21)"/><path class="cls-17" d="M49,123c-.18,0-.3-.19-.52-.55-.52-.84-1.62-2.59-3.57-2a.24.24,0,0,1-.28-.16.22.22,0,0,1,.16-.27c2.27-.63,3.53,1.38,4.07,2.24a.57.57,0,0,0,.08.13,3.49,3.49,0,0,1,2.78-2.22.23.23,0,0,1,.25.2h0a.24.24,0,0,1-.2.25h0a3.05,3.05,0,0,0-2.5,2.19.28.28,0,0,1-.23.23Z" transform="translate(-2.04 -2.21)"/><path class="cls-17" d="M51.3,110.54l-.46,0a3.48,3.48,0,0,0-1,0,.24.24,0,0,1-.27-.18.23.23,0,0,1,.18-.26,3.7,3.7,0,0,1,1.15,0c.46,0,.73.05,1-.15.77-.67,1.22-3.88,1.65-11.83a.22.22,0,0,1,.23-.21.23.23,0,0,1,.22.24c-.51,9.38-1,11.45-1.81,12.14A1.18,1.18,0,0,1,51.3,110.54Z" transform="translate(-2.04 -2.21)"/><rect class="cls-18" x="28" y="93.7" width="40.17" height="4.39"/><path class="cls-19" d="M81.13,107.19c-2.15.73-4.95,1.1-6.21.69,2,7.77,1.14,3.63,1.08,6.59,0,1.67-1.28,7.85.06,8.75,1,.68,1.4-2.13,1.77-3.82.52-2.34,4.35,1.09,2.07,6.49-.22.53-1.55,3.07.14,3.94,3.28-4.34,4.77-11.63,1.15-17.23C80.83,112,80.92,112,81.13,107.19Z" transform="translate(-2.04 -2.21)"/><path class="cls-20" d="M82.18,112.16c.45-.07.36-.55.4-1.43-2.52.74-7.78.41-7.78.41C75.13,112.25,74.38,113.37,82.18,112.16Z" transform="translate(-2.04 -2.21)"/><path class="cls-16" d="M41.67,101c-.16,0-.1-6.51-.1-6.36,0-.18,1.22-.1,1.06-.1.17,0,.1,6.51.1,6.36C42.73,101.11,41.52,101,41.67,101Z" transform="translate(-2.04 -2.21)"/><path class="cls-16" d="M60.36,101c-.17,0-.1-6.51-.1-6.36,0-.18,1.22-.1,1.06-.1.16,0,.1,6.51.1,6.36C61.42,101.11,60.2,101,60.36,101Z" transform="translate(-2.04 -2.21)"/><path class="cls-11" d="M49.38,100.9c-2.17,0-2.75-.07-3.1-.42a1.06,1.06,0,0,1-.26-.8c0-.79,0-1.46,0-2,0-2.11,0-2.82.38-3.25a1.1,1.1,0,0,1,.81-.28l4.68,0c3.92,0,4.74,0,5.18.41a1,1,0,0,1,.26.79c0,.79,0,1.47,0,2,0,2.12,0,2.83-.39,3.25a1.1,1.1,0,0,1-.81.29l-4.68,0ZM54,95l-2.13,0H47.2L47,95a9.11,9.11,0,0,0-.13,2.61c0,.57,0,1.24,0,2a.55.55,0,0,0,0,.18,22.29,22.29,0,0,0,4.52.12l4.69,0a.32.32,0,0,0,.17,0,8.8,8.8,0,0,0,.13-2.61c0-.57,0-1.24,0-2a1.09,1.09,0,0,0,0-.18A9.2,9.2,0,0,0,54,95Z" transform="translate(-2.04 -2.21)"/><path class="cls-21" d="M63.3,49.83C62.71,62,65.2,69.68,74.8,111.14a14.26,14.26,0,0,0,7.78-.41C85.1,110.11,85.42,44.42,70.3,43,67.41,42.75,63.43,47.07,63.3,49.83Z" transform="translate(-2.04 -2.21)"/><path class="cls-20" d="M77.92,111.73a16,16,0,0,1-3.16-.37l-.15,0,0-.14c-1.62-7-3-13-4.27-18.28C64.22,67,62.58,60,63.07,49.82c.08-1.58,1.35-3.7,3.16-5.28a5.85,5.85,0,0,1,4.09-1.75c9.13.85,12.19,23.76,13.2,37.34,1.09,14.6.63,30.44-.89,30.81A17.94,17.94,0,0,1,77.92,111.73ZM75,111a14,14,0,0,0,7.53-.44c1.4-.84,2.28-30.72-2.27-50.74-2.4-10.58-5.76-16.14-10-16.53a5.5,5.5,0,0,0-3.76,1.64c-1.7,1.48-2.93,3.51-3,5h0C63,60,64.66,66.92,70.74,92.81,72,98.07,73.38,104,75,111Z" transform="translate(-2.04 -2.21)"/><path class="cls-8" d="M56.38,36.32c-2.81,2.54-9.74,2.65-12.52-.26-2.92,1.48-12.67,4.52-14.58,5.86C24.87,45,23.71,90.44,30,95c15.41,1.17,24.45,4.95,40,3.15,9.55-2.61,1.76-54.43,1.64-54.88C71.67,43.23,56.42,36.34,56.38,36.32Z" transform="translate(-2.04 -2.21)"/><path class="cls-9" d="M61.93,98.85a106,106,0,0,1-17.38-1.76c-4.46-.71-9.08-1.44-14.53-1.85H30l-.05,0c-3.46-2.5-4.6-16.08-4.5-27.95.09-11.44,1.4-23.88,3.74-25.51,1.09-.77,4.59-2,8-3.28,2.75-1,5.34-2,6.63-2.6l.15-.07.11.12c2.8,2.92,9.56,2.64,12.21.24l.1-.09.13,0,7.67,3.47c7.73,3.51,7.73,3.51,7.77,3.64.13.51,8.07,52.46-1.8,55.16A71.92,71.92,0,0,1,61.93,98.85Zm-31.81-4c5.44.41,10.05,1.14,14.5,1.85C52.53,97.91,60,99.1,70,97.94c9-2.47,1.87-52,1.47-54.51-1.19-.58-13.65-6.21-15.06-6.85-2.82,2.4-9.64,2.67-12.61-.24-1.35.65-3.87,1.57-6.53,2.54A57.68,57.68,0,0,0,29.4,42.1C27.48,43.45,26,54.26,25.86,67.25,25.74,81.94,27.41,92.72,30.12,94.8Z" transform="translate(-2.04 -2.21)"/><path class="cls-21" d="M36.28,68.9C36.36,76,39.17,83,38.2,90c-4.53,33-2.57,35.95-4.71,36-12.48.19-12.3.45-12.65-.5C18.22,118.23,5.06,58.77,29.09,42c2.58-1.81,9.76-4.33,9.9-3.75C41.06,46.57,36.18,60.62,36.28,68.9Z" transform="translate(-2.04 -2.21)"/><path class="cls-20" d="M23.23,126.41c-2.3,0-2.37-.18-2.59-.81-1.49-4.15-5.3-21-5.9-38.28C14.2,71.47,16.22,50.71,29,41.83c2.43-1.7,9.18-4.15,10-3.83a.29.29,0,0,1,.21.22c1.25,5,0,12-1.2,18.76A71.63,71.63,0,0,0,36.5,68.9a56.39,56.39,0,0,0,1.07,8.87c.7,4,1.42,8.17.85,12.27-2.28,16.62-2.91,25.62-3.26,30.46s-.4,5.7-1.66,5.72c-2.69,0-4.79.09-6.44.12S24.13,126.41,23.23,126.41Zm15.5-88a32.09,32.09,0,0,0-9.51,3.79C16.65,51,14.66,71.57,15.19,87.31c.6,17.21,4.38,34,5.86,38.12.21.58.22.59,6,.46,1.65,0,3.75-.08,6.44-.12.83,0,.89-.54,1.23-5.3S35.7,106.62,38,90c.55-4-.16-8.15-.86-12.14a55.82,55.82,0,0,1-1.06-8.93,70.13,70.13,0,0,1,1.51-12C38.76,50.23,40,43.33,38.8,38.41Z" transform="translate(-2.04 -2.21)"/><polygon class="cls-19" points="19.52 94.83 27.34 103.04 32.22 98.9 25.27 88.85 19.52 94.83"/><path class="cls-21" d="M2.62,81.68c5.31,8.63,16.89,23.57,22.68,19.62,4.08-1.87,2.89-3,5.92-5.06C35,93.6,26.05,85.45,21,79.29c-1-1.19-.45-1.52.48-2.92,8-12.16,8.29-34.76,8.29-34.76a13.27,13.27,0,0,0-7.31,3.62C20,47.61-.73,76.24,2.62,81.68Z" transform="translate(-2.04 -2.21)"/><path class="cls-20" d="M23.13,102.17A5,5,0,0,1,22,102C15.53,100.67,6.37,88.2,2.42,81.8-1.08,76.1,20.31,47,22.26,45.07a13.57,13.57,0,0,1,7.43-3.68l.27,0v.27c0,.22-.36,22.8-8.33,34.88l-.37.55c-.67,1-.85,1.22-.12,2.11,1.07,1.29,2.28,2.64,3.57,4.07,3.9,4.36,7.95,8.87,7.63,11.59a2.2,2.2,0,0,1-1,1.61,8.34,8.34,0,0,0-2.25,2.22,7.93,7.93,0,0,1-3.71,2.86A3.9,3.9,0,0,1,23.13,102.17ZM29.5,41.88a12.9,12.9,0,0,0-6.92,3.51c-2.7,2.7-23,31-19.77,36.17,3.91,6.35,13,18.7,19.27,20a3.91,3.91,0,0,0,3.09-.5,7.41,7.41,0,0,0,3.57-2.74,9.13,9.13,0,0,1,2.36-2.32,1.75,1.75,0,0,0,.79-1.29c.29-2.53-3.68-7-7.52-11.24-1.29-1.43-2.51-2.79-3.58-4.09s-.58-1.68.09-2.65c.11-.16.24-.34.37-.54C28.68,65,29.43,44.5,29.5,41.88Z" transform="translate(-2.04 -2.21)"/><path class="cls-21" d="M64.76,90c-.93,7.6,1.2,15.2,1.72,22.84.85,12.61-.42,14.1,2,14.55,2.29.41,11.47,1.18,11.43-1.13-.4-22,1.46-76.13-8.26-83-8.29-3.79-8.49-4-8.42-3.68C71.59,74.78,67.94,63.88,64.76,90Z" transform="translate(-2.04 -2.21)"/><path class="cls-20" d="M74.56,128.06a40,40,0,0,1-6.09-.47c-1.79-.32-1.8-1.17-1.85-5.24,0-2.17-.07-5.14-.36-9.5-.18-2.64-.56-5.32-.93-7.91-.69-4.91-1.41-10-.8-15,.88-7.17,1.8-11.62,2.48-14.86,1.79-8.64,2.07-10-4-35.45a.3.3,0,0,1,.08-.31c.19-.16.19-.16,3.45,1.34l5.2,2.39c8.26,5.81,8.3,44.5,8.32,70.1,0,5.08,0,9.46.07,13.07a1.09,1.09,0,0,1-.43.88C78.89,127.84,76.76,128.06,74.56,128.06ZM64.76,90,65,90c-.6,4.93.11,10,.8,14.85.37,2.6.74,5.29.92,7.95.3,4.37.34,7.35.37,9.53.05,4.09.11,4.55,1.48,4.8,2.07.38,9.29,1,10.89-.37a.66.66,0,0,0,.27-.53c-.06-3.61-.06-8-.07-13.07,0-25.51-.06-64.06-8.09-69.72-2.27-1-4-1.8-5.17-2.37C64.84,40.38,64,40,63.54,39.81c6,25.33,5.71,26.69,3.9,35.38C66.77,78.43,65.85,82.87,65,90Z" transform="translate(-2.04 -2.21)"/><path class="cls-20" d="M15.23,81.06a.23.23,0,0,1-.23-.23.25.25,0,0,1,0-.12c1-1.49,2.58-3.36,4.6-2.63a13.63,13.63,0,0,0-2.89-4.48.22.22,0,1,1,.32-.31h0c1.5,1.54,3.36,4.58,3,5.15a.36.36,0,0,1-.45.1c-1.35-.56-2.68.21-4.18,2.42A.22.22,0,0,1,15.23,81.06Z" transform="translate(-2.04 -2.21)"/><path class="cls-20" d="M26.49,107.75a.22.22,0,0,1-.22-.22.21.21,0,0,1,.07-.17c2.8-2.5,5.71-4.93,8.66-7.24a.22.22,0,1,1,.27.35h0c-2.94,2.31-5.84,4.74-8.63,7.22A.2.2,0,0,1,26.49,107.75Z" transform="translate(-2.04 -2.21)"/><path class="cls-20" d="M78,107.75a.22.22,0,0,1-.15-.06c-2.79-2.48-5.69-4.91-8.63-7.22a.22.22,0,0,1,0-.31.23.23,0,0,1,.32,0c2.94,2.31,5.85,4.74,8.65,7.24a.22.22,0,0,1,0,.31.21.21,0,0,1-.17.08Z" transform="translate(-2.04 -2.21)"/><path class="cls-20" d="M26.5,102.11c-.31.21-.57-.21-1.2-.82,2.34-1.2,5.92-5.06,5.92-5.06C31.77,97.3,33.11,97.55,26.5,102.11Z" transform="translate(-2.04 -2.21)"/><path class="cls-9" d="M46.45,42.72h-.06c-.54,0-.94-.64-1.72-1.82A48,48,0,0,0,41.86,37a.22.22,0,1,1,.35-.28A47.87,47.87,0,0,1,45,40.65c.66,1,1.06,1.59,1.38,1.62s.91-.58,1.84-1.58c.42-.46.93-1,1.55-1.65.4-.4,1.1.27,2.15,1.29.72.7,1.72,1.64,2.12,1.62a.09.09,0,0,0,.08,0c.55-.7,1.15-1.5,1.73-2.27.68-.92,1.4-1.87,2-2.68a.23.23,0,0,1,.32,0,.22.22,0,0,1,0,.31c-.64.8-1.35,1.75-2,2.66s-1.18,1.58-1.73,2.28a.56.56,0,0,1-.4.22c-.57,0-1.35-.67-2.46-1.75a6.61,6.61,0,0,0-1.55-1.28L48.59,41C47.51,42.16,47,42.72,46.45,42.72Z" transform="translate(-2.04 -2.21)"/><path class="cls-9" d="M51.45,97.43a.23.23,0,0,1-.23-.19c-2.8-18.63-1.47-24.58-.41-29.37a25.89,25.89,0,0,0,.83-8.08c-.15-2.52-.51-5.27-.85-7.93a65.12,65.12,0,0,1-.88-12,.21.21,0,0,1,.23-.2h0a.22.22,0,0,1,.21.23h0a66.1,66.1,0,0,0,.87,11.86c.35,2.67.71,5.43.86,8a26.35,26.35,0,0,1-.84,8.2c-1.06,4.75-2.37,10.66.42,29.21a.23.23,0,0,1-.19.25h0Z" transform="translate(-2.04 -2.21)"/><path class="cls-9" d="M61.1,66.42c-1.51,0-2.12-.07-2.45-.39a1,1,0,0,1-.25-.75c0-1.19,0-2.18,0-3,0-2.67,0-3.57.38-4a1,1,0,0,1,.75-.25l3,0c2.67,0,3.57,0,4,.38a1,1,0,0,1,.25.74c0,1.19,0,2.18,0,3,0,2.68,0,3.58-.38,4a1,1,0,0,1-.75.25l-3,0Zm2.91-8h-1.5l-3,0c-.27,0-.37.06-.42.11-.29.29-.28,1.42-.25,3.68,0,.82,0,1.82,0,3a.59.59,0,0,0,.11.43c.29.28,1.42.27,3.68.25l3,0c.28,0,.37-.06.43-.12.28-.29.27-1.42.25-3.67,0-.83,0-1.82,0-3,0-.27-.06-.36-.12-.42-.21-.21-.9-.26-2.17-.26Z" transform="translate(-2.04 -2.21)"/><path class="cls-9" d="M58.06,97.42a.21.21,0,0,1-.16-.08.22.22,0,0,1,0-.31h0a5.76,5.76,0,0,0,1.6-5.85.22.22,0,1,1,.42-.13h0a6.2,6.2,0,0,1-1.71,6.31A.23.23,0,0,1,58.06,97.42Z" transform="translate(-2.04 -2.21)"/><path class="cls-9" d="M43.73,96.33c-2.22-.18-2.83-2.55-3.11-4.59a.23.23,0,0,1,.19-.25h0a.23.23,0,0,1,.26.19h0c.26,1.88.79,4,2.67,4.2a.22.22,0,0,1,.22.23.23.23,0,0,1-.23.22Z" transform="translate(-2.04 -2.21)"/><path class="cls-9" d="M51.37,43.73c-1.21-.48-.45-1.47.14-1.47C52.25,42.26,52.11,44,51.37,43.73Z" transform="translate(-2.04 -2.21)"/><path class="cls-9" d="M52.92,54.53c-1.21-.48-.45-1.47.14-1.47S53.66,54.82,52.92,54.53Z" transform="translate(-2.04 -2.21)"/><path class="cls-9" d="M53.59,65.72c-1.21-.48-.44-1.47.14-1.47C54.47,64.25,54.33,66,53.59,65.72Z" transform="translate(-2.04 -2.21)"/><path class="cls-9" d="M52,75.65c-1.21-.48-.44-1.47.15-1.47C52.92,74.18,52.78,75.94,52,75.65Z" transform="translate(-2.04 -2.21)"/><path class="cls-9" d="M51.68,86.19c-1.21-.48-.45-1.47.14-1.47S52.42,86.48,51.68,86.19Z" transform="translate(-2.04 -2.21)"/><path class="cls-9" d="M52.73,96.47C51.52,96,52.28,95,52.87,95,53.61,95,53.47,96.77,52.73,96.47Z" transform="translate(-2.04 -2.21)"/></svg>