<svg id="圖層_1" data-name="圖層 1" xmlns="http://www.w3.org/2000/svg" viewBox="0 0 342.73 212.94"><defs><style>.cls-1{fill:#eabba7;}.cls-2{fill:#f3a589;}.cls-3{fill:#793b23;}.cls-4{fill:#672c1b;}.cls-5{fill:#e3765a;}.cls-6{fill:#382723;}.cls-7{fill:#fef4ec;}.cls-8{fill:#f1e7dd;}.cls-9{fill:#fffffc;}.cls-10{fill:#fff;}.cls-11{fill:#738796;}.cls-12{fill:#3d4960;}.cls-13{fill:#fce4d8;}.cls-14{fill:#f8c8b0;}.cls-15{fill:#f3a486;}.cls-16{fill:#2f333e;}.cls-17{fill:#e79487;}.cls-18{fill:#343a48;}.cls-19{fill:#353b4a;}.cls-20{fill:#d97358;}.cls-21{fill:#e79384;}.cls-22{fill:#fffffd;}.cls-23{fill:#f0e6dc;}.cls-24{fill:#e8b37c;}.cls-25{fill:#c2863a;}.cls-26{fill:#eba186;}.cls-27{fill:#4d3931;}.cls-28{fill:#07191d;}.cls-29{fill:#323b4c;}.cls-30{fill:#3d485f;}.cls-31{fill:#7c494a;}.cls-32{fill:#eba084;}.cls-33{fill:#ac332d;}.cls-34{fill:#d25949;}</style></defs><path class="cls-1" d="M313,35.4c.68,1.91-5.27,4.37-12,4.37s-13.15-2.65-12.08-4.37S294.28,35,301,35,312,32.82,313,35.4Z" transform="translate(-3.81 -2.63)"/><path class="cls-1" d="M301,40c-5.75,0-11.3-2-12.24-3.62a1,1,0,0,1,0-1.05c.7-1.14,2.78-1,6.23-.77,1.74.11,3.71.24,6,.24a46.5,46.5,0,0,0,6.31-.52c3.15-.42,5.23-.69,5.87,1.1a1.3,1.3,0,0,1-.23,1.19C311.75,38.18,306.86,40,301,40Zm-9.26-5.2c-1.39,0-2.3.17-2.65.74a.57.57,0,0,0,0,.65c.86,1.55,6.36,3.42,11.89,3.42s10.48-1.69,11.59-3.27a.86.86,0,0,0,.18-.83c-.52-1.49-2.38-1.25-5.44-.84a45.3,45.3,0,0,1-6.36.53c-2.29,0-4.27-.13-6-.25C293.71,34.83,292.63,34.76,291.74,34.76Z" transform="translate(-3.81 -2.63)"/><path class="cls-2" d="M305.41,30.08c-.06,4.88-1.68,8.51,7.3,12.73-5.34,7.35-10.61,10.07-10.61,10.07S290.84,47.81,287,44.46c2-1.47,4.12-2.56,6-3.87,3.67-2.57,1.51-8.3,2.22-10.42Z" transform="translate(-3.81 -2.63)"/><path class="cls-2" d="M307.07,13.41c-4.35-6.08-14.61-4.54-15.81,4.79s3.3,16.54,5.9,17.25c2.36.65,4.69.93,6.66-.4C309,31.55,311,18.9,307.07,13.41Z" transform="translate(-3.81 -2.63)"/><path class="cls-3" d="M294.37,7.21c-6.9,5.5-4.8,9.08-3,17.69-.72-4.67,4.73-12.12,3.82-10.23-2.87,6,1.33.38,7.45,2.93.43.18.77.1,2.5-.4S309,23.69,309,23.69c1.83-3.05,2-8.25,2-8.25C310.49,5.24,297.82,3.52,297,7.3,296.42,7.28,295.18,6.57,294.37,7.21Z" transform="translate(-3.81 -2.63)"/><path class="cls-4" d="M297.08,7.45a.22.22,0,0,1,.2.23,5.36,5.36,0,0,0,1.6,4,.2.2,0,0,1,0,.3C298.19,12.65,296,7.4,297.08,7.45Z" transform="translate(-3.81 -2.63)"/><path class="cls-4" d="M292.13,14.15c-.53-.08.38-3.73,3.35-5.55a.22.22,0,0,1,.23.37,7.24,7.24,0,0,0-3.34,5A.2.2,0,0,1,292.13,14.15Z" transform="translate(-3.81 -2.63)"/><path class="cls-4" d="M295.45,13.83a1.93,1.93,0,0,0,.55-2,.21.21,0,1,1,.41-.12,2.31,2.31,0,0,1-.75,2.46A.21.21,0,1,1,295.45,13.83Z" transform="translate(-3.81 -2.63)"/><path class="cls-4" d="M291.2,18.92c-.62-2.55-.8-2.65-.49-2.74s.38.45.91,2.64A.22.22,0,0,1,291.2,18.92Z" transform="translate(-3.81 -2.63)"/><path class="cls-4" d="M303.7,8.11C302.54,7,300,6.35,298.53,7.28a.22.22,0,0,1-.3-.07c-.43-.67,3.5-1.64,5.77.59A.22.22,0,1,1,303.7,8.11Z" transform="translate(-3.81 -2.63)"/><path class="cls-4" d="M304.65,11.7a3.6,3.6,0,0,0-4.56-.35.22.22,0,0,1-.3-.06c-.32-.49,3.06-2.09,5.17.11A.22.22,0,1,1,304.65,11.7Z" transform="translate(-3.81 -2.63)"/><path class="cls-4" d="M300,8.49c1.82-.47,1.67.77,1.19.48a1.61,1.61,0,0,0-1.87.46C299,9.91,298.32,8.92,300,8.49Z" transform="translate(-3.81 -2.63)"/><path class="cls-4" d="M302.6,16.89a2.37,2.37,0,0,0-1-2.63.21.21,0,0,1,.2-.38A2.78,2.78,0,0,1,303,17,.21.21,0,0,1,302.6,16.89Z" transform="translate(-3.81 -2.63)"/><path class="cls-4" d="M296.44,16.5c0-1.5,2.34-3.4,2.5-2.65a.22.22,0,0,1-.16.26,3.31,3.31,0,0,0-1.91,2.39A.22.22,0,0,1,296.44,16.5Z" transform="translate(-3.81 -2.63)"/><path class="cls-4" d="M305.59,16.56a3.26,3.26,0,0,0,.57-3.43.21.21,0,0,1,.4-.14,3.69,3.69,0,0,1-.62,3.83A.22.22,0,0,1,305.59,16.56Z" transform="translate(-3.81 -2.63)"/><path class="cls-4" d="M309,19c-.43-.17,0-.11.58-2.57a.22.22,0,1,1,.42.1C309.89,16.89,309.37,19.11,309,19Z" transform="translate(-3.81 -2.63)"/><path class="cls-4" d="M309.65,13.57a5.68,5.68,0,0,0-2.6-3.81.22.22,0,0,1-.1-.28c.56-1.16,4,4.1,2.95,4.27A.22.22,0,0,1,309.65,13.57Z" transform="translate(-3.81 -2.63)"/><path class="cls-2" d="M290.21,22.33c1.77-.52,1.88,3.18,1.88,5C292.1,31,287.42,23.15,290.21,22.33Z" transform="translate(-3.81 -2.63)"/><path class="cls-5" d="M290.58,24.14a.14.14,0,0,1,.26.08c-.31,1,0,1.62.42,1.85a.14.14,0,0,1,.05.18C291.07,26.67,290.14,25.6,290.58,24.14Z" transform="translate(-3.81 -2.63)"/><path class="cls-2" d="M309.94,22.28c-1.77-.52-1.88,3.18-1.88,5C308.05,30.92,312.73,23.1,309.94,22.28Z" transform="translate(-3.81 -2.63)"/><path class="cls-5" d="M309.57,24.09a.14.14,0,0,0-.26.08c.31,1,0,1.61-.42,1.84a.15.15,0,0,0-.05.19C309.08,26.62,310,25.55,309.57,24.09Z" transform="translate(-3.81 -2.63)"/><path class="cls-6" d="M296,23.9c-.57,0-1-2.2.38-2.2C297.11,21.7,296.93,23.9,296,23.9Z" transform="translate(-3.81 -2.63)"/><path class="cls-6" d="M304.59,24c.58,0,1-2.2-.38-2.2C303.46,21.78,303.64,24,304.59,24Z" transform="translate(-3.81 -2.63)"/><path class="cls-5" d="M295.22,34a.17.17,0,0,1,.24,0c1.51,2,6.88,2.64,9.45-.17a.16.16,0,1,1,.24.22C301.35,38.25,294.27,34.76,295.22,34Z" transform="translate(-3.81 -2.63)"/><path class="cls-3" d="M297.89,19.48c-1.91-.76-5.64.81-4.57,1.21.34.13,1.45-.31,1.85-.35.81-.09,2.29.26,2.8-.18A.43.43,0,0,0,297.89,19.48Z" transform="translate(-3.81 -2.63)"/><path class="cls-3" d="M302.19,20.1c.49.46,2,.16,2.79.28.4.05,1.49.53,1.84.42,1.08-.37-2.6-2.09-4.52-1.38A.42.42,0,0,0,302.19,20.1Z" transform="translate(-3.81 -2.63)"/><path class="cls-5" d="M299.32,27.48c-.06-.24.36-.26.62-.32.95-.22,1,.25.55-3.76-.09-.78-.22-1.2.06-1.22s.19.29.29,1.18c.49,4.36.5,3.82-1.31,4.25A.17.17,0,0,1,299.32,27.48Z" transform="translate(-3.81 -2.63)"/><path class="cls-7" d="M297.69,30.89c-.27-.4.53-.3,5.21-.78C304.11,30,300,34.24,297.69,30.89Z" transform="translate(-3.81 -2.63)"/><path class="cls-2" d="M316.17,204.49a4.62,4.62,0,0,0,5.68.25l-.33-11.23-7.24.21Z" transform="translate(-3.81 -2.63)"/><path class="cls-8" d="M322.81,211.59c-.76.55-.65.4-17.05,1.18-3.29.16-3.43-1.54-1.73-2.59,2.59-1.61,11.94-6.79,12.53-6.44a6.41,6.41,0,0,0,2.61.95c1.22,0,2.75-.22,2.85,0C323.13,206.69,324.68,210.23,322.81,211.59Z" transform="translate(-3.81 -2.63)"/><path class="cls-9" d="M305.36,213c-1.43,0-2.36-.39-2.57-1.09s.23-1.36,1.12-1.92c1.34-.83,11.92-6.94,12.76-6.44a6.44,6.44,0,0,0,2.5.93c.5,0,1.05,0,1.54-.06,1.05-.07,1.38-.08,1.5.14,1.13,2.07,2.73,5.75.73,7.21-.64.46-.64.46-8.53.82-2.2.1-5,.22-8.64.4Zm11.07-9.08c-.86,0-9.3,4.58-12.29,6.44-.7.44-1.07,1-.94,1.42s1.12.84,2.55.78c3.62-.18,6.44-.3,8.64-.4,7.68-.35,7.76-.36,8.29-.74,1.73-1.26.24-4.65-.82-6.6a7.68,7.68,0,0,0-1.12,0c-.5,0-1.06.07-1.58.06a6.58,6.58,0,0,1-2.71-1Z" transform="translate(-3.81 -2.63)"/><path class="cls-8" d="M323.57,208.55c.61,2.88-1,3.31-2.05,3.47-.43.06-17,1.32-18,.44a1.19,1.19,0,0,1-.51-1Z" transform="translate(-3.81 -2.63)"/><path class="cls-9" d="M323.59,208.54a5,5,0,0,1,.21,1.5,2.22,2.22,0,0,1-.57,1.48,2.8,2.8,0,0,1-1.44.71c-.53.1-1,.13-1.51.19-2,.21-4,.34-6,.48s-4,.17-6,.16c-1,0-2,0-3-.12a9.72,9.72,0,0,1-1.5-.23l-.19-.07a.78.78,0,0,1-.2-.11,2.43,2.43,0,0,1-.26-.29,1,1,0,0,1-.2-.74h0a.94.94,0,0,0,.24.67c.08.09.17.17.26.26l.16.08.18,0a9.05,9.05,0,0,0,1.48.15c1,0,2,0,3,0,2,0,4-.14,6-.25s4-.24,6-.38c.49-.05,1-.06,1.48-.14a2.5,2.5,0,0,0,1.33-.6,2,2,0,0,0,.59-1.32,5.69,5.69,0,0,0-.11-1.48Z" transform="translate(-3.81 -2.63)"/><path class="cls-8" d="M312.75,205.74a5.25,5.25,0,0,0,2.21,1.69Z" transform="translate(-3.81 -2.63)"/><path class="cls-9" d="M314.88,207.63a5.47,5.47,0,0,1-2.3-1.76l.35-.26a5,5,0,0,0,2.11,1.62Z" transform="translate(-3.81 -2.63)"/><path class="cls-8" d="M311.14,206.71c0,.67,1.29,1.49,1.91,1.77Z" transform="translate(-3.81 -2.63)"/><path class="cls-9" d="M313,208.67s-2.1-1-2-2l.43,0c0,.45,1,1.21,1.79,1.55Z" transform="translate(-3.81 -2.63)"/><path class="cls-8" d="M309.42,207.7a3.56,3.56,0,0,0,2.09,1.63Z" transform="translate(-3.81 -2.63)"/><path class="cls-9" d="M311.43,209.52a3.67,3.67,0,0,1-2.21-1.74l.4-.16a3.3,3.3,0,0,0,1.95,1.49l-.06.22Z" transform="translate(-3.81 -2.63)"/><path class="cls-8" d="M304.74,210.26c.32,1.48,2.48,1.24,4,1.25Z" transform="translate(-3.81 -2.63)"/><path class="cls-9" d="M307.59,211.73c-1.34,0-2.78-.14-3.06-1.43l.42-.09c.25,1.13,1.83,1.11,3.23,1.09h.56v.43h-1.15Z" transform="translate(-3.81 -2.63)"/><path class="cls-10" d="M289.37,208.45a5.1,5.1,0,0,1,.21,1.51,2.18,2.18,0,0,1-.57,1.47,2.73,2.73,0,0,1-1.44.71c-.53.11-1,.13-1.51.2-2,.2-4,.33-6,.47s-4,.18-6,.16c-1,0-2,0-3-.11a8.67,8.67,0,0,1-1.5-.24l-.19-.07a.59.59,0,0,1-.19-.11,1.8,1.8,0,0,1-.26-.29.94.94,0,0,1-.21-.73h0a.94.94,0,0,0,.24.67,2.23,2.23,0,0,0,.27.26l.15.08.18,0a9.17,9.17,0,0,0,1.48.15c1,0,2,0,3,0,2,0,4-.14,6-.25s4-.23,6-.38c.49,0,1-.06,1.48-.14a2.46,2.46,0,0,0,1.33-.6,2,2,0,0,0,.59-1.32,5.69,5.69,0,0,0-.11-1.48Z" transform="translate(-3.81 -2.63)"/><polygon class="cls-2" points="278.04 201.72 283.78 202.27 284.8 191.61 277.79 191.8 278.04 201.72"/><path class="cls-8" d="M288.59,211.51c-.75.54-.64.39-17,1.17-3.29.16-3.43-1.53-1.73-2.59,2.59-1.61,11.94-6.79,12.54-6.44,1.68,1,2.53,1.15,5.16.78C288,204.37,290.85,209.86,288.59,211.51Z" transform="translate(-3.81 -2.63)"/><path class="cls-9" d="M271.14,212.91c-1.42,0-2.35-.39-2.57-1.09s.23-1.36,1.13-1.92c1.33-.83,11.91-6.94,12.76-6.44,1.57.93,2.37,1.13,5,.76.55-.08,1.44,2.12,1.48,2.22.47,1.17,1.4,4-.25,5.24-.64.47-.64.47-8.53.82l-8.64.4Zm11.07-9.08c-.86,0-9.3,4.58-12.29,6.44-.7.44-1.07,1-.94,1.42s1.13.84,2.55.78l8.64-.4c7.69-.35,7.76-.35,8.29-.74l.13.18-.13-.18a2.25,2.25,0,0,0,.76-2.11,9.29,9.29,0,0,0-1.73-4.57c-2.57.36-3.51.21-5.25-.82Z" transform="translate(-3.81 -2.63)"/><path class="cls-10" d="M280.74,207.56l-.08,0a5.45,5.45,0,0,1-2.3-1.76.21.21,0,0,1,.05-.3.22.22,0,0,1,.3,0,5,5,0,0,0,2.11,1.62.21.21,0,0,1,.12.28A.22.22,0,0,1,280.74,207.56Z" transform="translate(-3.81 -2.63)"/><path class="cls-10" d="M278.83,208.6a.15.15,0,0,1-.09,0s-2.1-1-2-2a.23.23,0,0,1,.23-.2.21.21,0,0,1,.2.23c0,.45,1,1.21,1.79,1.55a.21.21,0,0,1-.09.41Z" transform="translate(-3.81 -2.63)"/><path class="cls-10" d="M277.21,209.44a3.73,3.73,0,0,1-2.21-1.75.22.22,0,0,1,.12-.28.22.22,0,0,1,.28.12,3.26,3.26,0,0,0,2,1.49l-.05.22Z" transform="translate(-3.81 -2.63)"/><path class="cls-10" d="M273.38,211.65c-1.35,0-2.79-.15-3.07-1.44a.21.21,0,0,1,.17-.25.2.2,0,0,1,.25.16c.25,1.14,1.83,1.11,3.23,1.09h.56a.22.22,0,0,1,.22.22.21.21,0,0,1-.22.21h-1.14Z" transform="translate(-3.81 -2.63)"/><path class="cls-11" d="M321.79,87.65c0,1.95,2.82,114.7,1.31,114.84-1.11.11-8.51.66-8.75-.45-8.81-40.1-12.91-79.28-12.91-79.28-4.87,30.92.57,30.46-11.94,78.59-.25,1-9.07,1.54-9.06.09,0-9.05.49-118.87,0-111.07C286.2,90,321.79,87.65,321.79,87.65Z" transform="translate(-3.81 -2.63)"/><path class="cls-12" d="M318.27,203c-2,0-4-.18-4.13-.87-7.71-35.09-11.85-69.86-12.73-77.67a225.93,225.93,0,0,0-2.32,23.25c-.7,11.77-1.36,22.88-9.38,53.74-.26,1-5.41,1.32-7.66,1-1.23-.16-1.83-.49-1.83-1,0-10.82.42-102.74.1-110.85h-.12l0-.25c0-.41,0-.61.27-.6s.19,0,.23.38c6.54-.44,40.71-2.67,41.06-2.69H322l0,.66c.18,7.63.82,34.51,1.27,60.11.95,54.4.25,54.47-.17,54.51C322.93,202.73,320.54,203,318.27,203Zm-16.79-81.84.18,1.63c0,.39,4.2,39.62,12.9,79.25.14.66,5.05.62,8.42.3.95-2.71-.15-63-1.4-114.19v-.22l-40.83,2.68c0,.64.05,1.78.07,3.84,0,2.69,0,6.65.05,11.76,0,8.71,0,20.91,0,36.27-.06,25.35-.17,51.57-.2,59,0,.13.24.32.89.46,2.43.53,7.51-.07,7.75-.61,8-30.81,8.67-41.91,9.37-53.66a229,229,0,0,1,2.57-24.9Z" transform="translate(-3.81 -2.63)"/><path class="cls-12" d="M301.51,118.72a.23.23,0,0,1-.22-.2,84.69,84.69,0,0,1-.39-17c.21-3.23.34-5.18-.55-6.79a.22.22,0,1,1,.39-.22c.95,1.72.83,3.72.61,7a84,84,0,0,0,.39,16.94.24.24,0,0,1-.2.25Z" transform="translate(-3.81 -2.63)"/><path class="cls-12" d="M288,200.47h-.05a.21.21,0,0,1-.16-.27c5.75-22.37,7.38-41.54,8.58-55.55.78-9.22,1.35-15.89,2.76-19.85a.21.21,0,0,1,.28-.13.22.22,0,0,1,.14.28c-1.39,3.91-2,10.55-2.74,19.74-1.19,14-2.83,33.22-8.59,55.62A.23.23,0,0,1,288,200.47Z" transform="translate(-3.81 -2.63)"/><path class="cls-12" d="M281.3,116.73a.22.22,0,0,1-.18-.1.21.21,0,0,1,0-.31c5.06-3.72,5.07-4.95,5.14-11.8,0-.8,0-1.67,0-2.64a.22.22,0,0,1,.22-.22.23.23,0,0,1,.23.23c0,1,0,1.83,0,2.63-.07,6.88-.08,8.31-5.32,12.16A.24.24,0,0,1,281.3,116.73Z" transform="translate(-3.81 -2.63)"/><path class="cls-12" d="M321.68,116.64l-.85,0c-5.78-.19-5.78-.34-5.89-8.29,0-1,0-2.21-.06-3.55a.22.22,0,0,1,.21-.23.22.22,0,0,1,.23.22c0,1.34.05,2.52.07,3.56.05,3.89.08,5.84.75,6.79s2,1,4.71,1l.84,0a.22.22,0,0,1,.21.23A.22.22,0,0,1,321.68,116.64Z" transform="translate(-3.81 -2.63)"/><path class="cls-12" d="M301.63,122h0a.3.3,0,0,1-.27-.23,2.93,2.93,0,0,0-2.4-2.1.22.22,0,0,1-.19-.25.22.22,0,0,1,.25-.2,3.36,3.36,0,0,1,2.67,2.11c1.14-2.16,2.84-2.57,4-2.26a.23.23,0,0,1-.12.44c-1-.29-2.6.15-3.62,2.32A.31.31,0,0,1,301.63,122Z" transform="translate(-3.81 -2.63)"/><path class="cls-13" d="M287.89,51.65c.63,13-1,52.89-14.3,57.1C254.2,112.69,266.76,95,265.77,86c-.8-7.25,3.9-13.55,3.5-18.07-.88-9.86,2.17-14.49,5.56-18.33,1.89-2.15,3.18-4.17,6.33-4.47C283.93,44.84,287.76,49,287.89,51.65Z" transform="translate(-3.81 -2.63)"/><path class="cls-14" d="M268.78,109.52c-2.34,0-4-.54-5-1.63-2.34-2.48-1.08-7.26.26-12.32.9-3.4,1.83-6.91,1.53-9.59-.45-4.14.86-8,2-11.32.89-2.59,1.66-4.83,1.49-6.75-.91-10.16,2.42-14.87,5.61-18.49l.72-.83c1.57-1.85,2.93-3.45,5.76-3.71a5.64,5.64,0,0,1,3.93,1.68c1.74,1.52,3,3.56,3,5.08a170.87,170.87,0,0,1-1.94,31.9c-1.69,10.32-5.24,23.11-12.52,25.41A24.9,24.9,0,0,1,268.78,109.52ZM281.4,45.3h-.22c-2.65.25-4,1.78-5.47,3.56l-.72.83c-3.13,3.55-6.4,8.18-5.51,18.17.18,2-.6,4.29-1.51,6.93-1.14,3.32-2.43,7.09-2,11.14.3,2.75-.64,6.3-1.55,9.74-1.24,4.72-2.54,9.6-.35,11.92,1.52,1.61,4.62,1.92,9.46.94,12.43-3.94,14.91-40.71,14.13-56.88-.06-1.39-1.25-3.35-2.88-4.77A5.63,5.63,0,0,0,281.4,45.3Z" transform="translate(-3.81 -2.63)"/><path class="cls-13" d="M292.94,40.59c2.66,6.55,13.19,6.58,15.9,0,3,.13,9.92,2.16,11.76,3.45,4.24,3,8.09,61.25,2,65.66-14.82,1.12-27.21.26-42.17-1.47-9.18-2.51-.72-62.45-.6-62.88C283.41,43.47,293.37,40.45,292.94,40.59Z" transform="translate(-3.81 -2.63)"/><path class="cls-14" d="M309.3,110.42a247.4,247.4,0,0,1-28.89-2c-9.51-2.6-1-62.57-.79-63.16l0-.09.08,0a101.42,101.42,0,0,1,12.93-4.7l.22-.07v0a.42.42,0,0,1,.19,0l.11.08,0,.1a8.11,8.11,0,0,0,7.68,4.71h0a8.16,8.16,0,0,0,7.77-4.79l.05-.14h.15c3,.13,10,2.18,11.87,3.48,2.74,1.92,5.11,24.75,5.25,42.37.06,7.91-.28,21.49-3.24,23.64l-.05,0h-.06C318,110.26,313.59,110.42,309.3,110.42ZM280,45.49c-.4,2.6-8.31,60.14.47,62.53,14.94,1.73,27.21,2.58,42,1.46,2-1.57,3.12-10,3-23.24-.15-19.17-2.71-40.38-5.06-42C318.68,43,312,41,309,40.82a8.56,8.56,0,0,1-8.13,4.91,8.46,8.46,0,0,1-8-4.88C291.47,41.27,283.3,43.8,280,45.49Z" transform="translate(-3.81 -2.63)"/><path class="cls-13" d="M344.65,74.57c.74,1.62,2,6,1.59,7.7-.34,1.3-2.89,9.1-8.58,11.58-6,2.6-7.88,10.18-12.81,6.34-2.65-3.35-4.34-10.54-4.34-10.54-2.95-6.71,3.36-3.1,8.09-9.68.86-1.2.79-1.78-.46-2.81-11.6-9.59-7.67-33-7.67-33,6.81-.73,15.11,13.09,16.73,19.73C338.34,68.55,342.8,70.53,344.65,74.57Z" transform="translate(-3.81 -2.63)"/><path class="cls-14" d="M327.44,101.47a4.42,4.42,0,0,1-2.72-1.11l0,0C322,97,320.37,90,320.3,89.7c-.75-1.69-.94-2.82-.6-3.63s1.37-1.31,2.63-1.8a12.23,12.23,0,0,0,6.09-4.42c.81-1.12.73-1.57-.42-2.52-11.56-9.57-7.78-33-7.74-33.2l0-.16.17,0c7.23-.76,15.43,13.62,17,19.9.63,2.56,2.32,4.33,4,6.05a17.26,17.26,0,0,1,3.47,4.58c.69,1.51,2.07,6,1.6,7.85,0,.08-2.46,9-8.69,11.72a17.62,17.62,0,0,0-5.45,4.25C330.68,100,329.22,101.47,327.44,101.47ZM325,100c2.85,2.21,4.58.43,7-2a17.79,17.79,0,0,1,5.59-4.35c6-2.63,8.42-11.34,8.45-11.43.41-1.61-.81-5.87-1.58-7.56a16.88,16.88,0,0,0-3.39-4.46c-1.68-1.76-3.41-3.58-4.07-6.25-1.67-6.87-9.86-20-16.33-19.58-.32,2.1-3.25,23.64,7.62,32.62,1.32,1.1,1.43,1.8.49,3.11a12.63,12.63,0,0,1-6.28,4.57c-1.21.47-2.09.82-2.4,1.57s-.08,1.74.62,3.32C320.74,89.67,322.43,96.75,325,100Z" transform="translate(-3.81 -2.63)"/><path class="cls-13" d="M287,43.34c-1.86-2-.87-4.52,3.33-3.7a.48.48,0,0,0,.57-.45c0-.93-3.12-3.64-1.63-3.87,3.59-.57,9.73,10.19,11.73,10.19,2.46,0,3.69-5.32,5.15-7.11.54-.67,5.05-5.87,6.6-3.69.84,1.19,0,2.27.41,3.67s1.48-1.33,2.66-.24c1.55,1.44,1.33,4.12,0,5.77C311.42,49.35,292,48.71,287,43.34Z" transform="translate(-3.81 -2.63)"/><path class="cls-14" d="M302.68,47.91c-5.89,0-13-1.33-15.86-4.43a2.63,2.63,0,0,1-.73-3c.59-1.07,2.14-1.45,4.25-1a.29.29,0,0,0,.22-.06.2.2,0,0,0,.09-.18,4.71,4.71,0,0,0-.94-1.55c-.67-.89-1.25-1.67-1-2.17a.66.66,0,0,1,.54-.37c2.25-.35,5.21,3.21,7.83,6.34,1.58,1.9,3.22,3.86,3.94,3.86,1.49,0,2.56-2.3,3.51-4.33A14.07,14.07,0,0,1,306,38.26s3.59-4.37,5.79-4.3a1.41,1.41,0,0,1,1.14.62,2.81,2.81,0,0,1,.38,2.14,3.91,3.91,0,0,0,.06,1.59c.07.22.13.24.13.24s.35-.19.51-.31c.48-.38,1.21-1,2-.26,1.67,1.56,1.36,4.39,0,6.06-1.79,2.23-6.13,3.63-11.9,3.84Q303.39,47.91,302.68,47.91ZM288.8,39.7a2.53,2.53,0,0,0-2.34,1,2.24,2.24,0,0,0,.67,2.52c2.59,2.78,9.54,4.53,16.92,4.26,5.56-.2,9.89-1.58,11.57-3.68,1.22-1.52,1.52-4.08,0-5.47-.45-.42-.84-.16-1.4.28-.33.25-.61.48-.91.38a.69.69,0,0,1-.41-.52,4.45,4.45,0,0,1-.08-1.76,2.42,2.42,0,0,0-.3-1.85,1,1,0,0,0-.8-.44h0c-1.67,0-4.53,3.06-5.41,4.14a14.22,14.22,0,0,0-1.42,2.62c-1,2.15-2.13,4.58-3.9,4.58-.88,0-2.2-1.53-4.28-4-2.41-2.9-5.43-6.51-7.42-6.19-.08,0-.18,0-.21.1-.11.28.56,1.17,1,1.75a4.1,4.1,0,0,1,1,1.82.67.67,0,0,1-.24.51.71.71,0,0,1-.58.14A7.78,7.78,0,0,0,288.8,39.7Z" transform="translate(-3.81 -2.63)"/><path class="cls-15" d="M266.2,109.93c2.17.22,4.87,0,6-.7-.18,7.71-.27,3.65.43,6.4.4,1.57,2.91,7.07,1.85,8.21-.81.87-1.78-1.68-2.49-3.19-1-2.08-3.83,2-.53,6.53.33.45,2.13,2.54.73,3.72a14.62,14.62,0,0,1-3.69-4.65c1,3,.56,5.12-.14,5-1.26-.27-2.86-11-1-16.2C267.54,114.41,267.44,114.4,266.2,109.93Z" transform="translate(-3.81 -2.63)"/><polygon class="cls-15" points="318.08 94.26 312.91 96.11 310.59 90.56 316.01 88.13 318.08 94.26"/><path class="cls-14" d="M265.5,108.75a13.73,13.73,0,0,0,8.09,0c.33,2,.1,3-1.22,4.28C271.74,113.62,264.42,115.6,265.5,108.75Z" transform="translate(-3.81 -2.63)"/><path class="cls-14" d="M318.29,98.54c.42.44,2.9.26,5.13-.66-1-1.37-2.23-5.72-3.06-8.89-.51.22-3.3,2.46-4,3.05C315.87,92.4,316.94,97.18,318.29,98.54Z" transform="translate(-3.81 -2.63)"/><path class="cls-14" d="M311.73,108.46a25.88,25.88,0,0,1-6.53-1c-.87-.21-1.86-.44-3-.68-6.74-1.42-13.72-1.06-19-.6-1,.08-1.3-.45-2-1.61-.28-.47-.63-1.06-1.13-1.78a1.56,1.56,0,0,1,.18-2c3.65-3.7,5.7-11.47,6.24-13.77a1.25,1.25,0,0,1,1.39-.95c8.61,1.14,16.34,1.95,23.9.28a1.25,1.25,0,0,1,1,.19,1.21,1.21,0,0,1,.53.84,34.67,34.67,0,0,0,6.07,15.12c.65.89.13,1.88-.47,3a13.92,13.92,0,0,0-.7,1.45,1.57,1.57,0,0,1-1.2.94A32.45,32.45,0,0,1,311.73,108.46Zm-20.24-3.11a52.42,52.42,0,0,1,10.81,1c1.13.24,2.12.47,3,.68a23.59,23.59,0,0,0,11.59.48,1.12,1.12,0,0,0,.87-.67,14.86,14.86,0,0,1,.71-1.49c.56-1.06,1-1.89.51-2.57a35,35,0,0,1-6.14-15.31.84.84,0,0,0-.35-.55.81.81,0,0,0-.64-.12c-7.63,1.68-15.41.87-24.05-.28a.84.84,0,0,0-.92.63c-.7,3-2.73,10.29-6.36,14a1.12,1.12,0,0,0-.12,1.41c.5.74.85,1.33,1.14,1.81.7,1.18.89,1.46,1.58,1.4C285.61,105.54,288.46,105.35,291.49,105.35Z" transform="translate(-3.81 -2.63)"/><path class="cls-14" d="M301.49,46.6c-3.36,0-5.72-2.33-7.81-4.39a21.92,21.92,0,0,0-2.35-2.12.21.21,0,1,1,.25-.34A20.82,20.82,0,0,1,294,41.9c2,2,4.33,4.27,7.51,4.27h.21c3.2-.1,6.79-2.44,11-7.15a.21.21,0,0,1,.3,0,.22.22,0,0,1,0,.31c-4.28,4.8-8,7.18-11.29,7.29Z" transform="translate(-3.81 -2.63)"/><path class="cls-14" d="M334.11,80.81a.21.21,0,0,1-.18-.09c-1.44-2.12-2.72-2.86-4-2.33a.33.33,0,0,1-.43-.1c-.37-.55,1.41-3.46,2.86-5a.2.2,0,0,1,.3,0,.21.21,0,0,1,0,.3,13.26,13.26,0,0,0-2.79,4.3c2-.69,3.46,1.11,4.43,2.54a.2.2,0,0,1-.06.29A.19.19,0,0,1,334.11,80.81Z" transform="translate(-3.81 -2.63)"/><path class="cls-1" d="M316.77,67.71c-7.67,23-31.24,6.54-32.78,0-1.11-4.7,4.33-8.79,13.39-8.79S318.27,63.21,316.77,67.71Z" transform="translate(-3.81 -2.63)"/><path class="cls-1" d="M303.06,79.72l-.7,0c-8.47-.38-17.57-7.72-18.57-12a5.36,5.36,0,0,1,1.11-4.66c2.16-2.74,6.83-4.37,12.48-4.37,7.72,0,16.61,3,19,6.31a2.94,2.94,0,0,1,.55,2.74C313.69,77.53,307.73,79.72,303.06,79.72Zm-5.68-20.61c-5.53,0-10.08,1.58-12.17,4.22a4.94,4.94,0,0,0-1,4.33c.87,3.7,9.65,11.26,18.2,11.65,4.63.21,10.85-1.64,14.2-11.67a2.53,2.53,0,0,0-.49-2.38C313.78,62,304.86,59.11,297.38,59.11Z" transform="translate(-3.81 -2.63)"/><path class="cls-1" d="M299,47.62c-1.83,0-1.06-2.3-.22-2.3A1.16,1.16,0,0,1,299,47.62Z" transform="translate(-3.81 -2.63)"/><path class="cls-1" d="M299,47.82a1.34,1.34,0,0,1-1-.36,1.12,1.12,0,0,1-.31-.82c0-.69.49-1.52,1.1-1.52a1.4,1.4,0,0,1,1.06.41,1.33,1.33,0,0,1,.33.9A1.3,1.3,0,0,1,299,47.82Zm-.22-2.31c-.33,0-.71.6-.71,1.13a.8.8,0,0,0,.2.55,1,1,0,0,0,.73.23c.48,0,.78-.51.78-1a.93.93,0,0,0-.23-.64A1,1,0,0,0,298.74,45.51Z" transform="translate(-3.81 -2.63)"/><path class="cls-1" d="M304.21,47.25c1.83,0,1.06-2.3.22-2.3A1.16,1.16,0,0,0,304.21,47.25Z" transform="translate(-3.81 -2.63)"/><path class="cls-1" d="M304.21,47.45A1.3,1.3,0,0,1,303,46.06a1.33,1.33,0,0,1,.33-.9,1.41,1.41,0,0,1,1.07-.41c.61,0,1.1.83,1.1,1.52a1.14,1.14,0,0,1-.31.82A1.34,1.34,0,0,1,304.21,47.45Zm.22-2.3a1,1,0,0,0-.78.28.93.93,0,0,0-.23.63c0,.48.3,1,.79,1a1,1,0,0,0,.73-.24.79.79,0,0,0,.19-.55C305.13,45.74,304.76,45.15,304.43,45.15Z" transform="translate(-3.81 -2.63)"/><path class="cls-9" d="M299.19,49.05c-1.18,2.54-.9,17.92-1.81,9.87-.52-4.56-.3-5.58-.15-6.34,1.41-6.91.22-7.45,2.23-6.44C300,46.39,299.88,47.55,299.19,49.05Z" transform="translate(-3.81 -2.63)"/><path class="cls-9" d="M304,48.75c1.17,2.54.89,17.92,1.81,9.87.51-4.56.29-5.58.14-6.34-1.4-6.91-.22-7.45-2.23-6.44C303.19,46.09,303.28,47.25,304,48.75Z" transform="translate(-3.81 -2.63)"/><path class="cls-16" d="M166,35.38c-3.45,4.34-4.75,6.73-3.59,9.33s32.53,6.76,29.74-1.36c-.61-1.76-2.17-3.22-2.27-4.54-.07-.86.84-1.6.76-2.46s-2-1.64-2.74-2.31c-1-.92-.45-2.12-1.1-3.26-1-1.78-.71-3-1-3.49-3-6.44-16.41-4.51-18.76-.49C165.53,29.39,168.34,32.38,166,35.38Z" transform="translate(-3.81 -2.63)"/><path class="cls-17" d="M190.51,56c-5.74-4-11.08-3.93-8.9-14.36l-9.88-.6c-.4,7.75.12,8.3-3.21,11.16-.74.63-5.42,3.24-5.42,3.24C170.53,61.9,184.1,61.37,190.51,56Z" transform="translate(-3.81 -2.63)"/><path class="cls-17" d="M167.69,27.24C165.15,42.46,178,51.52,183.18,39.42,192.45,17.59,169.75,14.85,167.69,27.24Z" transform="translate(-3.81 -2.63)"/><path class="cls-16" d="M177.31,22.52c6.4,1.13,6.71,9.63,7.29,12.88.6-2.5,4.47-5.45,2.57-9.6-1.6-3.48-3-9.64-10-8.68-4.26.59-8.85,2.65-9.6,6.6-.64,3.34-.84,8.24.24,11.81.6-2.78.12-4.83,1.4-7.37C170.82,25,174,22,177.31,22.52Z" transform="translate(-3.81 -2.63)"/><path class="cls-18" d="M172.07,19.35a.2.2,0,0,1,.39.12,4.49,4.49,0,0,0,.46,3.66.2.2,0,0,1-.07.28h0C172.51,23.62,171.4,21.51,172.07,19.35Z" transform="translate(-3.81 -2.63)"/><path class="cls-18" d="M181.88,24.35a3,3,0,0,0,1.89-2.58.2.2,0,0,1,.22-.18.19.19,0,0,1,.18.2A3.35,3.35,0,0,1,182,24.73a.21.21,0,0,1-.25-.15A.21.21,0,0,1,181.88,24.35Z" transform="translate(-3.81 -2.63)"/><path class="cls-18" d="M183.92,27.32a1.2,1.2,0,0,0,1.11-.83.19.19,0,0,1,.25-.13.2.2,0,0,1,.14.25,1.62,1.62,0,0,1-1.49,1.12.21.21,0,0,1,0-.41Z" transform="translate(-3.81 -2.63)"/><path class="cls-18" d="M176.09,21.65c-1-1.66.4-3.82.81-3.38a.19.19,0,0,1,0,.28h0a2.46,2.46,0,0,0-.44,2.9.21.21,0,0,1-.08.28A.2.2,0,0,1,176.09,21.65Z" transform="translate(-3.81 -2.63)"/><path class="cls-18" d="M179.51,22.55a4,4,0,0,0,.37-2.9c-.26-.65,1.43-.32,0,3.05a.2.2,0,0,1-.28.1A.21.21,0,0,1,179.51,22.55Z" transform="translate(-3.81 -2.63)"/><path class="cls-18" d="M169.81,25.93c-1.31-1.53-.76-3.17-.33-2.95a.2.2,0,0,1,.09.27,2.19,2.19,0,0,0,.55,2.41.22.22,0,0,1,0,.29A.2.2,0,0,1,169.81,25.93Z" transform="translate(-3.81 -2.63)"/><path class="cls-17" d="M185.54,32.59c-1.49-.5-1.7,2.64-1.77,4.2C183.65,39.86,187.88,33.37,185.54,32.59Z" transform="translate(-3.81 -2.63)"/><path class="cls-17" d="M166.88,31.73c1.52-.38,1.49,2.76,1.44,4.32C168.21,39.12,164.49,32.33,166.88,31.73Z" transform="translate(-3.81 -2.63)"/><path class="cls-6" d="M171.67,33.46c-.52,0-.86-2,.41-2C172.75,31.52,172.52,33.49,171.67,33.46Z" transform="translate(-3.81 -2.63)"/><path class="cls-6" d="M180.58,33.8c.52,0,1-1.94-.26-2C179.65,31.78,179.73,33.76,180.58,33.8Z" transform="translate(-3.81 -2.63)"/><path class="cls-19" d="M172.83,29.12c.83.15.71.81.08.9-.85.11-1.08-.46-2.82.19C168.17,30.93,170.25,28.64,172.83,29.12Z" transform="translate(-3.81 -2.63)"/><path class="cls-19" d="M179.7,29.46c-.84,0-.85.67-.24.87.81.27,1.14-.26,2.73.7C183.94,32.09,182.31,29.46,179.7,29.46Z" transform="translate(-3.81 -2.63)"/><path class="cls-20" d="M174.93,36.78c1.76.8,1.67-.05,1.14,0-1.77.06,0-.64.19-3.56,0-.31-.34-.33-.38-.08s-.08.82-.13,1C175.17,36.37,174.37,36.53,174.93,36.78Z" transform="translate(-3.81 -2.63)"/><path class="cls-20" d="M178.45,39.51a.1.1,0,0,1,.13.06.12.12,0,0,1,0,.1c-3.61,4.42-5.83-.46-5.17-.2A7.76,7.76,0,0,0,178.45,39.51Z" transform="translate(-3.81 -2.63)"/><path class="cls-20" d="M167.14,33.28a.11.11,0,0,1,.15-.06.12.12,0,0,1,.07.13c-.3.85-.06,1.37.29,1.58a.11.11,0,0,1,0,.15h0C167.47,35.44,166.72,34.5,167.14,33.28Z" transform="translate(-3.81 -2.63)"/><path class="cls-20" d="M184.85,35.75a1.86,1.86,0,0,0,.24-1.49.11.11,0,0,1,.11-.11.1.1,0,0,1,.12.09C185.55,36.21,184.54,36.08,184.85,35.75Z" transform="translate(-3.81 -2.63)"/><path class="cls-20" d="M172.28,43.26c3.34,3,7.81,1.31,8.88-.7.43-.78.24,1.77-3.55,2.44C173.42,45.75,171.31,42.4,172.28,43.26Z" transform="translate(-3.81 -2.63)"/><path class="cls-20" d="M146.11,125.11c.72-.14.74,1.21-.21,1a.92.92,0,0,1-.66-.62c-.5.5.46,1.38,0,1.92-.81,1-5.61-3.36-2.93-6.14.57-.59.85.17,1.22.61C146.05,124.89,149.07,124.09,146.11,125.11Z" transform="translate(-3.81 -2.63)"/><path class="cls-21" d="M149.76,117.73c12.73-28.21,13.06-34.44,13-46.69-2.38-.38-4.72-1.13-7.09-1.46-1.21,3.36-1.85,14.49-1.78,14.91-1,8.73-6.1,31.36-6.1,31.36-.88.18-2.28,1.22-6.19,3.59-.62.36-.68.52-.85,1.24-.57,2.48-1.46,2.19-.61,4,1.52,3.22,3.12,4.69,3.38,3.53s-3.81-4.19-.42-6.91c2.4-1.93,3.3,1.3,2.22,2.51a2.48,2.48,0,0,0-1.12,2.27c3.54-.8,3.59-4.17,4.46-5.91A6.9,6.9,0,0,0,149.76,117.73Z" transform="translate(-3.81 -2.63)"/><path class="cls-22" d="M162.43,54.62c-5.72,1.2-5.2.9-10.55,20.88-.43,1.62,4.38,4.14,11.41,4,4.35-9.49,8.44-16.89,6-22.05C168.35,55.61,163.56,54.38,162.43,54.62Z" transform="translate(-3.81 -2.63)"/><path class="cls-23" d="M162.85,79.75c-5.46,0-9.64-1.59-10.84-3.14a1.3,1.3,0,0,1-.33-1.16c.4-1.52.78-2.92,1.12-4.21,4.17-15.69,4.17-15.69,9.41-16.8l.17,0c1.28-.27,6.12,1,7.06,3,2.25,4.66-.72,11-4.48,19-.48,1-1,2.1-1.47,3.19l-.06.12h-.58Zm-.38-24.93-.17,0c-5,1-5,1-9.09,16.49-.34,1.29-.72,2.69-1.12,4.21a.92.92,0,0,0,.25.79c1,1.28,5,3,10.81,3,.48-1,1-2.07,1.43-3.07,3.7-7.93,6.63-14.2,4.48-18.68-.83-1.71-5.46-3-6.59-2.75Z" transform="translate(-3.81 -2.63)"/><path class="cls-20" d="M211.52,119.6a7.53,7.53,0,0,1,3.39,2.26c1.48,1.58,2.35.77,1.86.29-3-2.88-6.17-4.05-6.5-3.51a7,7,0,0,0,1.26,1Z" transform="translate(-3.81 -2.63)"/><path class="cls-21" d="M206.58,116.28c8.57,1.46,11,5,10.89,5.44-.26,1-2.23-.67-4.67-1.71-4.31-1.82-6,.29-4.13,1,.65.25,2.08.12,2.41,1.54.06.26,0,.88-.58.58-1.3-.66-1.23.45-5.07-2.38-1.35-1-3.45-1.6-3.78-2.86-1.57-4.9-9.74-29.59-12.67-45.31-.61-3.29,8.51-5.39,8.37-6,2.06,9.58,7.7,49.35,7.7,49.35S206.45,116.26,206.58,116.28Z" transform="translate(-3.81 -2.63)"/><path class="cls-22" d="M187.88,53.6c5.82.37,5.64-.24,13.81,18.67.8,1.85-6.2,5.27-11.05,6.11-5.69-8.76-10.81-15.49-9.1-21C182.16,55.45,186.73,53.53,187.88,53.6Z" transform="translate(-3.81 -2.63)"/><path class="cls-23" d="M190.53,78.61l-.07-.12-1.93-2.94c-4.88-7.41-8.73-13.26-7.19-18.19.65-2.06,5.24-4,6.55-4l.54,0c5.45.33,5.57.5,13.46,18.77a1.16,1.16,0,0,1-.11,1c-1.1,2-7,4.65-11.1,5.36Zm-2.73-24.8c-1.25,0-5.5,1.89-6.06,3.68-1.48,4.74,2.33,10.52,7.14,17.83l1.86,2.82c4.28-.77,9.72-3.38,10.67-5.11a.76.76,0,0,0,.08-.67c-7.85-18.2-8-18.21-13.09-18.51l-.54,0Z" transform="translate(-3.81 -2.63)"/><path class="cls-22" d="M169.85,51.19c1.59,3.34,10.68,5,12.55-.73,5.94,1.87,8.11,3.42,8.11,3.42.63,8.44,6.64,32.47.42,36.75-11.09,1.47-19.18,2.12-28.41.17-4.8-2.12-1.72-35.42-1.64-35.85A72.63,72.63,0,0,0,169.85,51.19Z" transform="translate(-3.81 -2.63)"/><path class="cls-23" d="M174.39,92.23A56.07,56.07,0,0,1,162.48,91h0c-5-2.22-1.83-35.75-1.77-36.08l0-.12.12,0A74.4,74.4,0,0,0,169.76,51l.19-.1.09.2c.84,1.76,4,3.09,7,2.91a5.48,5.48,0,0,0,5.2-3.61l.07-.2.2.06c5.89,1.86,8.08,3.38,8.17,3.44l.08.06v.1c.15,2,.62,5,1.16,8.4,1.69,10.65,4,25.23-.83,28.54l0,0h0A127.7,127.7,0,0,1,174.39,92.23Zm-11.8-1.64c8.79,1.86,16.43,1.4,28.27-.16,4.54-3.22,2.27-17.6.6-28.1-.53-3.36-1-6.27-1.15-8.33a33.65,33.65,0,0,0-7.77-3.27,5.87,5.87,0,0,1-5.51,3.7c-3,.2-6.23-1.12-7.27-3a76.55,76.55,0,0,1-8.68,3.64C160.72,57.82,158.2,88.56,162.59,90.59Z" transform="translate(-3.81 -2.63)"/><path class="cls-21" d="M165.94,204.07c1.14,3.29,5.18,3.27,5.75-.49l0-9.1-7.19,0Z" transform="translate(-3.81 -2.63)"/><path class="cls-21" d="M185.5,204.05c1.05,3.32,5.09,3.41,5.77-.34l.2-9.09-7.19-.24Z" transform="translate(-3.81 -2.63)"/><path class="cls-23" d="M155,213.17a1.31,1.31,0,0,1-.11-1.14c.41-1.08,11.47-8.24,11.05-8a5,5,0,0,0,5.75-.49c.71,1.45,2.76,6.67.74,7.21C171.22,211.11,155.91,214.58,155,213.17Z" transform="translate(-3.81 -2.63)"/><path class="cls-22" d="M156.62,213.69c-1,0-1.61-.12-1.8-.4a1.49,1.49,0,0,1-.13-1.33c.39-1,8.92-6.64,10.87-7.87h0l.28-.18,0,0a.47.47,0,0,1,.12-.07h.15l0,.08a4.75,4.75,0,0,0,5.39-.51l.22-.23.13.28c.61,1.25,2.18,5.16,1.43,6.8a1.25,1.25,0,0,1-.83.72C172.35,211,161.13,213.69,156.62,213.69Zm-1.44-.63c.74,1.15,14.68-1.8,17.19-2.47a.84.84,0,0,0,.55-.49c.59-1.28-.57-4.58-1.3-6.17a5.23,5.23,0,0,1-5.68.39c-1.39.88-10.51,6.91-10.85,7.79a1.07,1.07,0,0,0,.1.95Z" transform="translate(-3.81 -2.63)"/><path class="cls-22" d="M160.87,210.52a3.48,3.48,0,0,1-1.35-.33,1.61,1.61,0,0,1-.91-.88.42.42,0,0,1,.82-.22,1.22,1.22,0,0,0,.57.38,1.88,1.88,0,0,0,1.07.17.43.43,0,0,1,.57.2.41.41,0,0,1-.2.57h0A1.49,1.49,0,0,1,160.87,210.52Z" transform="translate(-3.81 -2.63)"/><path class="cls-22" d="M163.13,208.91a2.65,2.65,0,0,1-2.22-1.21.42.42,0,0,1,.13-.59.43.43,0,0,1,.59.14h0a1.82,1.82,0,0,0,1.7.8.43.43,0,0,1,.1.85Z" transform="translate(-3.81 -2.63)"/><path class="cls-22" d="M165.12,207.36a3.28,3.28,0,0,1-2.17-.83.42.42,0,1,1,.57-.63h0a2.42,2.42,0,0,0,1.84.6.42.42,0,1,1,.11.84h0Z" transform="translate(-3.81 -2.63)"/><path class="cls-23" d="M174.33,212.85c-.62-1,.33-1.89,1.32-2.52,4.61-3,9.85-6.28,9.85-6.28a5,5,0,0,0,5.77-.34c.59,1.3,2.63,6.74.5,7.24C190.55,211.25,175.2,214.3,174.33,212.85Z" transform="translate(-3.81 -2.63)"/><path class="cls-22" d="M176.31,213.43c-1.16,0-2-.13-2.17-.47-.55-.92-.08-1.86,1.39-2.81,4.56-2.93,9.81-6.24,9.86-6.28l.11-.07.12.07a4.77,4.77,0,0,0,5.5-.31l.21-.22.13.29c.58,1.25,2,5.2,1.24,6.82a1.29,1.29,0,0,1-.88.71C191.69,211.19,181,213.43,176.31,213.43Zm9.19-9.13c-.79.51-5.55,3.51-9.74,6.2-1.68,1.09-1.52,1.8-1.25,2.24.72,1.19,14.59-1.37,17.22-2a.86.86,0,0,0,.59-.49c.63-1.29-.42-4.55-1.13-6.19a5.24,5.24,0,0,1-5.69.23Z" transform="translate(-3.81 -2.63)"/><path class="cls-22" d="M180,210.81h-.06c-.51-.07-2-.31-2.14-1.59a.41.41,0,0,1,.4-.44.44.44,0,0,1,.45.37c0,.28.2.63,1.41.82a.43.43,0,0,1,.36.48.42.42,0,0,1-.42.36Z" transform="translate(-3.81 -2.63)"/><path class="cls-22" d="M182.17,209.17a2.91,2.91,0,0,1-2.26-1.24.41.41,0,0,1,.11-.59.43.43,0,0,1,.59.11,2,2,0,0,0,1.58.87.43.43,0,0,1,.41.44A.42.42,0,0,1,182.17,209.17Z" transform="translate(-3.81 -2.63)"/><path class="cls-22" d="M184,207.7a2.73,2.73,0,0,1-1.89-.87.43.43,0,0,1,.69-.51,1.69,1.69,0,0,0,1.35.51.43.43,0,0,1,.55.26.42.42,0,0,1-.25.54A1.18,1.18,0,0,1,184,207.7Z" transform="translate(-3.81 -2.63)"/><path class="cls-24" d="M175,199.49a.92.92,0,0,1-.93.9c-12.17.06-12.54.4-12.59-.83C158,111.93,156,104.62,162.52,90.8c8.53,0,19.79.15,28.42-.17,3.26,6,5.66,16.26,5.59,20.66l-2.26,88.07a.92.92,0,0,1-.92.9c-12.1.12-12.48.46-12.53-.77l-3.35-81.57C177.17,115.47,175,199.92,175,199.49Z" transform="translate(-3.81 -2.63)"/><path class="cls-25" d="M164.65,200.69c-3.22,0-3.39-.19-3.42-1.12C160.58,183,160,169,159.48,157.82,157.36,109.4,157,102,162.33,90.71l.06-.12h1.85c8.3.05,18.64.12,26.69-.18h.13l.06.11c3.21,5.87,5.7,16.16,5.62,20.77l-2.25,88.06a1.15,1.15,0,0,1-1.14,1.12c-2.54,0-4.57.06-6.19.09-6.26.11-6.5.11-6.55-1.07l-3.18-77.35c-.65,16.62-2.24,76.65-2.26,77.35l0,.2a1.13,1.13,0,0,1-1.11.91c-2.57,0-4.62,0-6.24.06ZM162.66,91c-5.19,11.09-4.86,18.64-2.76,66.79.49,11.2,1.1,25.15,1.75,41.75,0,.74.2.76,6.14.69,1.62,0,3.67-.05,6.24-.06a.72.72,0,0,0,.72-.7c0-.68.55-21.12,1.11-40.8.34-11.84.62-21.28.84-28.06.42-12.94.46-12.94.73-13a.24.24,0,0,1,.25.24L181,199.48c0,.74.2.76,6.12.66l6.2-.09a.71.71,0,0,0,.71-.7l2.25-88.06c.07-4.52-2.36-14.61-5.5-20.44-8,.3-18.31.22-26.57.17Z" transform="translate(-3.81 -2.63)"/><path class="cls-24" d="M190.93,90.63a81.91,81.91,0,0,1-28.41.17c-4.6-3.61,3.91-13.25,4.49-21.55a.44.44,0,0,1,.43-.4c19.54,0,18.79-.18,18.83.41C186.78,77.87,196.25,86.71,190.93,90.63Z" transform="translate(-3.81 -2.63)"/><path class="cls-25" d="M176.64,92.17A87.14,87.14,0,0,1,162.49,91h-.06l0,0c-2.83-2.22-1-6.46,1.15-11.38,1.42-3.26,3-7,3.26-10.34a.64.64,0,0,1,.64-.6l10.87,0c8.16,0,8.16,0,8.17.58v0c.21,3.55,2,7.2,3.57,10.43,2.28,4.69,4.25,8.73,1,11.13l-.08,0A72.7,72.7,0,0,1,176.64,92.17Zm-14-1.58a81.39,81.39,0,0,0,28.23-.16c2.91-2.18,1-6.07-1.18-10.56-1.59-3.26-3.39-7-3.6-10.6v-.12c-.2-.13-2.1-.12-7.75-.1H167.45a.23.23,0,0,0-.22.21c-.24,3.45-1.87,7.19-3.3,10.48C161.87,84.48,160.1,88.56,162.61,90.59Z" transform="translate(-3.81 -2.63)"/><path class="cls-25" d="M191.44,91.59c-10.06,1.13-24,1.17-29.34,0l.42-.83a2.26,2.26,0,0,1-.86-.82c10.35.42,23.54.13,30.29-.4-.45.62-.77,1-1,1Z" transform="translate(-3.81 -2.63)"/><path class="cls-25" d="M174.75,92.67a71.11,71.11,0,0,1-12.69-.84l-.27,0,.45-.9a2.49,2.49,0,0,1-.77-.81l-.16-.32h.37c10.41.42,23.56.13,30.25-.39l.46,0-.27.38a4.33,4.33,0,0,1-.89,1l.54,1-.31,0A155.46,155.46,0,0,1,174.75,92.67Zm-12.33-1.2c5.38,1,18.8,1,28.68-.06l-.5-1,.3,0c.13,0,.38-.31.6-.59-6.74.5-19.28.76-29.41.37a2,2,0,0,0,.51.4l.22.09Z" transform="translate(-3.81 -2.63)"/><path class="cls-25" d="M168.63,69.66l-.71.11c-.17-5.07-2-10.87-2.44-16.59l.59-.25C166.58,58.63,168.66,66.49,168.63,69.66Z" transform="translate(-3.81 -2.63)"/><path class="cls-25" d="M167.72,70v-.24a55.19,55.19,0,0,0-1.19-8.29,70.26,70.26,0,0,1-1.25-8.29v-.14l1-.43,0,.29c.25,2.77.88,6.11,1.44,9.06a51.11,51.11,0,0,1,1.13,7.69v.18Zm-2-16.7a71.17,71.17,0,0,0,1.24,8.09,55.36,55.36,0,0,1,1.18,8.12l.3,0A56.45,56.45,0,0,0,167.3,62c-.54-2.85-1.15-6.08-1.42-8.8Z" transform="translate(-3.81 -2.63)"/><path class="cls-25" d="M184.55,69.86l.71.11c.17-5.06,2.09-11.82,2.48-17.53l-.51-.23C186.72,57.92,184.52,66.7,184.55,69.86Z" transform="translate(-3.81 -2.63)"/><path class="cls-25" d="M185.46,70.21l-1.12-.16v-.18a56.92,56.92,0,0,1,1.2-8.23c.58-3.14,1.23-6.69,1.48-9.45l0-.29.93.41v.15a81.58,81.58,0,0,1-1.27,8.67A65.93,65.93,0,0,0,185.47,70Zm-.7-.53.3,0a68.33,68.33,0,0,1,1.21-8.66,83.91,83.91,0,0,0,1.25-8.49l-.11,0c-.26,2.72-.9,6.15-1.46,9.19a64.47,64.47,0,0,0-1.19,8Z" transform="translate(-3.81 -2.63)"/><path class="cls-22" d="M169.14,69.76c.71-1.38-1.34-1.31-1.68-.68a.91.91,0,0,0,.46,1.19.9.9,0,0,0,1.19-.46Z" transform="translate(-3.81 -2.63)"/><path class="cls-22" d="M184,69.76c-.71-1.39,1.33-1.31,1.67-.68a.9.9,0,1,1-1.66.72Z" transform="translate(-3.81 -2.63)"/><path class="cls-25" d="M176.2,83.8c-1.28,0-2.55,0-3.83-.07-.44,0-.62-.21-.62-.68A28.83,28.83,0,0,1,172,78.9l0-.12.12,0c2.06-.71,8.2-.74,8.85-.32a.3.3,0,0,1,.14.22s.34,3.89-.5,4.85a.64.64,0,0,1-.47.24C178.87,83.78,177.54,83.8,176.2,83.8Zm-3.77-4.7a30.69,30.69,0,0,0-.25,4c0,.25,0,.25.21.26,2.59.09,5.21.09,7.79,0a.22.22,0,0,0,.17-.09c.55-.63.49-3.43.4-4.45a26.21,26.21,0,0,0-8.32.34Z" transform="translate(-3.81 -2.63)"/><path class="cls-22" d="M172.23,78.73l0-1.14c0-.24,8.75-.43,8.75,0v.87C181,78.68,172.24,79.16,172.23,78.73Z" transform="translate(-3.81 -2.63)"/><path class="cls-22" d="M174,79.12c-1.87,0-2-.14-2-.38l0-1.27.13-.08c.44-.27,8.2-.45,8.91,0a.3.3,0,0,1,.15.24v.87c0,.23,0,.31-2.58.48-1.47.1-3.13.17-4.33.17Zm-1.55-.51a50.46,50.46,0,0,0,8.3-.3V77.7a53.79,53.79,0,0,0-8.32,0Z" transform="translate(-3.81 -2.63)"/><path class="cls-18" d="M167.22,27.37a.22.22,0,0,1,.23-.18.21.21,0,0,1,.18.21,4.93,4.93,0,0,0,.33,2.15C168.16,30,167,30.13,167.22,27.37Z" transform="translate(-3.81 -2.63)"/><path class="cls-18" d="M185,30.55a3.94,3.94,0,0,0,1.4-2.29.2.2,0,0,1,.24-.16.2.2,0,0,1,.16.23h0a4.29,4.29,0,0,1-1.56,2.54.21.21,0,0,1-.27-.07A.2.2,0,0,1,185,30.55Z" transform="translate(-3.81 -2.63)"/><path class="cls-18" d="M185.3,44.49c-2.94-4.36-1.06-5.14-1.18-4.39-.25,1.58.77,3.06,1.52,4.16a.21.21,0,0,1-.06.28A.2.2,0,0,1,185.3,44.49Z" transform="translate(-3.81 -2.63)"/><path class="cls-18" d="M189.84,44.38c-.8-1.66-1.66-2.06-2.15-3-1.15-2.13,1-3.28.9-4.67a.89.89,0,0,0-.68-.84.2.2,0,0,1,0-.4c.58.06,1.72.81.43,3-1.69,2.87.47,2.87,1.83,5.69a.21.21,0,1,1-.37.18Z" transform="translate(-3.81 -2.63)"/><path class="cls-18" d="M186.65,42.63a.21.21,0,0,1,.08-.28.21.21,0,0,1,.27.07c1.45,2.42,1.76,2.67,1.48,2.84S188.11,45,186.65,42.63Z" transform="translate(-3.81 -2.63)"/><path class="cls-18" d="M163.4,44.34c-1.72-3.27,3.14-8.66,3.62-8a.21.21,0,0,1-.05.29c-2.05,1.43-4.34,5.29-3.19,7.48a.21.21,0,0,1-.11.28A.22.22,0,0,1,163.4,44.34Z" transform="translate(-3.81 -2.63)"/><path class="cls-18" d="M165.19,44.84a3.21,3.21,0,0,0,0-1.57c-.37-2,1.28-3.86,1.6-3.57a.21.21,0,0,1,0,.3h0c-2.34,2.66-.66,2.88-1.21,5a.22.22,0,0,1-.28.12A.21.21,0,0,1,165.19,44.84Z" transform="translate(-3.81 -2.63)"/><path class="cls-18" d="M167.67,44.33c-.33-.11,0-.69.17-1a3.31,3.31,0,0,0,.43-2.6c-.22-.61,1.45-.41,0,2.78C168,44.09,167.94,44.42,167.67,44.33Z" transform="translate(-3.81 -2.63)"/><path class="cls-18" d="M169.59,46c-.25-.08-.11-.34,0-.58a4.66,4.66,0,0,0,.43-2c-.08-.39,1-1-.14,2.46a.21.21,0,0,1-.27.13Z" transform="translate(-3.81 -2.63)"/><path class="cls-18" d="M182.28,42.65a.22.22,0,0,1,.23.2,3.71,3.71,0,0,0,1.19,2.79.22.22,0,0,1,.06.3C183.19,46.73,181.44,42.69,182.28,42.65Z" transform="translate(-3.81 -2.63)"/><path class="cls-25" d="M177.53,116.91a.22.22,0,0,1-.2-.14,25.88,25.88,0,0,1-2-11.1.21.21,0,0,1,.42,0,25.53,25.53,0,0,0,1.92,10.92.21.21,0,0,1-.11.28h0Z" transform="translate(-3.81 -2.63)"/><path class="cls-25" d="M158.81,108.52a.21.21,0,0,1-.21-.22.2.2,0,0,1,.07-.16l.32-.26c2.78-2.28,3.93-3.22,5.68-14.71a.23.23,0,0,1,.25-.17.22.22,0,0,1,.17.24c-1.78,11.64-3,12.62-5.83,15l-.32.26A.21.21,0,0,1,158.81,108.52Z" transform="translate(-3.81 -2.63)"/><path class="cls-25" d="M194.77,108.46a.17.17,0,0,1-.1,0c-3.65-1.87-4.21-2.15-8-15.5a.21.21,0,1,1,.4-.14v0c3.75,13.17,4.29,13.45,7.79,15.25a.21.21,0,0,1-.09.4Z" transform="translate(-3.81 -2.63)"/><path class="cls-24" d="M173.17,91.76a73.67,73.67,0,0,1-10.6-.74.22.22,0,0,1-.19-.24.21.21,0,0,1,.24-.18h0c8.46,1.2,14.9.75,27.72-.13l.37,0a.21.21,0,0,1,.23.19.2.2,0,0,1-.19.23h0l-.37,0C183.1,91.39,177.88,91.76,173.17,91.76Z" transform="translate(-3.81 -2.63)"/><path class="cls-20" d="M149.17,117.31h-.06a2.26,2.26,0,0,1-1.24-1A.21.21,0,0,1,148,116a.2.2,0,0,1,.25.07,1.84,1.84,0,0,0,1,.82.22.22,0,0,1-.07.42Z" transform="translate(-3.81 -2.63)"/><path class="cls-20" d="M203.06,117.2H203a.21.21,0,0,1-.19-.23.2.2,0,0,1,.2-.2,1.58,1.58,0,0,0,1.3-.63.21.21,0,0,1,.29-.06.21.21,0,0,1,.06.3h0A2,2,0,0,1,203.06,117.2Z" transform="translate(-3.81 -2.63)"/><path class="cls-26" d="M46.4,27.55c.06,5,1.72,8.75-7.52,13.1C44.38,48.22,49.8,51,49.8,51s11.59-5.22,15.57-8.67c-2.07-1.51-4.23-2.64-6.14-4-3.78-2.65-1.55-8.55-2.29-10.72Z" transform="translate(-3.81 -2.63)"/><path class="cls-26" d="M48.64,32.82c2.08,1.29,4.47.9,6.87.13,2.64-.84,6.93-8.53,5.32-18S48.59,4.27,44.38,10.71C40.58,16.52,43.17,29.44,48.64,32.82Z" transform="translate(-3.81 -2.63)"/><path class="cls-27" d="M45.93,14.77c.28-.06.16-.55.31-.79.46-.71,1.54-.55,2.27-1,.5-.28,1-.84,1.5-.69s.64.6,1.06.64.73-.32,1.08-.2.72,1.25,2.21.75c2.41-.83,4,.06,4.23.59a26.4,26.4,0,0,1,2.17,9.47l2.6-7.82a6.64,6.64,0,0,0-1.15-3.25c-1.47-1.53,1.25-2.9-1.1-5.82-1.81-1.41-2.81-1.87-3.79-1a2.92,2.92,0,0,0-3.07-2.51c-2.81.27-2-1.49-5.7.31-.63.31-2.5,1.2-2.76,2.08s.7,1.89-.93,2.34c-.78-.09-6.07,1.18-2.57,12.39.18.58.89,3.46,1.11,4C42.65,18.94,45.1,14.93,45.93,14.77Z" transform="translate(-3.81 -2.63)"/><path class="cls-6" d="M47.82,11.64c-.55-1.24-1.15-2.84-2.53-3.27-.61-.19.78-1.07,2.23,1.83-.25-.85-2-3.28-1.3-3.36A.16.16,0,0,1,46.4,7a4.59,4.59,0,0,0,.74,1.71C48.1,10.29,48,10.67,47.82,11.64Z" transform="translate(-3.81 -2.63)"/><path class="cls-6" d="M53.92,12c1.55-.93,3.74-4,3.18-5.75-.2-.64,1.4.1-.44,3.18C54.59,12.92,53.41,12.34,53.92,12Z" transform="translate(-3.81 -2.63)"/><path class="cls-6" d="M44.79,12A13.76,13.76,0,0,0,43,11.07a.16.16,0,0,1-.07-.22.18.18,0,0,1,.21-.07,7.68,7.68,0,0,1,1.87,1c.42.45.56,2.15.27,2.17S45.2,12.46,44.79,12Z" transform="translate(-3.81 -2.63)"/><path class="cls-6" d="M52.45,7.82c1-1.18,1.79-2.69,1-4a.19.19,0,0,1,.06-.23h0C54,3.33,54.82,5.5,52.7,8a.16.16,0,0,1-.23,0A.15.15,0,0,1,52.45,7.82Z" transform="translate(-3.81 -2.63)"/><path class="cls-6" d="M49.7,11.71a2.32,2.32,0,0,0-.05-3.14.16.16,0,0,1,0-.23h0c.44-.42,1.68,2,.28,3.58a.16.16,0,0,1-.23,0A.17.17,0,0,1,49.7,11.71Z" transform="translate(-3.81 -2.63)"/><path class="cls-6" d="M53.08,9.66a.16.16,0,0,1,.22,0,.17.17,0,0,1,0,.23c-.41.55-1.15,1.5-.83,2.44C52.71,12.87,51.11,12.33,53.08,9.66Z" transform="translate(-3.81 -2.63)"/><path class="cls-6" d="M59.25,14.92c.8-1,1.9-2.39,1.7-4-.08-.66,1.63.39-1.45,4.17a.16.16,0,0,1-.23,0A.15.15,0,0,1,59.25,14.92Z" transform="translate(-3.81 -2.63)"/><path class="cls-6" d="M58.85,9.75C59.2,9.3,60.29,8,59.58,7c-.45-.62,1.81,0-.48,2.94a.16.16,0,0,1-.23,0A.17.17,0,0,1,58.85,9.75Z" transform="translate(-3.81 -2.63)"/><path class="cls-6" d="M52.29,7.87A3.76,3.76,0,0,0,52,5.49a.16.16,0,0,1,.29-.15,4.11,4.11,0,0,1,.37,2.58.16.16,0,0,1-.19.12A.16.16,0,0,1,52.29,7.87Z" transform="translate(-3.81 -2.63)"/><path class="cls-6" d="M43,17.47a.17.17,0,0,1-.14-.18h0A2.38,2.38,0,0,0,42,15.11a.16.16,0,0,1,0-.23.17.17,0,0,1,.22,0C43.35,15.79,43.34,17.52,43,17.47Z" transform="translate(-3.81 -2.63)"/><path class="cls-6" d="M62.3,15.4a.17.17,0,0,1,0,.23h0A3.12,3.12,0,0,0,61,18.29a.15.15,0,0,1-.15.17C60,18.51,61.75,14.65,62.3,15.4Z" transform="translate(-3.81 -2.63)"/><path class="cls-26" d="M62.09,19.17c-1.84-.46-1.8,3.35-1.72,5.24C60.51,28.13,65,19.89,62.09,19.17Z" transform="translate(-3.81 -2.63)"/><path class="cls-20" d="M61.78,21a.13.13,0,0,0-.17-.08.14.14,0,0,0-.09.17h0c.37,1,.08,1.66-.35,1.92a.14.14,0,0,0,0,.19C61.39,23.67,62.3,22.52,61.78,21Z" transform="translate(-3.81 -2.63)"/><path class="cls-26" d="M41.8,20c1.79-.6,2.06,3.2,2.15,5.09C44.11,28.76,39,20.92,41.8,20Z" transform="translate(-3.81 -2.63)"/><path class="cls-20" d="M42.26,21.8a.14.14,0,1,1,.27.07h0c-.28,1.06.06,1.66.5,1.88a.14.14,0,0,1,.07.18C42.87,24.38,41.87,23.32,42.26,21.8Z" transform="translate(-3.81 -2.63)"/><path class="cls-6" d="M56.22,21c.6,0,1-2.31-.48-2.25C55,18.8,55.24,21.06,56.22,21Z" transform="translate(-3.81 -2.63)"/><path class="cls-6" d="M47.38,21.48c-.6,0-1.16-2.22.29-2.28C48.44,19.17,48.35,21.44,47.38,21.48Z" transform="translate(-3.81 -2.63)"/><path class="cls-20" d="M56.88,31.61a.16.16,0,0,0-.24,0h0c-1.56,2-7.08,2.71-9.73-.18a.16.16,0,0,0-.24,0,.17.17,0,0,0,0,.24C50.57,36,57.86,32.36,56.88,31.61Z" transform="translate(-3.81 -2.63)"/><path class="cls-27" d="M54,17.68c.13.07,4.72.41,4.8.38C60,17.69,56,16.13,54.1,17A.43.43,0,0,0,54,17.68Z" transform="translate(-3.81 -2.63)"/><path class="cls-27" d="M49.6,16.83c-2-.77-5.62,1-4.69,1.32.29,0,4.72-.57,4.78-.62a.41.41,0,0,0,.05-.59A.49.49,0,0,0,49.6,16.83Z" transform="translate(-3.81 -2.63)"/><path class="cls-20" d="M52.94,24.85c.05-.25-.38-.26-.65-.31-1-.18-1,.31-.73-3.84.06-.81.18-1.24-.11-1.25s-.19.31-.25,1.23c-.31,4.5-.34,3.95,1.53,4.32a.18.18,0,0,0,.21-.15Z" transform="translate(-3.81 -2.63)"/><path class="cls-20" d="M54.76,28.29c.22-.43-.42-.28-5.39-.6C48.26,27.63,52.17,33.33,54.76,28.29Z" transform="translate(-3.81 -2.63)"/><path class="cls-26" d="M35.32,207a4.75,4.75,0,0,1-5.84.25l.33-11.55,7.46.21Z" transform="translate(-3.81 -2.63)"/><path class="cls-28" d="M28.49,214.35c.78.56.66.41,17.55,1.21,3.38.16,3.53-1.59,1.78-2.67-2.67-1.66-12.29-7-12.9-6.63-1.73,1-2.61,1.19-5.32.81C29.15,207,26.16,212.65,28.49,214.35Z" transform="translate(-3.81 -2.63)"/><path class="cls-23" d="M38.84,208.32a5.32,5.32,0,0,1-2.27,1.74Z" transform="translate(-3.81 -2.63)"/><path class="cls-22" d="M36.57,210.28a.24.24,0,0,1-.23-.22.24.24,0,0,1,.14-.21,5,5,0,0,0,2.18-1.66.22.22,0,1,1,.35.27,5.56,5.56,0,0,1-2.36,1.81Z" transform="translate(-3.81 -2.63)"/><path class="cls-23" d="M40.5,209.33c0,.68-1.33,1.52-2,1.81Z" transform="translate(-3.81 -2.63)"/><path class="cls-22" d="M38.53,211.36a.22.22,0,0,1-.22-.22.21.21,0,0,1,.13-.2c.79-.36,1.87-1.13,1.84-1.6a.21.21,0,0,1,.21-.23.21.21,0,0,1,.23.2c.07,1-2.07,2-2.09,2Z" transform="translate(-3.81 -2.63)"/><path class="cls-23" d="M42.27,210.34A3.63,3.63,0,0,1,40.11,212Z" transform="translate(-3.81 -2.63)"/><path class="cls-22" d="M40.14,212.22a.23.23,0,0,1-.21-.13.2.2,0,0,1,.09-.28h0a3.47,3.47,0,0,0,2-1.55.23.23,0,0,1,.29-.13.22.22,0,0,1,.13.28h0a3.66,3.66,0,0,1-2.24,1.78A.15.15,0,0,1,40.14,212.22Z" transform="translate(-3.81 -2.63)"/><path class="cls-22" d="M44.15,214.49H43a.22.22,0,0,1-.22-.22A.24.24,0,0,1,43,214h.56c1.44,0,3.07.05,3.32-1.11a.23.23,0,0,1,.27-.17.22.22,0,0,1,.17.26C47,214.35,45.53,214.49,44.15,214.49Z" transform="translate(-3.81 -2.63)"/><path class="cls-10" d="M63,211.13a5.87,5.87,0,0,0,0,1.51,1.91,1.91,0,0,0,.63,1.24,2.4,2.4,0,0,0,1.28.51c.47.07,1,.07,1.51.1l6.15.31c2,.14,4.09.23,6.14.34,1,.05,2,.1,3.06.09a9.49,9.49,0,0,0,1.51-.06l.18,0,.14-.07a2.09,2.09,0,0,0,.28-.24.91.91,0,0,0,.29-.65h0a1,1,0,0,1-.25.73,3.57,3.57,0,0,1-.28.27,1.14,1.14,0,0,1-.36.15,9.92,9.92,0,0,1-1.54.15c-1,0-2,0-3.08,0-2,0-4.1-.13-6.16-.24s-4.1-.25-6.14-.41c-.51-.05-1-.06-1.54-.15a2.65,2.65,0,0,1-1.39-.63,2.19,2.19,0,0,1-.62-1.4,5.72,5.72,0,0,1,.12-1.54Z" transform="translate(-3.81 -2.63)"/><polygon class="cls-26" points="66.83 204.26 60.93 204.82 59.88 193.85 67.1 194.06 66.83 204.26"/><path class="cls-28" d="M63.7,214.26c.78.56.67.41,17.55,1.21,3.38.16,3.53-1.58,1.78-2.67-2.66-1.66-12.29-7-12.9-6.63-1.73,1-2.61,1.18-5.32.81C64.37,206.92,61.37,212.56,63.7,214.26Z" transform="translate(-3.81 -2.63)"/><path class="cls-10" d="M71.78,210.19a.22.22,0,0,1-.22-.22.23.23,0,0,1,.14-.21,5.07,5.07,0,0,0,2.17-1.66.21.21,0,0,1,.31,0,.22.22,0,0,1,0,.31h0a5.68,5.68,0,0,1-2.36,1.81Z" transform="translate(-3.81 -2.63)"/><path class="cls-10" d="M73.75,211.27a.24.24,0,0,1-.23-.22.22.22,0,0,1,.14-.2c.78-.36,1.86-1.13,1.83-1.6a.23.23,0,0,1,.45,0c.06,1-2.08,2-2.1,2Z" transform="translate(-3.81 -2.63)"/><path class="cls-10" d="M75.35,212.13a.23.23,0,0,1-.21-.13.21.21,0,0,1,.09-.28h0a3.46,3.46,0,0,0,2-1.55.2.2,0,0,1,.28-.12.21.21,0,0,1,.13.28,3.71,3.71,0,0,1-2.24,1.78A.16.16,0,0,1,75.35,212.13Z" transform="translate(-3.81 -2.63)"/><path class="cls-10" d="M79.36,214.4H78.18a.22.22,0,0,1-.22-.22.23.23,0,0,1,.24-.22h.56c1.44,0,3.07.05,3.32-1.12a.22.22,0,0,1,.26-.17.23.23,0,0,1,.17.27h0C82.22,214.25,80.75,214.4,79.36,214.4Z" transform="translate(-3.81 -2.63)"/><path class="cls-29" d="M31.51,94.46c-.11,2.2-5.44,110.32-3.32,110.52,1.14.11,8.76.68,9-.47,9.06-41.27,13.28-81.58,13.28-81.58,2.55,16.19,2.56,32.71,5,48.92.92,6.07,6.86,32.24,7.81,32.45,1.6.34,8.81,1.07,8.81-.41,0-9.3-.89-109.43-.89-109.43Z" transform="translate(-3.81 -2.63)"/><path class="cls-30" d="M50.4,118.76h0a.24.24,0,0,1-.2-.25h0a64.58,64.58,0,0,0,.3-15.69c-.24-2.35-.37-3.64.58-5.36a.23.23,0,0,1,.31-.08.22.22,0,0,1,.08.3c-.88,1.59-.76,2.76-.53,5.09a64.68,64.68,0,0,1-.29,15.79A.24.24,0,0,1,50.4,118.76Z" transform="translate(-3.81 -2.63)"/><path class="cls-30" d="M64.32,202.89a.23.23,0,0,1-.22-.17c-5.92-23.05-7.61-42.81-8.84-57.23-.81-9.46-1.39-16.3-2.81-20.32a.22.22,0,0,1,.13-.28.22.22,0,0,1,.28.13c1.45,4.08,2,10.94,2.84,20.43,1.23,14.41,2.92,34.15,8.83,57.16a.22.22,0,0,1-.15.27h-.06Z" transform="translate(-3.81 -2.63)"/><path class="cls-30" d="M69.44,111.83a.18.18,0,0,1-.13,0c-5.39-4-5.41-5.43-5.48-12.51,0-.82,0-1.72,0-2.7a.22.22,0,1,1,.44,0h0c0,1,0,1.89,0,2.71.07,7,.08,8.32,5.29,12.15a.22.22,0,0,1,.05.31.21.21,0,0,1-.18.09Z" transform="translate(-3.81 -2.63)"/><path class="cls-30" d="M32.72,108.85a.21.21,0,0,1-.22-.21.24.24,0,0,1,.12-.21c5.79-2.87,6-4.12,7.31-11.06.14-.81.31-1.69.5-2.66a.23.23,0,0,1,.26-.18.22.22,0,0,1,.17.26l-.5,2.67c-1.28,7-1.55,8.4-7.54,11.37A.16.16,0,0,1,32.72,108.85Z" transform="translate(-3.81 -2.63)"/><path class="cls-30" d="M50.32,122.16c-.18,0-.29-.17-.52-.53-.52-.84-1.6-2.57-3.53-2a.22.22,0,0,1-.27-.16.21.21,0,0,1,.15-.27c2.25-.63,3.49,1.37,4,2.22l.08.13a3.44,3.44,0,0,1,2.75-2.2.22.22,0,0,1,.24.19h0a.21.21,0,0,1-.19.25h0a3,3,0,0,0-2.47,2.17.28.28,0,0,1-.23.23Z" transform="translate(-3.81 -2.63)"/><path class="cls-30" d="M52.55,109.82a3.52,3.52,0,0,1-.45,0,3.49,3.49,0,0,0-1,0,.22.22,0,1,1-.08-.44,4,4,0,0,1,1.14,0c.45,0,.72.06,1-.15.76-.66,1.2-3.83,1.63-11.7a.22.22,0,0,1,.44,0c-.5,9.29-1,11.34-1.79,12A1.14,1.14,0,0,1,52.55,109.82Z" transform="translate(-3.81 -2.63)"/><rect class="cls-31" x="27.71" y="92.72" width="39.75" height="4.34"/><path class="cls-32" d="M82.07,106.5c-2.13.73-4.89,1.09-6.14.69,2,7.69,1.13,3.59,1.06,6.52,0,1.66-1.27,7.76.07,8.66,1,.67,1.38-2.11,1.75-3.78.51-2.32,4.3,1.08,2,6.42-.22.52-1.54,3,.14,3.89,3.23-4.28,4.71-11.5,1.13-17C81.77,111.3,81.87,111.27,82.07,106.5Z" transform="translate(-3.81 -2.63)"/><path class="cls-33" d="M83.11,111.42c.45-.07.36-.54.4-1.42-2.5.74-7.7.42-7.7.42C76.13,111.51,75.39,112.62,83.11,111.42Z" transform="translate(-3.81 -2.63)"/><path class="cls-29" d="M43,100.41c-.17,0-.1-6.45-.1-6.29,0-.18,1.2-.11,1-.11.17,0,.11,6.45.11,6.3C44.08,100.48,42.87,100.41,43,100.41Z" transform="translate(-3.81 -2.63)"/><path class="cls-29" d="M61.52,100.41c-.17,0-.1-6.45-.1-6.29,0-.18,1.2-.11,1-.11.17,0,.11,6.45.11,6.3C62.57,100.48,61.36,100.41,61.52,100.41Z" transform="translate(-3.81 -2.63)"/><path class="cls-25" d="M50.65,100.28c-2.14,0-2.71-.07-3.06-.42a1,1,0,0,1-.26-.78c0-.79,0-1.45,0-2,0-2.1,0-2.8.38-3.22a1.08,1.08,0,0,1,.8-.28l4.63,0c3.88,0,4.68,0,5.13.4a1.1,1.1,0,0,1,.26.79c0,.78,0,1.45,0,2,0,2.09,0,2.8-.39,3.22a1.05,1.05,0,0,1-.8.28l-4.63,0Zm4.6-5.85H53.14l-4.64,0a.32.32,0,0,0-.17,0,8.94,8.94,0,0,0-.13,2.58c0,.57,0,1.23,0,2a.55.55,0,0,0,0,.18,22.77,22.77,0,0,0,4.48.12l4.63,0a.37.37,0,0,0,.18,0,8.93,8.93,0,0,0,.12-2.58c0-.57,0-1.23,0-2a1.09,1.09,0,0,0,0-.18A9,9,0,0,0,55.25,94.43Z" transform="translate(-3.81 -2.63)"/><path class="cls-34" d="M64.42,49.75c-.58,12.08,1.89,19.64,11.39,60.67a14.26,14.26,0,0,0,7.7-.42c2.49-.61,2.81-65.61-12.15-67C68.5,42.74,64.56,47,64.42,49.75Z" transform="translate(-3.81 -2.63)"/><path class="cls-33" d="M78.89,111a15,15,0,0,1-3.13-.36l-.14,0,0-.13c-1.6-6.93-3-12.86-4.22-18.09-6-25.67-7.65-32.57-7.17-42.65.08-1.56,1.33-3.66,3.13-5.22a5.8,5.8,0,0,1,4-1.73c9,.84,12.06,23.51,13.06,37,1.08,14.45.62,30.12-.88,30.49A18,18,0,0,1,78.89,111Zm-2.9-.76a13.93,13.93,0,0,0,7.46-.44c1.38-.83,2.25-30.4-2.25-50.21-2.37-10.47-5.7-16-9.87-16.36a5.42,5.42,0,0,0-3.71,1.63c-1.69,1.46-2.91,3.47-3,4.9h0c-.48,10,1.14,16.9,7.15,42.52C73,97.48,74.4,103.36,76,110.23Z" transform="translate(-3.81 -2.63)"/><path class="cls-22" d="M57.58,36.37C54.8,38.89,48,39,45.19,36.12c-2.89,1.46-12.53,4.47-14.43,5.8-4.36,3-5.51,48,.75,52.54,15.26,1.15,24.2,4.89,39.59,3.11C80.55,95,72.84,43.7,72.72,43.26,72.71,43.21,57.62,36.39,57.58,36.37Z" transform="translate(-3.81 -2.63)"/><path class="cls-23" d="M63.08,98.26a104.86,104.86,0,0,1-17.2-1.75c-4.42-.7-9-1.42-14.38-1.83h-.06l-.06,0C28,92.16,26.84,78.73,26.93,67c.09-11.32,1.39-23.63,3.71-25.24,1.07-.76,4.54-2,7.89-3.24,2.72-1,5.29-1.93,6.56-2.57l.15-.08.11.12c2.77,2.89,9.46,2.61,12.08.24l.1-.09.13.05,7.59,3.43c7.65,3.47,7.65,3.47,7.68,3.6.14.51,8,51.92-1.77,54.58A70.5,70.5,0,0,1,63.08,98.26Zm-31.48-4c5.38.41,9.94,1.14,14.35,1.84,7.82,1.24,15.21,2.41,25.12,1.27,8.93-2.44,1.85-51.46,1.45-53.94-1.18-.57-13.5-6.15-14.9-6.78-2.79,2.38-9.53,2.64-12.47-.24-1.34.65-3.83,1.56-6.46,2.52-3.33,1.21-6.77,2.47-7.8,3.19-1.9,1.33-3.41,12-3.51,24.89C27.26,81.52,28.91,92.19,31.6,94.24Z" transform="translate(-3.81 -2.63)"/><path class="cls-34" d="M37.69,68.62c.08,7,2.86,13.94,1.9,20.88-4.48,32.66-2.54,35.58-4.65,35.61-12.36.2-12.18.45-12.52-.48-2.6-7.2-15.62-66,8.15-82.62,2.56-1.78,9.66-4.28,9.81-3.7C42.42,46.51,37.6,60.42,37.69,68.62Z" transform="translate(-3.81 -2.63)"/><path class="cls-33" d="M24.78,125.52c-2.28,0-2.34-.18-2.57-.8-1.47-4.1-5.24-20.79-5.83-37.87-.54-15.69,1.46-36.23,14.07-45,2.41-1.68,9.08-4.11,9.94-3.79a.3.3,0,0,1,.2.21c1.24,5,0,11.89-1.19,18.57a70.92,70.92,0,0,0-1.49,11.8A56.29,56.29,0,0,0,39,77.39c.7,4,1.41,8.08.85,12.14-2.26,16.45-2.88,25.36-3.22,30.14s-.4,5.64-1.65,5.66l-6.37.13C26.88,125.49,25.67,125.52,24.78,125.52ZM40.12,38.44a32.18,32.18,0,0,0-9.42,3.75C18.26,50.87,16.29,71.26,16.83,86.83c.58,17,4.33,33.66,5.79,37.72.21.58.21.59,5.94.46,1.63,0,3.71-.08,6.37-.12.82,0,.88-.53,1.22-5.25s1-13.7,3.22-30.17c.55-4-.16-8.06-.84-12a56.12,56.12,0,0,1-1.06-8.85A69.56,69.56,0,0,1,39,56.74c1.18-6.6,2.39-13.42,1.21-18.3Z" transform="translate(-3.81 -2.63)"/><polygon class="cls-32" points="19.31 93.84 27.05 101.96 31.88 97.86 25 87.92 19.31 93.84"/><path class="cls-34" d="M4.38,81.26c5.26,8.54,16.71,23.32,22.44,19.41,4-1.84,2.87-2.91,5.87-5C36.42,93.06,27.57,85,22.53,78.9c-1-1.18-.45-1.5.47-2.9,8-12,8.21-34.39,8.21-34.39A13.1,13.1,0,0,0,24,45.2C21.63,47.55,1.07,75.88,4.38,81.26Z" transform="translate(-3.81 -2.63)"/><path class="cls-33" d="M24.68,101.54a5.54,5.54,0,0,1-1.14-.13c-6.38-1.36-15.45-13.7-19.35-20C.72,75.74,21.89,47,23.82,45a13.39,13.39,0,0,1,7.35-3.65l.26,0v.27c0,.22-.34,22.57-8.23,34.51l-.37.55c-.67,1-.85,1.2-.12,2.08,1.06,1.28,2.26,2.62,3.53,4,3.87,4.31,7.87,8.77,7.55,11.46a2.19,2.19,0,0,1-1,1.6A8.44,8.44,0,0,0,30.59,98a7.69,7.69,0,0,1-3.67,2.83A3.88,3.88,0,0,1,24.68,101.54ZM31,41.88a12.85,12.85,0,0,0-6.85,3.47C21.46,48,1.41,76,4.57,81.14,8.44,87.42,17.4,99.65,23.64,101a3.84,3.84,0,0,0,3.06-.5,7.34,7.34,0,0,0,3.53-2.7,8.94,8.94,0,0,1,2.33-2.3,1.74,1.74,0,0,0,.79-1.28c.29-2.49-3.64-6.88-7.45-11.12-1.27-1.42-2.47-2.76-3.54-4s-.57-1.67.09-2.63c.11-.16.24-.33.37-.53C30.17,64.75,30.91,44.48,31,41.88Z" transform="translate(-3.81 -2.63)"/><path class="cls-34" d="M65.87,89.49c-.92,7.51,1.19,15,1.71,22.6.84,12.47-.42,14,2,14.39,2.27.41,11.35,1.17,11.31-1.12-.39-21.73,1.45-75.32-8.17-82.1-8.21-3.75-8.4-3.94-8.33-3.64C72.63,74.43,69,63.65,65.87,89.49Z" transform="translate(-3.81 -2.63)"/><path class="cls-33" d="M75.57,127.16a42,42,0,0,1-6-.46c-1.76-.33-1.77-1.17-1.83-5.19,0-2.15-.06-5.09-.36-9.41-.17-2.61-.55-5.26-.91-7.83-.69-4.85-1.4-9.87-.79-14.81.86-7.1,1.78-11.5,2.45-14.71,1.78-8.55,2-9.87-3.93-35.08a.32.32,0,0,1,.08-.31c.19-.15.19-.15,3.41,1.33l5.15,2.37C81,48.8,81,87.09,81,112.42c0,5,0,9.37.07,12.93a1.07,1.07,0,0,1-.42.87C79.85,126.94,77.75,127.16,75.57,127.16Zm-9.7-37.67.22,0c-.6,4.89.11,9.88.79,14.7.36,2.58.74,5.24.92,7.86.29,4.33.33,7.28.36,9.43,0,4.06.1,4.51,1.46,4.76,2,.37,9.2,1,10.78-.38a.63.63,0,0,0,.27-.51c-.06-3.57-.07-7.91-.07-12.94,0-25.24-.06-63.39-8-69L67.48,41.1C66,40.4,65.07,40,64.66,39.83c5.94,25.06,5.66,26.41,3.87,35-.66,3.21-1.58,7.6-2.44,14.68Z" transform="translate(-3.81 -2.63)"/><path class="cls-33" d="M16.86,80.65a.22.22,0,0,1-.22-.23.19.19,0,0,1,0-.12c1-1.47,2.55-3.33,4.55-2.61a13.72,13.72,0,0,0-2.86-4.42.22.22,0,0,1,0-.32.22.22,0,0,1,.31,0h0c1.49,1.53,3.32,4.53,2.94,5.09a.32.32,0,0,1-.44.1c-1.34-.55-2.66.22-4.14,2.4A.22.22,0,0,1,16.86,80.65Z" transform="translate(-3.81 -2.63)"/><path class="cls-33" d="M28,107.06a.22.22,0,0,1-.23-.22.21.21,0,0,1,.08-.17c2.77-2.47,5.65-4.87,8.56-7.16a.22.22,0,1,1,.27.35h0c-2.9,2.28-5.78,4.68-8.53,7.14A.24.24,0,0,1,28,107.06Z" transform="translate(-3.81 -2.63)"/><path class="cls-33" d="M79,107.06a.2.2,0,0,1-.15-.06c-2.76-2.46-5.64-4.86-8.54-7.14a.22.22,0,0,1,0-.31.21.21,0,0,1,.31,0c2.92,2.28,5.8,4.69,8.56,7.16a.21.21,0,0,1,0,.31.21.21,0,0,1-.16.08Z" transform="translate(-3.81 -2.63)"/><path class="cls-33" d="M28,101.48c-.3.21-.56-.21-1.19-.81,2.32-1.19,5.87-5,5.87-5C33.23,96.72,34.55,97,28,101.48Z" transform="translate(-3.81 -2.63)"/><path class="cls-23" d="M47.76,42.71h-.07c-.53-.05-.92-.63-1.7-1.81a47.08,47.08,0,0,0-2.78-3.84.22.22,0,0,1,0-.31.21.21,0,0,1,.31,0c1.34,1.67,2.19,2.95,2.81,3.88s1,1.58,1.37,1.61.9-.58,1.82-1.57c.41-.45.92-1,1.53-1.63.4-.4,1.09.27,2.13,1.27.71.69,1.7,1.63,2.1,1.61a.1.1,0,0,0,.07,0c.55-.7,1.14-1.49,1.71-2.25s1.39-1.85,2-2.65a.22.22,0,0,1,.35.28c-.63.79-1.34,1.72-2,2.63s-1.17,1.56-1.72,2.26a.57.57,0,0,1-.4.21c-.56,0-1.33-.66-2.43-1.73-.53-.5-1.31-1.26-1.54-1.26-.58.61-1.08,1.15-1.49,1.6C48.8,42.15,48.29,42.71,47.76,42.71Z" transform="translate(-3.81 -2.63)"/><path class="cls-23" d="M52.7,96.85a.22.22,0,0,1-.22-.19C49.71,78.22,51,72.33,52.07,67.6a25.64,25.64,0,0,0,.82-8c-.14-2.5-.5-5.22-.84-7.86a64.52,64.52,0,0,1-.87-11.82.21.21,0,0,1,.23-.2h0a.21.21,0,0,1,.2.23h0a65.61,65.61,0,0,0,.86,11.74c.35,2.64.71,5.37.85,7.88a26.17,26.17,0,0,1-.83,8.12c-1,4.69-2.34,10.54.42,28.9a.23.23,0,0,1-.19.25h0Z" transform="translate(-3.81 -2.63)"/><path class="cls-23" d="M62.25,66.16c-1.49,0-2.1-.07-2.43-.39a1,1,0,0,1-.24-.74c0-1.17,0-2.15,0-3,0-2.64,0-3.53.38-4a.94.94,0,0,1,.73-.24l3,0c2.65,0,3.54,0,4,.37a1,1,0,0,1,.24.74c0,1.18,0,2.15,0,3,0,2.64,0,3.54-.38,3.95a1,1,0,0,1-.73.25l-3,0Zm2.88-7.88H63.64l-3,0c-.27,0-.36.06-.42.12-.28.28-.27,1.4-.25,3.63,0,.82,0,1.8,0,3,0,.27.06.36.12.42.28.28,1.4.27,3.63.24l3,0c.27,0,.36-.05.42-.11.28-.29.27-1.4.24-3.63,0-.82,0-1.8,0-3,0-.27,0-.36-.11-.42-.21-.21-.89-.26-2.15-.26Z" transform="translate(-3.81 -2.63)"/><path class="cls-23" d="M59.25,96.83a.21.21,0,0,1-.17-.07.22.22,0,0,1,0-.31h0a5.69,5.69,0,0,0,1.57-5.79.22.22,0,0,1,.15-.27.22.22,0,0,1,.28.14h0a6.17,6.17,0,0,1-1.7,6.25A.27.27,0,0,1,59.25,96.83Z" transform="translate(-3.81 -2.63)"/><path class="cls-23" d="M45.06,95.75c-2.19-.17-2.79-2.51-3.07-4.53a.22.22,0,0,1,.19-.25h0a.22.22,0,0,1,.25.19h0c.25,1.85.79,4,2.65,4.15a.23.23,0,0,1,.21.23.22.22,0,0,1-.23.21Z" transform="translate(-3.81 -2.63)"/><path class="cls-23" d="M52.62,43.71c-1.2-.47-.44-1.46.14-1.46C53.5,42.25,53.35,44,52.62,43.71Z" transform="translate(-3.81 -2.63)"/><path class="cls-23" d="M54.16,54.39c-1.2-.47-.44-1.45.13-1.45C55,52.94,54.89,54.68,54.16,54.39Z" transform="translate(-3.81 -2.63)"/><path class="cls-23" d="M54.82,65.47C53.62,65,54.38,64,55,64S55.55,65.75,54.82,65.47Z" transform="translate(-3.81 -2.63)"/><path class="cls-23" d="M53.28,75.29c-1.2-.47-.44-1.45.14-1.45C54.16,73.84,54,75.58,53.28,75.29Z" transform="translate(-3.81 -2.63)"/><path class="cls-23" d="M52.93,85.72c-1.2-.47-.44-1.45.14-1.45S53.66,86,52.93,85.72Z" transform="translate(-3.81 -2.63)"/><path class="cls-23" d="M54,95.9c-1.19-.47-.43-1.45.14-1.45C54.84,94.45,54.7,96.19,54,95.9Z" transform="translate(-3.81 -2.63)"/></svg>