<svg id="圖層_1" data-name="圖層 1" xmlns="http://www.w3.org/2000/svg" viewBox="0 0 453.11 212.94"><defs><style>.cls-1{fill:#eabba7;}.cls-2{fill:#f3a589;}.cls-3{fill:#793b23;}.cls-4{fill:#672c1b;}.cls-5{fill:#e3765a;}.cls-6{fill:#382723;}.cls-7{fill:#fef4ec;}.cls-8{fill:#f1e7dd;}.cls-9{fill:#fffffc;}.cls-10{fill:#fff;}.cls-11{fill:#738796;}.cls-12{fill:#3d4960;}.cls-13{fill:#fce4d8;}.cls-14{fill:#f8c8b0;}.cls-15{fill:#f3a486;}.cls-16{fill:#2f333e;}.cls-17{fill:#e79487;}.cls-18{fill:#343a48;}.cls-19{fill:#353b4a;}.cls-20{fill:#d97358;}.cls-21{fill:#e79384;}.cls-22{fill:#fffffd;}.cls-23{fill:#f0e6dc;}.cls-24{fill:#e8b37c;}.cls-25{fill:#c2863a;}.cls-26{fill:#eba186;}.cls-27{fill:#4d3931;}.cls-28{fill:#07191d;}.cls-29{fill:#323b4c;}.cls-30{fill:#3d485f;}.cls-31{fill:#7c494a;}.cls-32{fill:#eba084;}.cls-33{fill:#ac332d;}.cls-34{fill:#d25949;}.cls-35{fill:#2c3945;}.cls-36{fill:#f1988a;}.cls-37{fill:#015d59;}.cls-38{fill:#004142;}.cls-39{fill:#f19787;}.cls-40{fill:#004e4e;}.cls-41{fill:#2f323e;}</style></defs><path class="cls-1" d="M314.59,36c.68,1.91-5.27,4.36-12,4.36S289.48,37.7,290.55,36s5.36-.44,12-.44S313.67,33.4,314.59,36Z" transform="translate(-5.44 -3.21)"/><path class="cls-1" d="M302.63,40.54c-5.75,0-11.3-1.94-12.24-3.62a1,1,0,0,1,0-1.05c.7-1.13,2.78-1,6.23-.77,1.74.11,3.71.24,6,.24a45,45,0,0,0,6.32-.52c3.15-.42,5.23-.69,5.86,1.1a1.27,1.27,0,0,1-.22,1.19C313.38,38.76,308.49,40.54,302.63,40.54Zm-9.26-5.2c-1.39,0-2.3.17-2.66.74a.61.61,0,0,0,0,.65c.87,1.55,6.37,3.42,11.9,3.42s10.48-1.69,11.59-3.27a.89.89,0,0,0,.18-.83c-.53-1.49-2.38-1.24-5.44-.84a45.45,45.45,0,0,1-6.37.53c-2.28,0-4.26-.13-6-.25C295.34,35.41,294.26,35.34,293.37,35.34Z" transform="translate(-5.44 -3.21)"/><path class="cls-2" d="M307,30.66c-.06,4.89-1.68,8.51,7.3,12.73-5.34,7.36-10.61,10.07-10.61,10.07S292.47,48.39,288.6,45c2-1.47,4.12-2.56,6-3.87,3.67-2.57,1.51-8.3,2.22-10.42Z" transform="translate(-5.44 -3.21)"/><path class="cls-2" d="M308.7,14c-4.35-6.08-14.61-4.54-15.81,4.79s3.3,16.54,5.9,17.25c2.36.65,4.69.93,6.66-.4C310.62,32.13,312.62,19.48,308.7,14Z" transform="translate(-5.44 -3.21)"/><path class="cls-3" d="M296,7.79c-6.9,5.51-4.8,9.08-3,17.69-.72-4.67,4.73-12.12,3.82-10.23-2.87,6,1.33.38,7.45,2.93.43.18.77.1,2.49-.4s3.9,6.49,3.9,6.49c1.83-3,2-8.25,2-8.25-.56-10.2-13.23-11.92-14.1-8.13C298.05,7.86,296.81,7.15,296,7.79Z" transform="translate(-5.44 -3.21)"/><path class="cls-4" d="M298.7,8a.23.23,0,0,1,.21.23,5.34,5.34,0,0,0,1.6,4,.2.2,0,0,1,0,.3C299.82,13.23,297.6,8,298.7,8Z" transform="translate(-5.44 -3.21)"/><path class="cls-4" d="M293.76,14.73c-.53-.08.38-3.72,3.35-5.54a.21.21,0,0,1,.23.36,7.24,7.24,0,0,0-3.34,5A.2.2,0,0,1,293.76,14.73Z" transform="translate(-5.44 -3.21)"/><path class="cls-4" d="M297.08,14.41a2,2,0,0,0,.55-2,.21.21,0,1,1,.41-.12,2.34,2.34,0,0,1-.75,2.47A.22.22,0,0,1,297.08,14.41Z" transform="translate(-5.44 -3.21)"/><path class="cls-4" d="M292.83,19.5c-.62-2.55-.8-2.65-.49-2.74s.38.45.91,2.64A.22.22,0,0,1,292.83,19.5Z" transform="translate(-5.44 -3.21)"/><path class="cls-4" d="M305.33,8.69c-1.16-1.14-3.73-1.76-5.17-.83a.22.22,0,0,1-.3-.06c-.43-.68,3.5-1.65,5.77.58A.22.22,0,1,1,305.33,8.69Z" transform="translate(-5.44 -3.21)"/><path class="cls-4" d="M306.28,12.28a3.6,3.6,0,0,0-4.56-.35.22.22,0,0,1-.3-.06c-.32-.48,3.06-2.09,5.17.11A.22.22,0,1,1,306.28,12.28Z" transform="translate(-5.44 -3.21)"/><path class="cls-4" d="M301.6,9.07c1.81-.47,1.67.77,1.19.48a1.61,1.61,0,0,0-1.87.46C300.65,10.49,300,9.5,301.6,9.07Z" transform="translate(-5.44 -3.21)"/><path class="cls-4" d="M304.23,17.47a2.37,2.37,0,0,0-1-2.63.21.21,0,0,1,.2-.38,2.78,2.78,0,0,1,1.22,3.13A.21.21,0,1,1,304.23,17.47Z" transform="translate(-5.44 -3.21)"/><path class="cls-4" d="M298.07,17.08c0-1.5,2.34-3.4,2.5-2.65a.22.22,0,0,1-.16.26,3.31,3.31,0,0,0-1.91,2.39A.22.22,0,0,1,298.07,17.08Z" transform="translate(-5.44 -3.21)"/><path class="cls-4" d="M307.22,17.14a3.26,3.26,0,0,0,.57-3.43.21.21,0,0,1,.4-.14,3.69,3.69,0,0,1-.62,3.83A.22.22,0,0,1,307.22,17.14Z" transform="translate(-5.44 -3.21)"/><path class="cls-4" d="M310.62,19.55c-.43-.17,0-.11.58-2.57a.22.22,0,1,1,.42.1C311.52,17.47,311,19.69,310.62,19.55Z" transform="translate(-5.44 -3.21)"/><path class="cls-4" d="M311.28,14.15a5.67,5.67,0,0,0-2.6-3.8.23.23,0,0,1-.1-.29c.56-1.16,4,4.1,2.95,4.27A.22.22,0,0,1,311.28,14.15Z" transform="translate(-5.44 -3.21)"/><path class="cls-2" d="M291.84,22.91c1.76-.52,1.88,3.19,1.88,5C293.73,31.56,289.05,23.73,291.84,22.91Z" transform="translate(-5.44 -3.21)"/><path class="cls-5" d="M292.21,24.72a.14.14,0,0,1,.26.08c-.31,1,0,1.62.41,1.85a.13.13,0,0,1,.06.18C292.7,27.25,291.77,26.18,292.21,24.72Z" transform="translate(-5.44 -3.21)"/><path class="cls-2" d="M311.57,22.86c-1.77-.52-1.88,3.19-1.88,5C309.68,31.5,314.36,23.68,311.57,22.86Z" transform="translate(-5.44 -3.21)"/><path class="cls-5" d="M311.19,24.67a.13.13,0,1,0-.25.08c.31,1,0,1.62-.42,1.85a.14.14,0,0,0,0,.18C310.71,27.2,311.64,26.13,311.19,24.67Z" transform="translate(-5.44 -3.21)"/><path class="cls-6" d="M297.61,24.48c-.57,0-1-2.2.38-2.2C298.74,22.28,298.56,24.48,297.61,24.48Z" transform="translate(-5.44 -3.21)"/><path class="cls-6" d="M306.22,24.57c.58,0,1-2.21-.38-2.21C305.09,22.36,305.27,24.57,306.22,24.57Z" transform="translate(-5.44 -3.21)"/><path class="cls-5" d="M296.85,34.6a.17.17,0,0,1,.23,0c1.52,2,6.89,2.64,9.46-.17a.16.16,0,1,1,.24.22C303,38.83,295.9,35.34,296.85,34.6Z" transform="translate(-5.44 -3.21)"/><path class="cls-3" d="M299.52,20.06c-1.91-.76-5.64.81-4.58,1.21.35.13,1.46-.31,1.86-.35.81-.09,2.29.26,2.8-.18A.43.43,0,0,0,299.52,20.06Z" transform="translate(-5.44 -3.21)"/><path class="cls-3" d="M303.82,20.68c.49.46,2,.16,2.79.28.4.06,1.49.54,1.84.42,1.08-.37-2.6-2.09-4.52-1.38A.42.42,0,0,0,303.82,20.68Z" transform="translate(-5.44 -3.21)"/><path class="cls-5" d="M301,28.06c-.06-.24.36-.26.62-.32.95-.21,1,.25.55-3.76-.09-.78-.22-1.2.06-1.22s.19.29.29,1.18c.48,4.36.49,3.83-1.31,4.25A.17.17,0,0,1,301,28.06Z" transform="translate(-5.44 -3.21)"/><path class="cls-7" d="M299.32,31.47c-.27-.4.53-.3,5.21-.78C305.73,30.56,301.58,34.83,299.32,31.47Z" transform="translate(-5.44 -3.21)"/><path class="cls-2" d="M317.8,205.07a4.62,4.62,0,0,0,5.68.25l-.33-11.23-7.24.21Z" transform="translate(-5.44 -3.21)"/><path class="cls-8" d="M324.44,212.17c-.76.55-.65.4-17.05,1.18-3.29.16-3.43-1.54-1.73-2.59,2.59-1.61,11.94-6.79,12.53-6.44a6.42,6.42,0,0,0,2.6,1c1.23,0,2.76-.22,2.86,0C324.76,207.27,326.31,210.81,324.44,212.17Z" transform="translate(-5.44 -3.21)"/><path class="cls-9" d="M307,213.58c-1.43,0-2.36-.39-2.57-1.09s.23-1.36,1.12-1.92c1.34-.83,11.92-6.94,12.76-6.44a6.28,6.28,0,0,0,2.5.93c.5,0,1.05,0,1.54-.06,1.05-.07,1.38-.08,1.5.14,1.13,2.07,2.73,5.75.73,7.21-.64.46-.64.46-8.53.82l-8.64.4Zm11.07-9.08c-.86,0-9.3,4.58-12.29,6.44-.7.44-1.08,1-.94,1.42s1.12.84,2.55.78c3.62-.18,6.44-.3,8.64-.4,7.68-.35,7.76-.35,8.29-.74,1.73-1.26.24-4.65-.82-6.6a7.68,7.68,0,0,0-1.12,0c-.5,0-1.06.07-1.58.06a6.58,6.58,0,0,1-2.71-1Z" transform="translate(-5.44 -3.21)"/><path class="cls-8" d="M325.2,209.13c.61,2.88-1,3.31-2.05,3.47-.43.06-17,1.32-18,.44a1.19,1.19,0,0,1-.51-.95Z" transform="translate(-5.44 -3.21)"/><path class="cls-9" d="M325.22,209.12a5.1,5.1,0,0,1,.21,1.51,2.26,2.26,0,0,1-.57,1.47,2.73,2.73,0,0,1-1.44.71c-.53.1-1,.13-1.51.19-2,.21-4,.34-6,.48s-4,.18-6,.16c-1,0-2,0-3-.12a10,10,0,0,1-1.51-.23l-.19-.07a.93.93,0,0,1-.19-.11,2.43,2.43,0,0,1-.26-.29,1,1,0,0,1-.2-.74h0a.94.94,0,0,0,.24.67,3.19,3.19,0,0,0,.26.26l.16.08.18.05a9.05,9.05,0,0,0,1.48.15c1,0,2,0,3,0,2,0,4-.14,6-.25s4-.23,6-.38c.5,0,1-.06,1.49-.14a2.5,2.5,0,0,0,1.33-.6,2,2,0,0,0,.58-1.32,5.28,5.28,0,0,0-.1-1.48Z" transform="translate(-5.44 -3.21)"/><path class="cls-8" d="M314.38,206.32a5.25,5.25,0,0,0,2.21,1.69Z" transform="translate(-5.44 -3.21)"/><path class="cls-9" d="M316.51,208.21a5.39,5.39,0,0,1-2.3-1.76l.35-.26a5,5,0,0,0,2.11,1.62Z" transform="translate(-5.44 -3.21)"/><path class="cls-8" d="M312.77,207.3c0,.66,1.29,1.48,1.91,1.76Z" transform="translate(-5.44 -3.21)"/><path class="cls-9" d="M314.59,209.25s-2.1-1-2-2l.43,0c0,.45,1,1.21,1.79,1.55Z" transform="translate(-5.44 -3.21)"/><path class="cls-8" d="M311.05,208.28a3.56,3.56,0,0,0,2.09,1.63Z" transform="translate(-5.44 -3.21)"/><path class="cls-9" d="M313.06,210.1a3.67,3.67,0,0,1-2.21-1.74l.4-.16a3.27,3.27,0,0,0,1.94,1.49l-.05.22Z" transform="translate(-5.44 -3.21)"/><path class="cls-8" d="M306.37,210.84c.32,1.48,2.48,1.25,4,1.25Z" transform="translate(-5.44 -3.21)"/><path class="cls-9" d="M309.22,212.31c-1.34,0-2.78-.14-3.06-1.43l.42-.09c.25,1.14,1.83,1.11,3.23,1.09h.56v.43h-1.15Z" transform="translate(-5.44 -3.21)"/><path class="cls-10" d="M291,209a5,5,0,0,1,.21,1.5,2.18,2.18,0,0,1-.57,1.47,2.73,2.73,0,0,1-1.44.71c-.53.11-1,.13-1.51.2-2,.2-4,.33-6,.47s-4,.18-6,.16c-1,0-2,0-3-.11a8.67,8.67,0,0,1-1.5-.24l-.19-.06a1.32,1.32,0,0,1-.2-.12,3.79,3.79,0,0,1-.26-.29,1,1,0,0,1-.2-.73h0a.91.91,0,0,0,.24.67,1.66,1.66,0,0,0,.27.26l.15.08.18.05a8.16,8.16,0,0,0,1.48.15c1,0,2,0,3,0,2-.05,4-.15,6-.26s4-.23,6-.38c.49,0,1-.06,1.48-.14a2.46,2.46,0,0,0,1.33-.6,2,2,0,0,0,.59-1.32A5.69,5.69,0,0,0,291,209Z" transform="translate(-5.44 -3.21)"/><polygon class="cls-2" points="278.04 201.72 283.78 202.27 284.8 191.61 277.79 191.8 278.04 201.72"/><path class="cls-8" d="M290.22,212.09c-.75.55-.64.39-17.05,1.17-3.29.16-3.43-1.53-1.73-2.59,2.59-1.61,11.94-6.79,12.54-6.44,1.68,1,2.53,1.15,5.16.78C289.58,205,292.48,210.44,290.22,212.09Z" transform="translate(-5.44 -3.21)"/><path class="cls-9" d="M272.77,213.49c-1.43,0-2.35-.39-2.57-1.09s.23-1.36,1.13-1.91c1.33-.84,11.91-6.94,12.76-6.45,1.57.93,2.37,1.13,5,.76.56-.08,1.45,2.12,1.49,2.22.47,1.17,1.4,4-.25,5.24-.64.47-.64.47-8.53.82l-8.64.4Zm11.07-9.08c-.86,0-9.3,4.58-12.29,6.44-.7.44-1.07,1-.94,1.43s1.13.84,2.55.77l8.64-.4c7.69-.34,7.76-.35,8.29-.74l.13.18-.13-.18a2.25,2.25,0,0,0,.76-2.11,9.29,9.29,0,0,0-1.73-4.57c-2.57.36-3.51.21-5.25-.81Z" transform="translate(-5.44 -3.21)"/><path class="cls-10" d="M282.37,208.14l-.08,0a5.32,5.32,0,0,1-2.3-1.76.21.21,0,0,1,.05-.3.22.22,0,0,1,.3,0,4.81,4.81,0,0,0,2.11,1.62.22.22,0,0,1,.12.28A.2.2,0,0,1,282.37,208.14Z" transform="translate(-5.44 -3.21)"/><path class="cls-10" d="M280.46,209.18h-.09s-2.1-1-2-2a.23.23,0,0,1,.23-.21.21.21,0,0,1,.2.23c0,.45,1,1.21,1.79,1.55a.21.21,0,0,1-.09.41Z" transform="translate(-5.44 -3.21)"/><path class="cls-10" d="M278.84,210a3.69,3.69,0,0,1-2.21-1.75.22.22,0,0,1,.12-.28.22.22,0,0,1,.28.12,3.31,3.31,0,0,0,2,1.5l-.05.21Z" transform="translate(-5.44 -3.21)"/><path class="cls-10" d="M275,212.23c-1.35,0-2.79-.15-3.07-1.43a.22.22,0,0,1,.17-.26.2.2,0,0,1,.25.16c.25,1.14,1.83,1.11,3.23,1.09h.56a.22.22,0,1,1,0,.44H275Z" transform="translate(-5.44 -3.21)"/><path class="cls-11" d="M323.42,88.24c0,1.94,2.82,114.69,1.31,114.83-1.11.11-8.51.66-8.75-.45-8.81-40.1-12.91-79.28-12.91-79.28-4.87,30.92.57,30.46-11.94,78.59-.25,1-9.07,1.54-9.06.09,0-9,.49-118.87,0-111.07C287.83,90.55,323.42,88.24,323.42,88.24Z" transform="translate(-5.44 -3.21)"/><path class="cls-12" d="M319.9,203.53c-2,0-4-.18-4.13-.87C308.06,167.57,303.92,132.8,303,125a228.57,228.57,0,0,0-2.31,23.25c-.7,11.77-1.36,22.89-9.38,53.74-.26,1-5.41,1.32-7.66,1-1.23-.16-1.83-.49-1.83-1,0-10.82.42-102.74.1-110.85h-.12l0-.25c0-.41,0-.61.27-.59s.19,0,.23.37c6.54-.44,40.7-2.67,41-2.69h.23v.66c.19,7.63.83,34.51,1.28,60.11.95,54.4.25,54.47-.17,54.51C324.56,203.31,322.17,203.53,319.9,203.53Zm-16.79-81.84.17,1.63c.05.39,4.21,39.62,12.91,79.25.14.66,5.05.62,8.42.3.95-2.71-.16-63-1.4-114.19v-.21l-40.83,2.67c0,.64.05,1.78.07,3.84,0,2.69,0,6.65.05,11.77,0,8.7,0,20.9,0,36.27-.05,25.34-.16,51.57-.19,59,0,.13.23.32.89.46,2.43.54,7.51-.07,7.75-.61,8-30.81,8.67-41.91,9.37-53.66a229,229,0,0,1,2.57-24.9Z" transform="translate(-5.44 -3.21)"/><path class="cls-12" d="M303.14,119.3a.23.23,0,0,1-.22-.2,84.69,84.69,0,0,1-.39-17c.21-3.23.34-5.18-.55-6.79a.22.22,0,0,1,.39-.22c.95,1.72.83,3.72.61,7a84,84,0,0,0,.39,16.94.24.24,0,0,1-.2.25Z" transform="translate(-5.44 -3.21)"/><path class="cls-12" d="M289.62,201.05h-.05a.24.24,0,0,1-.17-.28c5.76-22.37,7.39-41.54,8.59-55.54.78-9.23,1.35-15.9,2.75-19.86a.23.23,0,0,1,.29-.13.23.23,0,0,1,.14.29c-1.39,3.9-1.95,10.54-2.74,19.73-1.19,14-2.83,33.22-8.59,55.62A.23.23,0,0,1,289.62,201.05Z" transform="translate(-5.44 -3.21)"/><path class="cls-12" d="M282.93,117.31a.26.26,0,0,1-.19-.1.22.22,0,0,1,.05-.31c5.06-3.72,5.07-5,5.14-11.8,0-.8,0-1.67,0-2.64a.22.22,0,1,1,.44,0c0,1,0,1.84,0,2.63-.07,6.88-.08,8.31-5.32,12.16A.24.24,0,0,1,282.93,117.31Z" transform="translate(-5.44 -3.21)"/><path class="cls-12" d="M323.31,117.22l-.85,0c-5.78-.19-5.78-.34-5.89-8.29,0-1,0-2.21-.07-3.55a.24.24,0,0,1,.22-.23.22.22,0,0,1,.23.22c0,1.34.05,2.52.07,3.56.05,3.89.08,5.84.75,6.79s2,1,4.71,1l.84,0a.22.22,0,0,1,.21.23A.22.22,0,0,1,323.31,117.22Z" transform="translate(-5.44 -3.21)"/><path class="cls-12" d="M303.26,122.61h0a.32.32,0,0,1-.27-.24,2.93,2.93,0,0,0-2.4-2.1.22.22,0,0,1-.19-.25.22.22,0,0,1,.25-.2,3.37,3.37,0,0,1,2.67,2.11c1.14-2.15,2.84-2.57,4-2.25a.22.22,0,0,1,.16.27.24.24,0,0,1-.28.16c-1-.29-2.6.15-3.62,2.32A.31.31,0,0,1,303.26,122.61Z" transform="translate(-5.44 -3.21)"/><path class="cls-13" d="M289.52,52.23c.63,13-1,52.89-14.3,57.1-19.39,3.94-6.83-13.76-7.82-22.79-.8-7.25,3.9-13.55,3.5-18.07-.88-9.86,2.17-14.49,5.55-18.33,1.9-2.15,3.19-4.17,6.34-4.46C285.56,45.42,289.39,49.58,289.52,52.23Z" transform="translate(-5.44 -3.21)"/><path class="cls-14" d="M270.41,110.1c-2.34,0-4-.54-5-1.63-2.34-2.48-1.08-7.26.26-12.32.9-3.4,1.83-6.91,1.53-9.59-.45-4.14.86-8,2-11.32.89-2.59,1.66-4.83,1.49-6.75-.91-10.16,2.42-14.87,5.61-18.49l.72-.83c1.57-1.85,2.93-3.45,5.76-3.71a5.68,5.68,0,0,1,3.93,1.68c1.74,1.52,3,3.56,3,5.08a170,170,0,0,1-1.93,31.91c-1.69,10.32-5.24,23.1-12.52,25.4A24.9,24.9,0,0,1,270.41,110.1ZM283,45.88h-.22c-2.65.25-4,1.78-5.47,3.56l-.72.83c-3.14,3.55-6.4,8.18-5.51,18.18.18,2-.6,4.28-1.51,6.92-1.14,3.33-2.43,7.09-2,11.14.3,2.75-.64,6.3-1.55,9.74-1.25,4.72-2.54,9.61-.36,11.92,1.53,1.61,4.63,1.92,9.47.94,12.43-3.94,14.91-40.71,14.13-56.88-.06-1.39-1.25-3.35-2.88-4.77A5.63,5.63,0,0,0,283,45.88Z" transform="translate(-5.44 -3.21)"/><path class="cls-13" d="M294.57,41.17c2.66,6.55,13.19,6.58,15.9,0,3,.13,9.92,2.16,11.76,3.45,4.24,3,8.09,61.26,2,65.66-14.83,1.12-27.22.26-42.17-1.47-9.18-2.5-.72-62.45-.6-62.88C285,44.05,295,41,294.57,41.17Z" transform="translate(-5.44 -3.21)"/><path class="cls-14" d="M310.93,111A247.4,247.4,0,0,1,282,109c-9.51-2.6-1-62.57-.79-63.16l0-.09.09,0A101.42,101.42,0,0,1,294.29,41l.22-.07v0s0,0,0,0v0a.42.42,0,0,1,.19,0l.11.08,0,.1a8.11,8.11,0,0,0,7.68,4.71h0a8.14,8.14,0,0,0,7.76-4.79l.06-.14h.15c3,.13,10,2.18,11.87,3.49,2.74,1.91,5.11,24.74,5.25,42.36.06,7.91-.28,21.5-3.25,23.64l0,0h-.07C319.61,110.84,315.22,111,310.93,111ZM281.65,46.07c-.4,2.6-8.31,60.14.47,62.54,14.94,1.72,27.21,2.57,42,1.46,2-1.58,3.12-10,3-23.25-.15-19.17-2.71-40.37-5.06-42-1.8-1.26-8.46-3.22-11.5-3.4a8.56,8.56,0,0,1-8.13,4.91,8.47,8.47,0,0,1-8-4.87C293.1,41.85,284.93,44.38,281.65,46.07Z" transform="translate(-5.44 -3.21)"/><path class="cls-13" d="M346.28,75.15c.74,1.62,2,6,1.58,7.7-.33,1.3-2.88,9.1-8.57,11.58-6,2.6-7.88,10.18-12.81,6.34-2.65-3.35-4.34-10.54-4.34-10.54-2.95-6.7,3.36-3.1,8.09-9.68.86-1.2.79-1.77-.46-2.81-11.6-9.59-7.67-33-7.67-33,6.81-.73,15.11,13.09,16.73,19.73C340,69.13,344.43,71.11,346.28,75.15Z" transform="translate(-5.44 -3.21)"/><path class="cls-14" d="M329.07,102.05a4.46,4.46,0,0,1-2.72-1.1l0,0c-2.65-3.35-4.31-10.33-4.38-10.63-.75-1.69-.94-2.82-.6-3.63s1.37-1.31,2.63-1.8a12.27,12.27,0,0,0,6.09-4.42c.81-1.12.73-1.57-.42-2.52-11.56-9.56-7.78-33-7.74-33.2l0-.16.17,0c7.23-.76,15.43,13.62,17,19.9.63,2.56,2.32,4.33,4,6a17.26,17.26,0,0,1,3.47,4.58c.69,1.52,2.07,6,1.6,7.85,0,.09-2.46,9-8.69,11.72a17.54,17.54,0,0,0-5.46,4.26C332.31,100.55,330.85,102.05,329.07,102.05Zm-2.43-1.43c2.85,2.21,4.58.43,7-2a17.82,17.82,0,0,1,5.59-4.36c6-2.63,8.42-11.34,8.45-11.43.41-1.61-.81-5.87-1.58-7.56a16.88,16.88,0,0,0-3.39-4.46c-1.68-1.76-3.42-3.58-4.07-6.25-1.67-6.87-9.86-20-16.33-19.58-.32,2.1-3.25,23.64,7.62,32.63,1.32,1.09,1.43,1.79.49,3.1a12.63,12.63,0,0,1-6.28,4.57c-1.21.48-2.09.82-2.4,1.57s-.08,1.74.62,3.33C322.37,90.25,324.06,97.33,326.64,100.62Z" transform="translate(-5.44 -3.21)"/><path class="cls-13" d="M288.6,43.92c-1.86-2-.87-4.52,3.33-3.7a.47.47,0,0,0,.57-.44c0-.94-3.12-3.65-1.63-3.88,3.59-.57,9.73,10.19,11.72,10.19,2.46,0,3.7-5.31,5.16-7.11.54-.66,5.05-5.87,6.6-3.69.84,1.19,0,2.27.41,3.67s1.48-1.33,2.66-.24c1.55,1.44,1.33,4.12,0,5.77C313.05,49.93,293.61,49.29,288.6,43.92Z" transform="translate(-5.44 -3.21)"/><path class="cls-14" d="M304.31,48.49c-5.89,0-13-1.33-15.86-4.42a2.64,2.64,0,0,1-.73-3c.59-1.07,2.14-1.44,4.25-1a.29.29,0,0,0,.22-.06.2.2,0,0,0,.09-.18,4.81,4.81,0,0,0-.94-1.55c-.67-.89-1.25-1.66-1-2.17a.66.66,0,0,1,.54-.37c2.25-.35,5.21,3.21,7.82,6.34,1.59,1.9,3.22,3.86,3.94,3.86,1.5,0,2.57-2.3,3.52-4.33a14.67,14.67,0,0,1,1.47-2.71s3.6-4.37,5.8-4.3a1.41,1.41,0,0,1,1.14.62,2.81,2.81,0,0,1,.38,2.14,4,4,0,0,0,.06,1.6c.07.21.13.23.13.23s.35-.19.51-.31c.48-.38,1.21-1,2-.26,1.67,1.56,1.36,4.39,0,6.06-1.79,2.23-6.13,3.63-11.9,3.84Q305,48.49,304.31,48.49Zm-13.88-8.21a2.54,2.54,0,0,0-2.34,1,2.24,2.24,0,0,0,.67,2.52c2.59,2.78,9.54,4.53,16.92,4.26,5.56-.2,9.89-1.58,11.57-3.68,1.22-1.52,1.52-4.08,0-5.47-.45-.42-.85-.16-1.4.28-.33.25-.62.48-.91.38a.69.69,0,0,1-.41-.52,4.45,4.45,0,0,1-.08-1.76,2.42,2.42,0,0,0-.3-1.85,1,1,0,0,0-.8-.44h0c-1.67,0-4.53,3.06-5.41,4.14a14.22,14.22,0,0,0-1.42,2.62c-1,2.15-2.13,4.58-3.91,4.58-.87,0-2.19-1.52-4.27-4-2.42-2.9-5.43-6.51-7.42-6.19-.08,0-.18,0-.21.1-.11.28.55,1.17,1,1.75a4.1,4.1,0,0,1,1,1.82.67.67,0,0,1-.24.51.71.71,0,0,1-.58.14A7.78,7.78,0,0,0,290.43,40.28Z" transform="translate(-5.44 -3.21)"/><path class="cls-15" d="M267.83,110.51c2.17.22,4.87,0,6-.7-.18,7.71-.27,3.65.43,6.4.4,1.57,2.91,7.07,1.85,8.21-.81.87-1.78-1.68-2.49-3.18-1-2.09-3.83,2-.53,6.52.33.45,2.12,2.54.73,3.72a14.62,14.62,0,0,1-3.69-4.65c1,3,.56,5.13-.14,5-1.26-.27-2.86-11-1-16.2C269.17,115,269.07,115,267.83,110.51Z" transform="translate(-5.44 -3.21)"/><polygon class="cls-15" points="318.08 94.26 312.91 96.11 310.59 90.56 316.01 88.13 318.08 94.26"/><path class="cls-14" d="M267.13,109.33a13.73,13.73,0,0,0,8.09,0c.33,2,.1,3-1.22,4.28C273.37,114.2,266,116.18,267.13,109.33Z" transform="translate(-5.44 -3.21)"/><path class="cls-14" d="M319.92,99.13c.42.43,2.9.25,5.13-.67-1-1.37-2.23-5.72-3.06-8.89-.51.23-3.3,2.46-4,3.05C317.5,93,318.57,97.76,319.92,99.13Z" transform="translate(-5.44 -3.21)"/><path class="cls-14" d="M313.36,109a25.44,25.44,0,0,1-6.53-1c-.88-.21-1.86-.44-3-.68-6.74-1.41-13.72-1.06-19-.6-1,.09-1.3-.45-2-1.61-.29-.47-.64-1.06-1.13-1.78a1.56,1.56,0,0,1,.18-2c3.65-3.7,5.7-11.47,6.24-13.77a1.25,1.25,0,0,1,1.39-1c8.61,1.14,16.34,2,23.9.28a1.3,1.3,0,0,1,1,.19,1.21,1.21,0,0,1,.53.84A34.67,34.67,0,0,0,321,103.13c.65.89.13,1.88-.47,3a12.16,12.16,0,0,0-.7,1.45,1.57,1.57,0,0,1-1.2.94A32.45,32.45,0,0,1,313.36,109Zm-20.24-3.11a53.12,53.12,0,0,1,10.81,1c1.13.24,2.12.47,3,.68a23.57,23.57,0,0,0,11.59.49,1.16,1.16,0,0,0,.87-.68,16,16,0,0,1,.71-1.49c.56-1.06,1-1.89.51-2.57a34.94,34.94,0,0,1-6.14-15.31.8.8,0,0,0-.35-.54.81.81,0,0,0-.64-.13c-7.63,1.68-15.41.87-24.05-.28a.84.84,0,0,0-.92.63c-.7,3-2.73,10.3-6.36,14a1.12,1.12,0,0,0-.12,1.41c.5.74.85,1.33,1.14,1.81.7,1.18.89,1.46,1.58,1.4C287.24,106.12,290.09,105.93,293.12,105.93Z" transform="translate(-5.44 -3.21)"/><path class="cls-14" d="M303.12,47.18c-3.36,0-5.72-2.33-7.81-4.39A22.75,22.75,0,0,0,293,40.68a.23.23,0,0,1,0-.31.22.22,0,0,1,.3,0,21,21,0,0,1,2.4,2.16c2,2,4.33,4.26,7.51,4.26h.21c3.19-.1,6.79-2.44,11-7.15a.21.21,0,0,1,.3,0,.22.22,0,0,1,0,.31c-4.28,4.8-8,7.19-11.29,7.29Z" transform="translate(-5.44 -3.21)"/><path class="cls-14" d="M335.74,81.39a.21.21,0,0,1-.18-.09c-1.44-2.12-2.72-2.86-4-2.33a.33.33,0,0,1-.43-.1c-.37-.55,1.41-3.46,2.86-5a.22.22,0,0,1,.31.3,13.17,13.17,0,0,0-2.79,4.31c2-.7,3.46,1.1,4.43,2.53a.21.21,0,0,1-.06.3Z" transform="translate(-5.44 -3.21)"/><path class="cls-1" d="M318.4,68.29c-7.67,22.95-31.24,6.54-32.78,0C284.51,63.59,290,59.5,299,59.5S319.9,63.79,318.4,68.29Z" transform="translate(-5.44 -3.21)"/><path class="cls-1" d="M304.69,80.3l-.7,0c-8.47-.38-17.57-7.72-18.57-12a5.33,5.33,0,0,1,1.11-4.66c2.16-2.74,6.83-4.37,12.48-4.37,7.72,0,16.61,3,19,6.31a2.94,2.94,0,0,1,.55,2.74C315.32,78.11,309.36,80.3,304.69,80.3ZM299,59.7c-5.53,0-10.08,1.57-12.17,4.21a4.94,4.94,0,0,0-1,4.33c.87,3.7,9.65,11.26,18.2,11.65,4.63.21,10.85-1.64,14.2-11.66a2.55,2.55,0,0,0-.49-2.39C315.41,62.62,306.49,59.7,299,59.7Z" transform="translate(-5.44 -3.21)"/><path class="cls-1" d="M300.58,48.2c-1.82,0-1.05-2.3-.21-2.3A1.16,1.16,0,0,1,300.58,48.2Z" transform="translate(-5.44 -3.21)"/><path class="cls-1" d="M300.58,48.4a1.37,1.37,0,0,1-1-.36,1.13,1.13,0,0,1-.3-.82c0-.69.49-1.52,1.1-1.52a1.4,1.4,0,0,1,1.06.41,1.33,1.33,0,0,1,.33.9A1.3,1.3,0,0,1,300.58,48.4Zm-.21-2.31c-.33,0-.71.6-.71,1.13a.75.75,0,0,0,.2.55,1,1,0,0,0,.72.23c.49,0,.79-.51.79-1a.89.89,0,0,0-.23-.63A1,1,0,0,0,300.37,46.09Z" transform="translate(-5.44 -3.21)"/><path class="cls-1" d="M305.84,47.83c1.83,0,1.06-2.3.22-2.3A1.16,1.16,0,0,0,305.84,47.83Z" transform="translate(-5.44 -3.21)"/><path class="cls-1" d="M305.84,48a1.3,1.3,0,0,1-1.18-1.39,1.33,1.33,0,0,1,.33-.9,1.41,1.41,0,0,1,1.07-.41c.6,0,1.09.83,1.09,1.52a1.13,1.13,0,0,1-.3.82A1.34,1.34,0,0,1,305.84,48Zm.22-2.3a1,1,0,0,0-.78.28,1,1,0,0,0-.23.63c0,.48.3,1,.79,1a1,1,0,0,0,.73-.24.79.79,0,0,0,.19-.55C306.76,46.33,306.39,45.73,306.06,45.73Z" transform="translate(-5.44 -3.21)"/><path class="cls-9" d="M300.82,49.63c-1.18,2.54-.9,17.92-1.81,9.87-.52-4.56-.3-5.58-.15-6.34,1.41-6.91.22-7.45,2.23-6.44C301.6,47,301.51,48.13,300.82,49.63Z" transform="translate(-5.44 -3.21)"/><path class="cls-9" d="M305.61,49.33c1.17,2.54.89,17.92,1.8,9.87.52-4.55.3-5.58.15-6.34-1.4-6.91-.22-7.45-2.23-6.44C304.82,46.67,304.91,47.83,305.61,49.33Z" transform="translate(-5.44 -3.21)"/><path class="cls-16" d="M167.58,36c-3.45,4.34-4.75,6.73-3.59,9.33s32.53,6.76,29.74-1.36c-.61-1.76-2.17-3.22-2.27-4.54-.07-.86.84-1.6.76-2.46s-2-1.64-2.74-2.31c-1-.91-.45-2.12-1.1-3.25-1-1.79-.71-3-1-3.5-3-6.43-16.41-4.51-18.76-.49C167.15,30,170,33,167.58,36Z" transform="translate(-5.44 -3.21)"/><path class="cls-17" d="M192.14,56.63c-5.74-4-11.08-3.93-8.9-14.37l-9.88-.6c-.4,7.75.12,8.3-3.21,11.16-.74.63-5.42,3.24-5.42,3.24C172.16,62.48,185.73,62,192.14,56.63Z" transform="translate(-5.44 -3.21)"/><path class="cls-17" d="M169.32,27.82C166.78,43,179.67,52.1,184.81,40,194.08,18.17,171.38,15.43,169.32,27.82Z" transform="translate(-5.44 -3.21)"/><path class="cls-16" d="M178.94,23.11c6.4,1.12,6.71,9.63,7.29,12.88.6-2.51,4.47-5.46,2.57-9.61-1.6-3.48-3-9.64-10-8.68-4.26.59-8.85,2.65-9.61,6.6-.63,3.34-.83,8.24.25,11.81.6-2.78.12-4.83,1.4-7.37C172.45,25.57,175.65,22.53,178.94,23.11Z" transform="translate(-5.44 -3.21)"/><path class="cls-18" d="M173.7,19.93a.2.2,0,0,1,.26-.12.2.2,0,0,1,.13.24,4.49,4.49,0,0,0,.46,3.66.2.2,0,0,1-.07.28h0C174.14,24.2,173,22.1,173.7,19.93Z" transform="translate(-5.44 -3.21)"/><path class="cls-18" d="M183.51,24.93a3,3,0,0,0,1.89-2.58.2.2,0,0,1,.4,0,3.37,3.37,0,0,1-2.15,2.94.21.21,0,0,1-.25-.15A.2.2,0,0,1,183.51,24.93Z" transform="translate(-5.44 -3.21)"/><path class="cls-18" d="M185.55,27.9a1.17,1.17,0,0,0,1.1-.83.22.22,0,0,1,.26-.13.2.2,0,0,1,.14.25,1.62,1.62,0,0,1-1.49,1.12.21.21,0,0,1,0-.41Z" transform="translate(-5.44 -3.21)"/><path class="cls-18" d="M177.72,22.24c-1-1.67.4-3.83.81-3.39a.19.19,0,0,1,0,.28h0a2.46,2.46,0,0,0-.44,2.9.21.21,0,0,1-.36.21Z" transform="translate(-5.44 -3.21)"/><path class="cls-18" d="M181.14,23.13a4,4,0,0,0,.37-2.9c-.26-.64,1.43-.32,0,3.06a.21.21,0,0,1-.38-.16Z" transform="translate(-5.44 -3.21)"/><path class="cls-18" d="M171.44,26.51c-1.31-1.53-.77-3.17-.33-3a.21.21,0,0,1,.09.28,2.18,2.18,0,0,0,.55,2.4.22.22,0,0,1,0,.29A.2.2,0,0,1,171.44,26.51Z" transform="translate(-5.44 -3.21)"/><path class="cls-17" d="M187.17,33.17c-1.49-.5-1.7,2.64-1.77,4.2C185.28,40.44,189.5,34,187.17,33.17Z" transform="translate(-5.44 -3.21)"/><path class="cls-17" d="M168.51,32.31c1.52-.38,1.49,2.76,1.44,4.32C169.84,39.7,166.12,32.91,168.51,32.31Z" transform="translate(-5.44 -3.21)"/><path class="cls-6" d="M173.3,34c-.52,0-.86-2,.41-2C174.38,32.1,174.15,34.07,173.3,34Z" transform="translate(-5.44 -3.21)"/><path class="cls-6" d="M182.21,34.38c.52,0,1-1.94-.26-2C181.28,32.36,181.36,34.34,182.21,34.38Z" transform="translate(-5.44 -3.21)"/><path class="cls-19" d="M174.46,29.7c.83.15.71.81.08.9-.85.12-1.08-.46-2.82.19C169.8,31.51,171.88,29.22,174.46,29.7Z" transform="translate(-5.44 -3.21)"/><path class="cls-19" d="M181.33,30c-.84,0-.85.67-.24.87.81.27,1.14-.26,2.73.7C185.57,32.67,183.94,30,181.33,30Z" transform="translate(-5.44 -3.21)"/><path class="cls-20" d="M176.56,37.37c1.76.79,1.67-.06,1.14,0-1.77.06,0-.64.19-3.56,0-.31-.34-.33-.38-.08s-.08.82-.13,1C176.8,37,176,37.11,176.56,37.37Z" transform="translate(-5.44 -3.21)"/><path class="cls-20" d="M180.08,40.09a.1.1,0,0,1,.13.06.12.12,0,0,1,0,.1c-3.61,4.42-5.83-.46-5.17-.2A7.76,7.76,0,0,0,180.08,40.09Z" transform="translate(-5.44 -3.21)"/><path class="cls-20" d="M168.77,33.86a.12.12,0,0,1,.15-.06.12.12,0,0,1,.07.13c-.3.85-.06,1.37.29,1.58a.11.11,0,0,1,0,.15h0C169.1,36,168.35,35.08,168.77,33.86Z" transform="translate(-5.44 -3.21)"/><path class="cls-20" d="M186.48,36.33a1.86,1.86,0,0,0,.24-1.49.12.12,0,0,1,.23,0C187.18,36.79,186.17,36.66,186.48,36.33Z" transform="translate(-5.44 -3.21)"/><path class="cls-20" d="M173.9,43.84c3.35,3,7.82,1.31,8.89-.7.43-.78.24,1.77-3.55,2.44C175.05,46.33,172.94,43,173.9,43.84Z" transform="translate(-5.44 -3.21)"/><path class="cls-20" d="M147.74,125.69c.72-.14.74,1.21-.21,1a.88.88,0,0,1-.66-.62c-.5.5.46,1.38,0,1.92-.81,1-5.61-3.36-2.93-6.14.57-.59.85.17,1.22.61C147.68,125.47,150.7,124.68,147.74,125.69Z" transform="translate(-5.44 -3.21)"/><path class="cls-21" d="M151.39,118.31c12.73-28.21,13.06-34.44,13-46.69-2.38-.38-4.72-1.13-7.09-1.46-1.21,3.36-1.85,14.5-1.78,14.92-1,8.72-6.1,31.35-6.1,31.35-.88.18-2.28,1.22-6.19,3.59-.62.37-.68.52-.85,1.24-.57,2.48-1.46,2.19-.61,4,1.52,3.21,3.12,4.68,3.38,3.53s-3.81-4.2-.43-6.92c2.41-1.92,3.31,1.3,2.23,2.51a2.5,2.5,0,0,0-1.12,2.28c3.54-.81,3.59-4.18,4.46-5.92A6.9,6.9,0,0,0,151.39,118.31Z" transform="translate(-5.44 -3.21)"/><path class="cls-22" d="M164.06,55.2c-5.72,1.2-5.2.9-10.55,20.88-.43,1.62,4.38,4.14,11.41,4,4.35-9.49,8.44-16.89,6-22C170,56.19,165.19,55,164.06,55.2Z" transform="translate(-5.44 -3.21)"/><path class="cls-23" d="M164.48,80.33c-5.46,0-9.64-1.59-10.84-3.13a1.33,1.33,0,0,1-.33-1.17c.4-1.52.78-2.92,1.12-4.21,4.17-15.69,4.17-15.69,9.41-16.8l.17,0c1.28-.27,6.12,1,7.06,3,2.24,4.66-.72,11-4.48,19-.48,1-1,2.1-1.47,3.19l-.06.12h-.58Zm-.38-24.92-.17,0c-5,1.05-5,1.05-9.09,16.49-.34,1.29-.72,2.69-1.12,4.21a.92.92,0,0,0,.25.79c1,1.28,5,3,10.81,3,.48-1.05,1-2.07,1.43-3.07,3.7-7.93,6.63-14.2,4.48-18.68-.83-1.71-5.46-3-6.59-2.74Z" transform="translate(-5.44 -3.21)"/><path class="cls-20" d="M213.15,120.18a7.53,7.53,0,0,1,3.39,2.26c1.48,1.58,2.35.77,1.85.29-3-2.88-6.16-4-6.49-3.51a6.81,6.81,0,0,0,1.25,1Z" transform="translate(-5.44 -3.21)"/><path class="cls-21" d="M208.21,116.87c8.57,1.45,11,5,10.89,5.43-.26,1-2.23-.67-4.67-1.7-4.31-1.83-6,.28-4.14,1,.66.25,2.09.12,2.42,1.54.06.26,0,.88-.58.58-1.3-.66-1.23.45-5.07-2.38-1.36-1-3.45-1.6-3.78-2.86-1.58-4.89-9.74-29.59-12.67-45.31-.61-3.29,8.51-5.39,8.37-6,2.06,9.58,7.7,49.35,7.7,49.35Z" transform="translate(-5.44 -3.21)"/><path class="cls-22" d="M189.51,54.19c5.82.36,5.64-.25,13.81,18.66.8,1.85-6.2,5.27-11,6.11-5.69-8.76-10.81-15.49-9.1-20.95C183.79,56,188.36,54.11,189.51,54.19Z" transform="translate(-5.44 -3.21)"/><path class="cls-23" d="M192.16,79.19l-.07-.11c-.65-1-1.3-2-1.93-3-4.88-7.4-8.73-13.26-7.19-18.19.65-2.06,5.24-4,6.55-4l.54,0c5.45.33,5.57.5,13.46,18.77a1.16,1.16,0,0,1-.11,1c-1.1,2-7,4.65-11.1,5.36Zm-2.73-24.8c-1.25,0-5.5,1.89-6.06,3.68-1.48,4.74,2.33,10.52,7.14,17.83.61.92,1.23,1.86,1.86,2.83,4.28-.78,9.72-3.39,10.66-5.12a.73.73,0,0,0,.09-.67c-7.85-18.2-8-18.2-13.09-18.51l-.54,0Z" transform="translate(-5.44 -3.21)"/><path class="cls-22" d="M171.48,51.77c1.59,3.34,10.67,5,12.55-.72,5.94,1.86,8.11,3.41,8.11,3.41.63,8.44,6.64,32.47.42,36.75-11.09,1.47-19.18,2.12-28.41.17-4.8-2.12-1.72-35.42-1.64-35.85A73.28,73.28,0,0,0,171.48,51.77Z" transform="translate(-5.44 -3.21)"/><path class="cls-23" d="M176,92.81a55.43,55.43,0,0,1-11.91-1.23h0c-5-2.22-1.83-35.75-1.77-36.08l0-.12.12,0a73.58,73.58,0,0,0,8.93-3.75l.2-.1.09.2c.84,1.76,4,3.09,7,2.91a5.48,5.48,0,0,0,5.2-3.61l.07-.2.2.06c5.89,1.86,8.08,3.38,8.17,3.44l.08.06v.1c.15,2.05.62,5,1.16,8.4,1.69,10.65,4,25.23-.83,28.55l0,0h0A127.7,127.7,0,0,1,176,92.81Zm-11.8-1.64C173,93,180.65,92.57,192.49,91c4.54-3.22,2.27-17.6.6-28.1-.53-3.36-1-6.27-1.15-8.33a34.18,34.18,0,0,0-7.77-3.27,5.87,5.87,0,0,1-5.51,3.7c-3,.2-6.23-1.12-7.27-3a78.49,78.49,0,0,1-8.68,3.65C162.35,58.4,159.83,89.14,164.22,91.17Z" transform="translate(-5.44 -3.21)"/><path class="cls-21" d="M167.57,204.65c1.14,3.29,5.18,3.27,5.75-.49l0-9.1-7.19-.05Z" transform="translate(-5.44 -3.21)"/><path class="cls-21" d="M187.13,204.63c1.05,3.32,5.09,3.41,5.77-.34l.2-9.09-7.19-.24Z" transform="translate(-5.44 -3.21)"/><path class="cls-23" d="M156.63,213.75a1.31,1.31,0,0,1-.11-1.14c.41-1.08,11.47-8.24,11-8a5,5,0,0,0,5.75-.49c.71,1.45,2.76,6.67.74,7.21C172.85,211.69,157.54,215.16,156.63,213.75Z" transform="translate(-5.44 -3.21)"/><path class="cls-22" d="M158.25,214.27c-1,0-1.61-.12-1.8-.4a1.49,1.49,0,0,1-.13-1.33c.39-1,8.92-6.63,10.87-7.87h0l.28-.18,0,0,.12-.07h.15l0,.08a4.75,4.75,0,0,0,5.39-.51l.22-.22.13.28c.61,1.24,2.18,5.15,1.43,6.79a1.25,1.25,0,0,1-.83.72C174,211.61,162.76,214.27,158.25,214.27Zm-1.44-.63c.74,1.15,14.68-1.8,17.19-2.47a.85.85,0,0,0,.55-.48c.59-1.29-.57-4.59-1.3-6.17a5.25,5.25,0,0,1-5.68.38c-1.39.88-10.51,6.91-10.85,7.79a1.1,1.1,0,0,0,.09.95Z" transform="translate(-5.44 -3.21)"/><path class="cls-22" d="M162.5,211.1a3.31,3.31,0,0,1-1.35-.33,1.61,1.61,0,0,1-.91-.88.42.42,0,0,1,.82-.22,1.18,1.18,0,0,0,.57.38,1.73,1.73,0,0,0,1.07.17.43.43,0,0,1,.57.2.41.41,0,0,1-.2.57h0A1.31,1.31,0,0,1,162.5,211.1Z" transform="translate(-5.44 -3.21)"/><path class="cls-22" d="M164.76,209.49a2.63,2.63,0,0,1-2.22-1.21.41.41,0,0,1,.13-.58.42.42,0,0,1,.59.13h0a1.82,1.82,0,0,0,1.7.8.43.43,0,0,1,.1.85Z" transform="translate(-5.44 -3.21)"/><path class="cls-22" d="M166.75,207.94a3.28,3.28,0,0,1-2.17-.83.42.42,0,1,1,.57-.63h0a2.42,2.42,0,0,0,1.84.6.42.42,0,1,1,.11.84h0A1.94,1.94,0,0,1,166.75,207.94Z" transform="translate(-5.44 -3.21)"/><path class="cls-23" d="M176,213.43c-.62-1,.33-1.89,1.32-2.52,4.61-3,9.85-6.28,9.85-6.28a5,5,0,0,0,5.77-.34c.59,1.3,2.63,6.74.5,7.24C192.18,211.83,176.83,214.88,176,213.43Z" transform="translate(-5.44 -3.21)"/><path class="cls-22" d="M177.94,214c-1.16,0-2-.13-2.17-.47-.55-.92-.08-1.86,1.39-2.81,4.56-2.93,9.81-6.24,9.86-6.28l.11-.07.12.07a4.76,4.76,0,0,0,5.49-.31l.22-.22.13.29c.57,1.25,2,5.2,1.24,6.82a1.29,1.29,0,0,1-.88.71C193.32,211.77,182.66,214,177.94,214Zm9.19-9.13c-.79.51-5.55,3.52-9.74,6.2-1.68,1.09-1.52,1.8-1.25,2.24.72,1.19,14.59-1.37,17.22-2a.86.86,0,0,0,.59-.49c.63-1.28-.42-4.55-1.13-6.19a5.24,5.24,0,0,1-5.69.23Z" transform="translate(-5.44 -3.21)"/><path class="cls-22" d="M181.62,211.39h-.06c-.51-.07-2-.31-2.14-1.58a.41.41,0,0,1,.4-.45.42.42,0,0,1,.44.37c0,.28.21.63,1.42.82a.43.43,0,0,1,.36.48.42.42,0,0,1-.42.36Z" transform="translate(-5.44 -3.21)"/><path class="cls-22" d="M183.8,209.75a2.9,2.9,0,0,1-2.26-1.23.42.42,0,0,1,.11-.6.43.43,0,0,1,.59.11,2,2,0,0,0,1.58.87.43.43,0,0,1,.41.44A.42.42,0,0,1,183.8,209.75Z" transform="translate(-5.44 -3.21)"/><path class="cls-22" d="M185.65,208.28a2.73,2.73,0,0,1-1.89-.87.43.43,0,0,1,.09-.6.42.42,0,0,1,.59.09,1.77,1.77,0,0,0,1.36.52.42.42,0,0,1,.55.25.42.42,0,0,1-.26.54A1.1,1.1,0,0,1,185.65,208.28Z" transform="translate(-5.44 -3.21)"/><path class="cls-24" d="M176.59,200.07a.92.92,0,0,1-.93.9c-12.17.06-12.54.4-12.59-.83-3.44-87.62-5.42-94.94,1.08-108.76,8.53.05,19.79.15,28.42-.17,3.26,6,5.66,16.26,5.59,20.66l-2.26,88.07a.92.92,0,0,1-.92.9c-12.1.12-12.48.46-12.53-.77L179.1,118.5C178.8,116.05,176.58,200.5,176.59,200.07Z" transform="translate(-5.44 -3.21)"/><path class="cls-25" d="M166.28,201.27c-3.22,0-3.39-.19-3.42-1.12q-1-24.92-1.75-41.75C159,110,158.66,102.54,164,91.29l.06-.12h1.85c8.3,0,18.63.12,26.69-.18h.13l.06.12c3.21,5.86,5.7,16.15,5.62,20.76L196.12,200a1.15,1.15,0,0,1-1.14,1.11l-6.19.09c-6.26.11-6.5.11-6.55-1.07l-3.18-77.35c-.66,16.62-2.24,76.66-2.26,77.35l0,.2a1.14,1.14,0,0,1-1.11.91c-2.57,0-4.62,0-6.24.06Zm-2-109.68c-5.2,11.09-4.86,18.64-2.76,66.79.49,11.2,1.1,25.15,1.75,41.75,0,.74.2.76,6.14.69,1.62,0,3.67,0,6.24-.06a.72.72,0,0,0,.72-.7c0-.68.55-21.12,1.11-40.8.34-11.84.62-21.28.84-28.06.42-12.94.46-12.94.73-13a.23.23,0,0,1,.25.23l3.35,81.59c0,.74.2.76,6.12.66l6.2-.09a.71.71,0,0,0,.71-.7l2.25-88.06c.07-4.52-2.36-14.6-5.5-20.44-8,.3-18.31.23-26.57.17Z" transform="translate(-5.44 -3.21)"/><path class="cls-24" d="M192.56,91.21a81.91,81.91,0,0,1-28.41.17c-4.6-3.61,3.91-13.25,4.49-21.54a.44.44,0,0,1,.43-.41c19.54,0,18.79-.18,18.82.41C188.41,78.46,197.88,87.29,192.56,91.21Z" transform="translate(-5.44 -3.21)"/><path class="cls-25" d="M178.27,92.75a87.14,87.14,0,0,1-14.15-1.16h-.06l0,0c-2.83-2.22-1-6.46,1.15-11.38,1.42-3.26,3-7,3.26-10.34a.64.64,0,0,1,.64-.6l10.87,0c8.16,0,8.16,0,8.17.58v0c.21,3.55,2,7.21,3.57,10.43,2.28,4.69,4.25,8.73,1,11.13l-.09,0A72.53,72.53,0,0,1,178.27,92.75Zm-14-1.57A81.63,81.63,0,0,0,192.47,91c2.91-2.18,1-6.07-1.18-10.56-1.59-3.26-3.39-7-3.61-10.6v-.07a0,0,0,0,0,0,0c-.19-.13-2.09-.12-7.74-.1l-10.86,0a.22.22,0,0,0-.22.2c-.24,3.45-1.87,7.19-3.3,10.48C163.5,85.06,161.73,89.14,164.24,91.18Z" transform="translate(-5.44 -3.21)"/><path class="cls-25" d="M193.07,92.17c-10.06,1.13-24,1.17-29.34,0l.42-.83a2.26,2.26,0,0,1-.86-.82c10.35.42,23.54.13,30.29-.39-.45.62-.77,1-1,1Z" transform="translate(-5.44 -3.21)"/><path class="cls-25" d="M176.38,93.25a71.11,71.11,0,0,1-12.69-.84l-.27,0,.45-.9a2.3,2.3,0,0,1-.77-.81l-.16-.32h.36c10.42.42,23.57.14,30.26-.39l.46,0-.27.37a4.33,4.33,0,0,1-.89,1l.54,1-.31,0A155.46,155.46,0,0,1,176.38,93.25Zm-12.33-1.2c5.38,1,18.8,1,28.68-.06l-.5-.95.3,0c.13,0,.38-.31.6-.59-6.74.5-19.28.76-29.41.38a2.16,2.16,0,0,0,.51.39l.22.09Z" transform="translate(-5.44 -3.21)"/><path class="cls-25" d="M170.26,70.24l-.71.11c-.17-5.06-2.05-10.87-2.44-16.59l.59-.25C168.21,59.21,170.29,67.07,170.26,70.24Z" transform="translate(-5.44 -3.21)"/><path class="cls-25" d="M169.35,70.59v-.24a55.19,55.19,0,0,0-1.19-8.29,70,70,0,0,1-1.25-8.29v-.14l1-.43,0,.29c.25,2.77.88,6.11,1.44,9.06a51.3,51.3,0,0,1,1.13,7.69v.19Zm-2-16.69A71.34,71.34,0,0,0,168.57,62a57,57,0,0,1,1.18,8.12l.3,0a56.05,56.05,0,0,0-1.12-7.42c-.54-2.86-1.15-6.08-1.42-8.81Z" transform="translate(-5.44 -3.21)"/><path class="cls-25" d="M186.18,70.45l.71.1c.17-5.06,2.09-11.81,2.48-17.53l-.51-.23C188.35,58.5,186.15,67.28,186.18,70.45Z" transform="translate(-5.44 -3.21)"/><path class="cls-25" d="M187.09,70.8,186,70.63v-.18a58,58,0,0,1,1.19-8.23c.58-3.14,1.24-6.69,1.49-9.44l0-.3.93.41V53a82.14,82.14,0,0,1-1.27,8.68,65.49,65.49,0,0,0-1.22,8.84Zm-.7-.54.3,0a66.57,66.57,0,0,1,1.21-8.66,83.91,83.91,0,0,0,1.25-8.49l-.11,0c-.26,2.72-.9,6.15-1.46,9.19a64.47,64.47,0,0,0-1.19,8Z" transform="translate(-5.44 -3.21)"/><path class="cls-22" d="M170.76,70.34c.71-1.38-1.33-1.31-1.67-.68a.9.9,0,0,0,1.65.74A.14.14,0,0,0,170.76,70.34Z" transform="translate(-5.44 -3.21)"/><path class="cls-22" d="M185.58,70.34c-.71-1.39,1.33-1.31,1.67-.68a.91.91,0,0,1-1.66.73Z" transform="translate(-5.44 -3.21)"/><path class="cls-25" d="M177.83,84.38c-1.28,0-2.56,0-3.83-.07-.44,0-.62-.21-.62-.68a28.6,28.6,0,0,1,.27-4.14l0-.13.11,0c2.07-.71,8.21-.74,8.86-.32a.3.3,0,0,1,.14.22s.34,3.89-.5,4.85a.64.64,0,0,1-.47.24C180.5,84.36,179.17,84.38,177.83,84.38Zm-3.78-4.7a32.59,32.59,0,0,0-.24,3.95c0,.25,0,.25.21.26,2.59.09,5.21.09,7.79,0a.19.19,0,0,0,.16-.09c.56-.63.5-3.43.41-4.45a26.28,26.28,0,0,0-8.33.34Z" transform="translate(-5.44 -3.21)"/><path class="cls-22" d="M173.86,79.31l0-1.14c0-.24,8.75-.43,8.75,0V79C182.58,79.27,173.87,79.74,173.86,79.31Z" transform="translate(-5.44 -3.21)"/><path class="cls-22" d="M175.62,79.7c-1.87,0-2-.14-2-.38l0-1.27.12-.08c.45-.27,8.21-.44,8.92,0a.3.3,0,0,1,.15.24V79c0,.23,0,.31-2.58.49-1.47.09-3.13.16-4.33.17Zm-1.55-.5a52.76,52.76,0,0,0,8.3-.3v-.62a53.79,53.79,0,0,0-8.32,0Z" transform="translate(-5.44 -3.21)"/><path class="cls-18" d="M168.85,28a.22.22,0,0,1,.23-.18.21.21,0,0,1,.18.21,4.93,4.93,0,0,0,.33,2.15C169.79,30.6,168.65,30.72,168.85,28Z" transform="translate(-5.44 -3.21)"/><path class="cls-18" d="M186.62,31.13a3.94,3.94,0,0,0,1.4-2.29.2.2,0,1,1,.4.08h0a4.29,4.29,0,0,1-1.56,2.53.2.2,0,0,1-.24-.32Z" transform="translate(-5.44 -3.21)"/><path class="cls-18" d="M186.93,45.07c-2.94-4.36-1.06-5.13-1.18-4.39-.25,1.58.77,3.06,1.52,4.16a.21.21,0,0,1-.06.28A.2.2,0,0,1,186.93,45.07Z" transform="translate(-5.44 -3.21)"/><path class="cls-18" d="M191.47,45c-.8-1.66-1.66-2.05-2.15-3-1.15-2.13,1-3.28.9-4.67a.89.89,0,0,0-.68-.84.2.2,0,1,1,0-.4c.58.06,1.72.81.43,3-1.69,2.87.47,2.88,1.83,5.69a.21.21,0,0,1-.1.28.2.2,0,0,1-.27-.1Z" transform="translate(-5.44 -3.21)"/><path class="cls-18" d="M188.28,43.21a.21.21,0,0,1,.08-.28.21.21,0,0,1,.27.07c1.45,2.42,1.76,2.67,1.48,2.84S189.73,45.62,188.28,43.21Z" transform="translate(-5.44 -3.21)"/><path class="cls-18" d="M165,44.92c-1.72-3.27,3.14-8.65,3.62-8a.22.22,0,0,1-.05.29c-2,1.43-4.34,5.29-3.19,7.48a.21.21,0,0,1-.11.28A.22.22,0,0,1,165,44.92Z" transform="translate(-5.44 -3.21)"/><path class="cls-18" d="M166.82,45.43a3.25,3.25,0,0,0,0-1.58c-.37-2,1.28-3.86,1.6-3.57a.21.21,0,0,1,0,.3h0c-2.34,2.66-.67,2.88-1.21,5a.22.22,0,0,1-.28.12A.2.2,0,0,1,166.82,45.43Z" transform="translate(-5.44 -3.21)"/><path class="cls-18" d="M169.3,44.91c-.33-.11,0-.69.17-1a3.31,3.31,0,0,0,.43-2.6c-.22-.61,1.45-.41,0,2.78C169.58,44.67,169.57,45,169.3,44.91Z" transform="translate(-5.44 -3.21)"/><path class="cls-18" d="M171.22,46.55c-.25-.08-.11-.34,0-.58a4.81,4.81,0,0,0,.43-2c-.08-.39,1-1-.14,2.46a.21.21,0,0,1-.27.13Z" transform="translate(-5.44 -3.21)"/><path class="cls-18" d="M183.91,43.23a.23.23,0,0,1,.23.2,3.75,3.75,0,0,0,1.19,2.8.2.2,0,0,1,0,.29C184.82,47.31,183.07,43.27,183.91,43.23Z" transform="translate(-5.44 -3.21)"/><path class="cls-25" d="M179.15,117.49a.22.22,0,0,1-.19-.13,26,26,0,0,1-2-11.11.21.21,0,0,1,.42,0,25.51,25.51,0,0,0,1.92,10.92.21.21,0,0,1-.11.28h0Z" transform="translate(-5.44 -3.21)"/><path class="cls-25" d="M160.44,109.1a.21.21,0,0,1-.21-.22.2.2,0,0,1,.07-.16l.32-.26c2.78-2.28,3.93-3.22,5.68-14.71a.21.21,0,0,1,.25-.16.2.2,0,0,1,.17.23c-1.78,11.65-3,12.62-5.83,15l-.32.26A.21.21,0,0,1,160.44,109.1Z" transform="translate(-5.44 -3.21)"/><path class="cls-25" d="M196.4,109l-.1,0c-3.65-1.88-4.21-2.16-8-15.51a.22.22,0,0,1,.14-.27.21.21,0,0,1,.27.13v0c3.76,13.17,4.3,13.45,7.8,15.25a.21.21,0,0,1-.09.4Z" transform="translate(-5.44 -3.21)"/><path class="cls-24" d="M174.8,92.34a73.67,73.67,0,0,1-10.6-.74.21.21,0,0,1-.19-.23.2.2,0,0,1,.23-.19h0c8.46,1.2,14.9.76,27.72-.13l.36,0a.22.22,0,0,1,.24.19.21.21,0,0,1-.19.23h0l-.36,0C184.73,92,179.51,92.34,174.8,92.34Z" transform="translate(-5.44 -3.21)"/><path class="cls-20" d="M150.8,117.89h-.07a2.27,2.27,0,0,1-1.23-1,.21.21,0,0,1,.11-.27.21.21,0,0,1,.26.07,1.8,1.8,0,0,0,1,.82.22.22,0,0,1-.07.42Z" transform="translate(-5.44 -3.21)"/><path class="cls-20" d="M204.68,117.78h-.05a.22.22,0,0,1-.2-.23.22.22,0,0,1,.21-.2,1.55,1.55,0,0,0,1.29-.63.22.22,0,1,1,.36.24h0A2,2,0,0,1,204.68,117.78Z" transform="translate(-5.44 -3.21)"/><path class="cls-26" d="M48,28.13c.06,5,1.72,8.75-7.52,13.1C46,48.8,51.43,51.6,51.43,51.6S63,46.38,67,42.93c-2.07-1.51-4.23-2.63-6.14-4-3.78-2.65-1.55-8.54-2.29-10.72Z" transform="translate(-5.44 -3.21)"/><path class="cls-26" d="M50.27,33.4c2.08,1.29,4.47.9,6.87.13,2.64-.84,6.93-8.53,5.32-18S50.22,4.86,46,11.29C42.2,17.1,44.8,30,50.27,33.4Z" transform="translate(-5.44 -3.21)"/><path class="cls-27" d="M47.56,15.35c.28-.06.16-.55.31-.79.46-.71,1.54-.55,2.27-1,.5-.28,1-.84,1.5-.69s.64.6,1.06.64.73-.32,1.08-.2.72,1.25,2.21.75c2.41-.82,4,.06,4.23.59a26.4,26.4,0,0,1,2.17,9.47L65,16.35a6.64,6.64,0,0,0-1.15-3.24c-1.47-1.54,1.25-2.91-1.1-5.83-1.81-1.41-2.81-1.87-3.79-1a2.92,2.92,0,0,0-3.07-2.51c-2.81.27-2-1.49-5.7.31-.63.31-2.5,1.2-2.76,2.08s.69,1.89-.93,2.35c-.78-.09-6.07,1.17-2.57,12.38.18.58.89,3.46,1.11,4C44.28,19.52,46.73,15.51,47.56,15.35Z" transform="translate(-5.44 -3.21)"/><path class="cls-6" d="M49.45,12.23C48.9,11,48.3,9.38,46.92,9c-.61-.18.78-1.07,2.23,1.83-.25-.85-2-3.27-1.3-3.36a.16.16,0,0,1,.18.14,4.59,4.59,0,0,0,.74,1.71C49.73,10.87,49.6,11.25,49.45,12.23Z" transform="translate(-5.44 -3.21)"/><path class="cls-6" d="M55.55,12.62c1.55-.94,3.74-4,3.18-5.76-.2-.63,1.4.1-.44,3.18C56.22,13.5,55,12.92,55.55,12.62Z" transform="translate(-5.44 -3.21)"/><path class="cls-6" d="M46.42,12.59a15.12,15.12,0,0,0-1.78-.94.16.16,0,0,1-.07-.22.17.17,0,0,1,.21-.07,7.68,7.68,0,0,1,1.87,1c.42.45.56,2.15.27,2.17S46.83,13,46.42,12.59Z" transform="translate(-5.44 -3.21)"/><path class="cls-6" d="M54.08,8.4c1-1.18,1.79-2.69,1-4a.17.17,0,0,1,.06-.22h0c.45-.25,1.28,1.92-.85,4.44a.15.15,0,0,1-.22,0A.15.15,0,0,1,54.08,8.4Z" transform="translate(-5.44 -3.21)"/><path class="cls-6" d="M51.33,12.29a2.32,2.32,0,0,0,0-3.14.16.16,0,0,1,0-.23h0c.44-.42,1.68,2,.28,3.58a.16.16,0,0,1-.23,0A.16.16,0,0,1,51.33,12.29Z" transform="translate(-5.44 -3.21)"/><path class="cls-6" d="M54.71,10.25a.15.15,0,0,1,.22,0,.16.16,0,0,1,0,.23c-.4.55-1.14,1.5-.82,2.44C54.34,13.45,52.73,12.91,54.71,10.25Z" transform="translate(-5.44 -3.21)"/><path class="cls-6" d="M60.88,15.5c.8-1,1.9-2.38,1.7-4-.08-.66,1.63.39-1.45,4.17a.16.16,0,0,1-.23,0A.15.15,0,0,1,60.88,15.5Z" transform="translate(-5.44 -3.21)"/><path class="cls-6" d="M60.48,10.33c.35-.44,1.44-1.73.73-2.73-.45-.63,1.81,0-.48,2.93a.16.16,0,0,1-.23,0A.17.17,0,0,1,60.48,10.33Z" transform="translate(-5.44 -3.21)"/><path class="cls-6" d="M53.92,8.45a3.76,3.76,0,0,0-.34-2.38.16.16,0,0,1,.29-.15,4.11,4.11,0,0,1,.37,2.58.16.16,0,0,1-.19.12A.16.16,0,0,1,53.92,8.45Z" transform="translate(-5.44 -3.21)"/><path class="cls-6" d="M44.59,18.05a.16.16,0,0,1-.14-.18h0a2.35,2.35,0,0,0-.82-2.18.16.16,0,0,1,.2-.25C45,16.37,45,18.1,44.59,18.05Z" transform="translate(-5.44 -3.21)"/><path class="cls-6" d="M63.93,16a.17.17,0,0,1,0,.23h0a3.12,3.12,0,0,0-1.26,2.66.17.17,0,0,1-.15.18C61.67,19.09,63.38,15.23,63.93,16Z" transform="translate(-5.44 -3.21)"/><path class="cls-26" d="M63.72,19.75C61.88,19.29,61.92,23.1,62,25,62.14,28.71,66.62,20.47,63.72,19.75Z" transform="translate(-5.44 -3.21)"/><path class="cls-20" d="M63.41,21.62a.14.14,0,0,0-.26.09h0c.37,1,.08,1.67-.35,1.92a.14.14,0,0,0,0,.19C63,24.25,63.93,23.1,63.41,21.62Z" transform="translate(-5.44 -3.21)"/><path class="cls-26" d="M43.43,20.54c1.79-.61,2.06,3.19,2.15,5.08C45.74,29.34,40.6,21.5,43.43,20.54Z" transform="translate(-5.44 -3.21)"/><path class="cls-20" d="M43.89,22.38a.14.14,0,0,1,.27.07h0c-.28,1.06.06,1.66.5,1.88a.14.14,0,0,1,.07.18C44.5,25,43.5,23.9,43.89,22.38Z" transform="translate(-5.44 -3.21)"/><path class="cls-6" d="M57.85,21.6c.6,0,1-2.31-.48-2.25C56.6,19.39,56.87,21.64,57.85,21.6Z" transform="translate(-5.44 -3.21)"/><path class="cls-6" d="M49,22.06c-.6,0-1.16-2.22.29-2.28C50.07,19.75,50,22,49,22.06Z" transform="translate(-5.44 -3.21)"/><path class="cls-20" d="M58.51,32.19a.16.16,0,0,0-.24,0h0c-1.56,2-7.08,2.71-9.73-.18a.17.17,0,0,0-.24,0,.16.16,0,0,0,0,.24C52.2,36.54,59.49,32.94,58.51,32.19Z" transform="translate(-5.44 -3.21)"/><path class="cls-27" d="M55.66,18.26c.14.07,4.73.41,4.81.38,1.11-.36-2.81-1.93-4.74-1.09C55.48,17.66,55.42,18.13,55.66,18.26Z" transform="translate(-5.44 -3.21)"/><path class="cls-27" d="M51.23,17.41c-2-.77-5.62,1-4.69,1.32.29,0,4.72-.57,4.78-.62a.41.41,0,0,0,0-.59A.49.49,0,0,0,51.23,17.41Z" transform="translate(-5.44 -3.21)"/><path class="cls-20" d="M54.57,25.43c0-.25-.38-.26-.65-.31-1-.18-1,.31-.73-3.84.06-.81.18-1.24-.11-1.25s-.19.31-.25,1.23c-.31,4.5-.34,3.95,1.53,4.32a.18.18,0,0,0,.21-.15Z" transform="translate(-5.44 -3.21)"/><path class="cls-20" d="M56.39,28.87c.22-.43-.42-.28-5.39-.59C49.89,28.21,53.8,33.91,56.39,28.87Z" transform="translate(-5.44 -3.21)"/><path class="cls-26" d="M37,207.62a4.75,4.75,0,0,1-5.84.25l.33-11.55,7.46.21Z" transform="translate(-5.44 -3.21)"/><path class="cls-28" d="M30.12,214.93c.78.56.66.41,17.55,1.21,3.38.16,3.53-1.58,1.78-2.67-2.67-1.66-12.29-7-12.9-6.63-1.73,1-2.61,1.19-5.32.81C30.78,207.59,27.79,213.23,30.12,214.93Z" transform="translate(-5.44 -3.21)"/><path class="cls-23" d="M40.47,208.9a5.32,5.32,0,0,1-2.27,1.74Z" transform="translate(-5.44 -3.21)"/><path class="cls-22" d="M38.2,210.86a.23.23,0,0,1-.23-.22.22.22,0,0,1,.14-.2,5.14,5.14,0,0,0,2.18-1.67.22.22,0,1,1,.35.27,5.48,5.48,0,0,1-2.36,1.81Z" transform="translate(-5.44 -3.21)"/><path class="cls-23" d="M42.13,209.91c0,.68-1.33,1.52-2,1.81Z" transform="translate(-5.44 -3.21)"/><path class="cls-22" d="M40.16,211.94a.22.22,0,0,1-.22-.22.21.21,0,0,1,.13-.2c.79-.36,1.87-1.13,1.84-1.6a.21.21,0,0,1,.21-.23.21.21,0,0,1,.23.2c.06,1-2.07,2-2.1,2Z" transform="translate(-5.44 -3.21)"/><path class="cls-23" d="M43.9,210.92a3.63,3.63,0,0,1-2.16,1.67Z" transform="translate(-5.44 -3.21)"/><path class="cls-22" d="M41.77,212.8a.21.21,0,0,1-.21-.13.2.2,0,0,1,.09-.28h0a3.47,3.47,0,0,0,2-1.55.22.22,0,0,1,.42.15v0a3.75,3.75,0,0,1-2.24,1.78Z" transform="translate(-5.44 -3.21)"/><path class="cls-22" d="M45.78,215.07H44.6a.22.22,0,0,1-.22-.22.24.24,0,0,1,.23-.22h.56c1.44,0,3.07,0,3.32-1.11a.23.23,0,0,1,.27-.17.22.22,0,0,1,.17.26C48.64,214.93,47.16,215.07,45.78,215.07Z" transform="translate(-5.44 -3.21)"/><path class="cls-10" d="M64.58,211.71a5.87,5.87,0,0,0,0,1.51,1.91,1.91,0,0,0,.63,1.24,2.5,2.5,0,0,0,1.28.52c.47.06,1,.06,1.51.09l6.15.31c2,.14,4.09.23,6.14.34,1,.05,2,.1,3.06.09a9.49,9.49,0,0,0,1.51-.06l.18,0,.14-.06.28-.25a.89.89,0,0,0,.29-.65h0a1,1,0,0,1-.25.73,3.57,3.57,0,0,1-.28.27,1.14,1.14,0,0,1-.36.15,11.32,11.32,0,0,1-1.54.16c-1,0-2,0-3.08,0-2.05,0-4.1-.13-6.16-.24s-4.1-.25-6.14-.41c-.52,0-1-.06-1.54-.15a2.71,2.71,0,0,1-1.4-.63,2.21,2.21,0,0,1-.61-1.4,5.62,5.62,0,0,1,.12-1.53Z" transform="translate(-5.44 -3.21)"/><polygon class="cls-26" points="66.83 204.26 60.93 204.82 59.88 193.85 67.1 194.06 66.83 204.26"/><path class="cls-28" d="M65.33,214.84c.78.56.67.41,17.55,1.21,3.38.16,3.53-1.58,1.78-2.67-2.66-1.66-12.29-7-12.9-6.63-1.73,1-2.61,1.18-5.32.81C66,207.5,63,213.14,65.33,214.84Z" transform="translate(-5.44 -3.21)"/><path class="cls-10" d="M73.41,210.77a.22.22,0,0,1-.22-.22.2.2,0,0,1,.14-.2,5.17,5.17,0,0,0,2.17-1.67.21.21,0,0,1,.31,0,.22.22,0,0,1,0,.31h0a5.6,5.6,0,0,1-2.36,1.81Z" transform="translate(-5.44 -3.21)"/><path class="cls-10" d="M75.38,211.85a.24.24,0,0,1-.23-.22.22.22,0,0,1,.14-.2c.78-.36,1.86-1.13,1.83-1.6a.23.23,0,0,1,.45,0c.06,1-2.08,2-2.1,2Z" transform="translate(-5.44 -3.21)"/><path class="cls-10" d="M77,212.71a.23.23,0,0,1-.21-.13.21.21,0,0,1,.09-.28h0a3.46,3.46,0,0,0,2-1.55.21.21,0,0,1,.28-.12.21.21,0,0,1,.13.28,3.76,3.76,0,0,1-2.24,1.79Z" transform="translate(-5.44 -3.21)"/><path class="cls-10" d="M81,215h-.61a5.51,5.51,0,0,0-.57,0,.22.22,0,0,1-.22-.22.23.23,0,0,1,.24-.22h.56c1.44,0,3.07.05,3.32-1.12a.22.22,0,0,1,.26-.17.23.23,0,0,1,.17.27h0C83.85,214.83,82.38,215,81,215Z" transform="translate(-5.44 -3.21)"/><path class="cls-29" d="M33.14,95c-.11,2.2-5.44,110.32-3.32,110.52,1.14.11,8.76.68,9-.47,9.05-41.27,13.28-81.58,13.28-81.58,2.55,16.2,2.56,32.71,5,48.92.92,6.08,6.86,32.25,7.81,32.45,1.6.34,8.81,1.07,8.81-.4,0-9.31-.89-109.44-.89-109.44Z" transform="translate(-5.44 -3.21)"/><path class="cls-30" d="M52,119.34h0a.24.24,0,0,1-.2-.25h0a64.58,64.58,0,0,0,.3-15.69c-.24-2.35-.37-3.64.58-5.36A.24.24,0,0,1,53,98a.22.22,0,0,1,.08.3c-.88,1.59-.76,2.76-.53,5.1a64.24,64.24,0,0,1-.3,15.78A.21.21,0,0,1,52,119.34Z" transform="translate(-5.44 -3.21)"/><path class="cls-30" d="M66,203.47a.24.24,0,0,1-.22-.16c-5.92-23.06-7.61-42.82-8.84-57.24-.81-9.46-1.39-16.3-2.81-20.32a.22.22,0,0,1,.13-.28.22.22,0,0,1,.28.14c1.45,4.07,2,10.93,2.84,20.42,1.23,14.41,2.91,34.15,8.83,57.17a.23.23,0,0,1-.16.27h0Z" transform="translate(-5.44 -3.21)"/><path class="cls-30" d="M71.07,112.41a.18.18,0,0,1-.13,0c-5.39-4-5.41-5.43-5.48-12.5,0-.83,0-1.73,0-2.71a.21.21,0,0,1,.21-.23.22.22,0,0,1,.23.22h0c0,1,0,1.89,0,2.71.06,7,.08,8.32,5.29,12.15a.22.22,0,0,1,0,.31.23.23,0,0,1-.18.09Z" transform="translate(-5.44 -3.21)"/><path class="cls-30" d="M34.35,109.44a.22.22,0,0,1-.22-.22.22.22,0,0,1,.12-.2c5.79-2.88,6-4.13,7.31-11.06.14-.82.31-1.7.5-2.67a.23.23,0,0,1,.26-.18.22.22,0,0,1,.17.26L42,98c-1.28,6.95-1.55,8.4-7.54,11.37A.17.17,0,0,1,34.35,109.44Z" transform="translate(-5.44 -3.21)"/><path class="cls-30" d="M52,122.75c-.18,0-.29-.18-.52-.54-.52-.84-1.6-2.57-3.53-2a.22.22,0,0,1-.27-.16.21.21,0,0,1,.15-.27c2.25-.62,3.49,1.37,4,2.22l.08.13a3.44,3.44,0,0,1,2.75-2.2.22.22,0,0,1,.24.19h0a.21.21,0,0,1-.19.24h0a3,3,0,0,0-2.47,2.17.28.28,0,0,1-.23.23Z" transform="translate(-5.44 -3.21)"/><path class="cls-30" d="M54.18,110.4a3.4,3.4,0,0,1-.45,0,3.49,3.49,0,0,0-1,0,.22.22,0,1,1-.08-.44,4,4,0,0,1,1.14,0c.45,0,.72.06.95-.14.77-.67,1.21-3.84,1.64-11.71a.23.23,0,0,1,.23-.21.22.22,0,0,1,.21.24c-.5,9.28-1,11.33-1.79,12A1.14,1.14,0,0,1,54.18,110.4Z" transform="translate(-5.44 -3.21)"/><rect class="cls-31" x="27.71" y="92.72" width="39.75" height="4.34"/><path class="cls-32" d="M83.7,107.08c-2.13.73-4.9,1.09-6.14.69,2,7.69,1.12,3.59,1.06,6.52,0,1.66-1.27,7.76.07,8.66,1,.67,1.38-2.11,1.75-3.78.51-2.32,4.3,1.08,2,6.42-.23.52-1.54,3,.13,3.89,3.24-4.28,4.72-11.5,1.14-17C83.4,111.88,83.5,111.85,83.7,107.08Z" transform="translate(-5.44 -3.21)"/><path class="cls-33" d="M84.74,112c.45-.07.36-.54.4-1.42-2.5.74-7.7.42-7.7.42C77.76,112.1,77,113.2,84.74,112Z" transform="translate(-5.44 -3.21)"/><path class="cls-29" d="M44.66,101c-.17,0-.1-6.44-.1-6.29,0-.18,1.2-.11,1-.11.17,0,.11,6.45.11,6.3C45.71,101.07,44.5,101,44.66,101Z" transform="translate(-5.44 -3.21)"/><path class="cls-29" d="M63.15,101c-.17,0-.1-6.44-.1-6.29,0-.18,1.2-.11,1-.11.17,0,.11,6.45.11,6.3C64.2,101.07,63,101,63.15,101Z" transform="translate(-5.44 -3.21)"/><path class="cls-25" d="M52.28,100.86c-2.14,0-2.71-.07-3.06-.41a1.06,1.06,0,0,1-.26-.79c0-.78,0-1.45,0-2,0-2.09,0-2.8.38-3.22a1.08,1.08,0,0,1,.8-.28l4.63,0c3.88,0,4.68,0,5.13.41a1,1,0,0,1,.25.78c0,.79,0,1.45,0,2,0,2.1,0,2.8-.39,3.22a1.05,1.05,0,0,1-.8.28l-4.63,0ZM56.88,95H54.77l-4.64,0a.32.32,0,0,0-.17,0,8.94,8.94,0,0,0-.13,2.58c0,.57,0,1.23,0,2a1.1,1.1,0,0,0,0,.18,21.88,21.88,0,0,0,4.48.12H59a.57.57,0,0,0,.18,0,8.93,8.93,0,0,0,.12-2.58c0-.56,0-1.23,0-2a1.09,1.09,0,0,0,0-.18A9,9,0,0,0,56.88,95Z" transform="translate(-5.44 -3.21)"/><path class="cls-34" d="M66.05,50.33C65.47,62.41,67.94,70,77.44,111a14.17,14.17,0,0,0,7.7-.42C87.63,110,88,45,73,43.58,70.13,43.32,66.19,47.6,66.05,50.33Z" transform="translate(-5.44 -3.21)"/><path class="cls-33" d="M80.52,111.57a15,15,0,0,1-3.13-.36l-.14,0,0-.14c-1.6-6.92-3-12.86-4.22-18.09-6-25.67-7.65-32.57-7.17-42.64.08-1.57,1.33-3.67,3.13-5.23A5.8,5.8,0,0,1,73,43.36c9,.84,12.06,23.51,13.06,37,1.07,14.45.62,30.12-.88,30.49A18,18,0,0,1,80.52,111.57Zm-2.9-.76a13.93,13.93,0,0,0,7.46-.44c1.38-.83,2.25-30.4-2.25-50.21-2.37-10.47-5.7-16-9.87-16.36a5.42,5.42,0,0,0-3.71,1.63c-1.69,1.46-2.91,3.48-3,4.9h0c-.48,10,1.14,16.91,7.15,42.52C74.65,98.06,76,104,77.62,110.81Z" transform="translate(-5.44 -3.21)"/><path class="cls-22" d="M59.21,37c-2.78,2.51-9.63,2.62-12.39-.25-2.89,1.45-12.53,4.46-14.43,5.79-4.36,3-5.51,48,.75,52.54,15.26,1.15,24.2,4.89,39.59,3.11,9.45-2.58,1.74-53.86,1.62-54.31C74.34,43.79,59.25,37,59.21,37Z" transform="translate(-5.44 -3.21)"/><path class="cls-23" d="M64.71,98.84a106,106,0,0,1-17.2-1.74c-4.42-.71-9-1.43-14.38-1.84h-.07l-.05,0c-3.42-2.48-4.54-15.91-4.45-27.65.09-11.33,1.39-23.64,3.71-25.25,1.07-.76,4.54-2,7.89-3.24,2.72-1,5.29-1.93,6.56-2.57l.15-.08.11.12c2.77,2.89,9.46,2.61,12.08.24l.1-.09.13,0,7.59,3.43c7.65,3.47,7.65,3.47,7.68,3.6.14.51,8,51.92-1.78,54.58A68,68,0,0,1,64.71,98.84Zm-31.49-4c5.39.41,10,1.14,14.35,1.84,7.83,1.24,15.22,2.42,25.13,1.27,8.93-2.44,1.85-51.46,1.45-53.94-1.18-.57-13.51-6.14-14.9-6.77-2.79,2.37-9.54,2.63-12.48-.25-1.33.65-3.82,1.56-6.46,2.52C37,40.71,33.55,42,32.52,42.68c-1.9,1.33-3.41,12-3.51,24.89C28.89,82.1,30.54,92.77,33.22,94.82Z" transform="translate(-5.44 -3.21)"/><path class="cls-34" d="M39.32,69.2c.08,7,2.86,13.94,1.9,20.89-4.48,32.65-2.54,35.57-4.66,35.6-12.35.2-12.17.45-12.51-.48-2.6-7.2-15.63-66,8.15-82.62,2.56-1.78,9.66-4.28,9.81-3.7C44.05,47.1,39.23,61,39.32,69.2Z" transform="translate(-5.44 -3.21)"/><path class="cls-33" d="M26.41,126.1c-2.28,0-2.34-.17-2.57-.8-1.47-4.1-5.24-20.79-5.83-37.87-.54-15.69,1.46-36.23,14.07-45,2.41-1.68,9.08-4.11,9.94-3.79a.3.3,0,0,1,.2.22c1.24,5,0,11.88-1.19,18.56a69.88,69.88,0,0,0-1.49,11.8A56.29,56.29,0,0,0,40.59,78c.7,4,1.41,8.08.85,12.15-2.26,16.45-2.88,25.35-3.22,30.13s-.4,5.65-1.65,5.67c-2.66,0-4.74.08-6.37.12S27.3,126.1,26.41,126.1ZM41.75,39a32,32,0,0,0-9.42,3.76C19.89,51.45,17.92,71.84,18.46,87.41c.58,17,4.33,33.66,5.79,37.72.21.58.21.59,5.94.46,1.63,0,3.71-.08,6.37-.12.82,0,.88-.53,1.21-5.25s1-13.7,3.23-30.16c.55-4-.16-8.07-.84-12A55,55,0,0,1,39.1,69.2a70.47,70.47,0,0,1,1.49-11.88C41.78,50.72,43,43.9,41.81,39Z" transform="translate(-5.44 -3.21)"/><polygon class="cls-32" points="19.31 93.84 27.05 101.96 31.88 97.86 25 87.92 19.31 93.84"/><path class="cls-34" d="M6,81.84c5.26,8.54,16.71,23.32,22.44,19.41,4-1.84,2.87-2.91,5.87-5,3.73-2.61-5.12-10.67-10.16-16.77-1-1.18-.45-1.5.47-2.89,8-12,8.21-34.4,8.21-34.4a13.06,13.06,0,0,0-7.24,3.59C23.25,48.13,2.7,76.46,6,81.84Z" transform="translate(-5.44 -3.21)"/><path class="cls-33" d="M26.31,102.12a5.54,5.54,0,0,1-1.14-.13c-6.38-1.36-15.45-13.7-19.35-20-3.47-5.64,17.7-34.41,19.63-36.34A13.39,13.39,0,0,1,32.8,42l.26,0v.27c0,.22-.35,22.57-8.24,34.52l-.36.54c-.67,1-.85,1.21-.12,2.09,1.06,1.27,2.26,2.61,3.53,4,3.87,4.31,7.86,8.77,7.55,11.47a2.19,2.19,0,0,1-1,1.59,8.44,8.44,0,0,0-2.23,2.19,7.69,7.69,0,0,1-3.67,2.83A3.88,3.88,0,0,1,26.31,102.12Zm6.3-59.66a12.85,12.85,0,0,0-6.85,3.47C23.09,48.6,3,76.58,6.2,81.73,10.07,88,19,100.23,25.27,101.56a3.84,3.84,0,0,0,3.06-.49,7.4,7.4,0,0,0,3.53-2.71,9.1,9.1,0,0,1,2.33-2.3A1.74,1.74,0,0,0,35,94.78c.29-2.49-3.65-6.88-7.45-11.12-1.27-1.41-2.47-2.76-3.54-4S23.42,78,24.08,77c.11-.16.24-.33.37-.53C31.8,65.34,32.54,45.06,32.61,42.46Z" transform="translate(-5.44 -3.21)"/><path class="cls-34" d="M67.5,90.07c-.92,7.52,1.19,15,1.71,22.6.84,12.47-.42,14,2,14.39,2.26.41,11.35,1.18,11.31-1.12-.39-21.73,1.45-75.32-8.17-82.1C66.14,40.09,66,39.9,66,40.2,74.26,75,70.65,64.23,67.5,90.07Z" transform="translate(-5.44 -3.21)"/><path class="cls-33" d="M77.2,127.74a42,42,0,0,1-6-.46c-1.76-.33-1.77-1.16-1.83-5.19,0-2.15-.06-5.09-.36-9.41-.17-2.61-.55-5.26-.91-7.82C67.38,100,66.67,95,67.28,90c.86-7.1,1.78-11.5,2.45-14.71,1.77-8.55,2-9.86-3.93-35.08a.32.32,0,0,1,.08-.31c.19-.15.19-.15,3.41,1.33l5.15,2.37c8.17,5.75,8.21,44,8.23,69.37,0,5,0,9.36.07,12.93a1,1,0,0,1-.42.86C81.48,127.52,79.38,127.74,77.2,127.74ZM67.5,90.07l.22,0c-.6,4.89.11,9.88.79,14.7.36,2.58.74,5.24.92,7.86.29,4.33.33,7.28.36,9.43,0,4.06.1,4.51,1.46,4.76,2,.38,9.19,1,10.78-.37a.66.66,0,0,0,.27-.52c-.06-3.57-.07-7.91-.07-12.94,0-25.24-.06-63.39-8-69L69.1,41.68c-1.51-.7-2.4-1.11-2.81-1.27,5.94,25.06,5.66,26.41,3.87,35-.66,3.21-1.58,7.6-2.44,14.68Z" transform="translate(-5.44 -3.21)"/><path class="cls-33" d="M18.49,81.23a.22.22,0,0,1-.22-.22.2.2,0,0,1,0-.13c1-1.47,2.55-3.33,4.55-2.6A13.52,13.52,0,0,0,20,73.85a.23.23,0,0,1,0-.32.22.22,0,0,1,.31,0h0c1.49,1.53,3.32,4.53,2.94,5.09a.32.32,0,0,1-.44.1c-1.34-.54-2.66.22-4.14,2.4A.22.22,0,0,1,18.49,81.23Z" transform="translate(-5.44 -3.21)"/><path class="cls-33" d="M29.64,107.64a.22.22,0,0,1-.23-.22.21.21,0,0,1,.08-.17c2.77-2.47,5.64-4.87,8.56-7.16a.22.22,0,0,1,.31,0,.21.21,0,0,1,0,.31h0c-2.9,2.28-5.78,4.68-8.54,7.14A.2.2,0,0,1,29.64,107.64Z" transform="translate(-5.44 -3.21)"/><path class="cls-33" d="M80.59,107.64a.2.2,0,0,1-.14-.06c-2.76-2.46-5.64-4.86-8.54-7.14a.21.21,0,0,1,0-.31.22.22,0,0,1,.31,0c2.91,2.29,5.79,4.69,8.56,7.16a.22.22,0,0,1,0,.31.21.21,0,0,1-.16.08Z" transform="translate(-5.44 -3.21)"/><path class="cls-33" d="M29.64,102.06c-.3.21-.56-.21-1.19-.81,2.32-1.19,5.87-5,5.87-5C34.86,97.3,36.18,97.55,29.64,102.06Z" transform="translate(-5.44 -3.21)"/><path class="cls-23" d="M49.39,43.29h-.07c-.53,0-.92-.63-1.7-1.8a45.2,45.2,0,0,0-2.78-3.85.22.22,0,0,1,0-.31.21.21,0,0,1,.31,0c1.34,1.67,2.19,3,2.81,3.88s1,1.58,1.37,1.61.9-.58,1.82-1.57c.41-.45.92-1,1.53-1.63.39-.4,1.08.27,2.13,1.27.71.69,1.7,1.63,2.1,1.61a.1.1,0,0,0,.07,0c.55-.7,1.14-1.49,1.71-2.25.68-.91,1.39-1.85,2-2.64a.23.23,0,0,1,.32,0,.22.22,0,0,1,0,.31c-.63.79-1.34,1.73-2,2.63s-1.17,1.56-1.72,2.26A.57.57,0,0,1,57,43c-.56,0-1.33-.66-2.43-1.73C54,40.74,53.23,40,53,40c-.58.61-1.08,1.15-1.49,1.6C50.43,42.74,49.92,43.29,49.39,43.29Z" transform="translate(-5.44 -3.21)"/><path class="cls-23" d="M54.33,97.43a.22.22,0,0,1-.22-.19c-2.77-18.44-1.46-24.33-.41-29.06a25.61,25.61,0,0,0,.82-8c-.14-2.5-.5-5.22-.85-7.85a65.53,65.53,0,0,1-.86-11.83.22.22,0,0,1,.23-.2h0a.21.21,0,0,1,.2.23h0a65.61,65.61,0,0,0,.86,11.74c.35,2.64.71,5.37.85,7.88a26.17,26.17,0,0,1-.83,8.12c-1,4.7-2.34,10.54.42,28.9a.23.23,0,0,1-.19.25h0Z" transform="translate(-5.44 -3.21)"/><path class="cls-23" d="M63.88,66.74c-1.49,0-2.1-.07-2.43-.39a1,1,0,0,1-.24-.74c0-1.17,0-2.15,0-3,0-2.64,0-3.53.38-4a1,1,0,0,1,.73-.24l3,0c2.64,0,3.54,0,4,.37a1,1,0,0,1,.24.74c0,1.18,0,2.16,0,3,0,2.65,0,3.54-.38,4a1,1,0,0,1-.73.24l-3,0Zm2.88-7.88-1.49,0-3,0c-.27,0-.36.05-.42.11-.28.28-.27,1.4-.25,3.63,0,.82,0,1.8,0,3,0,.27.06.36.12.42.28.28,1.4.27,3.63.24h3c.27,0,.36-.06.42-.12.28-.29.27-1.4.24-3.63,0-.82,0-1.8,0-3,0-.27,0-.36-.11-.42s-.89-.26-2.15-.26Z" transform="translate(-5.44 -3.21)"/><path class="cls-23" d="M60.88,97.41a.21.21,0,0,1-.17-.07.22.22,0,0,1,0-.31h0a5.67,5.67,0,0,0,1.57-5.78.23.23,0,0,1,.43-.14h0A6.17,6.17,0,0,1,61,97.36.17.17,0,0,1,60.88,97.41Z" transform="translate(-5.44 -3.21)"/><path class="cls-23" d="M46.69,96.34c-2.2-.18-2.79-2.52-3.07-4.54a.22.22,0,0,1,.19-.25h0a.22.22,0,0,1,.25.19h0c.25,1.85.79,4,2.65,4.15a.23.23,0,0,1,0,.45Z" transform="translate(-5.44 -3.21)"/><path class="cls-23" d="M54.25,44.29c-1.2-.47-.44-1.46.14-1.46C55.13,42.83,55,44.57,54.25,44.29Z" transform="translate(-5.44 -3.21)"/><path class="cls-23" d="M55.78,55c-1.19-.47-.43-1.45.14-1.45C56.66,53.52,56.52,55.26,55.78,55Z" transform="translate(-5.44 -3.21)"/><path class="cls-23" d="M56.45,66.05c-1.2-.47-.44-1.46.14-1.46S57.18,66.34,56.45,66.05Z" transform="translate(-5.44 -3.21)"/><path class="cls-23" d="M54.91,75.87c-1.2-.46-.44-1.45.14-1.45C55.78,74.42,55.65,76.16,54.91,75.87Z" transform="translate(-5.44 -3.21)"/><path class="cls-23" d="M54.56,86.3c-1.2-.47-.44-1.45.14-1.45S55.29,86.59,54.56,86.3Z" transform="translate(-5.44 -3.21)"/><path class="cls-23" d="M55.59,96.48C54.4,96,55.16,95,55.73,95,56.47,95,56.33,96.77,55.59,96.48Z" transform="translate(-5.44 -3.21)"/><path class="cls-35" d="M422.2,56.17a10,10,0,0,1-1.07-.18c-.49-.05-1,.09-1.48,0-1.68-.15-8.83-4.14-.47-10.59C429.59,37.4,426.63,56.13,422.2,56.17Z" transform="translate(-5.44 -3.21)"/><path class="cls-35" d="M408,53.22c2.21,2.45,6.26,1.6,5.07-4.24C412.17,44.72,404.29,49.14,408,53.22Z" transform="translate(-5.44 -3.21)"/><path class="cls-13" d="M417.74,59c-4.52,0-9.06-1.33,0-1.33S422.3,59,417.74,59Z" transform="translate(-5.44 -3.21)"/><path class="cls-36" d="M431.52,68.94c-5.56-4-10.74-3.92-8.62-14.34l-9.58-.6c-.39,7.73.12,8.28-3.11,11.14-.71.63-5.25,3.23-5.25,3.23C412.16,74.78,425.31,74.25,431.52,68.94Z" transform="translate(-5.44 -3.21)"/><path class="cls-36" d="M410.88,39.42c-4,14.84,7.46,25.19,13.66,13.73C435.74,32.47,414.16,27.34,410.88,39.42Z" transform="translate(-5.44 -3.21)"/><path class="cls-35" d="M421.66,35.07c.33,2.45-1.64,2.75-3.36,2.83-5.45.26-8,7.37-8.06,9.76-4.12-9.61,4.26-19.77,9.68-17.38C421.54,31,421.45,33.59,421.66,35.07Z" transform="translate(-5.44 -3.21)"/><path class="cls-36" d="M427.52,46.63c-1.37-.65-1.91,2.44-2.13,4C425,53.64,429.7,47.66,427.52,46.63Z" transform="translate(-5.44 -3.21)"/><path class="cls-36" d="M409.64,43.79c1.5-.22,1.15,2.9.93,4.44C410.15,51.26,407.27,44.13,409.64,43.79Z" transform="translate(-5.44 -3.21)"/><path class="cls-6" d="M414.07,46c-.5-.07-.61-2.08.6-1.9C415.31,44.21,414.89,46.13,414.07,46Z" transform="translate(-5.44 -3.21)"/><path class="cls-6" d="M422.63,47.3c.49.07,1.16-1.82-.05-2C421.94,45.2,421.81,47.18,422.63,47.3Z" transform="translate(-5.44 -3.21)"/><path class="cls-19" d="M415.64,41.83c.78.24.58,1,0,.9a3.68,3.68,0,0,0-2.73-.11C411,43.13,413.2,41.08,415.64,41.83Z" transform="translate(-5.44 -3.21)"/><path class="cls-19" d="M422.22,42.9c-.81-.09-.92.7-.32.84a3.75,3.75,0,0,1,2.56,1C426,46,424.74,43.18,422.22,42.9Z" transform="translate(-5.44 -3.21)"/><path class="cls-5" d="M416.8,49.2a.3.3,0,0,0,.07.46c1.62,1,1.62.12,1.1.08-1.71-.13.09-.63.56-3.52,0-.3-.3-.35-.37-.11A6.5,6.5,0,0,1,416.8,49.2Z" transform="translate(-5.44 -3.21)"/><path class="cls-10" d="M420,52.74a.1.1,0,0,1,.1.17c-3.94,4-5.58-1.07-5-.74A7.33,7.33,0,0,0,420,52.74Z" transform="translate(-5.44 -3.21)"/><path class="cls-5" d="M409.73,45.35a.11.11,0,0,1,.2.1c-.38.81-.2,1.35.11,1.6a.11.11,0,0,1,0,.15C409.82,47.53,409.19,46.52,409.73,45.35Z" transform="translate(-5.44 -3.21)"/><path class="cls-5" d="M426.54,49.69a1.91,1.91,0,0,0,.38-1.45.11.11,0,1,1,.22,0C427.16,50.22,426.2,50,426.54,49.69Z" transform="translate(-5.44 -3.21)"/><path class="cls-5" d="M413.64,55.8c2.91,3.32,7.4,2.13,8.64.26.49-.73,0,1.78-3.68,2C414.49,58.39,412.8,54.85,413.64,55.8Z" transform="translate(-5.44 -3.21)"/><path class="cls-36" d="M418.29,124.07c.79,15.46.31,29.68,2.39,39.62a156.52,156.52,0,0,1,3.08,40.73c1.94,1.88,5.63,1.49,5.59-.33-.35-16.6,5.38-22.08,2.22-38-4.19-21.12,4.12-44.29,3.64-47.56C433.67,108.12,417.26,104,418.29,124.07Z" transform="translate(-5.44 -3.21)"/><path class="cls-36" d="M417,170c2.11,12.21-.29,19.88-.63,35.25-.06,2.28-3.61,2.82-5.58.49a266.33,266.33,0,0,0-3.9-37.87c-4.06-22-5.86-45.32-5.73-43.09-.72-12.65,6.08-15.49,10.91-14.51C425.48,113,413.69,150.94,417,170Z" transform="translate(-5.44 -3.21)"/><path class="cls-13" d="M387.78,116.92c0,2.35.16,2,2.15,3.17a5.35,5.35,0,0,0,5.69.15c.42-.23,10.05.7,11.4-16.68.39-5-.58-7.31-1-12.36-.32-4.33,4.3-22.54-2.08-24.45-6.85-2.06-10.84,17.91-11.22,21.88C392.08,95.64,387.85,107,387.78,116.92Z" transform="translate(-5.44 -3.21)"/><path class="cls-14" d="M392.89,121.2a6.13,6.13,0,0,1-3.07-.92l-.79-.45c-1.33-.72-1.48-.87-1.46-2.91,0-6,1.6-12.51,3-18.27a81.36,81.36,0,0,0,2-10c.35-3.61,3.3-18.16,8.27-21.5a3.67,3.67,0,0,1,3.22-.56c4.86,1.46,3.62,11.53,2.72,18.89a39.27,39.27,0,0,0-.49,5.75c.14,1.83.35,3.26.55,4.65a30.55,30.55,0,0,1,.41,7.73c-.81,10.42-4.69,16.24-11.24,16.83l-.29,0A5.83,5.83,0,0,1,392.89,121.2Zm-4.9-4.28c0,1.86,0,1.89,1.24,2.55.23.12.5.26.8.44a5.17,5.17,0,0,0,5.49.14A1.25,1.25,0,0,1,396,120c8-.72,10.31-9.34,10.86-16.44a30.39,30.39,0,0,0-.4-7.64c-.21-1.4-.42-2.84-.56-4.68a40,40,0,0,1,.49-5.83c.84-6.8,2.1-17.08-2.42-18.44a3.28,3.28,0,0,0-2.86.5c-4.85,3.26-7.75,17.63-8.09,21.2a81.56,81.56,0,0,1-2,10.1c-1.37,5.74-2.92,12.24-3,18.17Z" transform="translate(-5.44 -3.21)"/><path class="cls-37" d="M429.66,100.43c6.81,12.82,6.39,17.89,9.62,42.1a1.67,1.67,0,0,1-1.31,1.86c-14.75,2.78-24.25,3.4-37.79.58a1.66,1.66,0,0,1-1.29-1.74c1.53-25.38,0-26.31,7.2-42.16C412.71,102.58,422.92,101.71,429.66,100.43Z" transform="translate(-5.44 -3.21)"/><path class="cls-5" d="M393.38,134.63c.62-.35,1,.92.12,1.05a.89.89,0,0,1-.8-.38c-.31.63.84,1.16.61,1.8-.45,1.22-6.18-1.44-4.55-4.91.35-.74.84-.1,1.31.2C393.25,134.44,395.8,132.75,393.38,134.63Z" transform="translate(-5.44 -3.21)"/><path class="cls-36" d="M387.55,130.63a1.47,1.47,0,0,0-.41,1.45c.22,2.53-.69,2.52.65,4,2.37,2.58,4.29,3.48,4.18,2.3s-4.78-2.8-2.48-6.42c1.63-2.58,3.44.21,2.81,1.69a2.57,2.57,0,0,0-.35,2.51c3-1.87,2.05-5.08,2.33-7,.1-.74,1-3.5-1.09-4C391.89,124.91,391.72,125.64,387.55,130.63Z" transform="translate(-5.44 -3.21)"/><path class="cls-38" d="M429.66,100.43c-8,2.51-17,2.8-23.57.64l.74-4.72,21.85-.59Z" transform="translate(-5.44 -3.21)"/><path class="cls-39" d="M437.45,129.85c-1,.09-.1-2.32.06-5,.29-4.65-2.18-5.53-2.24-3.55,0,.7.56,2-.64,2.78-.21.15-.8.29-.72-.35.19-1.44-.81-1,.56-5.56.58-1.95.27-4.74,2.27-4.74s2,3.45,2.19,4.34C440.36,126.35,437.84,129.81,437.45,129.85Z" transform="translate(-5.44 -3.21)"/><path class="cls-13" d="M424.08,74.83c2.71,7.84,23.34,15.26,19.55,18.89a28.35,28.35,0,0,0-7.07,11c-.91,2.57.2,1.72,1.34,4.19,1.25,2.7,1.9,3.35,4.8,3.17s6.36,2.85,8.38.7c3.76-4,6.51-9.48,6.61-15.06.07-3.68,1.6-8.33-.32-11.87-1.1-2-3.21-3.16-4.7-4.88-4.86-5.63-12.19-7.18-18.31-12.54C428.85,63.58,422.27,69.6,424.08,74.83Z" transform="translate(-5.44 -3.21)"/><path class="cls-14" d="M449.22,113.73a9.91,9.91,0,0,1-3.05-.72,9.64,9.64,0,0,0-3.46-.75c-3,.18-3.71-.5-5-3.29a5.89,5.89,0,0,0-1.11-1.66c-.61-.67-.83-1-.24-2.69a28.48,28.48,0,0,1,7.13-11.05,1.14,1.14,0,0,0,.39-.94c-.15-1.66-3.83-4.07-7.73-6.62-5.11-3.35-10.89-7.14-12.27-11.12a6.53,6.53,0,0,1,2.71-7.38,6.21,6.21,0,0,1,7.9.73,45.85,45.85,0,0,0,8.66,5.63c3.6,2,7,3.82,9.68,6.93a18.26,18.26,0,0,0,1.91,1.82,11.57,11.57,0,0,1,2.81,3.1c1.4,2.58,1,5.66.65,8.63-.14,1.18-.28,2.3-.3,3.34a23.52,23.52,0,0,1-6.67,15.21A2.64,2.64,0,0,1,449.22,113.73Zm-6.27-1.9a10.72,10.72,0,0,1,3.36.79c1.79.61,3.48,1.2,4.61,0,4.07-4.34,6.47-9.78,6.56-14.92a32.58,32.58,0,0,1,.31-3.39c.36-2.91.73-5.91-.61-8.38a11.3,11.3,0,0,0-2.72-3,17.88,17.88,0,0,1-1.95-1.85c-2.64-3.06-6-4.9-9.56-6.84a47,47,0,0,1-8.73-5.68,5.83,5.83,0,0,0-7.4-.71,6.13,6.13,0,0,0-2.54,6.91c1.33,3.84,7.05,7.59,12.1,10.9,4.16,2.72,7.75,5.07,7.92,6.93a1.51,1.51,0,0,1-.53,1.28,28,28,0,0,0-7,10.89c-.54,1.51-.37,1.7.15,2.27a6.2,6.2,0,0,1,1.18,1.77c1.21,2.62,1.78,3.21,4.59,3Z" transform="translate(-5.44 -3.21)"/><path class="cls-14" d="M435.49,113.8l3.3,2.43,3.91-4.18a6.89,6.89,0,0,1-4.8-3.17Z" transform="translate(-5.44 -3.21)"/><path class="cls-13" d="M411.34,64.06c.92,3.21,11.86,3,12.55-.15a42.21,42.21,0,0,1,9.18,3.6c2.68,18.17-.95,28.43-5.27,29.19-9,1.47-14.32,1.73-21,.3-5.89-1.92-5.28-22.06-2.83-30.25A63.94,63.94,0,0,1,411.34,64.06Z" transform="translate(-5.44 -3.21)"/><path class="cls-14" d="M415.54,98.16a40.9,40.9,0,0,1-8.77-1c-6.28-2-5.33-22.72-3-30.52l0-.09.08,0a66.69,66.69,0,0,1,7.39-2.7l.2-.06.06.21c.44,1.52,3.55,2.23,6.41,2.14,3.11-.1,5.46-1,5.74-2.29l.05-.22,1.29.41a36.81,36.81,0,0,1,8.14,3.28l.09,0v.1c2.67,18-.81,28.61-5.43,29.43A75.84,75.84,0,0,1,415.54,98.16ZM404.16,66.9c-2.53,8.55-2.87,28.08,2.72,29.91,6.94,1.48,12.48,1.06,20.89-.31,3.78-.67,7.86-10.07,5.1-28.86a36.77,36.77,0,0,0-8-3.19l-.87-.28c-.59,1.64-3.59,2.32-6.07,2.4-2.9.09-6-.57-6.75-2.25A65.36,65.36,0,0,0,404.16,66.9Z" transform="translate(-5.44 -3.21)"/><path class="cls-40" d="M416.35,103.45a1.34,1.34,0,0,1-.92-.24.9.9,0,0,1-.28-.65c0-.82-.11-1.5-.15-2.07-.15-2-.2-2.56.12-2.93a.86.86,0,0,1,.63-.27l1.44-.12c1.51-.12,2.08-.17,2.44.14a.87.87,0,0,1,.28.65c.06.82.11,1.5.15,2.07.16,2,.2,2.56-.12,2.93a.91.91,0,0,1-.62.28l0-.38,0,.38-1.45.11C417.2,103.41,416.71,103.45,416.35,103.45Zm2.41-5.62c-.35,0-.9,0-1.51.09L415.8,98c-.09,0-.11,0-.11,0a9,9,0,0,0,.06,2.37c.05.57.1,1.26.15,2.08a.32.32,0,0,0,0,.13,6.52,6.52,0,0,0,1.88,0l1.45-.12a.24.24,0,0,0,.12,0,9.82,9.82,0,0,0-.07-2.37c0-.57-.1-1.26-.15-2.08,0-.1,0-.13,0-.13A.73.73,0,0,0,418.76,97.83Z" transform="translate(-5.44 -3.21)"/><path class="cls-14" d="M394.94,125.7l-4.06.1-.95-5.71a6.73,6.73,0,0,0,5.69.15Z" transform="translate(-5.44 -3.21)"/><path class="cls-35" d="M426.61,60.73c.66-11,4.57-16.49.1-25.52-2.39-4.81-5.58-5.13-6-3.14C420.64,32.31,426.44,63.42,426.61,60.73Z" transform="translate(-5.44 -3.21)"/><path class="cls-14" d="M423.89,63.91c-.42,3.11-11.92,3.53-12.55.15l1.19-5.92a18.28,18.28,0,0,0,10.34,0Z" transform="translate(-5.44 -3.21)"/><path class="cls-41" d="M421.55,35.45h-.06a.22.22,0,0,1-.15-.26,3.82,3.82,0,0,0-.43-3,.21.21,0,1,1,.36-.22,4.33,4.33,0,0,1,.48,3.37A.21.21,0,0,1,421.55,35.45Z" transform="translate(-5.44 -3.21)"/><path class="cls-41" d="M415.53,32.77a.2.2,0,0,1-.14-.06.21.21,0,0,1,0-.29,4.24,4.24,0,0,1,3.68-1.29,1.66,1.66,0,0,1,1.31.71.22.22,0,0,1-.1.28A.21.21,0,0,1,420,32c-.08-.18-.42-.39-1-.48a3.82,3.82,0,0,0-3.31,1.16A.24.24,0,0,1,415.53,32.77Z" transform="translate(-5.44 -3.21)"/><path class="cls-41" d="M418.48,33.84a2.69,2.69,0,0,1-.4,0,.2.2,0,0,1-.18-.23.21.21,0,0,1,.24-.18,4.35,4.35,0,0,0,1.38-.1c.26,0,.53-.1.8-.13a.39.39,0,0,1,.45.22.21.21,0,0,1-.36.2h-.05a6.66,6.66,0,0,0-.76.12A6.86,6.86,0,0,1,418.48,33.84Z" transform="translate(-5.44 -3.21)"/><path class="cls-41" d="M415.42,38.19a.2.2,0,0,1-.15-.06.22.22,0,0,1,0-.3,3.83,3.83,0,0,1,3.1-1.52,3.52,3.52,0,0,0,1.43-.28,1.4,1.4,0,0,0,.84-1,.21.21,0,0,1,.24-.18.2.2,0,0,1,.18.23A1.8,1.8,0,0,1,420,36.41a4.11,4.11,0,0,1-1.58.32,3.4,3.4,0,0,0-2.81,1.39A.23.23,0,0,1,415.42,38.19Z" transform="translate(-5.44 -3.21)"/><path class="cls-41" d="M410.33,40h0a.21.21,0,0,1-.18-.24,13.87,13.87,0,0,1,2.45-5.25.21.21,0,0,1,.35.23,13.42,13.42,0,0,0-2.38,5.08A.21.21,0,0,1,410.33,40Z" transform="translate(-5.44 -3.21)"/><path class="cls-41" d="M411.05,42.22h0a.21.21,0,0,1-.17-.24,5.19,5.19,0,0,1,1.43-3.18.21.21,0,0,1,.3,0,.2.2,0,0,1,0,.29,4.83,4.83,0,0,0-1.34,3A.2.2,0,0,1,411.05,42.22Z" transform="translate(-5.44 -3.21)"/><path class="cls-41" d="M425.73,36.08a.2.2,0,0,1-.21-.2,4.33,4.33,0,0,0-2.39-3.25c-.46-.23-.7-.21-.76-.17a.21.21,0,0,1-.29,0,.21.21,0,0,1,.05-.3c.31-.22.81,0,1.18.13a4.76,4.76,0,0,1,2.63,3.62.21.21,0,0,1-.21.21Z" transform="translate(-5.44 -3.21)"/><path class="cls-41" d="M423.57,35.37a.2.2,0,0,1-.2-.16c-.07-.31-.58-.88-.95-.85a.21.21,0,1,1,0-.42,1.69,1.69,0,0,1,1.38,1.18.22.22,0,0,1-.16.25Z" transform="translate(-5.44 -3.21)"/><path class="cls-41" d="M423.89,44.38a.2.2,0,0,1-.2-.16,54.33,54.33,0,0,1-1.18-6.11,5.28,5.28,0,0,0-.49-2,.21.21,0,0,1,.36-.22,5.68,5.68,0,0,1,.54,2.17,54.14,54.14,0,0,0,1.18,6.06.21.21,0,0,1-.16.26Z" transform="translate(-5.44 -3.21)"/><path class="cls-41" d="M427,47.31h0a.2.2,0,0,1-.17-.23V47c.37-2.5.83-5.61-.36-8.24a.21.21,0,0,1,.1-.28.21.21,0,0,1,.28.11c1.25,2.74.77,5.92.4,8.47l0,.1A.21.21,0,0,1,427,47.31Z" transform="translate(-5.44 -3.21)"/><path class="cls-41" d="M426.28,54.31a.21.21,0,0,1-.21-.18,57.36,57.36,0,0,0-1.09-6,.21.21,0,0,1,.16-.26.22.22,0,0,1,.25.16,56,56,0,0,1,1.09,6,.21.21,0,0,1-.18.24Z" transform="translate(-5.44 -3.21)"/><path class="cls-41" d="M408.41,51.89a.23.23,0,0,1-.11,0,1.25,1.25,0,0,1-.57-1.51c.19-.78.84-1.55,1.31-1.57a.22.22,0,0,1,.22.21.21.21,0,0,1-.21.21,1.89,1.89,0,0,0-.91,1.25.85.85,0,0,0,.37,1,.2.2,0,0,1,.08.28A.21.21,0,0,1,408.41,51.89Z" transform="translate(-5.44 -3.21)"/><path class="cls-41" d="M411.17,52.88a.22.22,0,0,1-.15-.06,3.45,3.45,0,0,1-1-2.41.21.21,0,0,1,.21-.21.21.21,0,0,1,.21.2,3,3,0,0,0,.92,2.11.21.21,0,0,1,0,.3A.23.23,0,0,1,411.17,52.88Z" transform="translate(-5.44 -3.21)"/><path class="cls-41" d="M410.33,53.81h0a2.11,2.11,0,0,1-1.44-.93.2.2,0,0,1,.06-.29.21.21,0,0,1,.29.06,1.7,1.7,0,0,0,1.15.75.2.2,0,0,1,.18.23A.21.21,0,0,1,410.33,53.81Z" transform="translate(-5.44 -3.21)"/><path class="cls-14" d="M447.17,95.57a.21.21,0,0,1-.2-.13c-.51-1.39-1.15-2.68-2.4-2.65h-.41l2.55-3.62a.21.21,0,0,1,.3,0,.22.22,0,0,1,.05.29l-2.11,3c1.44.25,2.09,2,2.41,2.89a.21.21,0,0,1-.12.27Z" transform="translate(-5.44 -3.21)"/><path class="cls-14" d="M452.47,88.89a.22.22,0,0,1-.21-.18,2.55,2.55,0,0,1,.57-2c.53-.81,1.08-1.64.38-3.83a.21.21,0,0,1,.13-.27.23.23,0,0,1,.27.14c.76,2.38.1,3.38-.43,4.19a2.12,2.12,0,0,0-.51,1.68.2.2,0,0,1-.17.24Z" transform="translate(-5.44 -3.21)"/><path class="cls-14" d="M395.6,120.41l-.21-.4a3.88,3.88,0,0,1-.45-2,.21.21,0,1,1,.42,0,3.59,3.59,0,0,0,.21,1.38,10,10,0,0,1,1.92-2.79.21.21,0,0,1,.3,0,.22.22,0,0,1,0,.3,9.56,9.56,0,0,0-2,3.09Z" transform="translate(-5.44 -3.21)"/><path class="cls-14" d="M390,119.5a.21.21,0,0,1-.2-.15,5.41,5.41,0,0,1-.08-3,.22.22,0,0,1,.26-.15.21.21,0,0,1,.14.26,5,5,0,0,0,.08,2.77.23.23,0,0,1-.14.27Z" transform="translate(-5.44 -3.21)"/><path class="cls-14" d="M438.43,108.13a.21.21,0,0,1-.21-.17,4.16,4.16,0,0,1,1.2-3.63.21.21,0,1,1,.29.31,3.71,3.71,0,0,0-1.07,3.25.21.21,0,0,1-.18.24Z" transform="translate(-5.44 -3.21)"/><path class="cls-14" d="M442.69,111.53a.21.21,0,0,1-.05-.41,5.56,5.56,0,0,0,3-2.13.22.22,0,0,1,.29,0,.21.21,0,0,1,.05.3,6,6,0,0,1-3.25,2.28Z" transform="translate(-5.44 -3.21)"/><path class="cls-14" d="M397.36,87.67a.2.2,0,0,1-.11,0,5.41,5.41,0,0,1-2.44-5.38.2.2,0,0,1,.24-.17.21.21,0,0,1,.17.24,5,5,0,0,0,2.24,5,.21.21,0,0,1,.07.29A.19.19,0,0,1,397.36,87.67Z" transform="translate(-5.44 -3.21)"/><path class="cls-14" d="M401.71,102.57a.2.2,0,0,1-.16-.07.22.22,0,0,1,0-.3l1-.83c1.91-1.58,2.86-2.38,2.74-3.45a.21.21,0,1,1,.42,0c.15,1.29-.87,2.13-2.9,3.81-.3.26-.64.53-1,.83A.15.15,0,0,1,401.71,102.57Z" transform="translate(-5.44 -3.21)"/><path class="cls-14" d="M408.46,96.2a.22.22,0,0,1-.15-.06,6.07,6.07,0,0,1-1.64-4.36.23.23,0,0,1,.22-.2.21.21,0,0,1,.2.22,5.64,5.64,0,0,0,1.52,4,.22.22,0,0,1,0,.3A.27.27,0,0,1,408.46,96.2Z" transform="translate(-5.44 -3.21)"/><path class="cls-14" d="M424.58,96a.21.21,0,0,1-.17-.08.21.21,0,0,1,0-.3A7.64,7.64,0,0,0,427.54,90a.22.22,0,0,1,.23-.19A.21.21,0,0,1,428,90a8.06,8.06,0,0,1-3.26,5.87A.19.19,0,0,1,424.58,96Z" transform="translate(-5.44 -3.21)"/><path class="cls-38" d="M407.23,145a.21.21,0,0,1-.21-.19,145.79,145.79,0,0,1,3.62-41.88.21.21,0,0,1,.26-.15.21.21,0,0,1,.15.25,145.25,145.25,0,0,0-3.61,41.75.21.21,0,0,1-.2.22Z" transform="translate(-5.44 -3.21)"/><path class="cls-38" d="M429.64,144.38a.21.21,0,0,1-.21-.22c1.05-16.4-.34-30.41-4.11-41.66a.21.21,0,0,1,.13-.26.21.21,0,0,1,.27.13c3.79,11.3,5.18,25.36,4.13,41.82A.21.21,0,0,1,429.64,144.38Z" transform="translate(-5.44 -3.21)"/><path class="cls-38" d="M402.92,110.42a.19.19,0,0,1-.15-.07.2.2,0,0,1,0-.29,25.49,25.49,0,0,0,5.81-8.26.21.21,0,1,1,.37.19,25.62,25.62,0,0,1-5.91,8.38A.24.24,0,0,1,402.92,110.42Z" transform="translate(-5.44 -3.21)"/><path class="cls-38" d="M433.1,108.65H433c-2.78-.74-5.59-4.94-6.3-7.51a.21.21,0,0,1,.15-.26.2.2,0,0,1,.25.15c.77,2.74,3.62,6.58,6,7.22a.21.21,0,0,1,.15.26A.2.2,0,0,1,433.1,108.65Z" transform="translate(-5.44 -3.21)"/><path class="cls-8" d="M400.17,214.82a1.31,1.31,0,0,1-.11-1.14c.4-1.08,11.12-8.23,10.71-8a4.71,4.71,0,0,0,5.58-.49c.68,1.45,2.67,6.66.71,7.2C415.89,212.76,401.05,216.23,400.17,214.82Z" transform="translate(-5.44 -3.21)"/><path class="cls-9" d="M401.74,215.34c-.93,0-1.57-.12-1.75-.41a1.53,1.53,0,0,1-.13-1.32c.38-1,8.66-6.63,10.55-7.86h0l.26-.18,0,0,.12-.07h.15l0,.09a4.54,4.54,0,0,0,5.23-.51l.21-.23.13.28c.6,1.25,2.12,5.18,1.38,6.8a1.19,1.19,0,0,1-.8.69C417,212.68,406.11,215.34,401.74,215.34Zm-1.39-.63c.72,1.15,14.22-1.8,16.65-2.47a.82.82,0,0,0,.53-.47c.58-1.27-.54-4.58-1.25-6.17a5,5,0,0,1-5.51.38c-1.35.88-10.19,6.91-10.51,7.78a1.1,1.1,0,0,0,.09,1Z" transform="translate(-5.44 -3.21)"/><path class="cls-9" d="M405.86,212.16a3.17,3.17,0,0,1-1.28-.31,1.58,1.58,0,0,1-.92-.89.42.42,0,0,1,.81-.21,1.19,1.19,0,0,0,.55.38,1.72,1.72,0,0,0,1,.17.42.42,0,0,1,.35.76A1.33,1.33,0,0,1,405.86,212.16Z" transform="translate(-5.44 -3.21)"/><path class="cls-9" d="M408.05,210.56a2.56,2.56,0,0,1-2.16-1.21.42.42,0,1,1,.71-.44,1.73,1.73,0,0,0,1.64.8.43.43,0,0,1,.47.37.41.41,0,0,1-.36.46A1.51,1.51,0,0,1,408.05,210.56Z" transform="translate(-5.44 -3.21)"/><path class="cls-9" d="M410,209a3.16,3.16,0,0,1-2.12-.83.42.42,0,1,1,.57-.61,2.31,2.31,0,0,0,1.78.59.43.43,0,0,1,.47.37.42.42,0,0,1-.37.46A1.83,1.83,0,0,1,410,209Z" transform="translate(-5.44 -3.21)"/><path class="cls-8" d="M412.93,213.21c-.6-1,.32-1.89,1.28-2.52,4.47-3,9.55-6.27,9.55-6.27a4.72,4.72,0,0,0,5.59-.33c.57,1.29,2.55,6.72.49,7.22C428.65,211.6,413.78,214.66,412.93,213.21Z" transform="translate(-5.44 -3.21)"/><path class="cls-9" d="M414.84,213.78c-1.12,0-1.9-.13-2.09-.47-.54-.91-.09-1.85,1.34-2.8,4.42-2.92,9.5-6.23,9.55-6.26l.12-.08.12.08a4.52,4.52,0,0,0,5.32-.31l.21-.23.13.29c.56,1.26,2,5.23,1.19,6.82a1.25,1.25,0,0,1-.84.7C429.76,211.55,419.43,213.78,414.84,213.78Zm-1.73-.68c.69,1.18,14.14-1.37,16.68-2a.82.82,0,0,0,.56-.47c.63-1.27-.39-4.55-1.08-6.2a5,5,0,0,1-5.51.23c-.78.51-5.39,3.51-9.44,6.19-1.24.82-1.63,1.54-1.21,2.24Z" transform="translate(-5.44 -3.21)"/><path class="cls-9" d="M418.41,211.17h-.06c-.49-.07-2-.3-2.08-1.57a.44.44,0,0,1,.39-.46.43.43,0,0,1,.45.39c0,.28.2.63,1.37.82a.42.42,0,0,1,.35.47A.43.43,0,0,1,418.41,211.17Z" transform="translate(-5.44 -3.21)"/><path class="cls-9" d="M420.53,209.53a2.82,2.82,0,0,1-2.2-1.24.42.42,0,0,1,.11-.58.41.41,0,0,1,.58.12,2,2,0,0,0,1.53.86.42.42,0,0,1,.4.44A.42.42,0,0,1,420.53,209.53Z" transform="translate(-5.44 -3.21)"/><path class="cls-9" d="M422.32,208.06a2.57,2.57,0,0,1-1.84-.88.42.42,0,0,1,.68-.49,1.66,1.66,0,0,0,1.3.52.41.41,0,0,1,.54.24.42.42,0,0,1-.25.54A1.21,1.21,0,0,1,422.32,208.06Z" transform="translate(-5.44 -3.21)"/></svg>