<svg xmlns="http://www.w3.org/2000/svg" xmlns:xlink="http://www.w3.org/1999/xlink" viewBox="0 0 381.7 155.3"><defs><style>.cls-1,.cls-15,.cls-18{fill:none;}.cls-2{isolation:isolate;}.cls-3{fill:#fcecc2;}.cls-4{fill:#f0c455;opacity:0.71;}.cls-5{fill:#617d5f;}.cls-6{fill:#b8dbaf;}.cls-7{fill:#fffbfb;}.cls-8{fill:#1b4942;}.cls-13,.cls-9{fill:#0e833c;}.cls-10{fill:#014b49;}.cls-11{fill:#0c8c87;}.cls-12{fill:#114826;}.cls-13{mix-blend-mode:soft-light;}.cls-14{fill:#4a9d89;opacity:0.3;}.cls-15{stroke:#17a196;stroke-width:0.39px;}.cls-15,.cls-18{stroke-miterlimit:10;}.cls-16{fill:#462741;}.cls-17{fill:#f5b638;}.cls-18{stroke:#f5b638;stroke-width:1.09px;}.cls-19{fill:#315caa;}.cls-20{fill:#44baea;}.cls-21{fill:#47308f;opacity:0.58;}.cls-22{fill:#292c82;}.cls-23{clip-path:url(#clip-path);}.cls-24{fill:#1f2b63;}.cls-25{fill:#1a2649;}.cls-26{fill:#1a3460;opacity:0.53;}.cls-27{fill:#eb5b46;}.cls-28{fill:#f39954;}</style><clipPath id="clip-path" transform="translate(-6.3 -21.6)"><path class="cls-1" d="M194.9,152h0a151.8,151.8,0,0,0,6.8-20h.1l1.7-6.4a.3.3,0,0,1,.6-.1L216.3,152Z"/></clipPath></defs><g class="cls-2"><g id="圖層_1" data-name="圖層 1"><path class="cls-3" d="M40.1,176.4a154.9,154.9,0,0,1,309.7,0" transform="translate(-6.3 -21.6)"/><circle class="cls-4" cx="213.5" cy="89" r="20.1" transform="translate(-6.6 155.4) rotate(-45)"/><path class="cls-5" d="M214.6,89.3l-5.2,3.9-32.6-40v.2c-3,2.3-94.8,75.6-135.9,107.9-.5,5-.7,10-.7,15.1H171.3l95.6-27.9Z" transform="translate(-6.3 -21.6)"/><polygon class="cls-6" points="260.6 126.9 166.3 129.7 164 109 160.9 98.5 168.3 83.6 168.9 81.8 168.4 80.8 162 68.7 170.7 56.6 164.6 49.8 170.6 31.6 203.2 71.6 208.4 67.7 260.6 126.9"/><polygon class="cls-7" points="208.4 67.7 210.8 86.6 225 99.9 221.1 89 260.6 126.9 208.4 67.7"/><polygon class="cls-5" points="120.2 11.1 129.6 14.4 133.8 6.6 128.6 11.2 120.2 11.1"/><polygon class="cls-5" points="249.3 58 241.7 60.7 238.2 54.4 242.5 58.2 249.3 58"/><path class="cls-7" d="M144.8,112.2a11.2,11.2,0,0,0,.9-4.4,11.9,11.9,0,0,0-11.9-11.9,12.1,12.1,0,0,0-10.1,5.6,8.5,8.5,0,0,0-5.2-1.9,8,8,0,0,0-5.8,2.5,11.2,11.2,0,0,0-9-4.5,11,11,0,0,0-11,11v.3a6.2,6.2,0,0,0-3.5-1.2,6,6,0,0,0-5.9,5.2,4.1,4.1,0,0,0-2.2-.7,3.7,3.7,0,1,0,0,7.4h63.6a3.7,3.7,0,0,0,3.8-3.7A3.8,3.8,0,0,0,144.8,112.2Z" transform="translate(-6.3 -21.6)"/><path class="cls-7" d="M308,102.8a2.4,2.4,0,0,0-1.8.7,6.2,6.2,0,0,0,.1-1.3,6.3,6.3,0,0,0-6.2-6.3,6,6,0,0,0-2.7.7,11.6,11.6,0,0,0-11.6-11.3A11.5,11.5,0,0,0,274.5,95a7.6,7.6,0,0,0-5.4-2.2,7.8,7.8,0,0,0-7.8,7.5,3.9,3.9,0,0,0-2.1-.6,4.4,4.4,0,0,0-4.4,4.3,4.4,4.4,0,0,0,4.4,4.4H308a2.9,2.9,0,0,0,2.8-2.8A2.8,2.8,0,0,0,308,102.8Z" transform="translate(-6.3 -21.6)"/><path class="cls-7" d="M317.5,57.9a3.7,3.7,0,0,0-1.8.5,5.9,5.9,0,0,0-5.8-4.4,6.1,6.1,0,0,0-3,.8,9.1,9.1,0,0,0-8.9-7.1,9.3,9.3,0,0,0-8.3,5.1,7.2,7.2,0,0,0-4.3-1.5,7.3,7.3,0,0,0-5.8,2.9L278,54a6,6,0,0,0,0,12h39.5a4,4,0,0,0,4.1-4A4.1,4.1,0,0,0,317.5,57.9Z" transform="translate(-6.3 -21.6)"/><path class="cls-7" d="M94.4,83a3.1,3.1,0,0,0-3,1.9v-.3a4.9,4.9,0,0,0-4.9-4.9l-1.2.2a8,8,0,0,0-15.7,0,6.6,6.6,0,0,0-6-3.8A6.8,6.8,0,0,0,59,77.9a10.3,10.3,0,0,0-20.6,1.3V80a3.3,3.3,0,0,0-1.5-.3,4.9,4.9,0,0,0,0,9.8H94.4a3.2,3.2,0,0,0,3.2-3.3A3.2,3.2,0,0,0,94.4,83Z" transform="translate(-6.3 -21.6)"/><path class="cls-8" d="M283.4,147.8l-3.3-5.8a1.9,1.9,0,0,0,.8-2.6l-3.3-5.8a1.5,1.5,0,0,0,.8-2.1l-3.2-5.5a1.1,1.1,0,0,0,.7-1.5l-6.8-11.7-6.7,11.7a1,1,0,0,0,.6,1.5l-3.2,5.5a1.5,1.5,0,0,0,.8,2.1l-3.3,5.8a1.9,1.9,0,0,0,.8,2.6l-3.3,5.8a2.2,2.2,0,0,0,1.9,3.3h24.8A2.2,2.2,0,0,0,283.4,147.8Z" transform="translate(-6.3 -21.6)"/><path class="cls-9" d="M292.2,148.7l-1.9-3.2a.9.9,0,0,0,.5-1.4L289,141a.8.8,0,0,0,.4-1.2l-1.7-3a.6.6,0,0,0,.3-.8l-3.6-6.4-3.7,6.4a.6.6,0,0,0,.3.8l-1.7,3a.8.8,0,0,0,.4,1.2l-1.8,3.1a.9.9,0,0,0,.5,1.4l-1.9,3.2a1.3,1.3,0,0,0,1.1,1.9h13.5A1.3,1.3,0,0,0,292.2,148.7Z" transform="translate(-6.3 -21.6)"/><path class="cls-9" d="M155.1,149.2l-2-3.6a1.1,1.1,0,0,0,.5-1.6l-2-3.5a.9.9,0,0,0,.5-1.3l-2-3.3a.7.7,0,0,0,.4-1l-4.1-7.1-4.1,7.1a.7.7,0,0,0,.4,1l-2,3.3c-.2.5,0,1.2.5,1.3l-2,3.5a1.1,1.1,0,0,0,.5,1.6l-2,3.6a1.3,1.3,0,0,0,1.1,2H154A1.3,1.3,0,0,0,155.1,149.2Z" transform="translate(-6.3 -21.6)"/><path class="cls-9" d="M322.8,157.4l-1.4-2.4a.7.7,0,0,0,.3-1l-1.4-2.4a.6.6,0,0,0,.4-.9l-1.4-2.3a.4.4,0,0,0,.3-.6l-2.8-4.8-2.8,4.8c-.1.3,0,.6.3.6l-1.3,2.3a.7.7,0,0,0,.3.9l-1.4,2.4a.7.7,0,0,0,.4,1l-1.4,2.4a.9.9,0,0,0,.8,1.4H322A.9.9,0,0,0,322.8,157.4Z" transform="translate(-6.3 -21.6)"/><path class="cls-10" d="M120.4,154l-1.8-3.1a1,1,0,0,0,.4-1.4l-1.7-3.1a.8.8,0,0,0,.4-1.1l-1.7-3c.3,0,.5-.4.3-.8l-3.6-6.2-3.6,6.2c-.2.4,0,.8.4.8l-1.7,3a.8.8,0,0,0,.4,1.1l-1.8,3.1a1.1,1.1,0,0,0,.5,1.4l-1.8,3.1a1.1,1.1,0,0,0,1,1.7h13.2A1.2,1.2,0,0,0,120.4,154Z" transform="translate(-6.3 -21.6)"/><path class="cls-11" d="M313.7,152.3l-2.6-4.6a1.5,1.5,0,0,0,.6-2.1L309,141a1.2,1.2,0,0,0,.7-1.7l-2.6-4.4a1,1,0,0,0,.6-1.3l-5.5-9.3-5.4,9.3a.9.9,0,0,0,.5,1.3l-2.5,4.4a1.2,1.2,0,0,0,.7,1.7l-2.7,4.6a1.5,1.5,0,0,0,.6,2.1l-2.7,4.6a1.8,1.8,0,0,0,1.6,2.7h19.9A1.8,1.8,0,0,0,313.7,152.3Z" transform="translate(-6.3 -21.6)"/><path class="cls-8" d="M146.6,152.5l-4-6.8a2.2,2.2,0,0,0,1-3.1l-3.9-6.8a1.6,1.6,0,0,0,.9-2.4l-3.7-6.5a1.2,1.2,0,0,0,.8-1.8l-8-13.7-7.9,13.7a1.3,1.3,0,0,0,.7,1.8l-3.7,6.5a1.7,1.7,0,0,0,1,2.4l-3.9,6.8a2.2,2.2,0,0,0,.9,3.1l-3.9,6.8a2.6,2.6,0,0,0,2.3,3.9h29.1A2.6,2.6,0,0,0,146.6,152.5Z" transform="translate(-6.3 -21.6)"/><path class="cls-12" d="M6.3,176.9c1.3-.2,47.5-18,55.5-20.7a59.4,59.4,0,0,1,18.6-2.8h0a61.2,61.2,0,0,0,10.5-.9l18-3.1a62.3,62.3,0,0,1,10.6-.9H300.2c26.3,0,51.5,6.4,70.2,17.8l17.5,10.6H6.3Z" transform="translate(-6.3 -21.6)"/><path class="cls-13" d="M135.8,159.1l-75.6,5.1c-.7.1-.6.7.1.7h42.5c.7,0,.8.6.1.7l-49.1,6c-.6.1-.5.7.2.7h83.5c.6,0,.8.6.1.7l-12.5,1.8c-.7.1-.6.7.1.7,75.9,2.3,152.1,2.1,228-.4.7,0,.7-.7.1-.7l-61-5.9c-.7,0-.6-.7.1-.7l57.3-2.3c.7,0,.7-.7,0-.7L293.6,162c-.7,0-.7-.7,0-.7l23.3-1.3c.7,0,.7-.6.1-.7a916.5,916.5,0,0,0-224.5.4" transform="translate(-6.3 -21.6)"/><path class="cls-14" d="M153.1,159.6l13.7,1.1c.9.1.9,1.1,0,1.2l-45.5,3.8c-1,.1-1,1.1,0,1.2l38.5,1.6c.9,0,1.1.8.3,1l-18.6,6c-.8.3-.5,1.1.4,1.1l137-1c1,0,1.1-1,.1-1.1l-32.4-4.3a171.4,171.4,0,0,0,37.2-.1c1-.1,1-1,.1-1.1L265,166.3c-.9-.1-.8-1.1.1-1.1l21.2-1.2c1,0,1.1-1,.1-1.1L264.2,160c-.9-.2-.8-1.1.2-1.2h0c.3-.7-11.6-1.3-20.1-1.8s-17.4-1.6-26.1-1.7c-14.4,0-11.6.6-17.4.9l-26.7,1.3-21,1C152.1,158.6,152.1,159.6,153.1,159.6Z" transform="translate(-6.3 -21.6)"/><path class="cls-15" d="M191.5,123.2" transform="translate(-6.3 -21.6)"/><path class="cls-16" d="M157.8,149.1V152h-1.5v-2.6l.7-.2Z" transform="translate(-6.3 -21.6)"/><path class="cls-17" d="M158.8,149c-.1-.4-.5-.5-1-.6v.7h0l-.7.2h-.8v-.7c-.6.2-1,.5-1,1s.5.5,1,.6h.9l.6-.2c.6-.2,1-.5,1-.9Z" transform="translate(-6.3 -21.6)"/><path class="cls-16" d="M157.5,147.1h-.8c-.2,0-.4.1-.4.3v2l.7-.2h.8v-1.7A.3.3,0,0,0,157.5,147.1Z" transform="translate(-6.3 -21.6)"/><path class="cls-18" d="M158.2,148.8l42.2-34.7a1.2,1.2,0,0,1,1.6.1l29.7,34.7" transform="translate(-6.3 -21.6)"/><path class="cls-16" d="M233.6,149.1V152H232v-2.6l.8-.2Z" transform="translate(-6.3 -21.6)"/><path class="cls-17" d="M234.5,149c0-.4-.4-.5-.9-.6v.7h.2c-.1,0-.2,0-.2.1l-.8.2H232v-.7c-.6.2-1,.5-.9,1s.4.5.9.6h1l.6-.2c.5-.2.9-.5.9-.9Z" transform="translate(-6.3 -21.6)"/><path class="cls-16" d="M233.2,147.1h-.8c-.2,0-.4.1-.4.3v2l.8-.2h.8v-1.7C233.6,147.2,233.4,147.1,233.2,147.1Z" transform="translate(-6.3 -21.6)"/><path class="cls-19" d="M200.7,113.1h0l-34.3,36.4-1.3,1.4a.7.7,0,0,0,.5,1.1H174l2.3-2.6h1L202,116.4Z" transform="translate(-6.3 -21.6)"/><path class="cls-20" d="M221.5,152H174l2.3-2.6h0c6-7.1,22.1-26.5,24.1-35.8a.5.5,0,0,1,.2-.4.1.1,0,0,1,.1-.1c2.5-1.9,18.5,32,21.4,38A.7.7,0,0,1,221.5,152Z" transform="translate(-6.3 -21.6)"/><path class="cls-21" d="M221.5,152h-5.2l-1.3-3h6.1a21.7,21.7,0,0,0,1,2.1A.7.7,0,0,1,221.5,152Z" transform="translate(-6.3 -21.6)"/><path class="cls-22" d="M194.9,152h0a151.8,151.8,0,0,0,6.8-20h.1l1.7-6.4a.3.3,0,0,1,.6-.1L216.3,152Z" transform="translate(-6.3 -21.6)"/><g class="cls-23"><path class="cls-24" d="M210.9,152H194.3s8.7-25.3,8.3-26.1l1.3,4Z" transform="translate(-6.3 -21.6)"/><path class="cls-25" d="M191.5,152s6.8-19.1,7-22.1,7.2,22.1,7.2,22.1Z" transform="translate(-6.3 -21.6)"/></g><path class="cls-26" d="M176.3,149.4,174,152h-8.4a.7.7,0,0,1-.5-1.1l1.8-1.9Z" transform="translate(-6.3 -21.6)"/><path class="cls-21" d="M196.1,149l-1.2,3H174l2.3-2.6h1Z" transform="translate(-6.3 -21.6)"/><rect class="cls-16" x="238.3" y="152.2" width="11.8" height="1.53" rx="0.4" transform="translate(-36 42.1) rotate(-14)"/><rect class="cls-16" x="243.4" y="147" width="1.5" height="11.81" rx="0.4" transform="translate(30.4 331.2) rotate(-76)"/><path class="cls-27" d="M247.7,151.7a4.9,4.9,0,0,1-3.1,1.1l-1.3-.2a5.1,5.1,0,0,1-2.6-1.8c-.9-1.2-.8-3.2-.7-4.2a10,10,0,0,1,2-5.1c.3-.3.6-.6.9-.6h.3a.7.7,0,0,1,.4.9.9.9,0,0,1-.3.7v.2a4.4,4.4,0,0,0-.2,3.7,1,1,0,0,0,.6.8l.4.2.4-.2a.8.8,0,0,0,.1-.8l-.3-.5-.2-.4a1.1,1.1,0,0,1,0-1.1.7.7,0,0,1,.7-.4c.2,0,.3,0,.4.2a.8.8,0,0,1,.2.7c0,.2.1.4.2.4h.1a.5.5,0,0,0,.3-.3,1.2,1.2,0,0,0-.1-.8,8.5,8.5,0,0,1-.4-4.6,4.7,4.7,0,0,1,1.2-2c.3-.2.9-.8,1.3-.5a.5.5,0,0,1,.3.5,3.6,3.6,0,0,1-.4,1.1,5.6,5.6,0,0,0-.4,1.2,5.8,5.8,0,0,0-.2,2.3,6.5,6.5,0,0,0,.4,1.3,5.9,5.9,0,0,0,.6,1.4,11.5,11.5,0,0,1,1,2.3A4.7,4.7,0,0,1,247.7,151.7Z" transform="translate(-6.3 -21.6)"/><path class="cls-28" d="M244.3,151.9a3.7,3.7,0,0,1-2-.7,2.9,2.9,0,0,1-1-.9,4,4,0,0,1-.3-1.5,10,10,0,0,1,.7-4.2h.1v1.1a8.8,8.8,0,0,0,.2,1.6,2,2,0,0,0,1.3,1.5h.5a1.2,1.2,0,0,0,1-.5,1.8,1.8,0,0,0,.2-1.6c0-.2-.1-.4-.1-.6h-.1c-.1-.2-.1-.4-.2-.6h.1l.2.3c0,.1,0,.1.1.2l.4.4h.3a1.2,1.2,0,0,0,1.1-1,3.2,3.2,0,0,0-.2-1.4v-.3l-.3-1a2.2,2.2,0,0,1,.1-.8h.3a4.9,4.9,0,0,1,.1,1.2c.1.3.1.7.2,1a10.9,10.9,0,0,0,.5,1.7,3.3,3.3,0,0,1,.5,1.2,4.5,4.5,0,0,1,.1,2.3,3.3,3.3,0,0,1-1.3,1.9,3.8,3.8,0,0,1-2.4.7Z" transform="translate(-6.3 -21.6)"/></g></g></svg>