<svg xmlns="http://www.w3.org/2000/svg" xmlns:xlink="http://www.w3.org/1999/xlink" viewBox="0 0 381.7 156.8"><defs><style>.cls-1,.cls-14,.cls-17{fill:none;}.cls-2{isolation:isolate;}.cls-3{fill:#fcecc2;}.cls-4{fill:#f0c455;opacity:0.71;}.cls-5{fill:#0c1531;}.cls-12,.cls-6{fill:#0f4d71;}.cls-7{fill:#fffbfb;}.cls-8{fill:#617d5f;}.cls-9{fill:#298b92;}.cls-10{fill:#062a39;}.cls-11{fill:#1a6068;}.cls-12{mix-blend-mode:soft-light;}.cls-13{fill:#4b8fa6;opacity:0.3;}.cls-14{stroke:#17a196;stroke-width:0.39px;}.cls-14,.cls-17{stroke-miterlimit:10;}.cls-15{fill:#462741;}.cls-16{fill:#f5b638;}.cls-17{stroke:#f5b638;stroke-width:1.09px;}.cls-18{fill:#315caa;}.cls-19{fill:#44baea;}.cls-20{fill:#47308f;opacity:0.58;}.cls-21{fill:#292c82;}.cls-22{clip-path:url(#clip-path);}.cls-23{fill:#1f2b63;}.cls-24{fill:#1a2649;}.cls-25{fill:#1a3460;opacity:0.53;}.cls-26{fill:#eb5b46;}.cls-27{fill:#f39954;}</style><clipPath id="clip-path" transform="translate(-9 -21.6)"><path class="cls-1" d="M197.7,152h0a157,157,0,0,0,6.8-20h0l1.7-6.5a.4.4,0,0,1,.7,0L219.1,152Z"/></clipPath></defs><g class="cls-2"><g id="圖層_1" data-name="圖層 1"><path class="cls-3" d="M42.9,176.4a154.9,154.9,0,0,1,309.7,0" transform="translate(-9 -21.6)"/><circle class="cls-4" cx="216.3" cy="89" r="20.1" transform="translate(-8.6 157.4) rotate(-45)"/><path class="cls-5" d="M217.4,89.3l-5.2,3.9-32.6-40v.2c-3,2.3-94.8,75.5-135.9,107.9-.5,5-.7,10-.7,15.1H174.1l95.6-27.9Z" transform="translate(-9 -21.6)"/><polygon class="cls-6" points="260.6 126.9 166.3 129.7 164 109 160.9 98.5 168.3 83.6 168.9 81.8 168.4 80.8 162 68.7 170.7 56.6 164.6 49.8 170.6 31.6 203.2 71.6 208.4 67.7 260.6 126.9"/><polygon class="cls-7" points="208.4 67.7 210.8 86.6 225 99.9 221.1 89 260.6 126.9 208.4 67.7"/><polygon class="cls-8" points="120.2 11.1 129.6 14.4 133.8 6.6 128.6 11.2 120.2 11.1"/><polygon class="cls-8" points="249.3 58 241.7 60.7 238.2 54.4 242.5 58.2 249.3 58"/><path class="cls-7" d="M147.6,112.2a11.2,11.2,0,0,0,.9-4.4,11.9,11.9,0,0,0-11.9-11.9,12.1,12.1,0,0,0-10.1,5.6,8,8,0,0,0-11,.6,11.3,11.3,0,0,0-9-4.6,11.1,11.1,0,0,0-11,11.1v.3a6.2,6.2,0,0,0-3.5-1.2,5.9,5.9,0,0,0-5.9,5.2,4.1,4.1,0,0,0-2.2-.7,3.7,3.7,0,0,0-3.8,3.7,3.8,3.8,0,0,0,3.8,3.7h63.6a3.7,3.7,0,0,0,.1-7.4Z" transform="translate(-9 -21.6)"/><path class="cls-7" d="M310.8,102.8a2.8,2.8,0,0,0-1.8.6,5.3,5.3,0,0,0,.1-1.3,6.2,6.2,0,0,0-6.2-6.2,7.6,7.6,0,0,0-2.7.6,11.6,11.6,0,0,0-11.6-11.2,11.4,11.4,0,0,0-11.3,9.6,7.9,7.9,0,0,0-5.4-2.1,7.8,7.8,0,0,0-7.8,7.5,3.9,3.9,0,0,0-2.1-.6,4.4,4.4,0,0,0-4.4,4.3,4.4,4.4,0,0,0,4.4,4.4h48.8a2.9,2.9,0,0,0,2.8-2.8A2.8,2.8,0,0,0,310.8,102.8Z" transform="translate(-9 -21.6)"/><path class="cls-7" d="M320.3,57.9a3.5,3.5,0,0,0-1.8.5,6,6,0,0,0-5.8-4.4,6.1,6.1,0,0,0-3,.8,9.2,9.2,0,0,0-17.2-2,7.2,7.2,0,0,0-4.3-1.5,7.1,7.1,0,0,0-5.8,2.9,4.1,4.1,0,0,0-1.6-.2,6,6,0,0,0,0,12h39.5a4.1,4.1,0,1,0,0-8.1Z" transform="translate(-9 -21.6)"/><path class="cls-7" d="M97.1,82.9a3.1,3.1,0,0,0-2.9,2v-.3a4.9,4.9,0,0,0-4.9-4.9l-1.2.2a8,8,0,0,0-15.7-.1,6.7,6.7,0,0,0-6-3.7,7,7,0,0,0-4.7,1.8,10.3,10.3,0,0,0-20.5,1.2v.8l-1.5-.2a4.9,4.9,0,0,0,0,9.8H97.1a3.3,3.3,0,1,0,0-6.6Z" transform="translate(-9 -21.6)"/><path class="cls-6" d="M286.2,147.8l-3.3-5.8a1.9,1.9,0,0,0,.8-2.6l-3.3-5.8a1.5,1.5,0,0,0,.8-2.1L278,126a1,1,0,0,0,.6-1.5l-6.7-11.7-6.7,11.7a1,1,0,0,0,.6,1.5l-3.2,5.5a1.5,1.5,0,0,0,.8,2.1l-3.3,5.8a1.9,1.9,0,0,0,.8,2.6l-3.3,5.8a2.2,2.2,0,0,0,1.9,3.3h24.8A2.2,2.2,0,0,0,286.2,147.8Z" transform="translate(-9 -21.6)"/><path class="cls-9" d="M295,148.7l-1.9-3.2a1,1,0,0,0,.5-1.4l-1.8-3.1a.8.8,0,0,0,.4-1.2l-1.7-3a.6.6,0,0,0,.3-.8l-3.7-6.4-3.6,6.4a.6.6,0,0,0,.3.8l-1.7,3a.8.8,0,0,0,.4,1.2l-1.8,3.1a1,1,0,0,0,.4,1.4l-1.8,3.2a1.2,1.2,0,0,0,1.1,1.8h13.5A1.2,1.2,0,0,0,295,148.7Z" transform="translate(-9 -21.6)"/><path class="cls-9" d="M157.9,149.2l-2-3.6a1.2,1.2,0,0,0,.5-1.6l-2-3.5a1,1,0,0,0,.5-1.3l-2-3.3a.7.7,0,0,0,.4-1l-4.1-7.1-4.1,7.1a.7.7,0,0,0,.4,1l-2,3.3a.9.9,0,0,0,.5,1.3l-2,3.5a1.1,1.1,0,0,0,.5,1.6l-2.1,3.6a1.4,1.4,0,0,0,1.2,2h15.2A1.3,1.3,0,0,0,157.9,149.2Z" transform="translate(-9 -21.6)"/><path class="cls-10" d="M325.5,157.4l-1.3-2.4a.9.9,0,0,0,.3-1.1l-1.4-2.3c.4-.2.6-.6.4-.9l-1.4-2.3c.3-.1.5-.4.3-.6l-2.8-4.8-2.8,4.8a.4.4,0,0,0,.3.6l-1.3,2.3a.7.7,0,0,0,.3.9l-1.4,2.3a.8.8,0,0,0,.4,1.1l-1.4,2.4a.9.9,0,0,0,.8,1.4h10.2A.9.9,0,0,0,325.5,157.4Z" transform="translate(-9 -21.6)"/><path class="cls-10" d="M123.2,153.9l-1.8-3.1a.9.9,0,0,0,.4-1.3l-1.8-3.1a.8.8,0,0,0,.5-1.1l-1.7-3a.6.6,0,0,0,.3-.8l-3.6-6.2-3.6,6.2a.5.5,0,0,0,.4.8l-1.7,3a.8.8,0,0,0,.4,1.1l-1.8,3.1a.9.9,0,0,0,.5,1.3l-1.8,3.1a1.2,1.2,0,0,0,1,1.8h13.2A1.2,1.2,0,0,0,123.2,153.9Z" transform="translate(-9 -21.6)"/><path class="cls-11" d="M316.5,152.3l-2.7-4.6a1.5,1.5,0,0,0,.7-2.1l-2.7-4.6a1.2,1.2,0,0,0,.7-1.7l-2.6-4.4a.9.9,0,0,0,.5-1.3l-5.4-9.3-5.4,9.3a.9.9,0,0,0,.5,1.3l-2.5,4.4a1.2,1.2,0,0,0,.6,1.7l-2.6,4.6a1.5,1.5,0,0,0,.6,2.1l-2.7,4.6a1.8,1.8,0,0,0,1.6,2.7H315A1.8,1.8,0,0,0,316.5,152.3Z" transform="translate(-9 -21.6)"/><path class="cls-6" d="M149.4,152.5l-4-6.8a2.2,2.2,0,0,0,1-3.1l-3.9-6.8a1.7,1.7,0,0,0,.9-2.5l-3.7-6.4a1.2,1.2,0,0,0,.7-1.8l-7.9-13.8-7.9,13.8a1.3,1.3,0,0,0,.7,1.8l-3.7,6.4a1.8,1.8,0,0,0,1,2.5l-4,6.8a2.3,2.3,0,0,0,1,3.1l-3.9,6.8a2.6,2.6,0,0,0,2.3,3.9h29.1A2.6,2.6,0,0,0,149.4,152.5Z" transform="translate(-9 -21.6)"/><path class="cls-6" d="M9,176.9c1.3-.2,47.6-18,55.6-20.7a59.2,59.2,0,0,1,18.5-2.9h0a61.5,61.5,0,0,0,10.6-.8l18-3.1a62.3,62.3,0,0,1,10.6-.9H303c26.3,0,51.5,6.4,70.2,17.8l17.5,10.6H9Z" transform="translate(-9 -21.6)"/><path class="cls-12" d="M138.6,158.8,63,164.4c-.7.1-.6.8.1.8l42.5-.2c.7,0,.8.7.1.8l-49.1,6.7c-.6.1-.5.7.2.7h83.4c.7,0,.8.7.2.8l-12.5,2c-.7.1-.6.7.1.7,75.9,2.5,152.1,2.4,228-.4.7,0,.7-.7.1-.8l-61-6.5c-.7,0-.6-.7.1-.7l57.3-2.6c.7,0,.7-.8,0-.8L296.4,162c-.7-.1-.7-.8,0-.8l23.3-1.4c.6-.1.7-.7,0-.8a830.7,830.7,0,0,0-224.4.4" transform="translate(-9 -21.6)"/><path class="cls-13" d="M155.9,159.6l13.6,1.1c1,.1,1,1.1,0,1.1l-45.4,3.9c-1,.1-1,1.1,0,1.2l38.5,1.5c.9.1,1.1.9.3,1.1l-18.6,6c-.8.3-.5,1.1.3,1.1l137-1c1,0,1.2-1,.2-1.1l-32.4-4.3a177.9,177.9,0,0,0,37.2-.1c.9-.1,1-1,.1-1.1l-18.9-2.7c-.9-.1-.8-1.1.1-1.1l21.2-1.2c1,0,1.1-1,.1-1.1l-22.2-3c-.9-.1-.8-1,.1-1.1h0c.4-.7-11.5-1.3-20-1.8s-17.4-1.7-26.1-1.7c-14.4-.1-11.6.6-17.4.8l-26.7,1.4-21,1C154.9,158.5,154.9,159.5,155.9,159.6Z" transform="translate(-9 -21.6)"/><path class="cls-14" d="M194.3,123.1" transform="translate(-9 -21.6)"/><path class="cls-15" d="M160.6,149.1V152h-1.5v-2.6l.7-.2Z" transform="translate(-9 -21.6)"/><path class="cls-16" d="M161.6,149c-.1-.4-.5-.5-1-.6v.7h.2l-.2.2-.7.2h-.8v-.8c-.6.3-1.1.6-1,1.1a1,1,0,0,0,1,.5h.9l.6-.2c.6-.2,1-.5,1-.9Z" transform="translate(-9 -21.6)"/><path class="cls-15" d="M160.3,147.1h-.8c-.2,0-.4.1-.4.3v2l.7-.2h.8v-1.7A.3.3,0,0,0,160.3,147.1Z" transform="translate(-9 -21.6)"/><path class="cls-17" d="M161,148.8l42.2-34.7a1.2,1.2,0,0,1,1.6.1l29.7,34.7" transform="translate(-9 -21.6)"/><path class="cls-15" d="M236.3,149.1V152h-1.5v-2.6a1.5,1.5,0,0,1,.8-.2Z" transform="translate(-9 -21.6)"/><path class="cls-16" d="M237.3,149c0-.4-.4-.5-1-.6v.7h.2l-.2.2-.7.2h-.8v-.8c-.6.3-1,.6-.9,1.1s.4.5.9.5h1l.5-.2c.6-.2,1-.5,1-.9Z" transform="translate(-9 -21.6)"/><path class="cls-15" d="M236,147.1h-.8c-.2,0-.4.1-.4.3v2a1.5,1.5,0,0,1,.8-.2h.7v-1.7A.3.3,0,0,0,236,147.1Z" transform="translate(-9 -21.6)"/><path class="cls-18" d="M203.5,113.1h0l-34.3,36.4-1.3,1.4a.7.7,0,0,0,.5,1.1h8.4l2.3-2.7h1l24.7-33Z" transform="translate(-9 -21.6)"/><path class="cls-19" d="M224.3,152H176.8l2.3-2.7h0c6-7,22.1-26.4,24.1-35.7a.5.5,0,0,1,.2-.4c0-.1,0-.1.1-.1,2.5-1.9,18.5,31.9,21.4,38A.7.7,0,0,1,224.3,152Z" transform="translate(-9 -21.6)"/><path class="cls-20" d="M224.3,152h-5.2l-1.3-3h6.1a21.7,21.7,0,0,0,1,2.1A.7.7,0,0,1,224.3,152Z" transform="translate(-9 -21.6)"/><path class="cls-21" d="M197.7,152h0a157,157,0,0,0,6.8-20h0l1.7-6.5a.4.4,0,0,1,.7,0L219.1,152Z" transform="translate(-9 -21.6)"/><g class="cls-22"><path class="cls-23" d="M213.7,152H197.1s8.7-25.3,8.3-26.1l1.3,4Z" transform="translate(-9 -21.6)"/><path class="cls-24" d="M194.3,152s6.8-19.1,7-22.1,7.2,22.1,7.2,22.1Z" transform="translate(-9 -21.6)"/></g><path class="cls-25" d="M179.1,149.3l-2.3,2.7h-8.4a.7.7,0,0,1-.5-1.1l1.8-1.9Z" transform="translate(-9 -21.6)"/><path class="cls-20" d="M198.9,149l-1.2,2.9H176.8l2.3-2.7h1Z" transform="translate(-9 -21.6)"/><rect class="cls-15" x="241.1" y="152.2" width="11.8" height="1.53" rx="0.4" transform="translate(-38.7 42.8) rotate(-14)"/><rect class="cls-15" x="246.2" y="147" width="1.5" height="11.81" rx="0.4" transform="translate(29.7 333.9) rotate(-76)"/><path class="cls-26" d="M250.5,151.6a4.5,4.5,0,0,1-3.1,1.1h-1.3a5.1,5.1,0,0,1-2.6-1.8c-.9-1.2-.8-3.2-.7-4.2a10,10,0,0,1,2-5.1,1.3,1.3,0,0,1,.9-.6h.3a.7.7,0,0,1,.4.9,1.5,1.5,0,0,1-.3.7v.2a4.8,4.8,0,0,0-.3,3.7,1.8,1.8,0,0,0,.6.8l.5.2.4-.2c.2-.2.1-.6.1-.8l-.3-.5c-.1-.1-.1-.3-.2-.4a1.1,1.1,0,0,1,0-1.1.7.7,0,0,1,.7-.4c.2,0,.3,0,.4.2a.8.8,0,0,1,.2.7c0,.2.1.4.2.4h.1l.3-.3a1.1,1.1,0,0,0-.1-.8,7.6,7.6,0,0,1-.4-4.6,4.7,4.7,0,0,1,1.2-2c.3-.3.9-.8,1.3-.5a.5.5,0,0,1,.3.5,3.6,3.6,0,0,1-.4,1.1,7.6,7.6,0,0,0-.4,1.1,5,5,0,0,0,.2,3.7,5.9,5.9,0,0,0,.6,1.4,9.4,9.4,0,0,1,1,2.3A4.4,4.4,0,0,1,250.5,151.6Z" transform="translate(-9 -21.6)"/><path class="cls-27" d="M247.1,151.9a3.7,3.7,0,0,1-2-.7,2.2,2.2,0,0,1-1-.9,4,4,0,0,1-.3-1.5,10,10,0,0,1,.7-4.2h.1v1.1a3.9,3.9,0,0,0,.2,1.5,2,2,0,0,0,1.3,1.6h.5a1.2,1.2,0,0,0,1-.5,1.8,1.8,0,0,0,.2-1.6c0-.2-.1-.4-.1-.6h-.1c-.1-.2-.1-.4-.2-.6h.1l.2.3a.3.3,0,0,0,.1.2l.4.4h.3a1.2,1.2,0,0,0,1.1-1,3.2,3.2,0,0,0-.2-1.4v-.3a3.8,3.8,0,0,1-.3-1,2.2,2.2,0,0,1,.1-.8h.3a5.7,5.7,0,0,1,.1,1.3c.1.3.1.7.2,1a10.9,10.9,0,0,0,.5,1.7,3.7,3.7,0,0,1,.5,1.1,6.6,6.6,0,0,1,.1,2.4,3.3,3.3,0,0,1-1.3,1.9,3.8,3.8,0,0,1-2.4.7Z" transform="translate(-9 -21.6)"/></g></g></svg>