<svg xmlns="http://www.w3.org/2000/svg" xmlns:xlink="http://www.w3.org/1999/xlink" viewBox="0 0 900 615"><defs><style>.cls-1{isolation:isolate;}.cls-2{fill:#c0dadc;}.cls-3{fill:#617e5f;}.cls-4{fill:#8fac61;}.cls-5{fill:#124926;}.cls-6{fill:#b8dbaf;}.cls-7{fill:#d1d3d4;opacity:0.4;mix-blend-mode:multiply;}.cls-8{fill:url(#未命名漸層_73);}.cls-9{fill:url(#未命名漸層_70);}.cls-10{fill:url(#未命名漸層_73-2);}.cls-11{fill:url(#未命名漸層_74);}.cls-12{fill:url(#未命名漸層_73-3);}.cls-13{fill:url(#未命名漸層_74-2);}.cls-14{fill:url(#未命名漸層_73-4);}.cls-15{fill:url(#未命名漸層_74-3);}.cls-16{fill:url(#未命名漸層_73-5);}.cls-17{fill:url(#未命名漸層_70-2);}.cls-18{fill:url(#未命名漸層_73-6);}.cls-19{fill:url(#未命名漸層_80);}.cls-20{fill:url(#未命名漸層_73-7);}.cls-21{fill:url(#未命名漸層_80-2);}.cls-22{fill:url(#未命名漸層_73-8);}.cls-23{fill:url(#未命名漸層_74-4);}</style><linearGradient id="未命名漸層_73" x1="1025.63" y1="266.71" x2="1027.31" y2="239.79" gradientTransform="matrix(1, 0, 0, -1, -888.98, 616)" gradientUnits="userSpaceOnUse"><stop offset="0" stop-color="#54435f"/><stop offset="1" stop-color="#39334f"/></linearGradient><linearGradient id="未命名漸層_70" x1="143.39" y1="178.58" x2="136.68" y2="283.49" gradientTransform="matrix(1, 0, 0, -1, 0, 616)" gradientUnits="userSpaceOnUse"><stop offset="0" stop-color="#1d4942"/><stop offset="1" stop-color="#1a9171"/></linearGradient><linearGradient id="未命名漸層_73-2" x1="-650.56" y1="282.33" x2="-648.19" y2="244.33" gradientTransform="translate(-610.18 616) rotate(180)" xlink:href="#未命名漸層_73"/><linearGradient id="未命名漸層_74" x1="-654.08" y1="512.83" x2="-648.56" y2="250.15" gradientTransform="translate(-610.18 616) rotate(180)" gradientUnits="userSpaceOnUse"><stop offset="0" stop-color="#bcc64d"/><stop offset="1" stop-color="#12843d"/></linearGradient><linearGradient id="未命名漸層_73-3" x1="-810.03" y1="270.68" x2="-807.67" y2="232.68" gradientTransform="translate(-610.18 616) rotate(180)" xlink:href="#未命名漸層_73"/><linearGradient id="未命名漸層_74-2" x1="-813.56" y1="501.18" x2="-808.04" y2="238.5" xlink:href="#未命名漸層_74"/><linearGradient id="未命名漸層_73-4" x1="-1318.12" y1="269.41" x2="-1315.59" y2="228.91" gradientTransform="translate(-610.18 616) rotate(180)" xlink:href="#未命名漸層_73"/><linearGradient id="未命名漸層_74-3" x1="-1321.88" y1="515.14" x2="-1315.99" y2="235.12" xlink:href="#未命名漸層_74"/><linearGradient id="未命名漸層_73-5" x1="504.26" y1="254.28" x2="505.98" y2="226.57" gradientTransform="matrix(1, 0, 0, -1, 0, 616)" xlink:href="#未命名漸層_73"/><linearGradient id="未命名漸層_70-2" x1="480.67" y1="403.47" x2="498.94" y2="295.1" xlink:href="#未命名漸層_70"/><linearGradient id="未命名漸層_73-6" x1="-156.75" y1="259.17" x2="-155.02" y2="231.47" gradientTransform="translate(278.8 616) rotate(180)" xlink:href="#未命名漸層_73"/><linearGradient id="未命名漸層_80" x1="439.09" y1="194.5" x2="432.19" y2="302.46" gradientTransform="matrix(1, 0, 0, -1, 0, 616)" gradientUnits="userSpaceOnUse"><stop offset="0" stop-color="#1b4543"/><stop offset="1" stop-color="#006258"/></linearGradient><linearGradient id="未命名漸層_73-7" x1="-571.95" y1="260.81" x2="-570.22" y2="233.11" gradientTransform="translate(278.8 616) rotate(180)" xlink:href="#未命名漸層_73"/><linearGradient id="未命名漸層_80-2" x1="854.29" y1="196.15" x2="847.39" y2="304.11" xlink:href="#未命名漸層_80"/><linearGradient id="未命名漸層_73-8" x1="554.73" y1="265.07" x2="557.17" y2="225.97" gradientTransform="matrix(1, 0, 0, -1, 0, 616)" xlink:href="#未命名漸層_73"/><linearGradient id="未命名漸層_74-4" x1="551.11" y1="502.26" x2="556.79" y2="231.96" gradientTransform="matrix(1, 0, 0, -1, 0, 616)" xlink:href="#未命名漸層_74"/></defs><g class="cls-1"><g id="圖層_1" data-name="圖層 1"><rect class="cls-2" x="-6.68" y="-1.09" width="924.8" height="616.53"/><path class="cls-3" d="M-6.68,273.51V376h924.8v-67c-31.46-43.05-134.3-176.55-238.7-232.58A85.24,85.24,0,0,0,642,65.84C530.11,61.1,420.76,280.18,286.58,229.65c-46.67-17.57-88.8-24.43-127.12-23C94.26,209,40.09,235.35-6.68,273.51Z"/><path class="cls-4" d="M159.46,206.63c18,8.26,34.58,27.73,62,66.94,42.82,61.27,44.39,9.72,245.26-43.82C666.07,176.6,642.37,67.47,642,65.84,530.11,61.1,420.76,280.18,286.58,229.65,239.91,212.08,197.78,205.22,159.46,206.63Z"/><path class="cls-5" d="M918.12,360.14V388.2L-6.68,387V370.83c71.5-22.59,177.05-7.3,203.79-14.28,31.51-8.22,138.26-37,205.86-6.19s161.47-7.36,264-20.9,130.48,43.29,203.12,31.59A169.45,169.45,0,0,1,918.12,360.14Z"/><rect class="cls-6" x="-6.68" y="375.17" width="924.8" height="240.27"/><path class="cls-7" d="M918.12,473.75v102c-37.49-.37-87.61-4.27-86.69-22.56,1.48-29.17,63.88-26.33,67-42.36s-35.14-19.73-24.66-28.36C880.71,476.69,902.73,474.77,918.12,473.75Z"/><path class="cls-7" d="M858.11,505.81c0,2.19-5.43,4-12.13,4s-12.12-1.77-12.12-4,5.43-4,12.12-4S858.11,503.63,858.11,505.81Z"/><ellipse class="cls-7" cx="836.94" cy="589.72" rx="12.95" ry="3.9"/><path class="cls-7" d="M794.4,548.65c0,1-3.5,1.89-7.81,1.89s-7.81-.85-7.81-1.89,3.5-1.89,7.81-1.89S794.4,547.61,794.4,548.65Z"/><path class="cls-7" d="M-6.68,384.91v74.91c27.53-.28,64.35-3.14,63.67-16.58C55.9,421.82,10.07,423.9,7.81,412.13s25.81-14.49,18.11-20.83C20.8,387.08,4.62,385.67-6.68,384.91Z"/><path class="cls-7" d="M37.4,408.47c0,1.6,4,2.91,8.9,2.91s8.91-1.31,8.91-2.91-4-2.91-8.91-2.91S37.4,406.86,37.4,408.47Z"/><ellipse class="cls-7" cx="52.94" cy="470.09" rx="9.51" ry="2.87"/><path class="cls-7" d="M84.19,439.93c0,.77,2.57,1.39,5.74,1.39s5.73-.62,5.73-1.39-2.57-1.38-5.73-1.38S84.19,439.17,84.19,439.93Z"/><rect class="cls-8" x="133.96" y="341.19" width="7.08" height="43.59"/><path class="cls-9" d="M163.1,352.13H111.91a6.9,6.9,0,0,1-6.56-9l5.79-17.81,13.67-3.42H112.26l11.82-36.31L134.21,283H124.9l6-18.53A6.92,6.92,0,0,1,141.55,261a6.8,6.8,0,0,1,2.5,3.45l9.66,29.72H133l22.58,5.65,14.08,43.24A6.89,6.89,0,0,1,163.1,352.13Z"/><polygon class="cls-10" points="34.18 383.78 44.17 383.78 44.17 322.25 34.18 322.25 34.18 383.78"/><path class="cls-11" d="M3.05,337.69H75.3a9.73,9.73,0,0,0,9.25-12.75L76.38,299.8,57.09,295H74.8L58.12,243.73l-14.3-3.58H57L48.45,214a9.73,9.73,0,0,0-18.52,0L16.28,255.92H45.54l-31.86,8-19.87,61A9.72,9.72,0,0,0,3.05,337.69Z"/><polygon class="cls-12" points="193.66 395.43 203.64 395.43 203.64 333.9 193.66 333.9 193.66 395.43"/><path class="cls-13" d="M162.53,349.34h72.24A9.73,9.73,0,0,0,244,336.59l-8.17-25.13-19.29-4.84h17.71l-16.69-51.24-14.3-3.58h13.15l-8.51-26.14a9.75,9.75,0,0,0-9.26-6.73,9.74,9.74,0,0,0-9.27,6.73l-13.64,41.92H205l-31.86,8-19.87,61A9.72,9.72,0,0,0,162.53,349.34Z"/><polygon class="cls-14" points="701.33 400 711.98 400 711.98 334.41 701.33 334.41 701.33 400"/><path class="cls-15" d="M668.14,350.87h77A10.38,10.38,0,0,0,755,337.28l-8.72-26.8-20.56-5.16h18.88L726.85,250.7l-15.25-3.81h14L716.54,219a10.39,10.39,0,0,0-19.75,0L682.25,263.7h31.19l-34,8.52-21.19,65.06A10.37,10.37,0,0,0,668.14,350.87Z"/><rect class="cls-16" x="501.5" y="353.39" width="7.28" height="44.85"/><path class="cls-17" d="M531.47,364.66H478.79a7.1,7.1,0,0,1-6.75-9.3L478,337l14.07-3.52H479.15l12.16-37.36,10.43-2.62h-9.59l6.2-19.06a7.11,7.11,0,0,1,10.94-3.55,6.88,6.88,0,0,1,2.57,3.55L521.81,305H500.47l23.23,5.83,14.49,44.49A7.07,7.07,0,0,1,531.47,364.66Z"/><polygon class="cls-18" points="431.04 393.35 438.32 393.35 438.32 348.5 431.04 348.5 431.04 393.35"/><path class="cls-19" d="M408.35,359.76H461a7.11,7.11,0,0,0,6.76-9.3l-6-18.33-14.07-3.52h12.91L448.5,291.25l-10.42-2.62h9.58l-6.2-19.06A7.11,7.11,0,0,0,430.52,266a6.94,6.94,0,0,0-2.57,3.55L418,300.14h21.34L416.11,306l-14.49,44.49A7.08,7.08,0,0,0,408.35,359.76Z"/><polygon class="cls-20" points="846.23 391.71 853.51 391.71 853.51 346.85 846.23 346.85 846.23 391.71"/><path class="cls-21" d="M823.54,358.11h52.68a7.1,7.1,0,0,0,6.75-9.3l-6-18.33L863,327h12.91L863.7,289.6,853.27,287h9.59l-6.2-19.07a7.12,7.12,0,0,0-10.94-3.55,6.92,6.92,0,0,0-2.57,3.55L833.2,298.5h21.34l-23.24,5.82-14.48,44.49A7.07,7.07,0,0,0,823.54,358.11Z"/><rect class="cls-22" x="550.83" y="339.17" width="10.28" height="63.31"/><path class="cls-23" d="M593.14,355.06H518.8a10,10,0,0,1-9.53-13.12l8.42-25.86,19.84-5H519.31l17.17-52.73,14.71-3.68H537.67l8.75-26.9a10,10,0,0,1,19.07,0l14,43.13h-30.1l32.78,8.22,20.45,62.8A10,10,0,0,1,593.14,355.06Z"/></g></g></svg>