<svg id="圖層_1" data-name="圖層 1" xmlns="http://www.w3.org/2000/svg" xmlns:xlink="http://www.w3.org/1999/xlink" viewBox="0 0 900 615"><defs><style>.cls-1{fill:none;}.cls-2{clip-path:url(#clip-path);}.cls-3{fill:#c3dddf;}.cls-4{fill:#5f7c5e;}.cls-5{fill:#8ba760;}.cls-6{fill:#a6cb9b;}.cls-7{fill:#506e46;}.cls-8{fill:#649261;}.cls-9{fill:#305542;}.cls-10{fill:#0f4826;}.cls-11{fill:#676086;}</style><clipPath id="clip-path"><rect class="cls-1" width="900" height="615"/></clipPath></defs><g class="cls-2"><rect class="cls-3" width="904.69" height="531.63"/><path class="cls-4" d="M593.68,244.18,578,256.13l-98.68-121.9-.36.6c-9,7.23-287.13,230.09-411.53,328.64q-2.18,22.72-2.21,46H462.41l289.62-85Z"/><polygon class="cls-5" points="752.03 424.5 466.3 432.81 459.32 369.75 449.94 337.75 472.42 292.44 474.31 287.03 472.78 284.14 453.32 247.29 479.51 210.27 461.31 189.59 479.3 134.23 577.98 256.13 593.67 244.19 752.03 424.5"/><polygon class="cls-6" points="593.67 244.19 600.98 301.52 644.14 342.08 632.15 309.08 752.03 424.5 593.67 244.19"/><path class="cls-7" d="M-169.75,615C-165.56,613.87-17,494.13,8.6,476.46c18.32-12.64,38.76-19.24,59.53-19.24h0a100,100,0,0,0,33.86-6l57.88-20.79a100,100,0,0,1,33.86-6H773.8c84.35,0,165.33,42.84,225.52,119.29L1055.39,615H-169.75Z"/><path class="cls-8" d="M658.05,434l-10.16-17.69a5.62,5.62,0,0,0,2.5-7.88l-10.1-17.59a4.42,4.42,0,0,0,2.44-6.4l-9.59-16.69a3.22,3.22,0,0,0,1.93-4.71l-20.42-35.56L594.22,363a3.22,3.22,0,0,0,1.93,4.71l-9.59,16.69a4.42,4.42,0,0,0,2.44,6.4l-10.1,17.59a5.61,5.61,0,0,0,2.51,7.88L571.24,434a6.84,6.84,0,0,0,5.88,10.25h75A6.83,6.83,0,0,0,658.05,434Z"/><path class="cls-9" d="M684.53,443.83,679,434.16a3.06,3.06,0,0,0,1.37-4.3l-5.52-9.61a2.42,2.42,0,0,0,1.34-3.5l-5.24-9.12a1.76,1.76,0,0,0,1.05-2.57l-11.16-19.43-11.16,19.43a1.76,1.76,0,0,0,1.06,2.57l-5.24,9.12a2.42,2.42,0,0,0,1.33,3.5l-5.52,9.61a3.06,3.06,0,0,0,1.37,4.3l-5.55,9.67a3.73,3.73,0,0,0,3.21,5.6h41A3.73,3.73,0,0,0,684.53,443.83Z"/><path class="cls-9" d="M196.67,456.78l-6.2-10.8a3.43,3.43,0,0,0,1.53-4.81l-6.17-10.73a2.69,2.69,0,0,0,1.49-3.9l-5.85-10.19a2,2,0,0,0,1.18-2.87l-12.46-21.7-12.47,21.7a2,2,0,0,0,1.18,2.87l-5.85,10.19a2.69,2.69,0,0,0,1.49,3.9l-6.16,10.73A3.43,3.43,0,0,0,149.9,446l-6.2,10.8a4.17,4.17,0,0,0,3.59,6.25h45.79A4.17,4.17,0,0,0,196.67,456.78Z"/><path class="cls-10" d="M770,444.41l-4.21-7.32a2.33,2.33,0,0,0,1-3.26l-4.18-7.28a1.82,1.82,0,0,0,1-2.64l-4-7a1.29,1.29,0,0,0,.82-1.9L752,400.35l-8.45,14.71a1.29,1.29,0,0,0,.82,1.9l-4,7a1.82,1.82,0,0,0,1,2.64l-4.18,7.28a2.33,2.33,0,0,0,1,3.26l-4.2,7.32a2.82,2.82,0,0,0,2.43,4.23h31A2.82,2.82,0,0,0,770,444.41Z"/><path class="cls-10" d="M91.38,471.35,86,461.91a3,3,0,0,0,1.34-4.2l-5.39-9.39a2.36,2.36,0,0,0,1.3-3.41L78.1,436a1.72,1.72,0,0,0,1-2.51l-10.9-19-10.89,19a1.71,1.71,0,0,0,1,2.51l-5.12,8.9a2.36,2.36,0,0,0,1.31,3.41l-5.39,9.39a3,3,0,0,0,1.33,4.2l-5.42,9.44a3.64,3.64,0,0,0,3.14,5.46h40A3.64,3.64,0,0,0,91.38,471.35Z"/><path class="cls-8" d="M749.82,447.87l-8.15-14.19a4.51,4.51,0,0,0,2-6.32l-8.11-14.11a3.55,3.55,0,0,0,2-5.13l-7.69-13.39a2.59,2.59,0,0,0,1.55-3.78L715,362.42,698.62,391a2.58,2.58,0,0,0,1.55,3.78l-7.69,13.39a3.54,3.54,0,0,0,2,5.13l-8.11,14.11a4.51,4.51,0,0,0,2,6.32l-8.15,14.19a5.48,5.48,0,0,0,4.72,8.22H745.1A5.48,5.48,0,0,0,749.82,447.87Z"/><path class="cls-8" d="M170.72,466.88l-11.93-20.76a6.63,6.63,0,0,0,2.93-9.3l-11.88-20.68a5.19,5.19,0,0,0,2.87-7.51L141.44,389a3.79,3.79,0,0,0,2.27-5.53l-24-41.81-24,41.81A3.79,3.79,0,0,0,98,389L86.68,408.63a5.19,5.19,0,0,0,2.87,7.51L77.68,436.82a6.63,6.63,0,0,0,2.92,9.3L68.67,466.88a8,8,0,0,0,6.92,12h88.22A8,8,0,0,0,170.72,466.88Z"/><path class="cls-11" d="M272.06,185.66c-1,.76-2,1.57-3,2.4s-1.94,1.66-2.86,2.55a27.26,27.26,0,0,0-2.6,2.78,10.27,10.27,0,0,0-1.87,3.22l-.14.44-.28-.35a26.07,26.07,0,0,0-4.38-4.34,11.19,11.19,0,0,0-2.64-1.56,4.74,4.74,0,0,0-3-.3,4.82,4.82,0,0,1,3.09.1,10.44,10.44,0,0,1,2.78,1.47,23.63,23.63,0,0,1,4.55,4.33l-.42.08a9.7,9.7,0,0,1,2-3.38,25.24,25.24,0,0,1,2.68-2.79A46.73,46.73,0,0,1,272.06,185.66Z"/><path class="cls-11" d="M195.49,238.25a17.11,17.11,0,0,0-2.17,2.17,7.91,7.91,0,0,0-1.48,2.59l-.1.32-.27-.19a15,15,0,0,0-2.84-1.55,5.48,5.48,0,0,0-3.17-.41,4.9,4.9,0,0,1,3.29.09,11,11,0,0,1,3,1.48l-.38.13a6.89,6.89,0,0,1,1.63-2.73A9.74,9.74,0,0,1,195.49,238.25Z"/><path class="cls-11" d="M236.32,233.18a17.18,17.18,0,0,0-2.17,2.18,8,8,0,0,0-1.47,2.59l-.1.32-.28-.19a15.25,15.25,0,0,0-2.83-1.55,5.5,5.5,0,0,0-3.18-.41,5,5,0,0,1,3.29.08,11.87,11.87,0,0,1,3,1.48l-.38.13a6.81,6.81,0,0,1,1.63-2.72A10.15,10.15,0,0,1,236.32,233.18Z"/></g></svg>